<svg width="250" height="120" viewBox="0 0 250 120" fill="none" xmlns="http://www.w3.org/2000/svg">
<rect width="250" height="120" fill="white"/>
<path d="M41.1305 56.8596C41.1305 59.2906 40.8488 61.3664 40.2855 63.0993C39.7221 64.8323 38.9751 66.2835 38.0443 67.4531C37.1136 68.6226 36.0603 69.5534 34.8908 70.2515C33.7212 70.9495 32.5149 71.4823 31.2718 71.8497C30.0288 72.2232 28.8041 72.4559 27.61 72.56C26.4099 72.6641 25.3383 72.7131 24.3891 72.7131H0.709961V41H24.383C25.3321 41 26.4037 41.049 27.6039 41.1531C28.8041 41.2572 30.0227 41.496 31.2657 41.8634C32.5088 42.2369 33.7151 42.7697 34.8846 43.4616C36.0542 44.1597 37.1074 45.0904 38.0382 46.26C38.9689 47.4296 39.716 48.8808 40.2794 50.6137C40.8427 52.3467 41.1244 54.4286 41.1244 56.8535L41.1305 56.8596ZM26.6915 64.7649C27.8182 64.7649 28.7367 64.5445 29.4471 64.0975C30.1574 63.6504 30.7207 63.0626 31.1371 62.3217C31.5535 61.5807 31.8413 60.7357 32.0005 59.7927C32.1658 58.8436 32.2455 57.87 32.2455 56.8596C32.2455 55.8492 32.1658 54.8756 32.0005 53.9265C31.8352 52.9774 31.5474 52.1446 31.1371 51.4159C30.7207 50.6933 30.1574 50.1055 29.4471 49.6585C28.7367 49.2115 27.8182 48.991 26.6915 48.991H9.148V64.7588H26.6915V64.7649Z" fill="black"/>
<path d="M83.9928 56.8596C83.9928 59.2906 83.7111 61.3664 83.1478 63.0993C82.5844 64.8323 81.8373 66.2835 80.9066 67.4531C79.9758 68.6226 78.9226 69.5534 77.753 70.2515C76.5835 70.9495 75.3772 71.4823 74.1341 71.8497C72.8911 72.2232 71.6664 72.4559 70.4723 72.56C69.2721 72.6641 68.2005 72.7131 67.2514 72.7131H43.5784V41H67.2514C68.2005 41 69.2721 41.049 70.4723 41.1531C71.6725 41.2572 72.8911 41.496 74.1341 41.8634C75.3772 42.2369 76.5835 42.7697 77.753 43.4616C78.9226 44.1597 79.9758 45.0904 80.9066 46.26C81.8373 47.4296 82.5844 48.8808 83.1478 50.6137C83.7111 52.3467 83.9928 54.4286 83.9928 56.8535V56.8596ZM69.5538 64.7649C70.6805 64.7649 71.599 64.5445 72.3093 64.0975C73.0197 63.6504 73.583 63.0626 73.9994 62.3217C74.4158 61.5807 74.7036 60.7357 74.8628 59.7927C75.0281 58.8436 75.1077 57.87 75.1077 56.8596C75.1077 55.8492 75.0281 54.8756 74.8628 53.9265C74.6975 52.9774 74.4097 52.1446 73.9994 51.4159C73.583 50.6933 73.0197 50.1055 72.3093 49.6585C71.599 49.2115 70.6805 48.991 69.5538 48.991H52.0103V64.7588H69.5538V64.7649Z" fill="black"/>
<path d="M147.213 41H155.608V72.7131H143.171L123.625 50.1055V72.7131H115.23V41H127.667L147.213 63.6076V41Z" fill="black"/>
<path d="M196.027 41L179.904 61.1643V72.7131H171.509V61.1643L155.38 41H166.175L175.679 53.9694L185.231 41H196.027Z" fill="black"/>
<path d="M207.575 48.9964C206.448 48.9964 205.529 49.2168 204.819 49.6638C204.109 50.1108 203.546 50.6925 203.129 51.4212C202.713 52.1499 202.425 52.9827 202.266 53.9318C202.1 54.8809 202.021 55.8546 202.021 56.8649C202.021 57.8753 202.1 58.8489 202.266 59.798C202.431 60.7472 202.719 61.5922 203.129 62.327C203.546 63.0679 204.109 63.6619 204.819 64.1028C205.529 64.5437 206.448 64.7702 207.575 64.7702H219.123C220.813 64.7702 222.038 64.3538 222.81 63.5272C223.581 62.7005 224.126 61.4391 224.451 59.749H233.379C233.14 61.733 232.693 63.4292 232.025 64.8376C231.358 66.246 230.562 67.4278 229.625 68.3892C228.694 69.3505 227.672 70.116 226.557 70.6793C225.449 71.2427 224.316 71.6774 223.159 71.9897C222.001 72.302 220.881 72.498 219.785 72.5898C218.689 72.6755 217.697 72.7245 216.809 72.7245H209.877C208.928 72.7245 207.856 72.6755 206.656 72.5714C205.456 72.4673 204.237 72.2285 202.994 71.8611C201.751 71.4937 200.545 70.961 199.375 70.2629C198.206 69.5649 197.153 68.6341 196.222 67.4645C195.291 66.295 194.538 64.8437 193.981 63.1108C193.417 61.3779 193.136 59.2959 193.136 56.8711C193.136 54.4462 193.417 52.3642 193.981 50.6313C194.544 48.8984 195.291 47.4471 196.222 46.2776C197.153 45.108 198.206 44.1773 199.375 43.4792C200.545 42.7811 201.751 42.2484 202.994 41.881C204.237 41.5136 205.462 41.2748 206.656 41.1707C207.856 41.0666 208.928 41.0176 209.877 41.0176H216.809C217.697 41.0176 218.689 41.0604 219.785 41.1523C220.881 41.2441 222.008 41.4401 223.159 41.7524C224.316 42.0647 225.449 42.4994 226.557 43.0628C227.666 43.6261 228.688 44.3916 229.625 45.3529C230.562 46.3143 231.358 47.5023 232.025 48.9045C232.693 50.3068 233.14 52.0091 233.379 53.9931H224.451C224.243 52.4561 223.722 51.2375 222.895 50.3496C222.069 49.4617 220.807 49.0147 219.117 49.0147H207.569L207.575 48.9964Z" fill="black"/>
<path d="M92.7231 72.6774L99.0144 78.9688L112.121 65.8622L105.83 59.5708L92.7231 72.6774Z" fill="#227bf3"/>
<path d="M92.116 59.6559L85.8247 65.9473L98.9313 79.0539L105.223 72.7625L92.116 59.6559Z" fill="#227bf3"/>
<g clip-path="url(#clip0_396_914)">
<path d="M245.164 50.6946C244.492 50.6946 243.858 50.5679 243.27 50.3182C242.683 50.0685 242.168 49.719 241.722 49.2773C241.277 48.8317 240.931 48.3171 240.682 47.7294C240.432 47.1417 240.305 46.5118 240.305 45.8358C240.305 45.1598 240.432 44.5414 240.682 43.9614C240.931 43.3776 241.281 42.8629 241.722 42.4173C242.164 41.9718 242.683 41.6261 243.27 41.3764C243.858 41.1268 244.488 41 245.164 41C245.84 41 246.458 41.1268 247.038 41.3764C247.618 41.6261 248.137 41.9756 248.582 42.4173C249.028 42.8629 249.374 43.3776 249.623 43.9614C249.873 44.5452 250 45.1713 250 45.8358C250 46.5003 249.873 47.1417 249.623 47.7294C249.374 48.3171 249.024 48.8317 248.582 49.2773C248.137 49.7228 247.622 50.0685 247.038 50.3182C246.455 50.5679 245.828 50.6946 245.164 50.6946ZM245.164 49.8189C245.894 49.8189 246.558 49.6383 247.161 49.2811C247.761 48.9239 248.241 48.4438 248.594 47.8408C248.947 47.2416 249.124 46.5694 249.124 45.8358C249.124 45.1022 248.947 44.4415 248.594 43.8462C248.241 43.247 247.761 42.7707 247.161 42.4135C246.562 42.0563 245.894 41.8757 245.164 41.8757C244.434 41.8757 243.758 42.0563 243.159 42.4135C242.56 42.7707 242.08 43.2508 241.719 43.8462C241.361 44.4454 241.181 45.106 241.181 45.8358C241.181 46.5656 241.361 47.2416 241.719 47.8408C242.076 48.4438 242.556 48.9201 243.159 49.2811C243.758 49.6383 244.43 49.8189 245.164 49.8189ZM243.474 48.1941V43.3968H245.602C246.013 43.3968 246.374 43.5504 246.693 43.8538C247.008 44.1611 247.165 44.5222 247.165 44.937C247.165 45.2097 247.084 45.4786 246.919 45.7436C246.754 46.0125 246.531 46.2084 246.247 46.3313L247.165 48.1865H246.309L245.475 46.4772H244.223V48.1865H243.474V48.1941ZM244.223 45.7743H245.579C245.786 45.7743 245.974 45.6937 246.143 45.5285C246.309 45.3672 246.393 45.1675 246.393 44.9408C246.393 44.6912 246.301 44.4876 246.12 44.3378C245.94 44.188 245.759 44.1073 245.579 44.1073H244.223V45.7743Z" fill="black"/>
</g>
<defs>
<clipPath id="clip0_396_914">
<rect width="9.69461" height="9.69461" fill="white" transform="translate(240.305 41)"/>
</clipPath>
</defs>
</svg>
