<svg width="184" height="123" viewBox="0 0 184 123" fill="none" xmlns="http://www.w3.org/2000/svg">
<g clip-path="url(#clip0_10403_38504)">
<g clip-path="url(#clip1_10403_38504)">
<path d="M123.203 56.9307C123.203 56.4141 123.211 56.0125 123.2 55.6133C123.191 55.2845 123.32 55.1553 123.639 55.1624C124.328 55.1788 125.018 55.1788 125.709 55.1624C126.032 55.1553 126.177 55.254 126.174 55.6297C126.166 61.2964 126.166 66.9631 126.174 72.6298C126.174 72.968 126.054 73.0972 125.747 73.0948C125.056 73.0901 124.368 73.0807 123.676 73.0995C123.32 73.1088 123.191 72.9657 123.193 72.5875C123.206 71.054 123.2 69.5206 123.196 67.987C123.196 67.8038 123.176 67.6207 123.16 67.3788C122.819 67.6981 122.553 67.9776 122.26 68.2195C121.346 68.9663 120.288 69.2551 119.145 69.3091C117.438 69.3866 115.914 68.8935 114.61 67.724C113.427 66.6625 112.72 65.3121 112.46 63.6895C112.17 61.8929 112.302 60.1668 113.102 58.5276C113.903 56.8861 115.143 55.7776 116.806 55.2211C118.706 54.5847 120.52 54.7749 122.182 55.9913C122.52 56.2309 122.801 56.5526 123.203 56.9307ZM123.144 62.1042C123.169 60.8761 122.779 59.7934 121.898 58.9339C120.277 57.3534 117.166 57.6047 115.991 59.7159C115.601 60.4158 115.413 61.1461 115.376 61.9516C115.288 63.9242 116.148 65.6222 118.135 66.1952C120.63 66.9115 123.251 65.0797 123.144 62.1042Z" fill="#3D3D3D"/>
<path d="M53.9425 67.3499C53.9336 67.5331 53.9202 67.7021 53.9202 67.8712C53.918 69.4212 53.9046 70.9735 53.9291 72.5234C53.9358 72.9767 53.791 73.12 53.3743 73.1012C52.7303 73.0729 52.0863 73.0824 51.4424 73.0988C51.1193 73.1058 50.9834 73.0119 50.9834 72.6362C50.9946 66.9671 50.9924 61.298 50.9834 55.629C50.9834 55.2673 51.0904 55.1476 51.4313 55.1593C52.1065 55.1828 52.7815 55.1875 53.4545 55.157C53.8333 55.1405 53.9381 55.3049 53.9224 55.6689C53.9046 56.0822 53.918 56.4956 53.918 56.9746C54.3435 56.5824 54.68 56.2184 55.0655 55.9272C56.2375 55.0442 57.5677 54.7507 58.9804 54.9057C60.538 55.0748 61.9038 55.7323 62.9801 56.9418C64.1142 58.2193 64.7203 59.7551 64.8072 61.5118C64.8874 63.104 64.6646 64.6187 63.8848 66.016C62.9778 67.6434 61.6454 68.6884 59.9186 69.1183C58.2942 69.5221 56.6944 69.4165 55.2348 68.456C54.7914 68.1648 54.4127 67.7585 53.9425 67.3499ZM53.9804 62.1458C53.9626 64.5647 55.6314 66.3495 57.9711 66.3353C60.1169 66.3237 61.8147 64.7079 61.8214 62.2116C61.828 59.7528 60.2705 58.0338 58.1204 57.921C55.7406 57.7966 53.9491 59.7129 53.9804 62.1458Z" fill="#3D3D3D"/>
<path d="M157.803 68.9915C156.858 68.9915 155.929 68.9915 154.946 68.9915C154.946 68.4184 154.946 67.8642 154.946 67.1644C154.327 68.0004 153.643 68.5124 152.839 68.8412C150.786 69.6795 148.799 69.4564 146.958 68.247C144.875 66.8779 143.93 64.7948 143.884 62.2374C143.837 59.6401 144.73 57.503 146.805 56.0447C149.055 54.4642 152.13 54.375 154.332 56.2866C154.527 56.458 154.677 56.6881 154.928 56.9864C154.928 56.458 154.945 56.0188 154.925 55.582C154.908 55.265 155.015 55.1546 155.316 55.1617C156.036 55.1781 156.758 55.1711 157.48 55.164C157.714 55.1617 157.849 55.2133 157.848 55.5092C157.836 59.9666 157.834 64.4261 157.828 68.8834C157.832 68.8999 157.823 68.9163 157.803 68.9915ZM146.916 61.9814C146.893 64.4332 148.553 66.3354 150.849 66.3142C153.13 66.2931 154.83 64.776 154.91 62.1129C154.982 59.8115 153.244 58.0291 151.092 57.9234C148.596 57.8013 146.885 59.7434 146.916 61.9814Z" fill="#3D3D3D"/>
<path d="M99.3389 64.9358C100.205 64.5318 101.035 64.1327 101.877 63.771C101.95 63.7381 102.189 63.9284 102.238 64.0599C102.568 64.9827 103.134 65.6497 104.061 65.8634C104.889 66.0536 105.736 66.0912 106.516 65.6309C107.652 64.9593 107.679 63.245 106.521 62.5804C105.832 62.1834 105.068 61.9275 104.319 61.6621C103.158 61.2511 102.006 60.8355 101.055 59.9806C99.8117 58.8605 99.4104 57.4045 99.5372 55.7371C99.6306 54.5159 100.065 53.4732 100.921 52.6255C101.635 51.9209 102.496 51.5358 103.426 51.3056C104.919 50.9393 106.382 51.0896 107.775 51.7354C109.155 52.3742 110.017 53.5343 110.493 55.0208C110.578 55.2838 110.578 55.5046 110.25 55.6338C109.525 55.9203 108.812 56.2443 108.096 56.5614C107.784 56.6999 107.71 56.4416 107.646 56.2467C107.359 55.3942 106.815 54.8071 105.997 54.577C105.126 54.3327 104.234 54.3022 103.416 54.8048C102.385 55.4365 102.303 57.0358 103.339 57.651C104.216 58.17 105.197 58.5082 106.151 58.8769C107.129 59.2526 108.094 59.6425 108.909 60.347C110.063 61.3427 110.503 62.6696 110.471 64.1937C110.431 66.1287 109.69 67.6646 108.012 68.5546C106.772 69.2122 105.444 69.4307 104.048 69.2076C103.111 69.0572 102.236 68.7872 101.445 68.2306C100.465 67.5425 99.8318 66.5867 99.4752 65.4149C99.439 65.2716 99.3989 65.1354 99.3389 64.9358Z" fill="#3D3D3D"/>
<path d="M183.971 63.3178C183.708 63.3178 183.511 63.3178 183.313 63.3178C180.26 63.3178 177.211 63.3225 174.158 63.3131C173.61 63.3108 173.565 63.353 173.717 63.9214C174.253 65.9362 176.383 66.8075 178.099 66.5891C179.237 66.4435 180.212 65.9856 180.9 64.9687C180.962 64.8748 181.092 64.7762 181.192 64.7762C181.987 64.7667 182.785 64.7808 183.581 64.7903C183.618 64.7903 183.654 64.8395 183.725 64.8912C183.083 66.7277 182.017 68.1814 180.225 68.8295C177.691 69.743 175.25 69.5317 173.07 67.7469C171.907 66.7958 171.201 65.5018 170.875 64.0012C170.537 62.4348 170.568 60.8708 171.102 59.3467C171.854 57.2025 173.29 55.8053 175.361 55.1853C177.462 54.5582 179.479 54.7978 181.319 56.1176C182.529 56.9841 183.275 58.2053 183.71 59.6614C184.055 60.8355 184.015 62.0356 183.971 63.3178ZM181.083 60.8402C181.052 60.1968 180.833 59.6684 180.528 59.1916C179.852 58.1325 178.857 57.6887 177.681 57.6159C175.998 57.5102 174.225 58.3556 173.73 60.2625C173.574 60.8638 173.56 60.8825 174.158 60.8825C176.29 60.8849 178.42 60.8849 180.552 60.8825C180.715 60.8825 180.878 60.8566 181.083 60.8402Z" fill="#3D3D3D"/>
<path d="M80.1808 63.1958C76.7048 63.1958 73.2778 63.1958 69.8175 63.1958C70.0023 64.5109 70.6307 65.4455 71.6691 66.0702C73.1352 66.9531 75.2453 66.7583 76.5533 65.6428C76.6358 65.5723 76.736 65.5019 76.7828 65.4079C77.0836 64.7997 77.576 64.6916 78.1687 64.748C78.6255 64.7903 79.089 64.7574 79.548 64.7574C79.8488 64.7574 79.9758 64.8514 79.8377 65.1966C78.9954 67.3149 77.5871 68.7309 75.3879 69.1302C74.7307 69.2499 74.051 69.3039 73.3848 69.2946C70.2252 69.2405 67.7341 67.1011 67.0612 63.858C66.5487 61.3875 66.9587 59.0837 68.5831 57.1228C69.3562 56.1928 70.3344 55.5752 71.453 55.2253C73.5185 54.5795 75.5127 54.7391 77.3488 55.9791C79.1491 57.1956 80.027 59.0085 80.1741 61.2278C80.2164 61.8666 80.1808 62.5076 80.1808 63.1958ZM77.2395 60.9202C77.2685 59.342 75.9183 57.6042 73.67 57.5995C71.3237 57.5948 69.9467 59.2763 69.8798 60.9202C72.3242 60.9202 74.7663 60.9202 77.2395 60.9202Z" fill="#3D3D3D"/>
<path d="M7.72969 54.4555C7.54474 54.4437 7.36649 54.4226 7.18601 54.4226C6.05186 54.4203 4.91548 54.4085 3.78132 54.4273C3.37134 54.4343 3.19531 54.3005 3.20867 53.8472C3.23319 53.1052 3.22427 52.3607 3.21091 51.6186C3.20422 51.2617 3.29112 51.109 3.6766 51.1114C5.94491 51.1301 8.21544 51.1278 10.4837 51.1137C10.8246 51.1114 10.9316 51.2217 10.9316 51.5834C10.9204 55.4747 10.9606 59.366 10.9093 63.2573C10.8848 65.035 10.437 66.6977 9.09335 67.9423C8.4338 68.5529 7.66062 68.9123 6.81612 69.1143C5.526 69.4242 4.27598 69.3021 3.04602 68.776C1.74475 68.2219 0.918089 67.2002 0.396692 65.8711C-0.0222098 64.8026 -0.0400354 63.6777 0.0334951 62.5035C0.938144 62.5035 1.83388 62.5035 2.72515 62.5035C2.83434 63.0624 2.89004 63.612 3.05493 64.1238C3.50057 65.5047 4.38071 66.1388 5.9917 65.9368C6.96987 65.8148 7.74528 64.7861 7.75197 63.5485C7.7698 60.6107 7.76088 57.6705 7.76311 54.7326C7.76311 54.6575 7.74529 54.58 7.72969 54.4555Z" fill="#3D3D3D"/>
<path d="M138.352 69.0169C138.352 68.4651 138.352 68.0048 138.352 67.4059C137.554 68.9535 136.318 69.2964 134.894 69.3128C133.695 69.3246 132.556 69.1884 131.522 68.4674C130.37 67.6619 129.814 66.483 129.557 65.1186C129.454 64.5714 129.434 63.9983 129.432 63.4371C129.419 60.8704 129.434 58.3012 129.419 55.7344C129.417 55.2929 129.535 55.1355 129.962 55.159C130.604 55.1942 131.25 55.1872 131.895 55.1613C132.26 55.1473 132.36 55.2788 132.358 55.6592C132.342 58.179 132.318 60.6989 132.365 63.2164C132.387 64.4 132.737 65.492 133.882 66.0274C135.273 66.6779 136.581 66.2834 137.409 64.8837C138.111 63.6978 138.312 62.3545 138.352 60.9995C138.404 59.2406 138.383 57.4792 138.354 55.7179C138.347 55.2506 138.499 55.1426 138.902 55.1613C139.547 55.1895 140.19 55.1825 140.835 55.1637C141.166 55.1543 141.295 55.2576 141.295 55.6263C141.286 59.9544 141.291 64.2826 141.278 68.6106C141.278 68.7469 141.12 68.9981 141.03 69.0029C140.163 69.0287 139.292 69.0169 138.352 69.0169Z" fill="#3D3D3D"/>
<path d="M23.1129 67.6253C22.7318 68.3627 22.1614 68.8817 21.4149 69.0673C19.6413 69.5111 17.8944 69.5299 16.3057 68.3933C15.2606 67.6465 14.7014 66.538 14.4875 65.2699C14.3471 64.4362 14.3293 63.5743 14.3203 62.7266C14.3003 60.4322 14.3115 58.1401 14.3137 55.8457C14.3137 55.1694 14.316 55.1694 14.9755 55.1694C15.5437 55.1694 16.1141 55.2046 16.6778 55.1577C17.1658 55.1177 17.2661 55.3244 17.2616 55.7941C17.2437 58.3139 17.1881 60.8362 17.2705 63.3536C17.3462 65.648 18.8837 66.7142 20.8535 66.1881C21.6378 65.9791 22.1191 65.2699 22.4867 64.5184C23.0594 63.3442 23.2132 62.062 23.251 60.7774C23.3 59.0842 23.2599 57.3863 23.2377 55.6908C23.2332 55.2962 23.3402 55.1436 23.7301 55.16C24.3896 55.1882 25.0492 55.1859 25.7087 55.16C26.0719 55.1459 26.1922 55.2774 26.1878 55.6579C26.1721 56.9166 26.1811 58.1777 26.1811 59.4388C26.1811 62.4424 26.1744 65.4484 26.1878 68.452C26.19 68.8817 26.0941 69.0603 25.653 69.032C25.0113 68.9945 24.3651 68.9991 23.7211 69.0297C23.3268 69.0485 23.202 68.8935 23.2377 68.5013C23.2622 68.2336 23.2421 67.9588 23.2421 67.6888C23.1997 67.6676 23.1574 67.6465 23.1129 67.6253Z" fill="#3D3D3D"/>
<path d="M32.4823 69.0176C31.5532 69.0176 30.6842 69.0246 29.813 69.0058C29.7283 69.0035 29.6192 68.8509 29.5701 68.7428C29.53 68.6489 29.5589 68.5197 29.5589 68.407C29.5589 64.208 29.5589 60.0115 29.5589 55.8125C29.5589 55.1691 29.5612 55.1667 30.1584 55.1667C30.8179 55.1667 31.4775 55.1738 32.137 55.1644C32.391 55.1597 32.4958 55.2536 32.4846 55.5307C32.469 55.9816 32.4801 56.4325 32.4801 57.0102C32.7252 56.7049 32.8812 56.4583 33.084 56.2681C34.3117 55.1127 35.7533 54.6994 37.3755 54.9389C40.0092 55.3287 41.3194 57.4564 41.3996 59.9974C41.4865 62.8201 41.4508 65.6453 41.4843 68.4704C41.4887 68.8814 41.3862 69.0528 40.9673 69.0317C40.31 68.9988 39.6482 69.0035 38.991 69.0294C38.6032 69.0434 38.4984 68.8908 38.5007 68.4963C38.5119 65.9459 38.5654 63.3908 38.4784 60.8428C38.4049 58.6658 37.0367 57.6255 34.9935 58.0177C33.3313 58.3371 32.5024 59.6498 32.4846 61.3782C32.4601 63.7525 32.4779 66.1244 32.4779 68.4986C32.4823 68.6419 32.4823 68.7875 32.4823 69.0176Z" fill="#3D3D3D"/>
<path d="M91.3299 58.2597C90.3785 57.8793 89.534 57.6632 88.6048 57.9192C87.6177 58.1892 87.0361 58.8844 86.6262 59.7768C86.0134 61.1153 85.9198 62.5643 85.9109 64.0203C85.902 65.4904 85.8953 66.9582 85.9176 68.4283C85.9242 68.8956 85.7772 69.053 85.336 69.0294C84.6788 68.9966 84.0169 69.0083 83.3596 69.0248C83.0388 69.0319 82.9385 68.905 82.9385 68.5716C82.9474 64.2599 82.9474 59.9482 82.9385 55.6389C82.9385 55.2819 83.0544 55.1528 83.393 55.1621C84.0816 55.1809 84.7723 55.1809 85.463 55.1621C85.8151 55.1528 85.9243 55.3195 85.9132 55.6553C85.902 55.9724 85.9109 56.2917 85.9109 56.752C86.1716 56.3857 86.3253 56.1203 86.5237 55.8972C87.0985 55.2561 87.8583 55.0142 88.6583 54.9132C89.5473 54.8005 90.4297 54.8733 91.292 55.1481C91.6619 55.2655 91.8557 55.4698 91.7644 55.916C91.6039 56.6816 91.4769 57.4519 91.3299 58.2597Z" fill="#3D3D3D"/>
<path d="M164.127 56.6013C165.208 54.8682 166.806 54.7719 168.479 54.9363C168.914 54.9785 169.339 55.1453 169.758 55.2838C169.86 55.319 170.014 55.4858 170.001 55.568C169.862 56.4228 169.697 57.2706 169.535 58.1207C169.531 58.1465 169.492 58.1653 169.471 58.1865C168.969 58.0596 168.474 57.8647 167.969 57.8154C166.188 57.6416 165.021 58.75 164.578 60.5208C164.315 61.5658 164.195 62.6696 164.147 63.7521C164.076 65.3327 164.118 66.9178 164.136 68.5007C164.14 68.8998 164.023 69.0431 163.64 69.029C162.98 69.0032 162.32 69.0032 161.661 69.029C161.277 69.0431 161.149 68.8975 161.152 68.4983C161.166 66.7534 161.157 65.0085 161.157 63.2637C161.157 60.7768 161.155 58.2874 161.157 55.8005C161.157 55.1805 161.172 55.1664 161.745 55.1664C162.405 55.1641 163.065 55.1758 163.724 55.1641C164.02 55.1594 164.143 55.2838 164.13 55.5938C164.116 55.9296 164.127 56.2655 164.127 56.6013Z" fill="#3D3D3D"/>
<path d="M44.8082 62.0667C44.8082 59.9696 44.8239 57.8701 44.7971 55.773C44.7904 55.2728 44.9397 55.1248 45.3987 55.1577C45.978 55.1976 46.5641 55.1906 47.1456 55.16C47.5868 55.1365 47.7317 55.3009 47.7294 55.7659C47.7138 58.2834 47.7227 60.8009 47.7227 63.3184C47.7227 65.028 47.7115 66.7401 47.7294 68.4497C47.7338 68.8912 47.6069 69.0531 47.1768 69.0297C46.5351 68.9968 45.8889 69.0039 45.2472 69.0273C44.9019 69.0391 44.7993 68.91 44.8016 68.5529C44.8149 66.3925 44.8082 64.2296 44.8082 62.0667Z" fill="#3D3D3D"/>
<path d="M44.406 50.9424C44.4082 49.8386 45.1792 48.9838 46.2042 49.0002C47.4476 49.019 48.0536 49.848 48.0848 50.9306C48.1138 51.9827 47.3339 52.8634 46.2087 52.8798C45.2149 52.8962 44.2679 51.877 44.406 50.9424Z" fill="#3D3D3D"/>
</g>
</g>
<defs>
<clipPath id="clip0_10403_38504">
<rect width="183.998" height="122.665" fill="white"/>
</clipPath>
<clipPath id="clip1_10403_38504">
<rect width="184" height="24.1038" fill="white" transform="translate(0 49)"/>
</clipPath>
</defs>
</svg>
