<svg width="53" height="88" viewBox="0 0 53 88" fill="none" xmlns="http://www.w3.org/2000/svg">
<g clip-path="url(#clip0_1826_2212)">
<path d="M0 0H53V88L26.5 73L0 88V0Z" fill="#FF5824"/>
<path d="M33.5333 38L29.796 52.4733L26.268 38H21.4533L17.924 52.4733L14.1893 38H9L15.6827 59.0827H20.2493L23.86 45.4453L27.472 59.0827H32.0387L38.72 38H33.5307H33.5333ZM38.0267 55.82C38.0267 57.828 39.52 59.3333 41.5133 59.3333C43.5053 59.3333 45 57.8267 45 55.82C45 53.812 43.5067 52.3053 41.5133 52.3053C39.52 52.3053 38.0267 53.812 38.0267 55.82Z" fill="white"/>
</g>
<defs>
<clipPath id="clip0_1826_2212">
<rect width="53" height="88" fill="white"/>
</clipPath>
</defs>
</svg>
