<svg width="53" height="88" viewBox="0 0 53 88" fill="none" xmlns="http://www.w3.org/2000/svg">
<g clip-path="url(#clip0_1821_4660)">
<path d="M0 0H53V88L26.5 73L0 88V44V0Z" fill="black"/>
<path d="M35.7867 50.8613C35.7867 49.9807 34.3953 49.2189 32.2376 48.7257C31.0443 48.4263 29.9875 48.2854 29.9875 48.2854C29.9875 48.2854 35.4389 47.5544 35.4389 45.4981C35.4389 43.6663 29.4855 43.1996 29.4855 43.1996C29.4855 43.1996 35.364 42.2264 35.364 40.5267C35.364 39.2057 29.1025 38.1886 29.1025 38.1886C29.1025 38.1886 35.2187 37.3123 35.2187 35.4937C35.2187 33.9261 29.5516 33.0983 29.5516 33.0983C29.5516 33.0983 35.0557 32.5215 35.0557 30.5267C35.0557 28.99 29.2566 28.0125 29.2566 28.0125C29.2566 28.0125 34.9809 27.3079 34.9809 25.5554C35.0029 23.2525 27.4072 22.7241 27.4072 22.7241L26.2227 24.1904C26.2227 24.1904 31.423 24.6659 31.423 25.4806C31.423 26.2951 18.737 27.1274 18.6445 27.1274C18.4464 27.2375 18.1514 28.5673 18.4992 28.8227C18.7414 28.9988 31.2689 29.4611 31.2689 30.5047C31.2689 31.5483 19.7938 32.2661 18.4992 32.3497C18.3476 32.4264 18.2181 32.5404 18.1228 32.6811C18.0275 32.8217 17.9696 32.9843 17.9546 33.1536C17.9396 33.3228 17.968 33.4931 18.0371 33.6483C18.1062 33.8035 18.2137 33.9385 18.3495 34.0406C19.0012 34.5162 31.3569 34.5646 31.3569 35.5906C31.3569 36.6166 19.0849 37.3167 18.5873 37.3519C18.4417 37.4309 18.318 37.5448 18.2274 37.6835C18.1368 37.8221 18.082 37.9811 18.068 38.1461C18.0541 38.3112 18.0813 38.4771 18.1474 38.629C18.2134 38.7809 18.3162 38.914 18.4464 39.0164C18.6886 39.1969 31.2513 39.6064 31.2513 40.65C31.2513 41.6936 19.3447 42.539 18.7018 42.5875C18.5457 42.6631 18.412 42.778 18.3138 42.9209C18.2156 43.0638 18.1562 43.2298 18.1416 43.4025C18.1269 43.5753 18.1574 43.749 18.2302 43.9064C18.3029 44.0638 18.4154 44.1996 18.5565 44.3004C18.7987 44.4809 31.2513 44.4985 31.2513 45.5465C31.2513 46.5945 19.719 47.5016 18.7722 47.5544C18.6231 47.6672 18.4984 47.809 18.4058 47.9715C18.3132 48.1339 18.2546 48.3134 18.2336 48.4992C18.2126 48.685 18.2296 48.8731 18.2836 49.052C18.3376 49.231 18.4274 49.3972 18.5477 49.5403C17.8299 49.9278 17.416 50.3682 17.416 50.8437V58.3911H17.4689C17.9664 59.7473 21.8722 60.804 26.6014 60.804C31.3306 60.804 35.2407 59.7515 35.7383 58.3911H35.7955V50.8613H35.7867Z" fill="white"/>
</g>
<defs>
<clipPath id="clip0_1821_4660">
<rect width="53" height="88" fill="white"/>
</clipPath>
</defs>
</svg>
