<svg width="53" height="88" viewBox="0 0 53 88" fill="none" xmlns="http://www.w3.org/2000/svg">
<g clip-path="url(#clip0_1820_4644)">
<path d="M0 0H53V88L26.5 73L0 88V44V0Z" fill="#2355F5"/>
<path d="M21.5259 41.8124C22.2284 41.7994 22.9299 41.8713 23.6151 42.0265C24.192 42.1522 24.7398 42.3861 25.2293 42.7157C25.6813 43.0436 26.039 43.4843 26.2664 43.9937C26.5277 44.6201 26.6538 45.2944 26.6364 45.9727C26.6661 46.7174 26.4755 47.4545 26.0883 48.0919C25.6811 48.6939 25.1181 49.1747 24.4592 49.4833C25.3534 49.7238 26.1323 50.2749 26.6557 51.0373C27.1582 51.8452 27.4108 52.783 27.3818 53.7334C27.3984 54.4912 27.2414 55.2427 26.9228 55.9308C26.6283 56.531 26.197 57.054 25.6636 57.4581C25.1145 57.8577 24.4965 58.1534 23.8404 58.3304C23.1599 58.5182 22.457 58.6126 21.7511 58.6108H14V41.8124H21.5259ZM21.0786 48.6067C21.6306 48.6294 22.174 48.4645 22.6198 48.139C22.8334 47.9493 22.9995 47.7124 23.1049 47.4472C23.2103 47.182 23.2521 46.8958 23.2269 46.6116C23.2412 46.2797 23.1749 45.9493 23.0338 45.6484C22.9141 45.4088 22.728 45.2086 22.4976 45.0715C22.2642 44.9206 22.002 44.8196 21.7275 44.775C21.4297 44.7174 21.1266 44.6912 20.8234 44.6969H17.5114V48.6217H21.0786V48.6067ZM21.2717 55.7584C21.6055 55.763 21.9386 55.727 22.2638 55.6514C22.5609 55.5859 22.8427 55.4642 23.0939 55.2929C23.34 55.1216 23.5388 54.8912 23.672 54.6229C23.8264 54.2807 23.8973 53.907 23.879 53.5322C23.9124 53.1907 23.8671 52.8461 23.7465 52.5247C23.6258 52.2034 23.433 51.9139 23.1829 51.6785C22.6528 51.2888 22.0031 51.0958 21.3457 51.1326H17.5114V55.7584H21.2717Z" fill="white"/>
<path d="M32.3833 55.6964C32.6589 55.9513 32.9836 56.1477 33.3376 56.2735C33.6916 56.3994 34.0675 56.4521 34.4425 56.4285C35.0371 56.4435 35.6201 56.2629 36.1017 55.9147C36.4936 55.6605 36.7903 55.2842 36.9458 54.8444H39.7461C39.4478 56.0965 38.7191 57.2046 37.6869 57.9761C36.6967 58.632 35.5264 58.9642 34.3385 58.9266C33.4907 58.9377 32.6492 58.7786 31.8642 58.4588C31.1541 58.1633 30.5172 57.7166 29.998 57.1499C29.4808 56.556 29.0835 55.8681 28.8279 55.1238C28.541 54.2918 28.4006 53.4166 28.4128 52.5369C28.4076 51.6719 28.5528 50.8125 28.8419 49.997C29.2302 48.8498 29.9728 47.8548 30.963 47.1549C31.9532 46.455 33.1402 46.0861 34.3535 46.1011C35.2493 46.0824 36.1352 46.2917 36.9276 46.7091C37.6438 47.101 38.2617 47.6499 38.7348 48.3145C39.2187 49.0119 39.5655 49.7946 39.7569 50.621C39.9667 51.5085 40.0416 52.4224 39.9789 53.3321H31.6379C31.5703 54.1868 31.8375 55.0343 32.3833 55.6964ZM36.0427 49.3078C35.8093 49.0748 35.5286 48.8944 35.2194 48.7788C34.9103 48.6633 34.5799 48.6151 34.2506 48.6377C33.8136 48.6211 33.3798 48.7177 32.9914 48.9182C32.6835 49.0873 32.4117 49.3149 32.1913 49.5882C31.996 49.8444 31.8505 50.1348 31.7623 50.4444C31.6829 50.7026 31.6332 50.9691 31.6143 51.2386H36.7806C36.7356 50.5361 36.4792 49.8635 36.0449 49.3088L36.0427 49.3078Z" fill="white"/>
<path d="M37.4229 42.9341H30.9492V44.5856H37.4229V42.9341Z" fill="white"/>
</g>
<defs>
<clipPath id="clip0_1820_4644">
<rect width="53" height="88" fill="white"/>
</clipPath>
</defs>
</svg>
