<?xml version="1.0" encoding="UTF-8" standalone="no"?>
<!DOCTYPE svg PUBLIC "-//W3C//DTD SVG 1.1//EN" "http://www.w3.org/Graphics/SVG/1.1/DTD/svg11.dtd">
<svg xmlns="http://www.w3.org/2000/svg" version="1.1" viewBox="0.00 0.00 888.00 338.00">
<path fill="#ffffff" d="
  M 444.08 125.08
  L 510.63 1.11
  A 0.58 0.57 -61.0 0 1 511.41 0.88
  L 513.92 2.30
  Q 514.42 2.58 514.15 3.08
  L 415.70 186.50
  A 0.33 0.33 0.0 0 0 415.99 186.99
  C 423.24 187.03 431.35 186.49 437.94 187.80
  Q 454.36 191.06 465.22 203.03
  C 490.14 230.54 475.73 273.02 440.38 281.65
  Q 434.78 283.02 424.49 283.02
  Q 407.75 283.02 391.00 282.99
  Q 390.50 282.99 390.50 282.48
  L 390.51 234.24
  A 0.20 0.20 0.0 0 0 390.13 234.14
  L 335.03 336.79
  Q 334.73 337.35 334.16 337.06
  L 331.72 335.81
  Q 331.13 335.51 331.45 334.93
  L 424.42 161.72
  Q 424.78 161.05 424.02 161.02
  L 423.28 160.98
  Q 422.84 160.96 422.80 160.52
  L 422.46 156.80
  Q 422.42 156.25 422.96 156.25
  L 426.73 156.25
  Q 427.28 156.25 427.57 155.77
  C 429.84 151.86 432.43 148.15 432.47 143.50
  Q 432.77 107.88 433.07 72.25
  C 433.11 67.37 428.82 67.04 424.67 67.94
  Q 424.14 68.05 424.01 67.53
  L 423.18 64.04
  Q 423.03 63.41 423.66 63.30
  Q 434.10 61.54 443.93 57.67
  Q 444.38 57.50 444.38 57.98
  L 443.68 124.98
  Q 443.67 125.85 444.08 125.08
  Z
  M 434.86 279.54
  Q 462.61 274.64 472.12 249.55
  C 476.53 237.91 475.20 224.75 469.14 213.88
  Q 458.23 194.31 435.39 190.37
  C 429.21 189.31 421.47 189.79 414.70 189.74
  Q 413.96 189.73 413.61 190.38
  L 394.19 226.55
  Q 393.50 227.84 393.50 229.31
  L 393.50 279.50
  Q 393.50 280.02 394.02 280.02
  Q 413.31 280.04 432.49 279.77
  Q 433.69 279.75 434.86 279.54
  Z"
/>
<path fill="#ffffff" d="
  M 126.71 153.51
  Q 122.12 156.26 117.38 158.56
  C 101.05 166.48 84.70 158.31 80.08 141.25
  C 76.41 127.67 79.05 110.57 90.61 101.37
  C 100.85 93.22 114.98 92.29 127.33 96.53
  Q 127.92 96.73 127.96 96.11
  Q 128.56 84.36 128.19 72.80
  Q 128.09 69.63 127.32 68.39
  C 125.31 65.17 121.80 66.65 118.77 66.88
  Q 118.30 66.91 118.23 66.45
  L 117.75 63.23
  Q 117.68 62.79 118.11 62.68
  L 139.68 57.17
  Q 140.16 57.05 140.15 57.55
  Q 138.43 102.69 138.67 147.73
  Q 138.69 151.64 139.02 153.23
  C 139.91 157.59 144.22 155.62 146.96 155.04
  A 0.59 0.58 77.0 0 1 147.64 155.47
  L 148.53 158.80
  A 0.55 0.54 -18.5 0 1 148.20 159.45
  Q 138.94 163.07 128.95 162.95
  A 0.97 0.97 0.0 0 1 128.00 162.08
  L 127.17 153.74
  Q 127.12 153.27 126.71 153.51
  Z
  M 91.56 137.69
  C 96.67 155.13 113.99 155.57 126.84 146.78
  Q 127.25 146.49 127.26 146.00
  L 127.68 106.56
  Q 127.68 106.18 127.36 105.98
  Q 118.39 100.29 109.00 100.99
  C 89.96 102.43 87.24 122.94 91.56 137.69
  Z"
/>
<path fill="#ffffff" d="
  M 162.93 72.02
  C 160.52 68.05 166.38 63.80 170.17 61.10
  Q 170.51 60.86 170.88 61.07
  C 175.64 63.80 182.92 68.99 177.05 74.49
  Q 174.38 76.99 171.34 79.02
  Q 170.97 79.26 170.59 79.05
  Q 165.52 76.29 162.93 72.02
  Z"
/>
<path fill="#ffffff" d="
  M 282.13 78.91
  C 278.82 77.03 273.52 73.10 274.04 69.21
  C 274.42 66.31 279.55 62.51 281.87 60.93
  Q 282.33 60.63 282.76 60.96
  C 286.96 64.25 295.07 68.39 288.17 74.83
  Q 285.73 77.11 282.89 78.89
  Q 282.51 79.13 282.13 78.91
  Z"
/>
<path fill="#ffffff" d="
  M 328.85 102.87
  Q 327.86 124.73 327.98 134.00
  Q 328.12 144.60 329.53 148.51
  C 332.85 157.66 342.42 154.24 348.57 150.53
  A 0.55 0.55 0.0 0 1 349.34 150.75
  L 351.13 154.34
  Q 351.34 154.77 350.95 155.04
  C 344.54 159.55 333.27 164.75 325.64 162.33
  C 317.50 159.74 316.44 149.37 316.61 141.75
  Q 317.02 122.49 317.25 103.23
  Q 317.26 102.66 316.69 102.68
  L 308.23 102.95
  Q 307.75 102.96 307.75 102.48
  L 307.75 98.74
  Q 307.75 98.00 308.48 97.85
  Q 321.13 95.24 324.56 82.80
  A 0.59 0.58 -74.2 0 1 325.28 82.39
  L 328.71 83.38
  Q 329.32 83.56 329.28 84.20
  L 328.44 95.46
  Q 328.40 96.01 328.96 96.00
  L 348.56 95.52
  Q 349.14 95.51 349.02 96.07
  L 347.72 102.06
  Q 347.55 102.89 346.69 102.87
  L 329.36 102.39
  Q 328.87 102.38 328.85 102.87
  Z"
/>
<path fill="#ffffff" d="
  M 647.89 124.07
  C 640.69 134.26 636.23 144.31 632.65 156.22
  Q 632.40 157.07 632.20 156.20
  C 628.89 140.93 621.46 131.34 614.08 119.20
  Q 606.11 106.11 613.11 94.78
  C 621.78 80.76 641.27 80.30 651.06 93.26
  C 658.52 103.13 654.67 114.48 647.89 124.07
  Z
  M 644.95 104.89
  A 12.56 12.56 0.0 0 0 632.39 92.33
  A 12.56 12.56 0.0 0 0 619.83 104.89
  A 12.56 12.56 0.0 0 0 632.39 117.45
  A 12.56 12.56 0.0 0 0 644.95 104.89
  Z"
/>
<path fill="#ffffff" d="
  M 166.05 108.00
  C 166.07 101.94 162.71 102.26 158.18 102.52
  A 0.81 0.81 0.0 0 1 157.32 101.82
  L 156.90 98.61
  Q 156.84 98.15 157.29 98.07
  Q 167.64 96.08 177.52 92.42
  A 0.41 0.41 0.0 0 1 178.07 92.82
  Q 176.89 120.80 177.04 148.75
  Q 177.08 157.62 185.71 156.07
  Q 186.25 155.98 186.25 156.53
  L 186.25 160.45
  Q 186.25 160.92 185.78 160.88
  Q 170.93 159.68 156.07 160.97
  Q 155.50 161.02 155.50 160.44
  L 155.50 156.49
  Q 155.50 155.93 156.06 155.98
  C 163.15 156.59 165.13 149.46 165.28 143.74
  Q 166.04 115.48 166.05 108.00
  Z"
/>
<path fill="#ffffff" d="
  M 267.59 155.94
  C 274.27 156.62 276.86 149.81 276.99 144.22
  Q 277.39 127.13 277.69 109.96
  C 277.73 107.34 277.60 103.35 274.60 102.46
  C 273.19 102.04 271.31 102.54 269.60 102.50
  Q 269.10 102.49 269.01 102.00
  L 268.45 98.90
  A 0.45 0.45 0.0 0 1 268.77 98.39
  L 289.15 92.64
  Q 289.47 92.55 289.48 92.89
  Q 289.57 96.22 289.43 99.50
  Q 288.40 123.80 288.59 148.12
  Q 288.61 151.49 290.02 154.43
  A 1.69 1.65 89.6 0 0 290.77 155.19
  Q 293.94 156.82 297.48 156.07
  Q 298.00 155.96 298.00 156.49
  L 298.00 160.48
  Q 298.00 160.94 297.55 160.90
  Q 282.52 159.72 267.51 160.97
  Q 267.00 161.02 267.00 160.50
  L 267.00 156.48
  Q 267.00 155.88 267.59 155.94
  Z"
/>
<path fill="#ffffff" d="
  M 393.69 153.80
  C 388.05 157.81 380.24 162.24 373.50 162.05
  C 360.03 161.68 352.00 143.33 363.33 134.35
  C 371.27 128.07 383.13 125.58 394.48 123.21
  A 0.65 0.65 0.0 0 0 395.00 122.56
  Q 394.97 119.22 395.11 115.97
  C 395.62 104.60 390.98 98.26 378.13 101.23
  Q 372.62 102.51 371.23 107.22
  A 1.88 1.88 0.0 0 0 371.23 108.26
  C 372.98 114.01 365.72 115.88 361.54 114.35
  Q 361.15 114.21 360.92 113.86
  Q 358.89 110.90 360.22 108.50
  C 366.23 97.62 382.55 90.20 394.52 93.57
  C 405.29 96.60 407.42 107.15 406.83 117.01
  Q 405.99 131.24 405.53 145.50
  C 405.40 149.24 405.50 154.51 410.53 153.57
  Q 413.99 152.92 417.09 151.25
  Q 417.62 150.96 417.87 151.51
  L 419.46 154.95
  Q 419.66 155.40 419.26 155.70
  C 412.44 160.74 396.93 170.16 394.70 154.24
  Q 394.56 153.19 393.69 153.80
  Z
  M 370.79 149.24
  C 376.75 157.22 387.55 152.21 393.86 147.44
  Q 394.25 147.15 394.26 146.66
  L 394.58 129.52
  Q 394.59 128.94 394.02 129.04
  C 387.38 130.15 372.69 134.54 369.68 141.27
  Q 367.86 145.33 370.79 149.24
  Z"
/>
<path fill="#ffffff" d="
  M 213.55 137.20
  A 0.10 0.10 0.0 0 0 213.53 137.02
  C 196.71 130.75 195.53 109.23 208.97 99.17
  Q 223.53 88.28 240.13 96.63
  Q 242.19 97.67 244.19 97.70
  Q 252.03 97.85 259.92 97.27
  Q 260.40 97.23 260.39 97.71
  L 260.19 103.61
  Q 260.17 104.14 259.65 104.11
  L 246.77 103.39
  Q 245.73 103.33 246.48 104.06
  Q 251.84 109.19 251.98 116.23
  C 252.24 128.71 241.19 137.96 229.49 138.94
  Q 225.74 139.25 220.14 138.71
  Q 219.62 138.66 219.20 138.99
  L 213.90 143.27
  Q 213.44 143.64 213.71 144.17
  Q 215.49 147.60 218.53 149.97
  A 1.56 1.55 62.4 0 0 219.57 150.30
  Q 230.55 149.76 241.49 149.93
  Q 250.05 150.06 255.68 154.28
  C 260.82 158.14 260.59 167.72 258.36 173.38
  C 251.23 191.51 221.79 202.80 205.32 190.59
  C 196.00 183.67 195.12 172.74 203.28 164.24
  Q 207.17 160.18 210.24 157.61
  Q 210.71 157.21 210.25 156.81
  Q 205.02 152.19 202.64 145.59
  Q 202.42 144.98 202.95 144.62
  L 213.55 137.20
  Z
  M 228.33 133.54
  C 240.07 131.97 242.05 119.93 239.91 110.01
  C 238.48 103.38 234.39 99.18 227.41 98.56
  C 212.25 97.20 208.93 112.05 212.30 123.68
  C 214.48 131.20 220.74 134.56 228.33 133.54
  Z
  M 214.25 183.56
  C 225.35 190.86 242.95 186.88 249.40 175.39
  C 251.61 171.46 251.10 164.58 246.49 162.16
  Q 244.06 160.88 241.75 160.70
  Q 231.34 159.88 214.47 160.08
  Q 214.01 160.08 213.70 160.43
  C 206.98 167.97 204.30 177.00 214.25 183.56
  Z"
/>
<path fill="#ffffff" d="
  M 9.55 127.59
  L 53.82 150.85
  A 0.33 0.33 0.0 0 1 54.00 151.14
  L 53.99 158.30
  A 0.33 0.33 0.0 0 1 53.51 158.59
  L 0.67 130.40
  A 0.33 0.33 0.0 0 1 0.50 130.11
  L 0.50 124.20
  A 0.33 0.33 0.0 0 1 0.68 123.91
  L 53.52 95.80
  A 0.33 0.33 0.0 0 1 54.00 96.09
  L 54.00 103.16
  A 0.33 0.33 0.0 0 1 53.82 103.45
  L 9.55 127.01
  A 0.33 0.33 0.0 0 0 9.55 127.59
  Z"
/>
<path fill="#ffffff" d="
  M 664.75 133.81
  L 664.75 157.75
  Q 664.75 158.25 664.25 158.25
  L 663.37 158.24
  A 0.62 0.62 0.0 0 1 662.75 157.62
  L 662.75 130.81
  A 1.34 1.34 0.0 0 1 665.17 130.02
  L 683.08 154.40
  A 0.23 0.23 0.0 0 0 683.50 154.26
  L 683.50 130.25
  Q 683.50 129.75 684.00 129.75
  L 684.88 129.76
  Q 685.50 129.76 685.50 130.38
  L 685.50 157.18
  A 1.32 1.32 0.0 0 1 683.12 157.96
  L 665.26 133.65
  Q 664.75 132.95 664.75 133.81
  Z"
/>
<path fill="#ffffff" d="
  M 702.96 144.96
  L 712.44 130.20
  Q 712.73 129.74 713.28 129.75
  L 714.25 129.76
  Q 714.85 129.77 714.54 130.29
  L 703.71 147.73
  A 1.49 1.43 -30.5 0 0 703.50 148.48
  L 703.50 157.75
  Q 703.50 158.25 703.00 158.25
  L 702.25 158.25
  Q 701.75 158.25 701.75 157.75
  L 701.75 148.51
  A 1.44 1.42 29.3 0 0 701.53 147.75
  L 690.70 130.49
  Q 690.39 129.99 690.95 129.82
  C 691.71 129.57 692.35 129.67 692.81 130.40
  Q 697.49 137.71 702.27 144.96
  Q 702.62 145.49 702.96 144.96
  Z"
/>
<path fill="#ffffff" d="
  M 716.35 150.91
  C 711.64 142.13 716.64 131.56 726.56 129.90
  Q 733.14 128.79 738.91 132.97
  Q 739.42 133.34 739.13 133.90
  L 738.72 134.70
  Q 738.49 135.17 738.07 134.84
  C 731.79 129.87 723.25 130.33 718.57 136.88
  C 715.15 141.67 715.93 149.16 720.43 153.06
  C 725.54 157.50 732.78 157.27 738.13 153.11
  Q 738.66 152.69 738.96 153.30
  L 739.28 153.94
  Q 739.48 154.33 739.14 154.61
  C 732.00 160.57 720.76 159.12 716.35 150.91
  Z"
/>
<path fill="#ffffff" d="
  M 576.11 228.52
  Q 586.34 232.10 596.71 235.28
  C 601.21 236.66 607.45 240.09 610.69 243.62
  C 619.59 253.32 618.59 269.63 606.88 277.15
  Q 602.42 280.01 597.21 281.24
  Q 570.97 287.47 551.28 269.97
  Q 550.86 269.59 551.25 269.19
  L 552.54 267.85
  Q 552.91 267.46 553.32 267.83
  Q 569.12 282.14 591.01 279.52
  C 603.11 278.07 614.87 270.98 613.49 257.00
  C 610.42 225.88 552.59 243.46 556.37 205.15
  C 557.25 196.22 566.48 190.08 574.51 188.24
  Q 594.43 183.66 612.12 193.51
  Q 612.65 193.81 612.32 194.31
  L 611.37 195.77
  Q 611.07 196.23 610.58 195.97
  Q 590.78 185.46 570.53 192.75
  Q 565.41 194.60 562.22 199.06
  C 556.69 206.79 558.84 217.51 566.12 223.37
  Q 569.76 226.30 576.11 228.52
  Z"
/>
<path fill="#ffffff" d="
  M 491.25 235.35
  L 491.25 279.65
  A 0.35 0.35 0.0 0 0 491.60 280.00
  L 550.15 280.00
  A 0.35 0.35 0.0 0 1 550.50 280.35
  L 550.49 282.65
  A 0.35 0.35 0.0 0 1 550.14 283.00
  L 488.60 283.00
  A 0.35 0.35 0.0 0 1 488.25 282.65
  L 488.25 187.35
  A 0.35 0.35 0.0 0 1 488.60 187.00
  L 548.15 187.00
  A 0.35 0.35 0.0 0 1 548.50 187.35
  L 548.50 189.65
  A 0.35 0.35 0.0 0 1 548.15 190.00
  L 491.60 190.00
  A 0.35 0.35 0.0 0 0 491.25 190.35
  L 491.25 231.65
  A 0.35 0.35 0.0 0 0 491.60 232.00
  L 541.60 232.00
  A 0.35 0.35 0.0 0 1 541.95 232.34
  L 542.03 234.64
  A 0.35 0.35 0.0 0 1 541.68 235.00
  L 491.60 235.00
  A 0.35 0.35 0.0 0 0 491.25 235.35
  Z"
/>
<rect fill="#ffffff" x="630.50" y="187.00" width="3.00" height="95.98" rx="0.33"/>
<path fill="#ffffff" d="
  M 723.43 269.06
  L 723.72 236.01
  Q 723.73 235.50 724.24 235.51
  L 725.70 235.53
  A 0.68 0.67 0.4 0 1 726.37 236.20
  L 726.56 270.19
  A 0.97 0.96 -19.5 0 1 726.20 270.94
  Q 704.46 288.71 677.99 280.76
  C 657.79 274.69 643.47 254.71 644.04 233.62
  C 644.54 215.32 655.78 199.13 672.33 191.55
  C 690.51 183.24 710.71 186.23 726.22 198.97
  Q 726.70 199.37 726.26 199.82
  L 725.08 201.00
  Q 724.68 201.41 724.24 201.04
  C 700.20 181.02 664.45 188.60 650.73 216.72
  Q 647.07 224.21 646.77 233.20
  C 646.22 249.77 655.05 265.25 669.20 273.60
  C 686.53 283.82 707.07 282.18 723.08 269.76
  Q 723.42 269.50 723.43 269.06
  Z"
/>
<path fill="#ffffff" d="
  M 817.25 278.83
  L 817.25 187.35
  A 0.34 0.34 0.0 0 1 817.59 187.01
  L 819.91 187.00
  A 0.34 0.34 0.0 0 1 820.25 187.34
  L 820.25 282.66
  A 0.34 0.34 0.0 0 1 819.91 283.00
  L 815.99 283.00
  A 0.34 0.34 0.0 0 1 815.72 282.86
  L 749.12 191.17
  A 0.34 0.34 0.0 0 0 748.50 191.37
  L 748.50 282.65
  A 0.34 0.34 0.0 0 1 748.16 282.99
  L 745.87 282.99
  A 0.34 0.34 0.0 0 1 745.53 282.65
  L 745.50 187.34
  A 0.34 0.34 0.0 0 1 745.84 187.00
  L 749.61 187.00
  A 0.34 0.34 0.0 0 1 749.88 187.14
  L 816.63 279.03
  A 0.34 0.34 0.0 0 0 817.25 278.83
  Z"
/>
<path fill="#ffffff" d="
  M 883.85 236.99
  L 846.37 205.18
  A 0.43 0.43 0.0 0 1 846.30 204.60
  L 847.01 203.63
  A 0.43 0.43 0.0 0 1 847.63 203.56
  L 887.00 236.97
  A 0.43 0.43 0.0 0 1 887.00 237.62
  L 847.67 271.90
  A 0.43 0.43 0.0 0 1 847.05 271.84
  L 846.32 270.88
  A 0.43 0.43 0.0 0 1 846.37 270.29
  L 883.85 237.64
  A 0.43 0.43 0.0 0 0 883.85 236.99
  Z"
/>
</svg>
