<svg width="184" height="123" viewBox="0 0 184 123" fill="none" xmlns="http://www.w3.org/2000/svg">
<g clip-path="url(#clip0_9243_578)">
<path d="M48.0885 52.2803H42.666V79.1618H48.0885V52.2803Z" fill="#3D3D3D"/>
<path d="M48.0885 43H42.666V48.5779H48.0885V43Z" fill="#3D3D3D"/>
<path d="M170.575 55.7787C168.067 53.0081 164.789 51.603 160.83 51.603C156.666 51.603 153.223 52.9602 150.595 55.6379C147.971 58.31 146.639 61.703 146.639 65.7238C146.639 69.7446 147.996 73.1826 150.678 75.8378C153.356 78.493 156.879 79.8417 161.145 79.8417C166.423 79.8417 170.433 77.7975 173.061 73.7626L173.305 73.3881L168.667 70.778L168.451 71.1243C166.945 73.5486 164.588 74.7256 161.247 74.7256C158.867 74.7256 156.842 74.1061 155.228 72.8841C153.746 71.7635 152.751 70.1979 152.269 68.2269H174.117L174.171 67.8665C174.279 67.157 174.333 66.453 174.333 65.7716C174.333 61.8972 173.069 58.5353 170.573 55.7759L170.575 55.7787ZM152.254 63.4234C152.675 61.4693 153.604 59.8727 155.012 58.6733C156.538 57.3752 158.495 56.7192 160.83 56.7192C162.818 56.7192 164.585 57.3358 166.076 58.5494C167.457 59.6756 168.366 61.3144 168.78 63.4262H152.254V63.4234Z" fill="#3D3D3D"/>
<path d="M31.988 55.7901C30.4144 53.3348 24.4721 50.705 18.7542 52.4197C17.0869 52.966 15.553 53.8079 14.2208 54.8891C14.1839 54.9201 14.147 54.9482 14.11 54.9792C10.9883 57.564 9 61.4441 9 65.7802C9 72.4929 13.7692 78.1187 20.1233 79.5124C25.3924 80.4782 30.5394 78.0708 31.988 75.8126V79.1633H37.3849V52.2818H31.988V55.7929V55.7901ZM23.1939 74.4977C18.3452 74.4977 14.3998 70.5867 14.3998 65.7802C14.3998 60.9738 18.3452 57.0628 23.1939 57.0628C28.0426 57.0628 31.988 60.9738 31.988 65.7802C31.988 70.5867 28.0426 74.4977 23.1939 74.4977Z" fill="#3D3D3D"/>
<path d="M138.099 55.7901C136.526 53.3348 130.583 50.705 124.866 52.4197C123.198 52.966 121.664 53.8079 120.332 54.8891C120.295 54.9201 120.258 54.9482 120.221 54.9792C117.103 57.5612 115.111 61.4441 115.111 65.7802C115.111 72.4929 119.88 78.1187 126.235 79.5124C131.504 80.4782 136.651 78.0708 138.099 75.8126V79.1633H143.496V52.2818H138.099V55.7929V55.7901ZM129.305 74.4977C124.457 74.4977 120.511 70.5867 120.511 65.7802C120.511 60.9738 124.457 57.0628 129.305 57.0628C134.154 57.0628 138.099 60.9738 138.099 65.7802C138.099 70.5867 134.154 74.4977 129.305 74.4977Z" fill="#3D3D3D"/>
<path d="M107.093 43H101.696V52.2721H97.2793V57.6219H101.696V68.0907C101.696 74.5697 107.014 79.8407 113.55 79.8407H113.976V74.4908H113.55C109.99 74.4908 107.093 71.6188 107.093 68.0907V57.6219H113.976V52.2721H107.093V43Z" fill="#3D3D3D"/>
<path d="M93.6731 68.0974V52.2731H88.2762V54.7453C85.7737 52.7827 82.6861 51.71 79.4821 51.71C71.6565 51.71 65.291 58.02 65.291 65.7772C65.291 73.5345 71.6565 79.8445 79.4821 79.8445L79.9081 79.8388V79.8332C83.9928 79.7149 87.7592 77.8904 90.381 74.7678C92.6023 77.9579 96.204 79.8445 100.132 79.8445H100.558V74.4946H100.132C96.5732 74.4946 93.676 71.6226 93.676 68.0945L93.6731 68.0974ZM79.4821 74.4918H79.2491C74.5055 74.3736 70.6879 70.5104 70.6879 65.78C70.6879 61.0496 74.6334 57.0626 79.4821 57.0626C84.3308 57.0626 88.2762 60.9708 88.2762 65.7772C88.2762 70.5836 84.3279 74.4918 79.4821 74.4918Z" fill="#3D3D3D"/>
<path d="M52.707 63.4618V79.1622H58.1039V63.4618C58.1039 59.9338 61.0012 57.0617 64.5604 57.0617H64.9864V51.7119H64.5604C58.0244 51.7119 52.707 56.9829 52.707 63.4618Z" fill="#3D3D3D"/>
</g>
<defs>
<clipPath id="clip0_9243_578">
<rect width="165.336" height="36.8463" fill="white" transform="translate(9 43)"/>
</clipPath>
</defs>
</svg>
