<svg width="184" height="123" viewBox="0 0 184 123" fill="none" xmlns="http://www.w3.org/2000/svg">
<g clip-path="url(#clip0_9337_251)">
<path d="M125.709 47.209C125.196 47.6078 116.139 52.7209 116.139 64.0902C116.139 77.2407 127.664 81.893 128.009 82.0082C127.956 82.2918 126.178 88.3797 121.932 94.5828C118.146 100.041 114.193 105.491 108.178 105.491C102.163 105.491 100.615 101.991 93.6717 101.991C86.9052 101.991 84.4993 105.607 78.9975 105.607C73.4958 105.607 69.657 100.555 65.2432 94.3524C60.1307 87.0682 56 75.752 56 65.0118C56 47.785 67.1803 38.6487 78.1838 38.6487C84.0305 38.6487 88.9042 42.4946 92.5749 42.4946C96.0688 42.4946 101.517 38.4183 108.169 38.4183C110.69 38.4183 119.747 38.6487 125.709 47.209ZM105.011 31.1253C107.762 27.8554 109.708 23.3183 109.708 18.7812C109.708 18.152 109.655 17.514 109.54 17C105.064 17.1684 99.7396 19.9863 96.5287 23.717C94.0079 26.5882 91.655 31.1253 91.655 35.7244C91.655 36.4156 91.77 37.1068 91.8231 37.3284C92.1061 37.3815 92.5661 37.4436 93.026 37.4436C97.0418 37.4436 102.092 34.7497 105.011 31.1253Z" fill="#3D3D3D"/>
</g>
<defs>
<clipPath id="clip0_9337_251">
<rect width="72" height="88.6154" fill="white" transform="translate(56 17)"/>
</clipPath>
</defs>
</svg>
