<svg width="184" height="123" viewBox="0 0 184 123" fill="none" xmlns="http://www.w3.org/2000/svg">
<path d="M91.3547 82.7509C88.0236 82.7509 85.4032 81.6933 83.491 79.5781C81.5787 77.4628 80.625 74.5355 80.625 70.7937C80.625 67.3541 81.5386 64.5023 83.3682 62.2336C85.1978 59.9413 87.7899 58.7939 91.1493 58.7939C94.5086 58.7939 96.978 60.064 98.2339 62.6019V59.6131H103.395V74.1908C103.395 75.2012 103.489 75.8977 103.68 76.2801C103.871 76.6625 104.24 76.8538 104.785 76.8538H106.629V81.9719H102.944C101.851 81.9719 100.902 81.6933 100.097 81.1315C99.2915 80.572 98.7391 79.7599 98.4369 78.6952C97.9176 79.8968 97.0299 80.8718 95.774 81.6225C94.5181 82.3732 93.0426 82.7486 91.3523 82.7486L91.3547 82.7509ZM92.0086 77.8783C95.4742 77.8783 97.2093 75.5176 97.2093 70.7937C97.2093 68.4731 96.7655 66.7049 95.8779 65.4914C94.9902 64.278 93.7272 63.6689 92.0889 63.6689C90.4505 63.6689 89.263 64.2898 88.3612 65.5316C87.4594 66.7733 87.0109 68.5274 87.0109 70.7937C87.0109 73.06 87.4405 74.7055 88.2998 75.9732C89.1592 77.2433 90.3938 77.8783 92.0062 77.8783H92.0086Z" fill="#3D3D3D"/>
<path d="M113.392 81.974L105.488 59.6152H112.573L116.832 75.3001L121.008 59.6152H128.175L120.312 81.974H113.39H113.392Z" fill="#3D3D3D"/>
<path d="M138.248 81.974H135.413C131.782 81.948 129.967 80.1987 129.967 76.7331V59.6152H136.395V75.0121C136.395 75.5575 136.482 75.9281 136.662 76.117C136.839 76.3082 137.2 76.4026 137.748 76.4026H138.248V81.9716V81.974Z" fill="#3D3D3D"/>
<path d="M150.339 82.7509C147.008 82.7509 144.388 81.6933 142.475 79.5781C140.563 77.4628 139.609 74.5355 139.609 70.7937C139.609 67.3541 140.523 64.5023 142.353 62.2336C144.182 59.9413 146.774 58.7939 150.134 58.7939C153.493 58.7939 155.962 60.064 157.218 62.6019V59.6131H162.379V74.1908C162.379 75.2012 162.473 75.8977 162.665 76.2801C162.856 76.6625 163.224 76.8538 163.769 76.8538H165.613V81.9719H161.928C160.835 81.9719 159.886 81.6933 159.081 81.1315C158.276 80.572 157.723 79.7599 157.421 78.6952C156.902 79.8968 156.014 80.8718 154.758 81.6225C153.502 82.3732 152.027 82.7486 150.337 82.7486L150.339 82.7509ZM150.993 77.8783C154.459 77.8783 156.194 75.5176 156.194 70.7937C156.194 68.4731 155.75 66.7049 154.862 65.4914C153.975 64.278 152.712 63.6689 151.073 63.6689C149.435 63.6689 148.247 64.2898 147.346 65.5316C146.444 66.7733 145.995 68.5274 145.995 70.7937C145.995 73.06 146.425 74.7055 147.284 75.9732C148.144 77.2433 149.378 77.8783 150.991 77.8783H150.993Z" fill="#3D3D3D"/>
<path d="M26.804 70.5337C32.2167 70.5337 36.6058 66.1446 36.6058 60.732V55.8311C36.6058 50.4185 40.9949 46.0294 46.4075 46.0294C51.8201 46.0294 56.2092 50.4185 56.2092 55.8311V60.732C56.2092 66.1446 60.5983 70.5337 66.011 70.5337C71.4236 70.5337 75.8127 66.1446 75.8127 60.732H70.9118C70.9118 63.4383 68.7173 65.6329 66.011 65.6329C63.3046 65.6329 61.1101 63.4383 61.1101 60.732V55.8311C61.1101 47.7122 54.5287 41.1309 46.4098 41.1309C38.2909 41.1309 31.7095 47.7122 31.7095 55.8311H31.7026V60.732C31.7026 63.4383 29.508 65.6329 26.8017 65.6329C24.0954 65.6329 21.9009 63.4383 21.9009 60.732H17C17 66.1446 21.3891 70.5337 26.8017 70.5337H26.804Z" fill="#3D3D3D"/>
<path d="M36.6113 72.252H31.7104C31.7104 74.9583 29.5159 77.1528 26.8095 77.1528C24.1032 77.1528 21.9087 74.9583 21.9087 72.252H17.0078C17.0078 77.6669 21.3969 82.0537 26.8095 82.0537C32.2222 82.0537 36.6113 77.6646 36.6113 72.252Z" fill="#3D3D3D"/>
<path d="M66.0088 77.1548C63.3025 77.1548 61.1079 74.9602 61.1079 72.2539H56.207C56.207 77.6688 60.5961 82.0556 66.0088 82.0556C71.4214 82.0556 75.8105 77.6665 75.8105 72.2539H70.9096C70.9096 74.9602 68.7151 77.1548 66.0088 77.1548Z" fill="#3D3D3D"/>
<path d="M58.6611 88.6407C55.9548 88.6407 53.7602 86.4461 53.7602 83.7398V74.7656H48.8594V83.7398C48.8594 89.1524 53.2485 93.5415 58.6611 93.5415C64.0737 93.5415 68.4628 89.1524 68.4628 83.7398H63.562C63.562 86.4461 61.3674 88.6407 58.6611 88.6407Z" fill="#3D3D3D"/>
<path d="M39.0581 83.7398C39.0581 86.4461 36.8635 88.6407 34.1572 88.6407C31.4509 88.6407 29.2563 86.4461 29.2563 83.7398H24.3555C24.3555 89.1524 28.7446 93.5415 34.1572 93.5415C39.5698 93.5415 43.9589 89.1524 43.9589 83.7398V74.7656H39.0581V83.7398Z" fill="#3D3D3D"/>
<path d="M51.4668 67.2832H41.3516C41.9947 69.4685 44.0164 71.0637 46.4092 71.0637C48.802 71.0637 50.8237 69.4685 51.4668 67.2832Z" fill="#3D3D3D"/>
<path d="M23.6887 49.3158C25.3527 49.3158 26.7016 47.9669 26.7016 46.3029C26.7016 44.639 25.3527 43.29 23.6887 43.29C22.0247 43.29 20.6758 44.639 20.6758 46.3029C20.6758 47.9669 22.0247 49.3158 23.6887 49.3158Z" fill="#3D3D3D"/>
<path d="M40.1321 64.4106C41.4854 64.4106 42.5825 63.3135 42.5825 61.9602C42.5825 60.6069 41.4854 59.5098 40.1321 59.5098C38.7787 59.5098 37.6816 60.6069 37.6816 61.9602C37.6816 63.3135 38.7787 64.4106 40.1321 64.4106Z" fill="#3D3D3D"/>
<path d="M52.6829 64.4106C54.0362 64.4106 55.1333 63.3135 55.1333 61.9602C55.1333 60.6069 54.0362 59.5098 52.6829 59.5098C51.3295 59.5098 50.2324 60.6069 50.2324 61.9602C50.2324 63.3135 51.3295 64.4106 52.6829 64.4106Z" fill="#3D3D3D"/>
<path d="M69.132 49.3158C70.796 49.3158 72.1449 47.9669 72.1449 46.3029C72.1449 44.639 70.796 43.29 69.132 43.29C67.4681 43.29 66.1191 44.639 66.1191 46.3029C66.1191 47.9669 67.4681 49.3158 69.132 49.3158Z" fill="#3D3D3D"/>
<path d="M55.841 36.0258C57.505 36.0258 58.8539 34.6769 58.8539 33.0129C58.8539 31.3489 57.505 30 55.841 30C54.177 30 52.8281 31.3489 52.8281 33.0129C52.8281 34.6769 54.177 36.0258 55.841 36.0258Z" fill="#3D3D3D"/>
<path d="M36.9797 36.0258C38.6437 36.0258 39.9926 34.6769 39.9926 33.0129C39.9926 31.3489 38.6437 30 36.9797 30C35.3157 30 33.9668 31.3489 33.9668 33.0129C33.9668 34.6769 35.3157 36.0258 36.9797 36.0258Z" fill="#3D3D3D"/>
</svg>
