<svg width="184" height="123" viewBox="0 0 184 123" fill="none" xmlns="http://www.w3.org/2000/svg">
<path d="M125.027 103.59C124.335 104.585 122.778 106.618 121.134 108.652L118.019 106.316C120.096 103.547 122.172 100.735 122.994 99.5238C127.623 92.4293 128.531 84.6426 125.676 76.4233C124.465 72.9626 122.864 69.5018 121.307 66.1708C120.788 65.0028 120.226 63.8348 119.663 62.6668C118.928 61.023 118.149 59.3791 117.327 57.7352C115.9 54.7936 114.429 51.7655 113.261 48.6508C109.195 37.9657 110.449 27.7997 116.981 18.3692C118.019 16.8551 119.144 15.4276 120.312 14L123.297 16.2062C122.691 16.8984 122.129 17.6338 121.567 18.3692C114.083 28.016 112.785 38.6146 117.717 49.8188C118.755 52.1548 119.923 54.534 121.091 56.7835C121.913 58.4274 122.735 60.0713 123.557 61.7584L124.335 63.4022C125.806 66.5169 127.363 69.7614 128.618 73.0923C132.728 83.9072 131.516 94.1597 125.027 103.59Z" fill="black"/>
<path d="M112.178 61.4998C112.178 58.5582 111.4 55.6598 109.756 53.2373C109.107 52.2423 108.328 51.3338 107.463 50.5552C104.868 48.2192 101.537 46.9214 98.0326 46.9214C97.773 46.9214 97.4702 46.9214 97.2107 46.9646C90.592 47.354 85.098 52.1125 83.8868 58.6014C82.7188 64.874 86.0065 71.3629 91.7167 74.045C97.2107 76.6406 103.397 75.6024 107.723 71.4927L108.415 72.1416V75.5158H112.135L112.178 61.4998ZM97.9461 71.4927C95.1775 71.4927 92.5819 70.4112 90.6352 68.4646C88.6886 66.5179 87.6071 63.9223 87.6071 61.1537C87.6071 55.4867 92.2358 50.7715 97.9028 50.7282C100.542 50.6417 103.18 51.8097 105.17 53.7996C107.204 55.8328 108.372 58.5582 108.328 61.2402C108.328 66.9072 103.656 71.4927 97.9461 71.4927Z" fill="black"/>
<path d="M73.4184 48.3905C67.9245 45.795 61.6951 46.8765 57.4125 50.9428L56.7203 50.2939V41.2095H53V60.9358C53 63.8774 53.7787 66.7758 55.4225 69.1983C56.0714 70.1933 56.8501 71.1017 57.7153 71.8804C60.3108 74.2164 63.6418 75.5142 67.1458 75.5142C67.4054 75.5142 67.7082 75.5142 67.9678 75.4709C74.5864 75.0816 80.0804 70.323 81.2916 63.8341C82.4164 57.6048 79.1287 51.0726 73.4184 48.3905ZM67.2756 71.7074C64.6368 71.7939 61.998 70.6259 60.008 68.6359C57.9748 66.6027 56.8068 63.8774 56.8501 61.1953C56.8933 55.5716 61.5654 50.9861 67.3189 50.9861C70.0875 50.9861 72.683 52.0676 74.6297 54.0143C76.5764 55.9609 77.6579 58.5565 77.6579 61.3251C77.5713 66.9056 72.9426 71.6208 67.2756 71.7074Z" fill="black"/>
</svg>
