<svg width="184" height="123" viewBox="0 0 184 123" fill="none" xmlns="http://www.w3.org/2000/svg">
<g clip-path="url(#clip0_9243_685)">
<mask id="mask0_9243_685" style="mask-type:luminance" maskUnits="userSpaceOnUse" x="32" y="22" width="120" height="78">
<path d="M152 22H32V99.6575H152V22Z" fill="white"/>
</mask>
<g mask="url(#mask0_9243_685)">
<path d="M60.0611 31.6151L45.067 31.6613L49.4568 22.901C49.6503 23.0427 49.8886 23.2181 50.1645 23.4232C50.9603 24.0147 52.0683 24.8518 53.3159 25.8334C55.4533 27.5151 57.9856 29.6095 60.0611 31.6151Z" fill="white" stroke="#4C4C4C" stroke-width="1.2"/>
<path d="M48.0518 23.3178C48.0951 23.2949 48.1375 23.2725 48.1792 23.2506L44.7721 31.6584L33.9592 33.3102C37.492 30.0103 41.1586 27.4318 44.0564 25.6246C45.6895 24.606 47.0756 23.8342 48.0518 23.3178Z" fill="#4C4C4C" stroke="#4C4C4C" stroke-width="1.2"/>
<path d="M37.764 68.1119C44.9439 48.6312 61.5069 32.2122 61.5069 32.2122C54.2282 31.331 44.0966 32.2659 44.0966 32.2659C44.0966 32.2659 39.8767 38.6154 38.1453 48.6283C36.4138 58.6385 37.7668 68.1119 37.7668 68.1119H37.764Z" fill="#4C4C4C"/>
<path d="M47.2612 33.2432C49.2497 33.8137 51.128 34.7768 52.7324 36.0762C53.7746 36.9179 54.6615 37.915 55.4015 39.0137C58.9407 34.7543 61.5053 32.2122 61.5053 32.2122C54.2265 31.331 44.0949 32.2659 44.0949 32.2659C44.0949 32.2659 43.9989 32.4071 43.8379 32.6783C44.996 32.7291 46.1456 32.924 47.2612 33.2432Z" fill="#4C4C4C"/>
<path d="M32.7518 34.54L34.6291 33.3641C36.8597 32.889 39.3353 32.598 41.2723 32.4255C42.194 32.3434 42.9902 32.2884 43.5751 32.2533C39.4942 40.184 37.8795 48.9747 37.2885 55.8529C36.9809 59.4329 36.9498 62.5052 36.9956 64.6841C36.9993 64.8577 37.0034 65.0256 37.008 65.1877C36.8677 64.8445 36.7199 64.4649 36.5668 64.0479C35.6015 61.4169 34.4273 57.2889 33.6207 51.3443L32.7518 34.54ZM32.7518 34.54C32.7349 34.6996 32.713 34.932 32.6912 35.2394C32.644 35.9052 32.597 36.9231 32.6001 38.3156C32.6064 41.1004 32.8134 45.3834 33.6207 51.3441L32.7518 34.54Z" fill="white" stroke="#4C4C4C" stroke-width="1.2"/>
<path d="M37.6042 68.6318C36.1694 73.6085 38.0053 83.4097 48.8515 84.9857C53.2436 85.6241 57.8787 85.1439 64.3948 84.3898C74.2552 83.2486 79.1672 83.582 81.9098 84.8276C86.0449 86.7059 83.3192 90.5247 81.0511 92.7363C80.0173 93.7729 78.9158 94.7247 77.7718 95.6285C78.2492 95.0835 78.7322 94.5467 79.1954 93.9959C80.4184 92.4793 83.7202 88.9796 82.6102 87.1522C82.1527 86.4009 80.2405 84.257 64.248 86.3669C59.8248 86.9516 54.2746 87.5193 49.7836 87.0421C45.2107 86.6211 41.4851 85.0535 38.7623 81.2687C36.1242 77.6363 35.7372 72.6341 37.6099 68.6289L37.6042 68.6318Z" fill="#4C4C4C"/>
<path d="M42.6719 85.7852C42.6719 85.7852 48.304 89.1322 62.2769 89.4852C68.4739 89.6406 73.1683 89.5305 72.9904 92.9566C72.8379 95.8913 66.1324 99.6592 62.887 99.6592C64.2231 99.6592 71.1318 95.993 71.451 93.6374C71.6883 91.8946 69.4003 91.3212 63.9462 91.2563C58.0938 91.1885 54.8202 90.6942 51.8346 89.9768C46.4341 88.6775 42.6719 85.7852 42.6719 85.7852Z" fill="#4C4C4C"/>
<mask id="mask1_9243_685" style="mask-type:luminance" maskUnits="userSpaceOnUse" x="61" y="49" width="92" height="20">
<path d="M152.149 49.4009H61.6543V68.0286H152.149V49.4009Z" fill="white"/>
</mask>
<g mask="url(#mask1_9243_685)">
<path d="M103.71 67.6322H97.6147L88.7541 58.9101V67.6322H84.1953V49.6738H88.7541V57.9101L97.3069 49.6738H103.196L93.875 58.3197L103.707 67.6322H103.71Z" fill="#4C4C4C"/>
<path d="M77.6072 58.3002C79.0421 58.4189 80.0957 58.9499 80.8357 59.7096C81.5785 60.4695 81.9852 61.5824 81.9852 62.8138C81.9852 63.5482 81.861 64.2148 81.6152 64.8136C81.3667 65.4124 80.9797 65.9208 80.4515 66.3389C79.9233 66.7569 79.2342 67.0817 78.3896 67.3133C77.5451 67.5449 76.5339 67.6607 75.356 67.6607H61.6543V49.708H75.4295C77.4773 49.708 78.9743 50.1148 79.9233 50.9254C80.8695 51.7361 81.344 52.7868 81.344 54.0692C81.344 55.165 81.0588 56.1508 80.4035 56.8512C79.7454 57.5546 78.785 58.1619 77.6072 58.3002ZM66.0831 53.2217V56.9925H74.4296C75.2318 56.9925 75.825 56.8174 76.2091 56.4671C76.5932 56.117 76.7852 55.6678 76.7852 55.1199C76.7852 54.5718 76.5932 54.0974 76.2091 53.7471C75.825 53.3969 75.2318 53.2217 74.4296 53.2217H66.0831ZM74.8646 64.147C75.7515 64.147 76.4011 63.9634 76.8107 63.5962C77.2202 63.229 77.4236 62.7461 77.4236 62.1473C77.4236 61.5485 77.2175 61.0401 76.8107 60.6729C76.4011 60.3057 75.7515 60.1221 74.8646 60.1221H66.0831V64.1499H74.8646V64.147Z" fill="#4C4C4C"/>
<path d="M113.823 68.0258C111.908 68.0258 110.216 67.7857 108.745 67.3084C107.273 66.831 106.047 66.1757 105.065 65.3453C104.082 64.5149 103.339 63.532 102.833 62.3936C102.328 61.2554 102.076 60.0295 102.076 58.7134C102.076 57.3971 102.328 56.1684 102.833 55.033C103.336 53.8946 104.082 52.9117 105.065 52.0813C106.047 51.2509 107.273 50.5985 108.745 50.1182C110.214 49.641 111.908 49.4009 113.823 49.4009C115.738 49.4009 117.261 49.5985 118.645 49.9912C120.029 50.3838 121.204 50.9204 122.17 51.5956C123.136 52.2706 123.904 53.0671 124.478 53.9822C125.051 54.8974 125.421 55.8775 125.593 56.9197H121.029C120.91 56.4594 120.687 55.999 120.362 55.547C120.037 55.0951 119.583 54.6883 119.004 54.3296C118.422 53.971 117.704 53.68 116.849 53.4569C115.993 53.2338 114.984 53.1236 113.823 53.1236C112.663 53.1236 111.606 53.2705 110.708 53.5585C109.81 53.8495 109.061 54.2478 108.465 54.7534C107.867 55.2589 107.415 55.8464 107.107 56.5243C106.799 57.1993 106.646 57.931 106.646 58.719C106.646 59.507 106.799 60.2386 107.107 60.9137C107.415 61.5887 107.867 62.179 108.465 62.6846C109.064 63.1902 109.813 63.5856 110.708 63.8794C111.606 64.1704 112.646 64.3144 113.823 64.3144C115.001 64.3144 115.993 64.2042 116.849 63.9811C117.701 63.7579 118.422 63.467 119.004 63.1082C119.585 62.7496 120.037 62.3429 120.362 61.8881C120.687 61.4362 120.91 60.9757 121.029 60.5154H125.593C125.421 61.5774 125.054 62.5632 124.492 63.4783C123.927 64.3934 123.161 65.19 122.195 65.865C121.229 66.5401 120.049 67.0711 118.656 67.4552C117.264 67.8394 115.651 68.0315 113.823 68.0315V68.0258Z" fill="#4C4C4C"/>
<path d="M127.72 67.7258V49.708H135.089L139.936 61.3422L144.754 49.708H152.149V67.7258H147.748V52.4366L142.735 64.6385H137.106L132.092 52.4366V67.7258H127.717H127.72Z" fill="#4C4C4C"/>
</g>
</g>
</g>
<defs>
<clipPath id="clip0_9243_685">
<rect width="120" height="78" fill="white" transform="translate(32 22)"/>
</clipPath>
</defs>
</svg>
