<svg width="184" height="123" viewBox="0 0 184 123" fill="none" xmlns="http://www.w3.org/2000/svg">
<path d="M132.759 10.9136C132.76 10.6754 132.855 10.447 133.024 10.2782C133.193 10.1095 133.422 10.014 133.662 10.0127C133.902 10.0136 134.131 10.1089 134.3 10.2777C134.469 10.4466 134.564 10.6752 134.564 10.9136C134.566 11.0325 134.543 11.1505 134.498 11.2606C134.453 11.3708 134.386 11.4708 134.301 11.555C134.217 11.6392 134.116 11.7058 134.006 11.751C133.895 11.7961 133.776 11.8189 133.657 11.818C133.417 11.8157 133.188 11.7193 133.02 11.5498C132.852 11.3804 132.758 11.1516 132.759 10.9136ZM133.669 11.6416C133.858 11.6361 134.037 11.5565 134.168 11.4202C134.298 11.2838 134.369 11.1017 134.364 10.9136C134.367 10.8193 134.35 10.7256 134.315 10.6379C134.28 10.5502 134.228 10.4702 134.162 10.4028C134.096 10.3353 134.016 10.2817 133.929 10.245C133.842 10.2082 133.748 10.1892 133.653 10.189C133.558 10.1895 133.465 10.2086 133.378 10.2455C133.291 10.2823 133.212 10.3359 133.146 10.4034C133.08 10.4708 133.028 10.5507 132.993 10.6383C132.958 10.7259 132.941 10.8195 132.944 10.9136C132.94 11.0098 132.957 11.1057 132.992 11.1954C133.027 11.2852 133.08 11.3669 133.148 11.4356C133.216 11.5043 133.297 11.5587 133.386 11.5952C133.476 11.6318 133.572 11.65 133.669 11.6485V11.6416ZM133.3 10.4311H133.719C133.759 10.4265 133.8 10.4304 133.839 10.4425C133.877 10.4546 133.913 10.4748 133.943 10.5015C133.973 10.5283 133.998 10.5612 134.014 10.5979C134.031 10.6347 134.039 10.6745 134.039 10.7147C134.039 10.7834 134.014 10.8497 133.968 10.9013C133.922 10.9528 133.859 10.986 133.791 10.9948L134.077 11.3943H133.855L133.591 11.0018H133.488V11.3943H133.3V10.4311ZM133.681 10.8496C133.789 10.8496 133.855 10.7977 133.855 10.7147C133.855 10.6317 133.796 10.585 133.691 10.585H133.495V10.8496H133.681Z" fill="#3D3D3D"/>
<path d="M49.7523 15.8844L47.3278 15.9268V43.5435L49.7523 43.3314V30.2472C49.7481 30.2173 49.7499 30.1868 49.7578 30.1576C49.7657 30.1284 49.7793 30.1011 49.798 30.0773C49.8167 30.0535 49.84 30.0338 49.8665 30.0192C49.893 30.0047 49.9222 29.9957 49.9523 29.9927L54.8559 29.7321C54.9771 29.7321 55.0559 29.823 55.0559 29.9685V40.9376C55.0559 45.7858 54.2437 48.7553 50.9767 49.0886L46.0792 49.5917C42.8122 49.925 42 47.01 42 42.0102V18.0055C42 13.0057 42.8122 10.0059 46.0792 10.0059H50.9767C54.2437 10.0059 55.0559 12.9088 55.0559 17.7388V26.5808C55.0601 26.6107 55.0582 26.6412 55.0504 26.6704C55.0425 26.6996 55.0288 26.7269 55.0102 26.7507C54.9915 26.7745 54.9682 26.7942 54.9416 26.8088C54.9151 26.8233 54.886 26.8323 54.8559 26.8353L49.9523 27.0535C49.8311 27.0535 49.7523 26.9626 49.7523 26.8171V15.8844Z" fill="#3D3D3D"/>
<path d="M69.1364 10.0059C69.1657 10.0057 69.1946 10.0117 69.2213 10.0235C69.2481 10.0354 69.272 10.0528 69.2915 10.0745C69.3109 10.0963 69.3256 10.122 69.3344 10.1499C69.3432 10.1777 69.346 10.2072 69.3425 10.2362V46.9736C69.3476 47.0338 69.3288 47.0935 69.2903 47.14C69.2518 47.1865 69.1965 47.2159 69.1364 47.2221L64.239 47.7251C64.1177 47.7251 64.0329 47.6524 64.0329 47.513V31.7078L61.6084 31.8532V47.7614C61.6154 47.8223 61.5984 47.8836 61.5611 47.9322C61.5237 47.9808 61.469 48.013 61.4084 48.022L56.5109 48.525C56.3836 48.525 56.3049 48.4463 56.3049 48.3008V10.2483C56.3049 10.1029 56.3836 10.0059 56.5109 10.0059H61.4084C61.4377 10.0064 61.4665 10.0132 61.493 10.0258C61.5195 10.0384 61.5429 10.0564 61.5619 10.0788C61.5808 10.1012 61.5948 10.1273 61.6028 10.1555C61.6108 10.1837 61.6127 10.2133 61.6084 10.2422V26.1505L64.0329 26.0475V10.2422C64.0295 10.2129 64.0323 10.1832 64.041 10.155C64.0498 10.1269 64.0643 10.1008 64.0837 10.0786C64.1031 10.0563 64.127 10.0384 64.1537 10.0259C64.1804 10.0133 64.2095 10.0065 64.239 10.0059H69.1364Z" fill="#3D3D3D"/>
<path d="M75.8828 31.0108V41.0527L80.9863 40.6103C81.1075 40.6103 81.1864 40.683 81.1864 40.8164V45.7676C81.1914 45.8262 81.1733 45.8844 81.1359 45.9297C81.0985 45.9751 81.0448 46.0039 80.9863 46.01L70.7793 47.0585C70.658 47.0585 70.5732 46.9857 70.5732 46.8464V10.2362C70.5697 10.2072 70.5725 10.1777 70.5813 10.1499C70.5901 10.122 70.6048 10.0963 70.6242 10.0745C70.6437 10.0528 70.6676 10.0354 70.6943 10.0235C70.7211 10.0117 70.75 10.0057 70.7793 10.0059H80.5742C80.6028 10.0058 80.6312 10.0117 80.6575 10.0231C80.6837 10.0346 80.7073 10.0514 80.7267 10.0725C80.7461 10.0936 80.7609 10.1185 80.7701 10.1457C80.7793 10.1728 80.7828 10.2016 80.7803 10.2301V15.1874C80.7828 15.216 80.7793 15.2447 80.7701 15.2719C80.7609 15.299 80.7461 15.3239 80.7267 15.345C80.7073 15.3661 80.6837 15.383 80.6575 15.3944C80.6312 15.4059 80.6028 15.4118 80.5742 15.4117L75.8828 15.4844V25.5323L79.762 25.3627C79.8832 25.3627 79.962 25.4414 79.962 25.5808V30.5563C79.9645 30.585 79.9613 30.6139 79.9525 30.6413C79.9438 30.6687 79.9298 30.6941 79.9112 30.7161C79.8926 30.7381 79.8698 30.7562 79.8442 30.7693C79.8186 30.7824 79.7907 30.7904 79.762 30.7927L75.8828 31.0108Z" fill="#3D3D3D"/>
<path d="M82.6043 45.8465C82.5763 45.8506 82.5477 45.8481 82.5209 45.8392C82.494 45.8303 82.4696 45.8152 82.4496 45.7952C82.4296 45.7752 82.4145 45.7508 82.4056 45.7239C82.3967 45.6971 82.3941 45.6685 82.3982 45.6405V10.2303C82.3947 10.2015 82.3974 10.1724 82.4063 10.1448C82.4151 10.1172 82.4299 10.0919 82.4495 10.0706C82.4691 10.0492 82.493 10.0324 82.5198 10.0213C82.5465 10.0101 82.5754 10.0049 82.6043 10.006H87.5018C87.5296 10.0059 87.5572 10.0116 87.5828 10.0228C87.6083 10.034 87.6312 10.0503 87.65 10.0709C87.6689 10.0914 87.6832 10.1157 87.6921 10.1421C87.701 10.1685 87.7043 10.1964 87.7018 10.2242V40.0226L92.3992 39.6166C92.4267 39.6127 92.4546 39.6152 92.4809 39.6238C92.5073 39.6324 92.5313 39.6469 92.5512 39.6661C92.5711 39.6854 92.5863 39.709 92.5957 39.7351C92.605 39.7612 92.6084 39.789 92.6053 39.8166V44.5981C92.6088 44.6573 92.5893 44.7155 92.5509 44.7606C92.5125 44.8058 92.4582 44.8344 92.3992 44.8405L82.6043 45.8465Z" fill="#3D3D3D"/>
<path d="M101.175 15.0967L98.7508 15.1331V21.3327C98.6866 21.6571 98.7264 21.9934 98.8647 22.2938C99.0029 22.5941 99.2325 22.8432 99.5206 23.0054C100.83 23.6114 101.478 23.9508 102.788 24.5689C105.279 25.7264 106.461 27.1627 106.461 30.5383V36.7198C106.461 40.8893 105.642 43.477 102.382 43.8103L97.478 44.3133C94.2171 44.6527 93.3988 42.1316 93.3988 37.7864V30.7989C93.3971 30.7414 93.4175 30.6854 93.4558 30.6426C93.4942 30.5997 93.5475 30.5732 93.6049 30.5686L98.5024 30.2716C98.5296 30.2689 98.557 30.2722 98.5829 30.2812C98.6087 30.2902 98.6322 30.3047 98.6519 30.3238C98.6715 30.3428 98.6867 30.3659 98.6965 30.3915C98.7062 30.417 98.7103 30.4444 98.7084 30.4716V39.0409L101.133 38.8227V31.0049C101.198 30.6816 101.157 30.346 101.018 30.0473C100.878 29.7485 100.647 29.5022 100.357 29.3444C99.0479 28.7384 98.3993 28.4354 97.0901 27.8172C94.5989 26.6658 93.417 25.1507 93.417 21.6357V16.9451C93.417 12.6059 94.2352 10 97.4962 10H102.4C105.661 10 106.479 12.5029 106.479 16.6663V21.7145C106.481 21.7426 106.476 21.7707 106.467 21.7971C106.457 21.8235 106.442 21.8477 106.423 21.8681C106.404 21.8886 106.38 21.9048 106.355 21.9159C106.329 21.927 106.301 21.9327 106.273 21.9327L101.375 22.1145C101.348 22.1164 101.321 22.1123 101.295 22.1026C101.27 22.0928 101.247 22.0776 101.228 22.0579C101.208 22.0383 101.194 22.0148 101.185 21.989C101.176 21.9631 101.173 21.9357 101.175 21.9085V15.0967Z" fill="#3D3D3D"/>
<path d="M113.008 28.817V37.8286L118.112 37.3862C118.137 37.3814 118.164 37.3827 118.189 37.3898C118.214 37.397 118.237 37.4099 118.257 37.4275C118.276 37.4451 118.291 37.4669 118.301 37.4913C118.31 37.5157 118.314 37.5419 118.312 37.568V41.992C118.313 42.0479 118.293 42.1023 118.256 42.144C118.219 42.1858 118.167 42.2116 118.112 42.2162L107.904 43.2586C107.878 43.2636 107.851 43.2623 107.825 43.2548C107.8 43.2473 107.776 43.2339 107.757 43.2156C107.737 43.1973 107.722 43.1746 107.713 43.1494C107.704 43.1242 107.701 43.0973 107.704 43.0707V10.224C107.703 10.197 107.707 10.17 107.716 10.1446C107.725 10.1192 107.74 10.0961 107.759 10.0767C107.778 10.0573 107.8 10.0421 107.825 10.0319C107.85 10.0218 107.877 10.0171 107.904 10.018H117.705C117.733 10.0152 117.76 10.0185 117.786 10.0275C117.812 10.0365 117.835 10.051 117.855 10.0701C117.875 10.0891 117.89 10.1122 117.9 10.1378C117.909 10.1633 117.913 10.1907 117.912 10.218V14.648C117.913 14.6755 117.909 14.7031 117.899 14.7289C117.89 14.7547 117.875 14.7782 117.855 14.7977C117.836 14.8172 117.812 14.8323 117.786 14.842C117.761 14.8517 117.733 14.8558 117.705 14.8541L113.014 14.9268V23.8899L116.893 23.7203C116.92 23.7175 116.946 23.7206 116.971 23.7293C116.996 23.738 117.019 23.7521 117.038 23.7706C117.058 23.7891 117.072 23.8115 117.082 23.8363C117.091 23.8611 117.095 23.8877 117.093 23.9142V28.3503C117.095 28.3779 117.091 28.4055 117.082 28.4315C117.072 28.4575 117.058 28.4814 117.039 28.5017C117.021 28.5221 116.998 28.5385 116.973 28.55C116.948 28.5614 116.921 28.5677 116.893 28.5685L113.008 28.817Z" fill="#3D3D3D"/>
<path d="M133.417 40.4406C133.417 40.5921 133.332 40.6406 133.211 40.6527L128.313 41.1557C128.192 41.1557 128.107 41.1557 128.107 40.98C127.943 37.8832 127.865 36.3318 127.701 33.2228L124.846 33.441C124.682 36.5984 124.598 38.1862 124.434 41.3557C124.439 41.3839 124.437 41.4127 124.429 41.44C124.421 41.4674 124.406 41.4925 124.387 41.5136C124.368 41.5346 124.344 41.5509 124.317 41.5614C124.291 41.5719 124.262 41.5761 124.234 41.5739L119.33 42.0769C119.209 42.0769 119.13 42.0769 119.13 41.8951C119.724 31.334 120.33 20.771 120.949 10.2059C120.949 10.0483 121.034 10.0059 121.155 10.0059H131.459C131.58 10.0059 131.659 10.0423 131.659 10.1998C132.233 20.2801 132.819 30.3604 133.417 40.4406ZM125.131 28.6958L127.416 28.5564C127.119 23.0294 126.974 20.2599 126.683 14.7026H125.864C125.586 20.2962 125.422 23.09 125.131 28.6958Z" fill="#3D3D3D"/>
<path d="M51.8681 72.6628C51.9292 72.6732 51.984 72.7067 52.0212 72.7563C52.0584 72.8059 52.0752 72.8678 52.0681 72.9294V78.2928C52.0681 78.4382 51.9893 78.5291 51.8681 78.517L47.3949 78.0685V88.9771L51.1044 89.2316C51.1345 89.2346 51.1636 89.2436 51.1901 89.2581C51.2167 89.2727 51.24 89.2924 51.2587 89.3162C51.2773 89.34 51.291 89.3673 51.2989 89.3965C51.3067 89.4257 51.3086 89.4562 51.3044 89.4861V94.8676C51.3044 95.0131 51.2256 95.11 51.1044 95.104L47.3949 94.9161V111.455C47.3949 111.606 47.3161 111.703 47.2009 111.703H42.5095C42.3944 111.703 42.3156 111.606 42.3156 111.455V71.7658C42.3156 71.6143 42.3944 71.5234 42.5095 71.5356L51.8681 72.6628Z" fill="#3D3D3D"/>
<path d="M58.3053 95.4316V105.964L63.1846 106.049C63.2139 106.05 63.2427 106.057 63.2692 106.069C63.2957 106.082 63.3192 106.1 63.3381 106.122C63.357 106.144 63.371 106.171 63.379 106.199C63.387 106.227 63.3889 106.257 63.3846 106.286V111.467C63.3846 111.613 63.3058 111.703 63.1846 111.703H53.4563C53.3412 111.703 53.2624 111.606 53.2624 111.461V73.0631C53.2624 72.9176 53.3412 72.8328 53.4563 72.8449L62.833 73.9539C62.892 73.9629 62.9452 73.9945 62.9814 74.042C63.0176 74.0895 63.0339 74.1492 63.027 74.2085V79.3961C63.027 79.5415 62.9482 79.6264 62.833 79.6142L58.3053 79.1658V89.6925L62.0148 89.9409C62.0738 89.95 62.127 89.9816 62.1632 90.029C62.1994 90.0765 62.2157 90.1362 62.2087 90.1955V95.4013C62.2087 95.5406 62.1299 95.6316 62.0148 95.6255L58.3053 95.4316Z" fill="#3D3D3D"/>
<path d="M71.5969 80.499L69.2513 80.2505V86.9653C69.1965 87.3245 69.2402 87.6918 69.378 88.028C69.5157 88.3642 69.7421 88.6568 70.0331 88.8743C71.2878 89.7046 71.9121 90.0864 73.1607 90.9288C75.5428 92.4559 76.6762 94.1407 76.6762 97.8011V104.492C76.6762 109.007 75.8943 111.716 72.7668 111.716H68.0814C64.9538 111.716 64.1719 108.897 64.1719 104.201V96.6133C64.1719 96.4739 64.2508 96.383 64.372 96.3891L69.0573 96.6133C69.086 96.6163 69.1139 96.625 69.1392 96.6388C69.1645 96.6527 69.1869 96.6714 69.2049 96.694C69.223 96.7165 69.2363 96.7425 69.2443 96.7702C69.2523 96.798 69.2546 96.827 69.2513 96.8557V106.158L71.5969 106.201V97.7163C71.6537 97.3623 71.6106 96.9995 71.4725 96.6687C71.3344 96.3379 71.1067 96.0522 70.8151 95.8437L67.6874 93.8256C65.3054 92.2984 64.1719 90.5227 64.1719 86.7169V81.6323C64.1719 76.9295 64.9538 74.2084 68.0814 74.5721L72.7668 75.1296C75.8943 75.4993 76.6762 78.2991 76.6762 82.814V88.2683C76.6762 88.4016 76.5974 88.4865 76.4823 88.4804L71.7909 88.1228C71.7622 88.1198 71.7343 88.1112 71.709 88.0973C71.6837 88.0835 71.6613 88.0647 71.6433 88.0422C71.6252 88.0196 71.6118 87.9937 71.6039 87.9659C71.5959 87.9382 71.5936 87.9091 71.5969 87.8804V80.499Z" fill="#3D3D3D"/>
<path d="M88.6103 76.9962C88.6666 77.0038 88.7178 77.0324 88.7538 77.0762C88.7898 77.1201 88.8079 77.176 88.8043 77.2326V82.002C88.8043 82.1353 88.7255 82.2141 88.6103 82.202L85.6767 81.9051V111.485C85.6801 111.513 85.6777 111.541 85.6695 111.567C85.6613 111.593 85.6476 111.618 85.6292 111.638C85.6109 111.659 85.5883 111.676 85.563 111.687C85.5378 111.698 85.5104 111.704 85.4828 111.703H80.7974C80.769 111.704 80.7408 111.698 80.7148 111.686C80.6888 111.675 80.6656 111.658 80.6467 111.637C80.6277 111.615 80.6136 111.59 80.6051 111.563C80.5966 111.536 80.594 111.507 80.5974 111.479V81.396L77.6698 81.1051C77.6393 81.1036 77.6093 81.0959 77.5818 81.0824C77.5543 81.0689 77.5299 81.05 77.5101 81.0267C77.4902 81.0034 77.4753 80.9763 77.4663 80.9471C77.4573 80.9178 77.4543 80.887 77.4577 80.8566V75.9054C77.4577 75.772 77.5365 75.6933 77.6516 75.7054L88.6103 76.9962Z" fill="#3D3D3D"/>
<path d="M90.1565 111.704C90.129 111.705 90.1015 111.7 90.076 111.689C90.0504 111.679 90.0274 111.663 90.0085 111.643C89.9896 111.623 89.9751 111.599 89.9662 111.573C89.9572 111.547 89.9539 111.519 89.9565 111.492V77.3722C89.9534 77.3454 89.9566 77.3183 89.9656 77.293C89.9747 77.2676 89.9895 77.2447 90.0088 77.226C90.0281 77.2072 90.0515 77.1932 90.0771 77.1849C90.1027 77.1766 90.1299 77.1743 90.1565 77.1782L94.8419 77.7358C94.8976 77.7419 94.9488 77.7692 94.9849 77.8121C95.0211 77.855 95.0393 77.9101 95.0358 77.9661V111.492C95.0384 111.518 95.0352 111.546 95.0266 111.571C95.018 111.597 95.0041 111.621 94.9859 111.641C94.9676 111.661 94.9453 111.676 94.9205 111.687C94.8957 111.698 94.869 111.704 94.8419 111.704H90.1565Z" fill="#3D3D3D"/>
<path d="M100.733 78.4328C100.848 78.4328 100.927 78.4934 100.927 78.6631C101.383 88.0242 101.84 97.3853 102.297 106.746H103.079L104.442 79.063C104.442 78.8994 104.521 78.8691 104.642 78.8812L109.328 79.4327C109.356 79.4334 109.383 79.4398 109.408 79.4517C109.434 79.4636 109.456 79.4807 109.474 79.5018C109.493 79.523 109.506 79.5477 109.514 79.5744C109.523 79.6011 109.525 79.6292 109.522 79.657C108.916 90.2746 108.334 100.89 107.776 111.504C107.776 111.661 107.697 111.704 107.576 111.704H97.7326C97.6174 111.704 97.5386 111.661 97.5386 111.492C96.9648 100.361 96.3911 89.2181 95.8173 78.0631C95.8173 77.8934 95.8961 77.857 96.0112 77.8692L100.733 78.4328Z" fill="#3D3D3D"/>
<path d="M123.159 111.515C123.159 111.667 123.08 111.703 122.965 111.703H118.31C118.195 111.703 118.116 111.667 118.116 111.509C117.959 108.388 117.886 106.825 117.728 103.691L114.995 103.607L114.601 111.485C114.601 111.643 114.522 111.679 114.407 111.679H109.715C109.6 111.679 109.521 111.643 109.521 111.479C110.091 100.934 110.665 90.3891 111.243 79.8442C111.243 79.6806 111.322 79.6503 111.437 79.6624L121.25 80.8563C121.278 80.8541 121.307 80.8583 121.333 80.8688C121.36 80.8793 121.384 80.8956 121.403 80.9166C121.422 80.9377 121.437 80.9628 121.445 80.9902C121.453 81.0175 121.455 81.0463 121.45 81.0745C122.02 91.2153 122.589 101.362 123.159 111.515ZM115.231 98.8796L117.419 98.9887C117.134 93.4132 116.995 90.6255 116.716 85.05L115.934 84.9712C115.655 90.5043 115.516 93.292 115.237 98.8796H115.231Z" fill="#3D3D3D"/>
<path d="M124.141 111.703C124.116 111.705 124.09 111.701 124.067 111.692C124.043 111.684 124.021 111.67 124.003 111.652C123.984 111.635 123.97 111.613 123.96 111.59C123.951 111.566 123.946 111.541 123.947 111.515V81.3593C123.946 81.3345 123.95 81.3097 123.96 81.2869C123.97 81.264 123.984 81.2436 124.003 81.2272C124.022 81.2109 124.044 81.199 124.068 81.1925C124.092 81.186 124.117 81.185 124.141 81.1896L128.833 81.7472C128.885 81.7503 128.935 81.7733 128.971 81.8116C129.007 81.85 129.027 81.9006 129.027 81.9532V107.212L133.518 107.291C133.543 107.29 133.568 107.295 133.592 107.304C133.615 107.313 133.637 107.327 133.655 107.344C133.673 107.362 133.687 107.383 133.697 107.406C133.707 107.429 133.712 107.454 133.712 107.479V111.521C133.713 111.547 133.709 111.572 133.699 111.595C133.689 111.618 133.675 111.639 133.657 111.657C133.638 111.674 133.616 111.687 133.592 111.695C133.568 111.703 133.543 111.706 133.518 111.703H124.141Z" fill="#3D3D3D"/>
<path d="M100.631 46.3131C100.764 46.3131 100.849 46.3676 100.849 46.4828V50.5916C100.848 50.6192 100.842 50.6464 100.83 50.6715C100.819 50.6966 100.803 50.7192 100.782 50.7378C100.762 50.7565 100.738 50.7709 100.712 50.7801C100.686 50.7893 100.658 50.7933 100.631 50.7916L95.6605 51.131V59.0639L99.77 59.0094C99.7961 59.006 99.8227 59.0081 99.8479 59.0156C99.8732 59.0231 99.8966 59.0359 99.9166 59.053C99.9366 59.0702 99.9528 59.0913 99.9641 59.1151C99.9754 59.1389 99.9815 59.1648 99.9822 59.1912V63.2819C99.9815 63.3082 99.9754 63.3341 99.9641 63.3579C99.9528 63.3817 99.9366 63.4029 99.9166 63.42C99.8966 63.4372 99.8732 63.4499 99.8479 63.4574C99.8227 63.465 99.7961 63.4671 99.77 63.4637L95.6605 63.3849V75.4752C95.6605 75.5842 95.5696 75.6448 95.4423 75.6327L90.2478 75.0873C90.1942 75.089 90.142 75.0696 90.1024 75.0334C90.0627 74.9972 90.0388 74.947 90.0357 74.8934V47.5251C90.0388 47.4716 90.0627 47.4213 90.1024 47.3851C90.142 47.3489 90.1942 47.3295 90.2478 47.3312L100.631 46.3131Z" fill="#3D3D3D"/>
<path d="M102.363 76.3543C102.307 76.3543 102.252 76.3322 102.211 76.2926C102.17 76.253 102.147 76.199 102.145 76.1422V46.368C102.147 46.3112 102.17 46.2573 102.211 46.2177C102.252 46.1781 102.307 46.1559 102.363 46.1559L107.552 45.6408C107.578 45.6342 107.606 45.6339 107.632 45.6397C107.659 45.6455 107.683 45.6574 107.705 45.6745C107.726 45.6915 107.743 45.7132 107.754 45.7378C107.765 45.7625 107.771 45.7894 107.77 45.8166V76.724C107.771 76.751 107.766 76.7779 107.754 76.8024C107.743 76.827 107.726 76.8484 107.705 76.8651C107.683 76.8817 107.658 76.8929 107.632 76.8979C107.605 76.9029 107.578 76.9014 107.552 76.8937L102.363 76.3543Z" fill="#3D3D3D"/>
<path d="M109.285 77.0753C109.228 77.0753 109.172 77.0524 109.131 77.0114C109.09 76.9705 109.067 76.915 109.067 76.8572V45.7073C109.067 45.6495 109.09 45.594 109.131 45.5531C109.172 45.5121 109.228 45.4892 109.285 45.4892L114.474 44.974C114.501 44.9673 114.529 44.967 114.556 44.9731C114.583 44.9793 114.608 44.9917 114.629 45.0095C114.65 45.0272 114.667 45.0497 114.678 45.0751C114.689 45.1006 114.694 45.1282 114.692 45.1558V72.7362L119.668 73.1059C119.697 73.1058 119.726 73.1117 119.753 73.123C119.78 73.1344 119.804 73.151 119.825 73.1719C119.845 73.1928 119.861 73.2176 119.872 73.2447C119.882 73.2719 119.887 73.3009 119.886 73.3301V77.9723C119.888 78 119.883 78.0278 119.872 78.0533C119.861 78.0789 119.845 78.1017 119.824 78.1198C119.802 78.138 119.778 78.151 119.751 78.158C119.724 78.165 119.695 78.1657 119.668 78.1601L109.285 77.0753Z" fill="#3D3D3D"/>
<path d="M121.396 78.3415C121.337 78.3369 121.282 78.3097 121.243 78.2657C121.203 78.2217 121.182 78.1643 121.184 78.1052V44.4948C121.182 44.4357 121.203 44.3783 121.243 44.3343C121.282 44.2903 121.337 44.2631 121.396 44.2585L129.185 43.4888C129.318 43.4888 129.403 43.4888 129.403 43.6888C129.906 49.2643 130.155 52.0702 130.658 57.7244H131.524C132.021 52.0278 132.276 49.1552 132.779 43.3797C132.779 43.1979 132.864 43.1434 132.991 43.1313L140.78 42.3616C140.809 42.3565 140.839 42.3584 140.868 42.3672C140.896 42.3759 140.922 42.3913 140.943 42.412C140.964 42.4327 140.98 42.4581 140.99 42.4863C141 42.5144 141.002 42.5443 140.998 42.5737V80.1475C141.001 80.1766 140.997 80.206 140.987 80.2335C140.977 80.261 140.961 80.2859 140.94 80.3064C140.919 80.3268 140.894 80.3421 140.866 80.3514C140.838 80.3606 140.809 80.3634 140.78 80.3596L135.585 79.8202C135.524 79.8126 135.468 79.7821 135.429 79.7348C135.39 79.6876 135.37 79.6271 135.373 79.5657V59.5001H134.506C133.949 66.0977 133.387 72.6974 132.821 79.299C132.821 79.4808 132.731 79.5172 132.603 79.5051L129.573 79.1899C129.445 79.1899 129.36 79.1233 129.36 78.9415C128.795 72.4772 128.231 66.0129 127.669 59.5486H126.797V78.6869C126.799 78.7154 126.795 78.7439 126.784 78.7705C126.774 78.797 126.757 78.8208 126.736 78.8401C126.715 78.8594 126.69 78.8736 126.663 78.8817C126.635 78.8898 126.607 78.8916 126.578 78.8869L121.396 78.3415Z" fill="#3D3D3D"/>
</svg>
