<svg width="184" height="123" viewBox="0 0 184 123" fill="none" xmlns="http://www.w3.org/2000/svg">
<g clip-path="url(#clip0_9277_326)">
<path d="M62.7315 40.0137H55.9453V82.2057H62.7315V40.0137Z" fill="#3D3D3D"/>
<path d="M86.4847 68.781C86.4847 75.1246 81.0263 75.7147 79.551 75.7147C75.5679 75.7147 74.6826 71.8791 74.6826 69.5187V53.586H67.8965V69.6662C67.8965 73.6493 69.2242 76.8949 71.2896 79.2553C73.2074 81.173 76.1579 82.2058 79.4034 82.2058C81.7638 82.2058 84.8618 81.6157 86.3371 79.8454V82.2058H93.1233V53.5859H86.3371V68.781H86.4847Z" fill="#3D3D3D"/>
<path d="M106.546 43.4062H99.76V53.5854H94.7441V60.3716H99.76V82.2052H106.546V60.3716H111.562V53.5854H106.546V43.4062Z" fill="#3D3D3D"/>
<path d="M132.808 73.6498C131.332 74.9775 129.415 75.7152 127.349 75.7152C122.628 75.7152 119.235 72.3221 119.235 67.4538C119.235 62.5855 122.628 59.3399 127.349 59.3399C129.415 59.3399 131.332 59.93 132.808 61.4052L133.84 62.2904L138.266 57.8646L137.233 56.832C134.43 54.4716 131.037 52.9963 127.349 52.9963C118.94 52.8487 112.744 58.8973 112.744 67.4537C112.744 75.7151 119.088 82.0586 127.349 82.0586C131.185 82.0586 134.725 80.731 137.528 78.223L138.561 77.1903L133.84 72.4696L132.808 73.6498Z" fill="#3D3D3D"/>
<path d="M162.604 56.0939C160.686 54.1761 158.326 53.1434 155.227 53.1434C152.867 53.1434 150.359 53.7335 148.589 55.5038V40.0137H141.803V82.2057H148.589V66.2731C148.589 59.9295 153.31 59.3394 154.785 59.3394C158.768 59.3394 158.768 63.175 158.768 65.5354V82.2057H165.554V65.3879C165.702 61.6998 164.817 58.3068 162.604 56.0939Z" fill="#3D3D3D"/>
<path d="M127.054 72.4681C129.743 72.4681 131.922 70.2885 131.922 67.5998C131.922 64.9111 129.743 62.7314 127.054 62.7314C124.365 62.7314 122.186 64.9111 122.186 67.5998C122.186 70.2885 124.365 72.4681 127.054 72.4681Z" fill="#898989"/>
<path d="M46.6504 71.583C44.1425 74.0908 40.4544 75.5661 36.9138 75.5661C29.2425 75.5661 23.7841 69.6651 23.7841 61.5512C23.7841 53.4374 29.2425 47.5364 36.7663 47.5364C40.3069 47.5364 43.7 49.0116 46.5029 51.5196L47.5356 52.5522L51.9613 48.1265L50.9286 47.0939C47.093 43.2582 42.0771 41.1929 36.7662 41.1929C25.5544 41.3404 17.293 50.0443 17.293 61.6988C17.293 73.3533 25.5544 82.0572 36.7662 82.0572C42.2246 82.0572 47.388 79.9918 50.9286 76.1562L51.9613 75.1235L47.5356 70.4027L46.6504 71.583Z" fill="#3D3D3D"/>
</g>
<defs>
<clipPath id="clip0_9277_326">
<rect width="149" height="42.2167" fill="white" transform="translate(17 40)"/>
</clipPath>
</defs>
</svg>
