<svg width="184" height="123" viewBox="0 0 184 123" fill="none" xmlns="http://www.w3.org/2000/svg">
<path d="M44.613 69.5684C41.2823 69.5885 38.2684 67.5977 36.9798 64.5263C35.6913 61.4549 36.3826 57.9095 38.7306 55.5472C41.0787 53.1849 44.6198 52.4721 47.6989 53.742C50.7781 55.012 52.7872 58.0138 52.7872 61.3446C52.7947 65.8702 49.1386 69.5485 44.613 69.5684ZM44.613 50.0407C40.0413 50.0169 35.9064 52.7526 34.1404 56.9695C32.3743 61.1865 33.3257 66.0523 36.5501 69.2935C39.7744 72.5347 44.6352 73.5114 48.8613 71.7674C53.0874 70.0234 55.8446 65.9028 55.8446 61.331C55.8447 55.1184 50.8256 50.073 44.613 50.0407Z" fill="#3D3D3D"/>
<path d="M86.3187 50.6914C86.215 50.6923 86.1192 50.7471 86.0658 50.836L74.4909 66.5747L62.9161 50.836C62.8618 50.7457 62.764 50.6908 62.6587 50.6914C62.4908 50.6914 62.354 50.8262 62.3516 50.994V71.9624H65.4135V59.5792L74.3103 71.5921C74.3549 71.6458 74.4211 71.6769 74.4909 71.6769C74.5607 71.6769 74.6269 71.6458 74.6716 71.5921L83.5683 59.5792V71.9624H86.6303V50.994C86.6291 50.9126 86.5956 50.8349 86.5371 50.7782C86.4787 50.7214 86.4001 50.6902 86.3187 50.6914Z" fill="#3D3D3D"/>
<path d="M105.351 61.2589H98.2155V53.7621H105.351C107.419 53.7621 109.095 55.4383 109.095 57.506C109.095 59.5737 107.419 61.2499 105.351 61.2499M105.351 50.6821H95.1445V71.9531H98.2065V64.3389H105.342C109.111 64.3389 112.166 61.2838 112.166 57.515C112.166 53.7463 109.111 50.6912 105.342 50.6912" fill="#3D3D3D"/>
<path d="M19.3319 69.568C15.4733 69.5897 12.1185 66.9258 11.2653 63.1626C10.4121 59.3995 12.29 55.5492 15.7807 53.9047C19.2714 52.2601 23.436 53.2637 25.7945 56.3177L27.9939 54.1454C24.9586 50.4782 19.9493 49.1087 15.4705 50.7217C10.9917 52.3348 8.00586 56.5837 8.00586 61.3441C8.00586 66.1045 10.9917 70.3535 15.4705 71.9665C19.9493 73.5796 24.9586 72.2101 27.9939 68.5428L25.7945 66.3706C24.2567 68.3857 21.8668 69.5681 19.3319 69.568Z" fill="#3D3D3D"/>
<path d="M148.466 59.3843L146.122 58.8514C143.602 58.3095 143.412 56.5933 143.412 56.0559C143.412 54.3172 144.799 53.3191 147.215 53.3191C149.699 53.3191 151.514 55.0037 152.07 55.5772L154.224 53.4591C152.201 51.3366 149.911 50.2979 147.215 50.2979C143.11 50.2979 140.35 52.6056 140.35 56.0424C140.35 57.1353 140.35 60.4591 145.869 61.8185L148.434 62.4237C150.814 63.0785 151.97 64.2301 151.97 65.9372C151.97 67.9379 150.042 69.3333 147.287 69.3333C144.338 69.3333 142.523 67.3056 141.981 66.6237L139.854 68.7191C141.303 70.372 143.778 72.332 147.319 72.332C151.731 72.332 155.059 69.5772 155.059 65.9282C155.059 62.6585 152.801 60.3914 148.488 59.3753" fill="#3D3D3D"/>
<path d="M169.072 59.3843L166.728 58.8514C164.208 58.3095 164.018 56.5933 164.018 56.0559C164.018 54.3172 165.405 53.3191 167.821 53.3191C170.305 53.3191 172.12 55.0037 172.671 55.5772L174.83 53.4591C172.807 51.3366 170.512 50.2979 167.821 50.2979C163.716 50.2979 160.956 52.6056 160.956 56.0424C160.956 57.1353 160.956 60.4591 166.475 61.8185L169.054 62.4101C171.429 63.0649 172.585 64.2166 172.585 65.9237C172.585 67.9243 170.661 69.3198 167.907 69.3198C164.958 69.3198 163.138 67.292 162.6 66.6101L160.441 68.7282C161.891 70.3811 164.366 72.3411 167.907 72.3411C172.319 72.3411 175.647 69.5862 175.647 65.9372C175.647 62.6675 173.389 60.4004 169.076 59.3843" fill="#3D3D3D"/>
<path d="M121.099 63.4316L124.603 56.7478L128.112 63.4316H121.099ZM124.603 50.502C124.483 50.503 124.374 50.5733 124.323 50.6826L113.164 71.9626H116.628L119.482 66.5116H129.72L132.579 71.9626H136.038L124.883 50.6826C124.832 50.5741 124.723 50.5041 124.603 50.502Z" fill="#3D3D3D"/>
<path d="M39.7852 64.0049L41.9484 66.1817L49.4361 58.6533L47.2684 56.4766L39.7852 64.0049Z" fill="#3D3D3D"/>
</svg>
