<svg width="184" height="123" viewBox="0 0 184 123" fill="none" xmlns="http://www.w3.org/2000/svg">
<g clip-path="url(#clip0_9243_466)">
<path d="M44.4092 48.4593V27H48.6309C48.6394 27.1875 48.6547 27.3562 48.6547 27.5248C48.6555 37.2677 48.6623 47.0114 48.6504 56.7543C48.6479 58.93 48.6521 61.1143 48.1994 63.2573C47.2769 67.6234 44.974 71.0663 41.2994 73.5267C34.1692 78.3014 24.4567 76.6307 19.3007 69.7337C16.6827 66.2331 15.6812 62.2405 16.0872 57.8891C16.4661 53.825 18.1012 50.346 21.0174 47.5207C23.6277 44.9923 26.7562 43.5384 30.3467 43.1487C33.8107 42.7727 37.1108 43.3233 40.1781 45.0611C41.5839 45.8578 42.8258 46.8686 43.9292 48.0558C44.0354 48.1703 44.1433 48.2847 44.252 48.3965C44.269 48.4137 44.2996 48.4163 44.4083 48.4585L44.4092 48.4593ZM44.331 59.4402C44.3038 59.1098 44.2784 58.4646 44.1917 57.828C44.1195 57.2912 43.9989 56.7586 43.8621 56.2347C42.0656 49.3162 34.8496 45.4517 28.2851 47.8881C21.7708 50.3055 18.5328 57.7101 21.138 64.2407C23.1928 69.3913 28.5536 72.9288 34.379 71.8836C39.9743 70.8787 44.3845 65.5509 44.3302 59.4402H44.331Z" fill="#3D3D3D"/>
<path d="M107.373 69.2301C108.225 62.586 109.072 55.9806 109.921 49.3623H129.165V57.031H124.65V53.9537C124.432 53.9537 124.267 53.9537 124.102 53.9537C120.778 53.9374 117.452 53.9279 114.127 53.8944C113.708 53.8901 113.588 54.0148 113.541 54.4381C113.236 57.1824 112.896 59.9225 112.568 62.6643C112.508 63.1598 112.458 63.657 112.396 64.218C112.866 64.2756 113.322 64.3264 113.777 64.3874C119.318 65.1342 124.208 67.2428 128.049 71.4789C130.834 74.551 132.545 78.1884 133.317 82.2696C134.22 87.0417 134.036 91.7785 132.456 96.3803C129.838 104.003 124.556 108.75 116.877 110.783C114.589 111.388 112.245 111.627 109.896 111.292C108.236 111.055 106.602 110.631 104.957 110.29C104.891 110.276 104.829 110.246 104.727 110.209C105.218 108.79 105.702 107.39 106.197 105.961C106.825 106.138 107.425 106.333 108.038 106.476C112.584 107.535 116.924 107.091 120.925 104.529C123.927 102.607 125.97 99.8438 127.393 96.5936C128.901 93.1481 129.572 89.5443 129.379 85.7667C128.987 78.123 123.276 71.0642 115.952 69.2275C114.258 68.8025 112.538 68.75 110.81 68.8859C109.685 68.9746 108.562 69.1088 107.373 69.2292V69.2301Z" fill="#3D3D3D"/>
<path d="M167.975 75.6303H163.776V70.7344C163.623 70.8686 163.537 70.9305 163.467 71.0071C160.615 74.142 157.097 75.8901 152.893 76.1568C147.071 76.5259 142.272 74.4629 138.679 69.7777C136.332 66.7176 135.285 63.1766 135.392 59.3096C135.547 53.6892 137.838 49.1718 142.389 45.9156C145.287 43.8422 148.566 42.963 152.108 43.0447C158.447 43.191 164.758 47.0279 167.168 54.3585C167.781 56.2237 167.959 58.1697 167.973 60.1183C168.011 65.1605 167.996 70.2027 168.001 75.2458C168.001 75.3576 167.987 75.4703 167.976 75.6303H167.975ZM152.228 72.0678C154.801 72.0437 157.594 70.9933 159.864 68.766C163.588 65.1123 164.538 60.6697 163.058 55.7213C161.162 49.3869 154.8 45.8657 148.602 47.6069C142.539 49.3103 138.705 55.4589 139.78 61.7511C140.803 67.7397 145.76 72.0515 152.227 72.0678H152.228Z" fill="#3D3D3D"/>
<path d="M69.3633 59.6299C69.4134 50.429 76.7415 42.9839 85.6946 43.0399C94.8982 43.0966 102.005 50.4419 101.935 59.8243C101.866 69.094 94.5695 76.2844 85.2902 76.2268C76.502 76.1717 69.3149 68.6811 69.3641 59.6299H69.3633ZM97.6402 59.7108C97.6427 57.3983 97.0677 55.2406 95.9184 53.2439C92.6897 47.6364 85.8143 45.5494 80.2964 48.4976C73.5986 52.0765 71.582 60.824 76.107 66.9803C78.8744 70.7458 82.5805 72.6006 87.2745 71.9279C93.2231 71.0753 97.6529 65.8 97.6411 59.7108H97.6402Z" fill="#3D3D3D"/>
<path d="M66.7541 43.5619V47.7447C66.106 47.7825 65.4536 47.7662 64.8199 47.8703C63.8626 48.0277 62.8815 48.1636 61.9786 48.4966C60.1209 49.1822 59.2833 50.7411 58.8781 52.5985C58.54 54.1487 58.5129 55.7231 58.5129 57.2992C58.5112 63.2163 58.5129 69.1326 58.5129 75.0497C58.5129 75.2321 58.5129 75.4145 58.5129 75.6494H57.536C56.6161 75.6494 55.6961 75.627 54.777 75.6588C54.3532 75.6734 54.2512 75.5246 54.2648 75.122C54.2929 74.2918 54.2725 73.4608 54.2733 72.6297C54.2793 67.0713 54.2793 61.5121 54.2946 55.9537C54.2997 54.1883 54.4636 52.4376 54.9597 50.7342C56.0784 46.8921 58.7371 44.7526 62.4908 43.9559C63.8601 43.6651 65.2931 43.6866 66.755 43.561L66.7541 43.5619Z" fill="#3D3D3D"/>
</g>
<defs>
<clipPath id="clip0_9243_466">
<rect width="152" height="84.4444" fill="white" transform="translate(16 27)"/>
</clipPath>
</defs>
</svg>
