<svg width="184" height="123" viewBox="0 0 184 123" fill="none" xmlns="http://www.w3.org/2000/svg">
<g clip-path="url(#clip0_9243_542)">
<path d="M106.202 51.7711C106.629 50.8227 106.844 49.7531 106.822 48.7124C106.821 42.4726 106.824 36.2313 106.821 29.9914C106.878 28.8159 106.724 27.6692 106.277 26.5776C106.054 26.0531 105.591 25.6085 105.165 25.2424C104.707 24.8487 104.166 24.6711 103.608 24.4674C102.137 23.9746 100.637 23.9457 99.1054 24.0475C98.204 24.2182 97.3409 24.4715 96.5971 25.0317C95.5682 25.6773 95.0983 26.8061 94.8901 27.9624C94.7353 28.8228 94.7641 29.6735 94.76 30.5421C94.7613 36.5066 94.7572 42.4726 94.7627 48.4371C94.7613 49.8674 94.9929 51.4518 95.8614 52.6301C96.7423 53.7341 98.0067 54.1209 99.3575 54.2723C100.621 54.3411 101.878 54.2916 103.11 53.9874C104.393 53.6212 105.551 52.9907 106.202 51.7711ZM102.619 49.113C102.502 49.5026 102.285 49.8619 101.88 49.9926C101.329 50.1688 100.727 50.195 100.158 50.1193C99.626 50.0339 99.1232 49.6939 99.0246 49.1309C98.9424 48.5431 98.9753 47.9292 98.9725 47.3359V30.6797C98.9767 30.18 98.9465 29.6569 99.0315 29.1641C99.1369 28.6631 99.5315 28.2928 100.033 28.2061C100.66 28.0932 101.371 28.1193 101.975 28.3313C102.595 28.6369 102.714 29.3582 102.71 29.9859C102.717 35.9519 102.71 41.9233 102.714 47.8879C102.71 48.2857 102.728 48.729 102.619 49.113Z" fill="#3D3D3D"/>
<path d="M80.2625 52.1549C80.2652 52.7152 80.231 53.2603 80.3022 53.8178C80.8337 53.9183 81.4009 53.8783 81.942 53.8894C82.7571 53.8687 83.5325 54.1 84.3531 54.027C84.3778 50.8816 84.3545 47.7307 84.3641 44.5839C84.3545 44.4132 84.4148 44.2577 84.5435 44.1159C85.3641 44.0429 86.1724 44.131 86.9889 44.0746C88.1136 43.9342 89.1794 43.6919 90.1302 43.0422C91.2206 42.3512 91.8631 41.0242 92.0481 39.7756C92.1837 39.0777 92.1371 38.406 92.1426 37.7012C92.144 34.8999 92.1399 32.0987 92.1454 29.296C92.1426 29.0675 92.1344 28.8417 92.0727 28.6187C91.9125 28.0365 91.8508 27.4941 91.57 26.9518C91.1672 26.1079 90.5233 25.3797 89.6822 24.9613C89.0465 24.6529 88.3588 24.463 87.6547 24.401C87.7273 24.3638 87.7999 24.3253 87.8725 24.2881C87.0341 24.3005 86.1984 24.1353 85.3655 24.2221C84.5518 24.2923 83.7544 24.2193 82.9448 24.3473C82.0708 24.4795 81.1694 24.3267 80.3022 24.4712C80.231 25.0301 80.2638 25.5766 80.2611 26.1382C80.2625 34.8104 80.2611 43.4827 80.2625 52.1549ZM84.3764 28.309C84.9751 28.2485 85.5847 28.2787 86.1861 28.2787C86.8807 28.2884 87.5547 28.605 87.8465 29.2685C87.9369 29.5851 87.9177 29.9402 87.9287 30.2665C87.9314 32.9301 87.93 35.5951 87.9259 38.2573C87.9314 38.7116 87.8602 39.1273 87.53 39.4632C87.1341 39.8569 86.5985 39.9849 86.056 39.9725C85.497 39.9601 84.9258 40.0152 84.3723 39.9394C84.3161 39.5113 84.3476 39.0943 84.3463 38.6648C84.3463 35.6818 84.3449 32.7002 84.3463 29.7172C84.3504 29.252 84.3148 28.7674 84.3764 28.309Z" fill="#3D3D3D"/>
<path d="M65.2759 48.3038C65.2622 49.6142 65.6554 50.933 66.6431 51.8332C67.6582 52.7294 69.0104 53.0432 70.3077 53.269C71.0543 53.3598 71.7681 53.5071 72.4928 53.4204C73.2449 53.3144 74.0216 53.2387 74.6833 52.8381C75.2628 52.5215 75.7724 52.1223 76.1231 51.5524C76.6958 50.6287 76.9328 49.5082 76.9834 48.4318C77.1067 47.5109 76.9232 46.6079 77.0013 45.6842C77.0602 45.0386 76.9766 44.4026 76.9971 43.757C76.9739 42.6517 77.0793 41.5587 77.004 40.4533C76.9533 39.8077 77.0629 39.1718 77.0177 38.5262C76.9095 37.0533 77.1013 35.5955 77.0095 34.1212C76.993 33.2953 77.0752 32.4721 77.0081 31.6434C76.9328 30.8134 77.0793 29.9943 77.0136 29.1657C76.9067 27.6735 77.1382 26.246 76.9834 24.7456C76.3012 24.5859 75.5121 24.791 74.8135 24.8061C74.1805 24.864 73.4216 24.8227 72.8394 25.0883C72.8476 32.6855 72.8394 40.2881 72.8435 47.888C72.8407 48.3079 72.8092 48.6933 72.5133 49.0168C72.1092 49.5289 71.2872 49.4807 70.7187 49.3582C70.0803 49.2632 69.509 48.8392 69.3104 48.2115C69.235 47.8385 69.2474 47.4407 69.2392 47.0607C69.2364 40.3611 69.2392 33.6628 69.2378 26.9632C69.2309 26.4511 69.2775 25.9487 69.1816 25.4614C68.9213 25.365 68.6473 25.4256 68.3788 25.4531C67.3555 25.5825 66.2842 25.6417 65.2882 25.9129C65.2595 33.3641 65.2828 40.8484 65.2759 48.3038Z" fill="#3D3D3D"/>
<path d="M109.841 26.4138C109.843 34.8107 109.841 43.2077 109.841 51.6046C109.847 52.1387 109.798 52.7031 109.904 53.2206C110.378 53.2496 110.834 53.1738 111.298 53.0926C111.968 53.0238 112.635 52.9357 113.307 52.8793C113.471 52.8669 113.627 52.8091 113.774 52.7058C113.849 50.5185 113.693 48.2789 113.679 46.1039C113.633 44.4507 113.657 42.7961 113.607 41.1428C113.53 40.2701 113.56 39.4015 113.541 38.5274C113.535 38.0153 113.501 37.5184 113.563 37.0077C113.79 36.9788 113.807 37.2844 113.878 37.4386C114.211 38.7298 114.718 39.9659 115.092 41.2461C115.44 42.1794 115.542 43.1677 115.881 44.1024C116.401 45.6662 116.807 47.2616 117.34 48.8185C117.674 49.9087 117.982 51.0058 118.321 52.0933C118.93 52.1593 119.475 52.0024 120.067 51.9047C120.685 51.7904 121.28 51.7794 121.874 51.5454C121.88 43.3109 121.88 34.9787 121.874 26.7442C121.152 26.5198 120.374 26.4647 119.632 26.3367C119.141 26.2817 118.567 26.1027 118.09 26.2459C118.055 26.6712 118.07 27.0911 118.114 27.515C118.208 29.6693 118.125 31.8333 118.267 33.9848C118.281 36.0455 118.348 38.1158 118.314 40.1751C118.015 39.4992 117.879 38.7587 117.611 38.0676C117.256 36.7696 116.851 35.4894 116.414 34.2188C115.69 31.5704 114.844 28.9646 114.052 26.3381C113.948 26.0477 113.915 25.5521 113.55 25.4736C113.028 25.3484 112.474 25.3511 111.942 25.2644C111.274 25.2217 110.593 25.0497 109.932 25.0992C109.783 25.4984 109.852 25.9912 109.839 26.4138H109.841Z" fill="#3D3D3D"/>
<path d="M130.638 32.6374C131.64 32.7008 132.592 33.2101 133.603 33.2761C133.691 32.7021 133.638 32.0951 133.648 31.5073C133.64 30.9636 133.682 30.4061 133.619 29.8651C133.549 29.7825 133.459 29.7192 133.347 29.6779C130.947 28.7762 128.483 28.165 125.989 27.5965C125.341 27.4506 124.597 27.1849 123.934 27.2813C123.939 28.5284 123.926 29.7783 123.942 31.0269C124.442 31.3394 124.927 31.2513 125.486 31.3724C125.939 31.466 126.407 31.5376 126.849 31.6766C126.985 31.839 126.927 32.1309 126.946 32.3318C126.934 38.3322 126.945 44.3381 126.941 50.3384C127.419 50.4238 127.955 50.1485 128.424 50.0521C129.138 49.8319 129.96 49.7644 130.615 49.4024C130.66 48.8517 130.636 48.3025 130.637 47.7505C130.637 42.7124 130.636 37.6756 130.637 32.6374H130.638Z" fill="#3D3D3D"/>
<path d="M51.0134 49.1063C51.5025 49.4036 52.1244 49.4889 52.6642 49.6775C53.6629 50.0107 54.6917 50.1524 55.7109 50.4085C56.6562 50.6439 57.6563 50.6618 58.6207 50.5682C59.381 50.4016 60.229 50.1648 60.8373 49.6569C61.2729 49.3086 61.5455 48.7924 61.8195 48.3134C62.2278 47.6279 62.2839 46.74 62.2908 45.9595C62.2908 41.3715 62.2921 36.7821 62.2908 32.194C62.2867 31.2442 62.1182 30.3274 61.5661 29.5387C61.0359 28.8353 60.4016 28.242 59.5427 27.9818C58.6618 27.6432 57.7933 27.6886 56.8699 27.7189C55.952 27.7946 55.0397 28.0355 54.1341 28.2021C53.0957 28.3893 52.1217 28.7898 51.0915 29.0156C50.9805 29.284 50.9531 29.5621 50.9531 29.8498C50.9613 36.0442 50.9531 42.2456 50.9572 48.4414C50.9627 48.6644 50.9901 48.8846 51.0148 49.1063H51.0134ZM54.6355 31.9215C55.0068 31.6875 55.5068 31.642 55.9301 31.5498C56.5946 31.4287 57.4699 31.3075 58.0727 31.6861C58.4878 31.9917 58.6152 32.5203 58.6001 33.0145C58.6001 36.917 58.596 40.8195 58.6015 44.7206C58.5864 45.263 58.6714 45.764 58.3837 46.2486C58.133 46.7028 57.6494 46.8873 57.1507 46.8694C56.3247 46.8653 55.3822 46.7372 54.6355 46.3697C54.5876 45.8191 54.6122 45.2726 54.6109 44.7206C54.6095 41.0039 54.6109 37.2873 54.6109 33.5706C54.6122 33.0186 54.5848 32.4721 54.6355 31.9215Z" fill="#3D3D3D"/>
<path d="M37.7466 41.5156C38.0644 42.1626 38.5686 42.537 39.033 43.089C39.8289 44.0002 40.8673 44.5522 41.8085 45.2612C42.3578 45.6672 42.9592 45.9136 43.5456 46.2729C43.8415 46.4519 44.1141 46.6074 44.4703 46.6157C44.4785 41.762 44.4648 36.9028 44.4771 32.0505C44.4703 31.8798 44.4867 31.7256 44.3785 31.5811C43.8045 31.8178 43.2551 32.1317 42.7154 32.44C42.151 32.7883 41.5331 33.0787 41.0153 33.4848C40.4248 33.9583 39.7727 34.3039 39.2631 34.8765C38.574 35.613 37.7836 36.4348 37.4096 37.3832C37.1013 38.1403 36.9712 39.0075 37.1205 39.8169C37.2507 40.4061 37.4794 40.976 37.7466 41.5156Z" fill="#3D3D3D"/>
<path d="M138.829 46.3995C140.802 45.3148 142.949 43.9947 144.371 42.2176C144.948 41.3669 145.523 40.2725 145.474 39.2167C145.548 38.0962 145.049 36.944 144.393 36.0603C143.434 34.9921 142.345 33.9335 141.121 33.1778C140.194 32.6272 139.364 32.0697 138.339 31.6966C138.251 31.6581 138.164 31.6691 138.077 31.7324C138.024 32.1523 138.077 32.5955 138.065 33.0209C138.057 37.5483 138.08 42.0758 138.053 46.6032C138.369 46.6101 138.557 46.5592 138.829 46.3995Z" fill="#3D3D3D"/>
<path d="M148.321 76.4464C148.041 76.017 147.748 75.6233 147.539 75.1525C149.34 73.4841 151.013 71.8419 152.259 69.689C152.754 68.7887 153.24 67.8375 153.516 66.8437C153.776 65.8691 154.017 64.922 153.964 63.902C151.621 63.891 149.272 63.8731 146.93 63.9116C146.559 65.4451 146.226 66.9056 145.417 68.2849C144.188 70.6333 142.311 72.4159 140.137 73.8792C139.748 74.1159 139.327 74.5234 138.864 74.5688C138.878 68.0619 138.864 61.5522 138.871 55.0453C138.868 54.6365 138.908 54.218 138.816 53.8257C138.019 53.8546 137.222 53.8752 136.424 53.9124C134.864 54.0418 133.302 54.0611 131.742 54.1547C131.742 65.4506 131.753 76.7507 131.736 88.0452C132.335 88.1498 132.977 88.0893 133.587 88.1003C135.332 88.0893 137.079 88.1223 138.823 88.0865C138.92 87.5001 138.853 86.8862 138.868 86.2929C138.882 84.535 138.846 82.773 138.885 81.0166C139.711 80.5196 140.557 80.0475 141.366 79.5175C141.685 79.3083 141.979 79.0839 142.34 78.9449C142.473 79.1128 142.601 79.2835 142.715 79.4652C143.553 80.8183 144.452 82.1316 145.285 83.4888C146.302 85.0003 147.21 86.5943 148.274 88.0714C149.813 88.1443 151.364 88.0796 152.903 88.1003C153.91 88.0837 154.923 88.1361 155.928 88.0741C155.861 87.8002 155.701 87.5854 155.547 87.3556C153.12 83.7256 150.753 80.0736 148.321 76.4464Z" fill="#3D3D3D"/>
<path d="M48.5761 54.9706C48.0527 54.9417 47.5322 54.961 47.0075 54.9596C38.7467 54.9569 30.486 54.961 22.2252 54.9569L22.006 54.9706C21.9964 56.8992 22.0005 58.8373 22.0033 60.7673C24.5829 60.7934 27.1666 60.7673 29.7462 60.7783C30.3517 60.7865 30.9449 60.7425 31.5367 60.8113C31.5956 61.3688 31.5668 61.9194 31.5696 62.4783C31.5696 71.006 31.5696 79.5337 31.5682 88.06C32.3696 88.1509 33.1875 88.0793 33.993 88.1013C35.6424 88.0834 37.2973 88.1357 38.944 88.0738C39.018 87.6113 38.981 87.1776 38.9837 86.7055C38.9823 78.0869 38.9851 69.4684 38.9823 60.8499C39.4399 60.7191 39.9591 60.7907 40.4317 60.7769C43.1456 60.7686 45.8636 60.7989 48.5761 60.7631C48.5665 58.8332 48.5665 56.9019 48.5761 54.9706Z" fill="#3D3D3D"/>
<path d="M123.064 66.0322C120.995 64.1904 118.243 63.3231 115.505 63.3355C113.751 63.2915 111.954 63.5104 110.304 64.1312C107.948 64.964 105.781 66.5856 104.448 68.7233C103.575 69.9677 103.056 71.5315 102.719 73.0044C102.476 74.2006 102.416 75.4409 102.457 76.6591C102.552 77.8705 102.665 79.0502 103.067 80.2065C103.712 82.2961 104.957 84.1778 106.649 85.5571C108.721 87.2778 111.447 88.2193 114.092 88.5346C117.572 88.887 121.14 88.4781 124.474 87.4223C124.787 87.3108 125.171 87.2089 125.413 86.9736C125.096 85.2391 124.646 83.5349 124.337 81.7978C123.949 81.8377 123.611 81.9863 123.245 82.1102C120.865 82.9403 118.292 83.2596 115.781 83.0738C114.095 82.9059 112.274 82.2203 111.236 80.8066C110.506 79.8899 110.182 78.812 109.943 77.6791C115.177 77.686 120.416 77.6778 125.649 77.6833C125.861 77.6805 126.06 77.6833 126.256 77.5869C126.367 75.6708 126.56 73.6871 126.226 71.7641C125.824 69.5919 124.722 67.4996 123.064 66.0322ZM119.512 73.6569C118.95 73.7161 118.396 73.6844 117.835 73.6871C115.643 73.6871 113.451 73.6858 111.259 73.6871C110.786 73.6844 110.355 73.7216 109.892 73.6362C110.056 71.9128 110.976 70.115 112.517 69.2464C113.63 68.5884 114.869 68.4811 116.132 68.6242C117.31 68.839 118.384 69.4914 118.964 70.5679C119.449 71.5012 119.673 72.6121 119.512 73.6569Z" fill="#3D3D3D"/>
<path d="M66.2225 63.9008C66.1157 64.0729 66.0389 64.2505 65.9773 64.4446C64.7978 67.9314 63.5169 71.3782 62.3469 74.8678C61.4894 77.1941 60.7167 79.5508 59.8701 81.8813C59.681 81.8537 59.5988 81.5715 59.5084 81.427C58.818 79.9802 58.1029 78.5638 57.5699 77.0482C56.2288 73.7005 55.5137 70.0375 55.078 66.4667C54.9999 65.6284 54.8999 64.7928 54.8547 63.9518C54.5876 63.8582 54.2834 63.8926 53.9985 63.8871C51.9874 63.8981 49.9736 63.8939 47.9625 63.8871C47.7063 63.8774 47.6392 64.0206 47.6625 64.256C47.8475 66.2671 48.1132 68.2727 48.4735 70.2605C49.1188 73.4334 50.0791 76.5499 51.449 79.4847C52.7751 82.4622 54.4807 85.2978 56.2493 88.0261C56.6904 88.1652 57.2151 88.0702 57.6768 88.1225C57.4658 88.9402 57.1069 89.7179 56.8466 90.5218C56.3767 91.97 55.8096 93.3809 55.3506 94.8332C54.9534 96.0308 54.4273 97.2036 54.1355 98.4301C55.8671 98.4755 57.6056 98.4342 59.3385 98.448C59.966 98.4342 60.6071 98.4934 61.2304 98.4122C62.2086 95.783 63.0785 93.1084 64.0388 90.4709C64.5046 89.1948 64.8991 87.8954 65.3868 86.6276C67.4678 80.6176 69.6268 74.5814 71.7023 68.5673C72.2051 67.0132 72.89 65.4839 73.2942 63.9022C70.9379 63.8857 68.5788 63.8871 66.2225 63.9008Z" fill="#3D3D3D"/>
<path d="M92.5523 63.9072C92.4701 65.7531 92.2427 67.5826 91.9728 69.4092C91.5056 71.8113 90.9686 74.1597 90.1014 76.4544C89.2863 78.6225 88.3041 80.712 87.1451 82.7149C86.5341 81.8215 86.104 80.7878 85.6341 79.8132C84.3559 77.0793 83.3654 74.1858 82.7736 71.2221C82.1982 68.8545 81.9366 66.3272 81.7393 63.9099C79.5693 63.8604 77.3939 63.9168 75.2225 63.8824C75.0321 63.8934 74.7923 63.8508 74.6197 63.9375C74.5307 64.166 74.6046 64.4702 74.6115 64.7111C74.7142 65.5659 74.7978 66.4221 74.8937 67.277C75.3691 70.6839 76.1212 74.0331 77.4007 77.2308C78.7159 80.6694 80.568 83.9621 82.5407 87.0607C82.7572 87.3883 82.9284 87.7875 83.2065 88.0642C83.4161 88.1041 83.6408 88.1027 83.8531 88.1055C85.819 88.0958 87.7835 88.1013 89.748 88.1013C90.1891 88.0958 90.6494 88.1385 91.0864 88.0655C91.2152 87.9664 91.2988 87.804 91.3865 87.6691C91.9454 86.7207 92.5153 85.7791 93.0756 84.832C95.1812 81.0906 96.9594 77.228 98.0718 73.0653C98.8759 70.0741 99.3897 66.9906 99.6993 63.9099C97.3197 63.8783 94.9332 63.8838 92.5523 63.9072Z" fill="#3D3D3D"/>
<path d="M161.187 84.8552C160.557 84.4366 159.691 84.3843 158.972 84.5482C158.472 84.6666 158.03 84.9474 157.74 85.3784C157.426 85.7887 157.382 86.3532 157.419 86.8516C157.463 87.7065 158.187 88.4101 158.998 88.5767C159.88 88.7832 161.005 88.6262 161.607 87.8814C162.029 87.3775 162.029 86.7772 161.982 86.1521C161.924 85.6138 161.638 85.1485 161.187 84.8552ZM161.313 87.3142C161.057 87.9915 160.28 88.2311 159.618 88.2008C158.977 88.2036 158.358 87.8979 158.095 87.288C157.97 86.9424 157.992 86.5294 158.021 86.1659C158.05 85.64 158.537 85.1856 159.005 85.0108C159.584 84.8869 160.432 84.8345 160.901 85.2765C161.509 85.7143 161.572 86.6684 161.313 87.3142Z" fill="#3D3D3D"/>
<path d="M160.594 85.9012C160.371 85.2844 159.423 85.4275 158.919 85.4688C158.856 86.16 158.867 86.8732 158.915 87.5657C159.054 87.5946 159.187 87.5946 159.312 87.563C159.475 87.4198 159.423 87.0659 159.483 86.8608C159.767 86.9751 159.915 87.3509 160.144 87.5533C160.304 87.629 160.51 87.6098 160.684 87.6249C160.626 87.344 160.43 87.1224 160.281 86.8677C160.471 86.5414 160.758 86.3142 160.594 85.9012ZM159.401 86.3885C159.394 86.2343 159.396 86.0788 159.405 85.9246C159.667 85.7855 159.919 85.842 160.107 86.0664C160.192 86.4436 159.653 86.5193 159.401 86.3885Z" fill="#3D3D3D"/>
</g>
<defs>
<clipPath id="clip0_9243_542">
<rect width="140" height="74.4545" fill="white" transform="translate(22 24)"/>
</clipPath>
</defs>
</svg>
