<svg width="184" height="123" viewBox="0 0 184 123" fill="none" xmlns="http://www.w3.org/2000/svg">
<g clip-path="url(#clip0_9243_473)">
<mask id="mask0_9243_473" style="mask-type:luminance" maskUnits="userSpaceOnUse" x="2" y="43" width="179" height="58">
<path d="M180.553 43.2554H2.44727V100.055H180.553V43.2554Z" fill="white"/>
</mask>
<g mask="url(#mask0_9243_473)">
<path d="M20.119 77.9574H6.86258V61.7785H17.165C17.9009 61.7785 18.395 62.2621 18.395 63.2397H18.6367V59.3816H18.395C18.395 60.3593 17.9009 60.8428 17.165 60.8428H6.86258V44.6744H18.6473C21.349 44.6744 22.2531 46.8505 22.8208 48.091H23.0626L21.5908 43.7388H2.44727V43.9806C3.42494 43.9806 3.91904 44.4641 3.91904 45.2V77.4213C3.91904 78.1572 3.42494 78.6408 2.44727 78.6408V78.8825H23.0626L24.5343 74.5408H24.2925C23.7249 75.7813 22.8208 77.9574 20.119 77.9574Z" fill="#3D3D3D"/>
<path d="M180.31 74.5391C179.742 75.7796 178.838 77.9557 176.137 77.9557H162.891V61.7768H173.193C173.929 61.7768 174.423 62.2603 174.423 63.238H174.665V59.3799H174.423C174.423 60.3575 173.929 60.8411 173.193 60.8411H162.891V44.6727H174.665C177.367 44.6727 178.271 46.8488 178.838 48.0893H179.08L177.608 43.7476H158.465V43.9893C159.443 43.9893 159.937 44.4729 159.937 45.2088V77.4301C159.937 78.166 159.443 78.6495 158.465 78.6495V78.8913H179.08L180.552 74.5496H180.31V74.5391Z" fill="#3D3D3D"/>
<path d="M48.5772 43.7388L47.1055 47.639H47.3473C47.9149 46.3985 48.819 44.6639 51.5208 44.6639H58.3961V77.4213C58.3961 78.1572 57.902 78.6408 56.9243 78.6408V78.8825H62.8114V78.6408C61.8337 78.6408 61.3396 78.1572 61.3396 77.4213V44.6744H68.2149C70.9166 44.6744 71.8207 46.4195 72.3884 47.6495H72.6302L71.1584 43.7493H48.5878L48.5772 43.7388Z" fill="#3D3D3D"/>
<path d="M29.4128 43.7388H26.9844V43.9806C27.9621 43.9806 28.4561 44.4641 28.4561 45.2V77.4213C28.4561 78.1572 27.9621 78.6408 26.9844 78.6408V78.8825H30.8635V78.6408C29.8859 78.6408 29.3918 78.1572 29.3918 77.4213V45.8728L51.5209 78.8931H52.015V74.257L31.3997 43.7388H29.4128Z" fill="#3D3D3D"/>
<path d="M95.0841 43.9893C96.0617 43.9893 96.5558 44.4729 96.5558 45.2088V60.6309H78.8841V45.2088C78.8841 44.4729 79.3782 43.9893 80.3558 43.9893V43.7476H74.4688V43.9893C75.4464 43.9893 75.9405 44.4729 75.9405 45.2088V77.4301C75.9405 78.166 75.4464 78.6495 74.4688 78.6495V78.8913H80.3558V78.6495C79.3782 78.6495 78.8841 78.166 78.8841 77.4301V61.5665H96.5558V77.4301C96.5558 78.166 96.0617 78.6495 95.0841 78.6495V78.8913H100.971V78.6495C99.9935 78.6495 99.4994 78.166 99.4994 77.4301V45.2088C99.4994 44.4729 99.9935 43.9893 100.971 43.9893V43.7476H95.0841V43.9893Z" fill="#3D3D3D"/>
<path d="M135.623 50.4768C135.57 46.5661 138.387 44.2008 143.181 44.2008C148.374 44.2008 151.297 46.892 152.727 50.8132L152.233 46.419C149.405 44.1062 146.472 43.2441 143.181 43.2441C137.389 43.2441 132.763 45.7041 133.068 51.6753C133.583 61.6308 151.98 59.8436 151.98 70.4614C151.98 75.6336 147.859 78.4405 142.687 78.4405C136.779 78.4405 133.215 74.7295 132.111 71.418L132.763 76.38C135.98 78.8295 140.248 79.3656 142.687 79.3656C148.269 79.3656 155.26 76.2328 155.26 69.5678C155.26 57.7411 135.728 58.9185 135.623 50.4663" fill="#3D3D3D"/>
<path d="M126.033 43.7388H125.613V43.9806C126.59 43.9806 127.084 44.4641 127.084 45.2V69.1268C127.084 74.9718 123.405 78.42 117.518 78.42C111.631 78.42 108.929 74.9718 108.929 69.1268V45.2105C108.929 44.4747 109.423 43.9911 110.401 43.9911V43.7493H104.514V43.9911C105.491 43.9911 105.985 44.4747 105.985 45.2105V69.1268C105.985 76.2018 110.895 79.3766 117.518 79.3766C117.57 79.3766 117.612 79.3766 117.665 79.3766C117.76 79.3766 117.844 79.3766 117.938 79.3766C124.067 79.3766 127.999 75.4765 127.999 69.1268V45.2105C127.999 44.4747 128.493 43.9911 129.471 43.9911V43.7493H126.033V43.7388Z" fill="#3D3D3D"/>
</g>
</g>
<defs>
<clipPath id="clip0_9243_473">
<rect width="179" height="36.5066" fill="white" transform="translate(2 43)"/>
</clipPath>
</defs>
</svg>
