<svg width="184" height="123" viewBox="0 0 184 123" fill="none" xmlns="http://www.w3.org/2000/svg">
<path d="M108.826 53.2006C106.295 53.2006 104.307 53.7431 102.318 54.8262C102.318 49.0448 102.318 43.8061 102.5 42L90.3853 44.1671V45.2511L91.6507 45.4316C93.2764 45.7927 93.8214 46.6952 94.1795 48.8643C94.5439 53.2006 94.3611 76.3269 94.1795 80.1217C97.4339 80.8447 100.87 81.3873 104.306 81.3873C113.889 81.3873 119.674 75.4244 119.674 66.0288C119.674 58.622 114.973 53.2006 108.826 53.2006ZM104.667 79.3986C103.944 79.3986 103.039 79.3986 102.498 79.2192C102.316 76.69 102.136 66.0288 102.316 56.6343C103.401 56.2723 104.123 56.0918 105.029 56.0918C109.009 56.0918 111.178 60.789 111.178 66.5693C111.177 73.7988 108.465 79.3986 104.667 79.3986ZM44.8215 42.722H13V44.3476L14.8084 44.5281C17.1575 44.8891 18.0628 46.3342 18.423 49.7669C18.9669 56.2712 18.7853 68.0165 18.423 73.6152C18.0617 77.0489 17.1586 78.6756 14.8084 78.854L13 79.2171V80.6621H33.4306V79.2171L31.261 78.854C28.9108 78.6745 28.0066 77.0489 27.6453 73.6152C27.4637 71.2655 27.283 67.4708 27.283 62.7746L31.6222 62.9551C34.3348 62.9551 35.5992 65.1232 36.1421 68.1938H37.7698V55.3698H36.1421C35.5981 58.4415 34.3348 60.6085 31.6222 60.6085L27.2841 60.7901C27.2841 54.6467 27.4647 48.8654 27.6464 45.4327H33.9735C38.8567 45.4327 41.3876 48.5033 43.1949 53.9247L45.0032 53.3821L44.8215 42.722Z" fill="#3D3D3D"/>
<path d="M54.9799 53.0341C64.0084 53.0341 68.5221 59.1354 68.5221 67.2097C68.5221 74.9254 63.4662 81.3873 54.4377 81.3873C45.4102 81.3873 40.8965 75.285 40.8965 67.2097C40.8965 59.4939 45.9514 53.0341 54.9799 53.0341ZM54.4377 54.8288C50.4651 54.8288 49.3818 60.212 49.3818 67.2097C49.3818 74.028 51.1877 79.5905 54.7995 79.5905C58.9493 79.5905 60.0348 74.2073 60.0348 67.2097C60.0348 60.3913 58.2309 54.8288 54.4377 54.8288ZM121.785 67.39C121.785 60.0328 126.479 53.0341 135.688 53.0341C143.269 53.0341 146.882 58.5976 146.882 65.9537H130.09C129.908 72.5928 133.158 77.4382 139.66 77.4382C142.549 77.4382 143.993 76.7222 145.8 75.4653L146.52 76.3616C144.714 78.8734 140.743 81.3873 135.688 81.3873C127.562 81.3862 121.785 75.6445 121.785 67.39ZM130.09 63.9808L138.576 63.8005C138.576 60.212 138.034 54.8288 134.965 54.8288C131.897 54.8288 130.269 59.8525 130.09 63.9808ZM168.372 54.4703C166.205 53.5719 163.317 53.0341 160.067 53.0341C153.387 53.0341 149.232 56.9811 149.232 61.6472C149.232 66.3133 152.299 68.2863 156.637 69.7225C161.15 71.3359 162.415 72.5928 162.415 74.7461C162.415 76.8994 160.789 78.8724 157.9 78.8724C154.471 78.8724 151.941 76.8994 149.956 71.5152L148.691 71.8758L148.873 79.7708C151.039 80.6671 155.011 81.3862 158.442 81.3862C165.484 81.3862 169.999 77.7957 169.999 72.2343C169.999 68.4656 168.012 66.3133 163.318 64.5175C158.261 62.5446 156.457 61.2887 156.457 58.9551C156.457 56.6225 158.085 55.0071 160.251 55.0071C163.499 55.0071 165.666 56.9811 167.293 61.8265L168.556 61.4679L168.372 54.4703ZM91.9937 53.7522C88.9251 51.9595 83.5074 52.8548 80.6192 59.3157L80.7985 53.0351L68.7025 55.3677V56.4443L69.9662 56.6236C71.5928 56.8039 72.3133 57.7002 72.4947 60.0338C72.8555 64.3403 72.6751 71.8778 72.4947 75.6456C72.3133 77.7968 71.5928 78.8734 69.9662 79.0537L68.7025 79.234V80.6692H85.4937V79.234L83.327 79.0537C81.5222 78.8734 80.98 77.7968 80.7985 75.6456C80.4378 72.2353 80.4378 65.417 80.6192 61.1104C81.5211 59.8535 85.4937 58.7779 89.1045 61.1104L91.9937 53.7522Z" fill="#3D3D3D"/>
</svg>
