<svg width="184" height="123" viewBox="0 0 184 123" fill="none" xmlns="http://www.w3.org/2000/svg">
<g clip-path="url(#clip0_9243_572)">
<path d="M95.2177 63.4455C94.7914 59.4966 91.506 56.5684 87.2436 56.5684C83.1032 56.5684 79.6945 60.0387 79.2682 63.4455H95.2177ZM99.6657 75.3438C99.7527 75.4023 99.8265 75.4783 99.8826 75.5668C99.9386 75.6553 99.9757 75.7545 99.9914 75.8581C100.007 75.9617 100.001 76.0674 99.9741 76.1686C99.9469 76.2697 99.8989 76.3642 99.8334 76.4459C97.1178 79.8719 93.2792 82.0701 87.7309 82.0701C78.66 82.0701 72.2076 75.619 72.2076 66.4276C72.2076 57.4802 78.721 50.7862 87.3645 50.7862C96.0702 50.7862 102.218 57.5413 102.218 66.4276C102.218 66.7279 102.205 67.3119 102.193 67.7917C102.188 67.9969 102.103 68.192 101.956 68.3353C101.809 68.4787 101.612 68.5588 101.407 68.5588H79.2071C79.5125 72.8799 83.3475 76.106 87.7919 76.106C91.0786 76.106 92.8877 74.9094 94.4382 72.917C94.5594 72.7591 94.736 72.6529 94.9324 72.6198C95.1287 72.5867 95.3304 72.6292 95.4967 72.7387C96.518 73.4291 98.5822 74.6258 99.6657 75.3438ZM48.5366 60.6681V65.14C48.5366 65.3482 48.6194 65.5478 48.7667 65.695C48.914 65.8423 49.1138 65.925 49.3221 65.925H61.4832C60.5745 71.6689 55.8559 75.7482 49.558 75.7482C41.8951 75.7482 35.9289 69.3893 35.9289 61.6111C35.9289 53.7754 41.9478 47.4727 49.5005 47.4727C53.733 47.4727 57.3286 49.1863 59.6849 52.2772C59.802 52.4309 59.9719 52.5357 60.1619 52.5715C60.3518 52.6073 60.5483 52.5715 60.7134 52.4711L65.2787 49.7116C65.3624 49.6606 65.4346 49.5928 65.4907 49.5125C65.5467 49.4322 65.5855 49.3411 65.6045 49.245C65.6236 49.149 65.6224 49.05 65.6012 48.9544C65.5799 48.8588 65.539 48.7686 65.4811 48.6897C62.1286 44.0718 56.3815 41 49.5568 41C38.2637 41 29 50.2549 29 61.6111C29 72.9672 38.0924 82.1647 49.5005 82.1647C60.802 82.1647 68.5115 73.5919 68.5115 62.5193V60.7507C68.5115 60.6473 68.4911 60.545 68.4515 60.4495C68.4119 60.3541 68.3539 60.2673 68.2807 60.1943C68.2075 60.1213 68.1206 60.0634 68.0251 60.024C67.9295 59.9845 67.8271 59.9643 67.7237 59.9645H49.2407C49.0539 59.9645 48.8749 60.0386 48.7428 60.1706C48.6108 60.3025 48.5366 60.4815 48.5366 60.6681Z" fill="#3D3D3D"/>
<path d="M149.821 73.3247C148.065 73.3247 146.988 73.5904 146.369 74.3443C145.838 74.9892 145.643 75.9956 145.643 77.5034C145.643 79.0925 145.86 80.1264 146.462 80.7655C147.094 81.4392 148.149 81.6797 149.821 81.6797C151.737 81.6797 152.836 81.3662 153.424 80.4531C153.842 79.8046 154 78.8556 154 77.5034C154 75.8891 153.775 74.8492 153.155 74.2114C152.534 73.5736 151.47 73.3247 149.821 73.3247Z" fill="#3D3D3D"/>
<path d="M138.507 75.1124C135.211 75.1124 133.689 73.5914 133.689 70.169V57.6533H137.131C137.339 57.6533 137.539 57.5704 137.687 57.423C137.834 57.2756 137.917 57.0756 137.917 56.8671V52.2301C137.917 52.0214 137.834 51.8214 137.687 51.6737C137.539 51.5261 137.339 51.443 137.131 51.4427H133.695V43.9983C133.696 43.895 133.675 43.7926 133.636 43.6971C133.596 43.6016 133.539 43.5148 133.465 43.4416C133.392 43.3685 133.306 43.3105 133.21 43.2709C133.115 43.2313 133.012 43.2109 132.909 43.2109H127.641C127.432 43.2113 127.232 43.2944 127.084 43.442C126.937 43.5896 126.854 43.7897 126.854 43.9983V51.4487H123.575C123.471 51.4488 123.369 51.4693 123.274 51.509C123.178 51.5486 123.092 51.6067 123.019 51.6798C122.946 51.7529 122.888 51.8397 122.848 51.9351C122.809 52.0305 122.789 52.1328 122.789 52.2361V56.8731C122.789 56.9762 122.809 57.0785 122.849 57.1738C122.888 57.2692 122.946 57.3559 123.019 57.4289C123.092 57.5019 123.178 57.5599 123.274 57.5994C123.369 57.6389 123.471 57.6593 123.575 57.6593H126.854V71.5009C126.854 77.9628 130.593 81.8303 136.805 81.8303C137.882 81.8303 138.643 81.7107 139.489 81.4007C139.753 81.3025 139.979 81.1255 140.138 80.8937C140.297 80.662 140.381 80.3869 140.378 80.106L140.361 75.798C140.359 75.687 140.333 75.5776 140.286 75.4771C140.239 75.3766 140.171 75.2872 140.086 75.2149C140.002 75.1425 139.903 75.0889 139.796 75.0574C139.69 75.0259 139.578 75.0173 139.468 75.0322C139.149 75.078 138.829 75.1048 138.507 75.1124Z" fill="#3D3D3D"/>
<path d="M120.017 75.1124C116.721 75.1124 115.199 73.5914 115.199 70.169V57.6533H118.64C118.849 57.6533 119.049 57.5704 119.197 57.423C119.344 57.2756 119.427 57.0756 119.427 56.8671V52.2301C119.427 52.0214 119.344 51.8214 119.197 51.6737C119.049 51.5261 118.849 51.443 118.64 51.4427H115.205V43.9983C115.205 43.895 115.185 43.7926 115.146 43.6971C115.106 43.6016 115.048 43.5148 114.975 43.4416C114.902 43.3685 114.815 43.3105 114.72 43.2709C114.624 43.2313 114.522 43.2109 114.419 43.2109H109.15C108.942 43.2113 108.742 43.2944 108.594 43.442C108.447 43.5896 108.364 43.7897 108.364 43.9983V51.4487H105.084C104.981 51.4488 104.879 51.4693 104.783 51.509C104.688 51.5486 104.601 51.6067 104.528 51.6798C104.455 51.7529 104.398 51.8397 104.358 51.9351C104.319 52.0305 104.299 52.1328 104.299 52.2361V56.8731C104.299 56.9762 104.319 57.0785 104.358 57.1738C104.398 57.2692 104.455 57.3559 104.528 57.4289C104.601 57.5019 104.688 57.5599 104.783 57.5994C104.879 57.6389 104.981 57.6593 105.084 57.6593H108.364V71.5009C108.364 77.9628 112.103 81.8303 118.315 81.8303C119.392 81.8303 120.153 81.7107 120.999 81.4007C121.262 81.3025 121.489 81.1255 121.648 80.8937C121.807 80.662 121.891 80.3869 121.887 80.106L121.871 75.798C121.869 75.687 121.843 75.5776 121.796 75.4771C121.748 75.3766 121.68 75.2872 121.596 75.2149C121.512 75.1425 121.413 75.0889 121.306 75.0574C121.2 75.0259 121.088 75.0173 120.977 75.0322C120.659 75.078 120.339 75.1048 120.017 75.1124Z" fill="#3D3D3D"/>
</g>
<defs>
<clipPath id="clip0_9243_572">
<rect width="125" height="41.1647" fill="white" transform="translate(29 41)"/>
</clipPath>
</defs>
</svg>
