<svg width="184" height="123" viewBox="0 0 184 123" fill="none" xmlns="http://www.w3.org/2000/svg">
<g clip-path="url(#clip0_9277_437)">
<path d="M130.772 46.5937H108.95C108.328 44.128 107.331 41.8301 105.749 39.8036C101.285 34.0869 93.7245 31.7289 86.7167 33.8755C80.0039 35.9331 75.0995 42.1202 74.7243 49.0077C74.248 57.7683 80.0503 65.151 88.7969 66.9102C95.7184 68.3026 102.768 65.3375 106.115 59.6269C108.143 56.1687 106.979 53.1932 103.044 52.2587C101.086 51.7925 99.0252 51.6785 97.0019 51.5625C93.1471 51.3408 89.2859 51.2331 85.4289 51.0673C85.098 51.0528 84.7692 50.9513 84.4405 50.8912C84.4552 50.7876 84.47 50.684 84.4847 50.5804H130.888C131.489 65.7104 119.57 84.7795 97.7965 87.9331C75.7908 91.1199 56.1666 75.5692 53.6902 54.6789C51.0599 32.5245 68.0853 12.7924 90.8645 12.0237C113.233 11.2695 129.457 28.6312 130.772 46.5917V46.5937Z" fill="#3D3D3D"/>
<path d="M60.6562 97.8824C60.2304 98.3486 59.8553 98.7589 59.4759 99.1733C58.6771 98.5724 57.9879 97.9342 57.1912 97.4784C53.7221 95.4954 49.5637 97.1489 48.4109 100.928C47.2116 104.861 49.4815 108.79 53.3195 109.424C56.4262 109.938 59.301 107.783 59.3663 104.774H55.0668V103.147H61.5372C62.3971 106.465 59.4359 110.584 55.7349 111.181C51.8695 111.805 48.4109 110.095 46.8344 106.78C45.1778 103.297 46.0398 99.0946 48.9104 96.6599C52.31 93.7798 57.8699 94.3496 60.6541 97.8804L60.6562 97.8824Z" fill="#3D3D3D"/>
<path d="M110.995 102.406V93.3013H112.808V110.953H111.029C110.989 110.543 110.951 110.155 110.911 109.747C108.194 111.778 105.547 111.753 103.705 109.706C101.897 107.698 102.004 104.053 103.926 102.112C105.787 100.232 108.458 100.294 110.995 102.406V102.406ZM107.674 109.594C109.691 109.585 111.008 108.166 111.012 106.001C111.016 103.784 109.646 102.292 107.64 102.327C105.726 102.36 104.434 103.875 104.451 106.069C104.468 108.286 105.671 109.602 107.674 109.594Z" fill="#3D3D3D"/>
<path d="M88.6234 110.96H86.8888C86.8467 110.542 86.8066 110.144 86.7518 109.603C85.6812 110.743 84.4482 111.321 82.9286 111.25C81.4364 111.18 80.2203 110.616 79.2993 109.45C77.609 107.309 77.8914 103.799 79.9063 101.976C81.9001 100.171 84.4566 100.283 86.7455 102.357C86.7856 101.866 86.8214 101.445 86.8614 100.967H88.6213V110.96H88.6234ZM80.2182 105.869C80.2013 108.126 81.4954 109.593 83.5019 109.593C85.4493 109.593 86.794 108.109 86.794 105.958C86.794 103.832 85.4409 102.343 83.4913 102.318C81.6282 102.295 80.233 103.81 80.2182 105.869V105.869Z" fill="#3D3D3D"/>
<path d="M125.683 110.968H123.986C123.944 110.543 123.904 110.147 123.849 109.604C122.783 110.736 121.556 111.32 120.041 111.25C118.549 111.181 117.312 110.638 116.414 109.457C114.66 107.151 115.012 103.67 117.16 101.841C119.12 100.17 121.679 100.342 123.835 102.369C123.881 101.88 123.921 101.465 123.97 100.97H125.685V110.966L125.683 110.968ZM123.887 105.995C123.902 103.846 122.587 102.363 120.629 102.319C118.774 102.278 117.341 103.799 117.312 105.837C117.28 108.094 118.57 109.584 120.566 109.594C122.538 109.604 123.87 108.162 123.887 105.995Z" fill="#3D3D3D"/>
<path d="M137.975 110.962H136.038C136.038 109.597 136.038 108.266 136.038 106.936C136.038 106.109 136.069 105.278 136.015 104.454C135.92 103.007 135.273 102.328 134.015 102.262C132.602 102.187 131.475 102.989 131.317 104.327C131.192 105.384 131.237 106.462 131.224 107.529C131.211 108.627 131.222 109.727 131.222 110.912H129.287V100.985H131.154C131.201 101.279 131.254 101.596 131.319 102.007C132.305 101.072 133.393 100.527 134.746 100.637C136.605 100.786 137.884 101.901 137.956 103.714C138.049 106.084 137.979 108.461 137.979 110.956L137.975 110.962Z" fill="#3D3D3D"/>
<path d="M91.4821 100.964H93.4949C93.4949 103.03 93.478 105.023 93.5033 107.016C93.5139 107.928 93.6361 108.825 94.5529 109.358C96.1716 110.296 98.0937 109.364 98.1675 107.518C98.2539 105.384 98.1886 103.241 98.1886 100.997H100.128C100.157 101.117 100.229 101.275 100.231 101.432C100.239 103.365 100.279 105.299 100.225 107.23C100.151 109.791 98.5279 111.324 95.9545 111.359C93.282 111.397 91.5938 109.915 91.499 107.317C91.4231 105.224 91.4842 103.127 91.4842 100.964H91.4821Z" fill="#3D3D3D"/>
<path d="M67.3457 100.995C68.8154 100.814 69.8081 101.306 70.3238 102.472C71.0214 104.043 71.7211 105.613 72.5199 107.41C73.3567 105.564 74.0964 103.918 74.8489 102.279C75.5676 100.709 75.5928 100.703 77.633 101.02C75.9427 104.441 74.2735 107.818 72.5052 111.401C70.7453 107.851 69.0697 104.47 67.3457 100.993V100.995Z" fill="#3D3D3D"/>
<path d="M65.8478 101.046V110.951H63.9004C63.9004 109.971 63.9004 109.018 63.9004 108.065C63.9004 106.171 63.9004 104.277 63.9004 102.383C63.9004 100.725 64.029 100.634 65.8478 101.046Z" fill="#3D3D3D"/>
<path d="M64.8701 97.897C64.1409 97.8183 63.6477 97.4059 63.5908 96.604C63.5381 95.8726 64.2125 95.2282 64.9713 95.2344C65.6352 95.2386 66.2991 95.9182 66.2885 96.5833C66.278 97.2692 65.6373 97.8929 64.8701 97.897V97.897Z" fill="#3D3D3D"/>
</g>
<defs>
<clipPath id="clip0_9277_437">
<rect width="92" height="99.4023" fill="white" transform="translate(46 12)"/>
</clipPath>
</defs>
</svg>
