<svg width="184" height="123" viewBox="0 0 184 123" fill="none" xmlns="http://www.w3.org/2000/svg">
<path fill-rule="evenodd" clip-rule="evenodd" d="M45.8052 45.7262C44.5186 46.4258 43.1761 46.9324 41.7762 47.243C40.3778 47.5552 38.9515 47.7104 37.4958 47.7104C35.9484 47.7104 34.5205 47.4579 33.2169 46.9513C31.9101 46.4462 30.7817 45.7215 29.8304 44.7772C28.8805 43.8345 28.1387 42.6911 27.6063 41.3499C27.0755 40.0072 26.8086 38.5093 26.8086 36.856C26.8086 35.2027 27.0755 33.7032 27.6063 32.3621C28.1387 31.0194 28.8805 29.8759 29.8304 28.9332C30.7817 27.9889 31.9101 27.2643 33.2169 26.7576C34.5205 26.2525 35.9484 26 37.4958 26C39.0819 26 40.5408 26.1992 41.874 26.5976C43.2072 26.9976 44.3789 27.6831 45.3862 28.6556L42.3086 32.1566C41.711 31.5151 41.0406 31.0288 40.294 30.6978C39.5475 30.3669 38.6148 30.2022 37.4958 30.2022C36.5645 30.2022 35.7203 30.3669 34.9644 30.6978C34.2101 31.0288 33.5614 31.4915 33.0198 32.0844C32.4781 32.6774 32.0637 33.3816 31.775 34.2004C31.4864 35.0161 31.342 35.9023 31.342 36.856C31.342 37.8285 31.4864 38.7179 31.775 39.5257C32.0637 40.3319 32.4781 41.0331 33.0198 41.626C33.5614 42.2205 34.2101 42.6816 34.9644 43.0126C35.7203 43.3436 36.5645 43.5083 37.4958 43.5083C38.4471 43.5083 39.2682 43.3969 39.9573 43.1726C40.6479 42.9499 41.1973 42.7209 41.6086 42.4871V39.132H38.056V34.9298H45.8052V45.7262Z" fill="#3D3D3D"/>
<path fill-rule="evenodd" clip-rule="evenodd" d="M48.5176 26V46.8058H61.182V42.5739H52.9569V26H48.5176Z" fill="#3D3D3D"/>
<mask id="mask0_9243_1031" style="mask-type:alpha" maskUnits="userSpaceOnUse" x="61" y="26" width="23" height="22">
<path fill-rule="evenodd" clip-rule="evenodd" d="M61.8066 26.0122H83.0317V47.7155H61.8066V26.0122Z" fill="white"/>
</mask>
<g mask="url(#mask0_9243_1031)">
<path fill-rule="evenodd" clip-rule="evenodd" d="M61.8066 36.8627C61.8066 35.2101 62.0702 33.7126 62.5988 32.3705C63.1259 31.0283 63.8626 29.8868 64.8073 28.9429C65.752 28.0005 66.8725 27.2761 68.1686 26.7696C69.4647 26.2648 70.8811 26.0107 72.4192 26.0107C73.9557 26.0107 75.3736 26.2648 76.6697 26.7696C77.9659 27.2761 79.0863 28.0005 80.031 28.9429C80.9758 29.8868 81.7109 31.0283 82.2395 32.3705C82.7666 33.7126 83.0317 35.2101 83.0317 36.8627C83.0317 38.5154 82.7666 40.0128 82.2395 41.355C81.7109 42.6972 80.9758 43.8386 80.031 44.7826C79.0863 45.7249 77.9659 46.4493 76.6697 46.9558C75.3736 47.4607 73.9557 47.7147 72.4192 47.7147C70.8811 47.7147 69.4647 47.4607 68.1686 46.9558C66.8725 46.4493 65.752 45.7249 64.8073 44.7826C63.8626 43.8386 63.1259 42.6972 62.5988 41.355C62.0702 40.0128 61.8066 38.5154 61.8066 36.8627ZM66.3063 36.8646C66.3063 37.8368 66.4496 38.7274 66.7378 39.5333C67.0245 40.3408 67.436 41.0402 67.9738 41.6344C68.5102 42.2271 69.1544 42.6881 69.9049 43.0189C70.6539 43.3498 71.4923 43.5144 72.4186 43.5144C73.3448 43.5144 74.1832 43.3498 74.9322 43.0189C75.6828 42.6881 76.3255 42.2271 76.8633 41.6344C77.3997 41.0402 77.8127 40.3408 78.0993 39.5333C78.386 38.7274 78.5309 37.8368 78.5309 36.8646C78.5309 35.9129 78.386 35.027 78.0993 34.21C77.8127 33.3931 77.3997 32.6891 76.8633 32.0948C76.3255 31.5021 75.6828 31.0412 74.9322 30.7088C74.1832 30.3795 73.3448 30.2133 72.4186 30.2133C71.4923 30.2133 70.6539 30.3795 69.9049 30.7088C69.1544 31.0412 68.5102 31.5021 67.9738 32.0948C67.436 32.6891 67.0245 33.3931 66.7378 34.21C66.4496 35.027 66.3063 35.9129 66.3063 36.8646Z" fill="#3D3D3D"/>
</g>
<path fill-rule="evenodd" clip-rule="evenodd" d="M85.6973 26.5352H93.0317C93.8824 26.5352 94.7393 26.5994 95.6009 26.7249C96.4624 26.8519 97.2345 27.1043 97.9203 27.4838C98.6061 27.8632 99.161 28.3932 99.5879 29.0737C100.013 29.7542 100.226 30.6589 100.226 31.7863C100.226 32.9529 99.9161 33.9203 99.295 34.6886C98.6755 35.4569 97.8556 36.0057 96.8369 36.3366V36.3946C97.4842 36.4918 98.0729 36.6815 98.6015 36.9638C99.1286 37.246 99.5832 37.6051 99.9624 38.0425C100.342 38.48 100.634 38.9912 100.838 39.5745C101.041 40.1577 101.143 40.7802 101.143 41.4403C101.143 42.5301 100.921 43.4395 100.477 44.1686C100.032 44.8977 99.4584 45.4857 98.7541 45.9326C98.0498 46.381 97.2576 46.7009 96.3791 46.8953C95.4991 47.0913 94.6237 47.1885 93.753 47.1885H85.6973V26.5352ZM90.0322 34.7903H93.1722C93.5051 34.7903 93.8335 34.7511 94.1587 34.6743C94.4824 34.5959 94.7738 34.4689 95.0327 34.2948C95.2917 34.1191 95.5013 33.8855 95.6586 33.5938C95.8158 33.3021 95.8944 32.9523 95.8944 32.5446C95.8944 32.1165 95.8065 31.7605 95.6308 31.4797C95.4551 31.1974 95.2285 30.9779 94.951 30.8226C94.672 30.6674 94.356 30.5545 94.0046 30.487C93.6531 30.4196 93.3109 30.3851 92.978 30.3851H90.0322V34.7903ZM90.0322 43.339H93.9222C94.2551 43.339 94.5926 43.2998 94.9363 43.223C95.2769 43.1446 95.5882 43.0082 95.8671 42.8138C96.143 42.6193 96.3711 42.3669 96.5452 42.0548C96.7225 41.7444 96.8103 41.3649 96.8103 40.9181C96.8103 40.432 96.6947 40.0384 96.4636 39.7358C96.2324 39.4348 95.9396 39.2074 95.5882 39.0506C95.2368 38.8954 94.8561 38.7872 94.4492 38.7307C94.0424 38.6727 93.6617 38.6429 93.3103 38.6429H90.0322V43.339Z" fill="#3D3D3D"/>
<path fill-rule="evenodd" clip-rule="evenodd" d="M109.553 26.0005L100.984 46.8063H105.799L107.453 42.3991H115.152L116.861 46.8063H121.79L113.167 26.0005H109.553ZM111.232 32.0555L113.669 38.5195H108.824L111.232 32.0555Z" fill="#3D3D3D"/>
<path fill-rule="evenodd" clip-rule="evenodd" d="M123.602 26V46.8058H136.266V42.5739H128.041V26H123.602Z" fill="#3D3D3D"/>
<path fill-rule="evenodd" clip-rule="evenodd" d="M27.7168 51.3276H33.7181L42.2403 65.7853H42.2969V51.3276H46.7134V72.1335H40.9383L32.1899 57.3236H32.1334V72.1335H27.7168V51.3276Z" fill="#3D3D3D"/>
<path fill-rule="evenodd" clip-rule="evenodd" d="M50.3281 51.3276H63.4069V55.5593H54.5701V59.4386H62.9181V63.6702H54.5701V67.9019H63.8972V72.1335H50.3281V51.3276Z" fill="#3D3D3D"/>
<path fill-rule="evenodd" clip-rule="evenodd" d="M64.8047 51.3276H69.5523L72.7086 64.6685H72.7644L76.8985 51.3276H80.9488L85.055 65.0223H85.1107L88.4344 51.3276H92.8474L87.0647 72.1335H83.1832L78.826 57.7343H78.7702L74.4131 72.1335H70.6695L64.8047 51.3276Z" fill="#3D3D3D"/>
<path fill-rule="evenodd" clip-rule="evenodd" d="M38.8883 76.6572L34.4983 84.4444L30.358 76.6572H25L32.3462 88.5876V97.4631H36.6519V88.5876L43.9966 76.6572H38.8883Z" fill="#3D3D3D"/>
<mask id="mask1_9243_1031" style="mask-type:alpha" maskUnits="userSpaceOnUse" x="43" y="75" width="22" height="23">
<path fill-rule="evenodd" clip-rule="evenodd" d="M43.209 75.9985H64.434V97.4635H43.209V75.9985Z" fill="white"/>
</mask>
<g mask="url(#mask1_9243_1031)">
<path fill-rule="evenodd" clip-rule="evenodd" d="M43.209 86.7312C43.209 85.0968 43.4725 83.6158 44.0011 82.2884C44.5282 80.9609 45.2649 79.832 46.2097 78.8984C47.1544 77.9664 48.2748 77.25 49.571 76.7491C50.8671 76.2498 52.2834 75.9985 53.8215 75.9985C55.3581 75.9985 56.7759 76.2498 58.0721 76.7491C59.3682 77.25 60.4886 77.9664 61.4334 78.8984C62.3781 79.832 63.1132 80.9609 63.6419 82.2884C64.169 83.6158 64.434 85.0968 64.434 86.7312C64.434 88.3657 64.169 89.8467 63.6419 91.1741C63.1132 92.5016 62.3781 93.6305 61.4334 94.5641C60.4886 95.4961 59.3682 96.2125 58.0721 96.7134C56.7759 97.2127 55.3581 97.464 53.8215 97.464C52.2834 97.464 50.8671 97.2127 49.571 96.7134C48.2748 96.2125 47.1544 95.4961 46.2097 94.5641C45.2649 93.6305 44.5282 92.5016 44.0011 91.1741C43.4725 89.8467 43.209 88.3657 43.209 86.7312ZM47.7086 86.7328C47.7086 87.6943 47.852 88.5751 48.1402 89.3722C48.4268 90.1708 48.8383 90.864 49.3762 91.4502C49.9125 92.0363 50.5567 92.4938 51.3073 92.8195C52.0563 93.1467 52.8947 93.3095 53.8209 93.3095C54.7472 93.3095 55.5856 93.1467 56.3346 92.8195C57.0851 92.4938 57.7278 92.0363 58.2657 91.4502C58.802 90.864 59.215 90.1708 59.5017 89.3722C59.7883 88.5751 59.9332 87.6943 59.9332 86.7328C59.9332 85.7915 59.7883 84.9153 59.5017 84.1074C59.215 83.2994 58.802 82.6032 58.2657 82.0154C57.7278 81.4292 57.0851 80.9733 56.3346 80.6446C55.5856 80.3189 54.7472 80.1545 53.8209 80.1545C52.8947 80.1545 52.0563 80.3189 51.3073 80.6446C50.5567 80.9733 49.9125 81.4292 49.3762 82.0154C48.8383 82.6032 48.4268 83.2994 48.1402 84.1074C47.852 84.9153 47.7086 85.7915 47.7086 86.7328Z" fill="#3D3D3D"/>
</g>
<path fill-rule="evenodd" clip-rule="evenodd" d="M67.0977 76.5195H74.7095C75.7097 76.5195 76.6591 76.6203 77.5576 76.8219C78.4546 77.0251 79.2421 77.3616 79.9187 77.833C80.5937 78.3044 81.1316 78.9387 81.5292 79.7358C81.9268 80.5344 82.1272 81.53 82.1272 82.7225C82.1272 84.1647 81.7665 85.3913 81.0437 86.4009C80.3209 87.4104 79.2652 88.0509 77.8766 88.3192L82.8762 96.946H77.6824L73.5706 88.7813H71.4314V96.946H67.0977V76.5195ZM71.4344 84.9723H73.9902C74.3801 84.9723 74.7917 84.9583 75.2264 84.9289C75.6611 84.901 76.0557 84.8141 76.4087 84.6698C76.7586 84.5256 77.0515 84.2991 77.2827 83.9905C77.5139 83.6834 77.6311 83.2507 77.6311 82.6923C77.6311 82.1742 77.5278 81.7601 77.3243 81.453C77.1209 81.1443 76.8619 80.9086 76.5459 80.7457C76.2314 80.5813 75.8707 80.4712 75.4623 80.4138C75.0553 80.3549 74.6576 80.327 74.2692 80.327H71.4344V84.9723Z" fill="#3D3D3D"/>
<path fill-rule="evenodd" clip-rule="evenodd" d="M96.482 76.6572L88.9665 85.2958V76.6572H84.7031V97.4631H88.9665V87.5877L96.8368 97.4631H102.795L93.4467 86.3257L102.057 76.6572H96.482Z" fill="#3D3D3D"/>
<path fill-rule="evenodd" clip-rule="evenodd" d="M104.605 76.6572V97.4631H118.174V93.2299H108.849V88.9983H117.195V84.7682H108.849V80.8888H117.686V76.6572H104.605Z" fill="#3D3D3D"/>
<path fill-rule="evenodd" clip-rule="evenodd" d="M121.791 76.6572H129.208C130.185 76.6572 131.108 76.7599 131.984 76.9652C132.86 77.1722 133.626 77.5149 134.287 77.9951C134.945 78.4753 135.469 79.1213 135.856 79.9332C136.244 80.7467 136.439 81.7608 136.439 82.9754C136.439 84.4444 136.088 85.6938 135.382 86.7221C134.679 87.7504 133.65 88.4028 132.297 88.676L137.169 97.4631H132.106L128.1 89.1467H126.015V97.4631H121.791V76.6572ZM126.013 85.2679H128.504C128.884 85.2679 129.285 85.2537 129.709 85.2236C130.133 85.1952 130.517 85.1067 130.86 84.9598C131.202 84.8129 131.486 84.5822 131.713 84.2678C131.939 83.955 132.053 83.5142 132.053 82.9455C132.053 82.4178 131.952 81.996 131.754 81.6832C131.555 81.3688 131.303 81.1287 130.995 80.9628C130.689 80.7953 130.335 80.6832 129.939 80.6247C129.542 80.5647 129.155 80.5362 128.776 80.5362H126.013V85.2679Z" fill="#3D3D3D"/>
<path fill-rule="evenodd" clip-rule="evenodd" d="M148.929 58.0475L141.61 50.4229L138.074 54.1065L145.394 61.7312L138.074 69.3542L141.61 73.0379L148.929 65.4133L156.249 73.0379L159.785 69.3542L152.466 61.7312L159.785 54.1065L156.249 50.4229L148.929 58.0475Z" fill="#3D3D3D"/>
<path fill-rule="evenodd" clip-rule="evenodd" d="M95.5566 64.8988H136.264V59.4712H95.5566V64.8988Z" fill="#3D3D3D"/>
</svg>
