<svg width="184" height="123" viewBox="0 0 184 123" fill="none" xmlns="http://www.w3.org/2000/svg">
<path d="M32.7143 61.2939C32.7143 64.3114 31.9193 66.9174 30.3568 69.1393C29.0659 70.9954 27.3434 72.5095 25.3377 73.5512C23.332 74.593 21.1033 75.1312 18.8436 75.1194C14.814 75.1194 11.4697 73.6656 8.8381 70.7852C6.28875 68.1244 5.00036 64.8051 5.00036 60.7727C4.98696 58.9548 5.34476 57.1534 6.05182 55.4789C6.75888 53.8043 7.8003 52.2919 9.11222 51.0345C10.3931 49.729 11.9262 48.6981 13.6181 48.0049C15.31 47.3116 17.1253 46.9704 18.9533 47.002C24.7373 47.002 29.7538 50.5681 31.9193 56.3562H24.4083C22.7362 54.6006 20.9818 53.6953 18.9259 53.6953C17.0546 53.7097 15.264 54.4599 13.9408 55.7841C12.6175 57.1083 11.8678 58.9001 11.8535 60.7727C11.8535 65.1069 15.1704 68.3164 18.9259 68.3164C21.4752 68.3164 23.6408 67.0545 25.0114 64.6954H17.2263V59.264H32.6595C32.6321 60.1143 32.7143 60.8276 32.7143 61.2939ZM34.3865 74.7354H40.9654V65.9847L46.1738 74.708H54.3153L47.7363 65.4635C51.574 64.3937 53.8218 61.047 53.8218 56.7128C53.8218 53.3936 52.5609 50.8424 50.2034 49.1691C48.3394 47.9073 46.1738 47.7152 43.3229 47.7152H34.3865V74.7354ZM42.2264 60.2241L40.938 60.1966V53.8051H42.8021C45.7626 53.8051 47.1332 54.7103 47.1332 56.9597C47.1332 59.3188 45.4885 60.2241 42.2264 60.2241ZM55.0006 61.0196C55.0006 65.052 56.289 68.3713 58.8383 71.0321C61.4699 73.8027 64.8142 75.2566 68.8438 75.2566C70.6936 75.2625 72.5252 74.891 74.2267 74.1646C75.9282 73.4383 77.4638 72.3724 78.7397 71.0321C81.2891 68.5084 82.6597 64.9697 82.6597 61.1293C82.6599 59.2872 82.2858 57.4642 81.5601 55.7713C80.8344 54.0783 79.7722 52.5507 78.4382 51.2814C77.1855 49.9917 75.6846 48.9695 74.0262 48.2764C72.3678 47.5833 70.5862 47.2338 68.789 47.2489C64.9239 47.2489 61.607 48.5108 58.948 51.1716C56.289 53.8325 54.8361 57.2614 55.0006 61.0196ZM61.6892 61.0196C61.6892 59.1389 62.4358 57.3353 63.7647 56.0054C65.0936 54.6756 66.896 53.9285 68.7753 53.9285C70.6547 53.9285 72.457 54.6756 73.7859 56.0054C75.1148 57.3353 75.8614 59.1389 75.8614 61.0196C75.8614 65.4086 72.6267 68.5633 68.789 68.5633C65.0335 68.5633 61.607 65.3538 61.6892 61.0196ZM90.9931 47.7152H84.3044V64.6131C84.3044 71.3887 88.0599 75.1194 94.1455 75.1194C100.121 75.1194 104.151 71.1967 104.151 64.6131V47.7152H97.572V64.3114C97.572 67.4934 96.5029 68.9473 94.1455 68.9473C91.9525 68.9473 90.9931 67.3289 90.9931 64.3114V47.7152ZM106.125 74.7628H112.676V66.0121H114.54C117.391 66.0121 119.557 65.7653 121.229 64.8051C123.998 63.1044 125.56 60.2789 125.56 56.7128C125.56 53.3936 124.299 50.8424 121.942 49.1691C120.078 47.9073 117.912 47.7152 115.061 47.7152H106.125V74.7628ZM113.965 60.2241L112.786 60.1966V53.8051H114.54C117.501 53.8051 118.871 54.7103 118.871 56.9597C118.871 59.3188 117.227 60.2241 113.965 60.2241ZM126.629 61.0196C126.629 65.052 127.918 68.3713 130.467 71.0321C133.098 73.8027 136.443 75.2566 140.472 75.2566C142.322 75.2625 144.154 74.891 145.855 74.1646C147.557 73.4383 149.092 72.3724 150.368 71.0321C152.918 68.5084 154.288 64.9697 154.288 61.1293C154.289 59.2872 153.914 57.4642 153.189 55.7713C152.463 54.0783 151.401 52.5507 150.067 51.2814C148.814 49.9917 147.313 48.9695 145.655 48.2764C143.996 47.5833 142.215 47.2338 140.418 47.2489C136.552 47.2489 133.236 48.5108 130.577 51.1716C127.918 53.8325 126.465 57.2614 126.629 61.0196ZM133.29 61.0196C133.29 59.1389 134.037 57.3353 135.366 56.0054C136.695 54.6756 138.497 53.9285 140.376 53.9285C142.256 53.9285 144.058 54.6756 145.387 56.0054C146.716 57.3353 147.463 59.1389 147.463 61.0196C147.463 65.4086 144.228 68.5633 140.39 68.5633C136.662 68.5633 133.208 65.3538 133.29 61.0196ZM162.21 74.7628V59.7303L172.216 74.7628H178V47.7152H171.421V62.7478L161.525 47.7152H155.549V74.7628H162.21Z" fill="#3D3D3D"/>
</svg>
