<svg width="184" height="123" viewBox="0 0 184 123" fill="none" xmlns="http://www.w3.org/2000/svg">
<g clip-path="url(#clip0_9243_443)">
<path d="M172.041 35.5233V41.8222C171.579 41.6265 171.139 41.4385 170.698 41.2524C168.659 40.3941 166.599 39.5887 164.41 39.1901C162.65 38.8701 160.888 38.7703 159.142 39.2828C158.57 39.4509 158.04 39.7084 157.605 40.1282C156.786 40.9176 156.712 42.0527 157.425 42.9393C157.864 43.4853 158.425 43.8974 159.059 44.1659C160.639 44.8342 162.246 45.4375 163.828 46.1014C165.241 46.6944 166.635 47.3331 168.037 47.9538C168.138 47.9988 168.231 48.0632 168.308 48.1765C168.205 48.181 168.102 48.1901 167.999 48.1901C162.3 48.1907 156.6 48.1894 150.901 48.1959C150.663 48.1959 150.508 48.1328 150.361 47.9389C148.95 46.0801 148.429 43.9605 148.611 41.6799C148.928 37.733 151.292 35.3797 154.833 34.0205C157.084 33.1558 159.443 32.9427 161.837 33.0122C165.371 33.1146 168.695 34.0804 171.917 35.4589C171.956 35.4756 171.993 35.4988 172.04 35.5239L172.041 35.5233Z" fill="#3D3D3D"/>
<path d="M138.397 48.1746C138.246 48.1816 138.141 48.1906 138.037 48.1906C135.521 48.1913 133.004 48.1868 130.488 48.1977C130.226 48.199 130.117 48.1095 130.021 47.8784C129.178 45.8412 128.323 43.8098 127.471 41.7765C127.419 41.6515 127.363 41.5273 127.277 41.3303C127.204 41.4996 127.157 41.5994 127.118 41.7024C126.33 43.7602 125.537 45.8174 124.76 47.8797C124.669 48.1224 124.555 48.1984 124.297 48.1971C121.802 48.1868 119.307 48.1906 116.812 48.1906H116.451C116.501 48.0464 116.533 47.9383 116.575 47.8346C118.481 43.1344 120.392 38.4354 122.29 33.732C122.387 33.4918 122.501 33.4159 122.756 33.4165C125.682 33.4262 128.607 33.4236 131.533 33.4197C131.732 33.4197 131.859 33.4493 131.954 33.6612C134.065 38.4148 136.185 43.1646 138.303 47.9151C138.333 47.9827 138.354 48.0535 138.398 48.1739L138.397 48.1746Z" fill="#3D3D3D"/>
<path d="M64.9208 41.3122C64.3869 42.7107 63.8834 44.0287 63.3805 45.3461C63.0526 46.2056 62.722 47.0645 62.4012 47.9267C62.3341 48.1076 62.2501 48.1964 62.0352 48.1958C59.4975 48.1881 56.9591 48.1907 54.4207 48.19C54.3388 48.19 54.2561 48.1765 54.1348 48.1655C54.1819 48.0316 54.2148 47.9235 54.2568 47.8191C56.1573 43.1286 58.0598 38.4387 59.9539 33.7449C60.0462 33.5163 60.1443 33.4152 60.4116 33.4165C63.3366 33.4275 66.2617 33.4268 69.1873 33.4178C69.4294 33.4172 69.5437 33.4951 69.6405 33.7127C71.7347 38.4264 73.8367 43.137 75.9367 47.8488C75.9793 47.9434 76.0135 48.0419 76.0645 48.1701C75.9386 48.1791 75.8463 48.1913 75.7546 48.1913C73.2163 48.1926 70.6786 48.1887 68.1402 48.1971C67.9014 48.1977 67.7845 48.1301 67.6903 47.9022C66.8304 45.8264 65.9557 43.7564 65.0848 41.685C65.0441 41.5885 65.0002 41.4938 64.9208 41.3135V41.3122Z" fill="#3D3D3D"/>
<path d="M156.845 52.13C156.951 52.13 157.056 52.13 157.161 52.13C162.151 52.13 167.141 52.1332 172.131 52.1216C172.429 52.1209 172.566 52.2214 172.685 52.4751C173.343 53.8729 173.589 55.3493 173.527 56.8785C173.433 59.2434 172.606 61.3025 170.886 62.9701C169.424 64.3898 167.645 65.2346 165.694 65.7509C163.934 66.2158 162.14 66.36 160.326 66.315C158.035 66.2577 155.771 65.9911 153.625 65.1624C152.187 64.6068 150.805 63.9075 149.402 63.263C149.327 63.2283 149.246 63.1059 149.246 63.0242C149.239 60.7964 149.243 58.5686 149.246 56.3402C149.246 56.3215 149.263 56.3035 149.291 56.2462C149.389 56.3067 149.483 56.364 149.576 56.4239C151.309 57.5429 153.073 58.604 154.999 59.3696C157.208 60.2472 159.494 60.5685 161.858 60.2942C162.566 60.2118 163.246 60.016 163.869 59.6509C165.398 58.754 165.641 56.8134 164.368 55.5759C163.663 54.8896 162.792 54.4595 161.89 54.1073C160.312 53.4911 158.718 52.9129 157.13 52.3186C157.031 52.2813 156.935 52.2375 156.837 52.1969C156.84 52.1744 156.842 52.1518 156.844 52.1293L156.845 52.13Z" fill="#3D3D3D"/>
<path d="M87.7852 52.1465H104.596C104.554 52.2553 104.526 52.3448 104.487 52.4298C102.402 56.9723 100.315 61.5134 98.2368 66.0591C98.1419 66.2671 98.0328 66.3392 97.8056 66.336C96.8269 66.3231 95.8482 66.3257 94.8696 66.3347C94.6759 66.3366 94.5649 66.2922 94.4745 66.1029C92.2783 61.5173 90.0743 56.9356 87.8717 52.3525C87.8446 52.2959 87.8226 52.2373 87.7852 52.1465Z" fill="#3D3D3D"/>
<path d="M94.4752 48.1772C94.3306 48.1836 94.2363 48.1913 94.1414 48.1913C91.4959 48.192 88.851 48.1887 86.2055 48.1971C85.9692 48.1978 85.8446 48.1314 85.7401 47.9138C83.4787 43.182 81.2095 38.4541 78.9423 33.725C78.9023 33.6406 78.87 33.553 78.8164 33.4243H79.1637C81.8738 33.4243 84.5832 33.4281 87.2933 33.4185C87.558 33.4172 87.6826 33.5002 87.7942 33.7417C89.9666 38.4438 92.1492 43.1408 94.3299 47.8391C94.3745 47.9351 94.4132 48.0336 94.4745 48.1784L94.4752 48.1772Z" fill="#3D3D3D"/>
<path d="M97.9492 48.1636C98.0041 48.0277 98.0441 47.9215 98.09 47.8178C100.164 43.1189 102.237 38.42 104.309 33.7211C104.385 33.5498 104.444 33.4159 104.688 33.4165C107.441 33.4268 110.194 33.4229 112.946 33.4236C112.999 33.4236 113.052 33.432 113.155 33.441C113.109 33.5543 113.075 33.6477 113.033 33.7378C110.87 38.467 108.705 43.1955 106.544 47.9254C106.467 48.0921 106.392 48.1971 106.172 48.1964C103.527 48.1874 100.881 48.1906 98.2365 48.19C98.1545 48.19 98.0732 48.1752 97.9499 48.1636H97.9492Z" fill="#3D3D3D"/>
<path d="M11 48.1709V33.4521H19.0786C19.0837 33.5616 19.0928 33.6756 19.0928 33.7889C19.0934 38.4691 19.0928 43.1501 19.0966 47.8303C19.0966 48.0589 19.0947 48.2031 18.7835 48.2012C16.2781 48.1883 13.7727 48.1941 11.2666 48.1928C11.1833 48.1928 11.0994 48.1793 11 48.1709V48.1709Z" fill="#3D3D3D"/>
<path d="M34.8398 33.4365H42.9061V48.1682H34.8398V33.4365Z" fill="#3D3D3D"/>
<path d="M146.309 65.9026H145.974C143.286 65.9026 140.597 65.8988 137.909 65.9091C137.652 65.9104 137.539 65.8292 137.441 65.5942C135.615 61.2204 133.778 56.8512 131.944 52.4806C131.904 52.3834 131.871 52.2836 131.82 52.1484C131.949 52.1413 132.05 52.1316 132.151 52.1316C134.721 52.131 137.291 52.1316 139.861 52.1284C140.055 52.1284 140.194 52.1445 140.29 52.3596C142.261 56.7997 144.241 61.2359 146.218 65.6734C146.244 65.7307 146.265 65.79 146.309 65.902V65.9026Z" fill="#3D3D3D"/>
<path d="M69.498 52.1504C69.6252 52.1427 69.7182 52.1318 69.8111 52.1318C72.3908 52.1311 74.9705 52.1337 77.5501 52.126C77.7774 52.1253 77.8852 52.1962 77.9782 52.4054C79.9271 56.7947 81.8844 61.18 83.8399 65.566C83.8825 65.6613 83.918 65.7605 83.9748 65.9021H83.5997C80.9342 65.9021 78.2687 65.8983 75.6031 65.9086C75.3352 65.9099 75.2151 65.8242 75.1125 65.5783C73.2862 61.2064 71.4496 56.8397 69.6155 52.4711C69.5755 52.3752 69.5439 52.276 69.498 52.1504Z" fill="#3D3D3D"/>
<path d="M109.277 65.8823C109.76 64.6886 110.225 63.5399 110.69 62.3906C112.031 59.0779 113.373 55.7659 114.706 52.45C114.804 52.2053 114.927 52.1223 115.195 52.1235C117.711 52.1345 120.227 52.13 122.744 52.13H123.111C123.072 52.2543 123.047 52.3502 123.012 52.4423C121.331 56.8392 119.65 61.2355 117.972 65.6338C117.903 65.8128 117.828 65.9068 117.61 65.9061C114.911 65.8984 112.211 65.901 109.512 65.9003C109.449 65.9003 109.386 65.8907 109.275 65.8823H109.277Z" fill="#3D3D3D"/>
<path d="M46.9401 65.8778C47.4178 64.7002 47.88 63.5612 48.3416 62.4222C49.687 59.1005 51.0336 55.7788 52.3719 52.4539C52.4687 52.213 52.5862 52.1223 52.8573 52.1235C55.3737 52.1351 57.8895 52.1306 60.4059 52.1306H60.7751C60.7332 52.2581 60.7067 52.3547 60.6706 52.4481C58.9915 56.845 57.3111 61.2413 55.6332 65.6383C55.5719 65.7986 55.5158 65.9081 55.3027 65.9074C52.5713 65.8997 49.84 65.9016 47.1092 65.901C47.0673 65.901 47.0253 65.89 46.9395 65.8784L46.9401 65.8778Z" fill="#3D3D3D"/>
<path d="M11.0098 52.144H19.0754V65.8738H11.0098V52.144Z" fill="#3D3D3D"/>
<path d="M34.8379 52.144H42.9094V65.877H34.8379V52.144Z" fill="#3D3D3D"/>
<path d="M109.803 86.1216V82.5578H104.975V81.1213H111.384V86.8556C110.648 87.6263 109.735 88.265 108.645 88.7724C107.555 89.2797 106.324 89.5334 104.953 89.5334C103.971 89.5334 103.055 89.386 102.203 89.0904C101.351 88.7956 100.615 88.3906 99.9946 87.8755C99.3736 87.361 98.8397 86.7629 98.3923 86.0829C97.945 85.4024 97.6112 84.6703 97.3911 83.8854C97.1709 83.1006 97.0605 82.2983 97.0605 81.4774C97.0605 80.6564 97.169 79.9166 97.3853 79.1504C97.6015 78.3842 97.9321 77.6618 98.3762 76.9851C98.8203 76.3084 99.3471 75.7128 99.9572 75.1978C100.567 74.6833 101.296 74.2745 102.144 73.9718C102.993 73.6692 103.9 73.5186 104.867 73.5186C107.069 73.5186 109.018 74.2172 110.714 75.6137L109.696 76.9851C108.339 75.7322 106.715 75.1063 104.824 75.1063C103.885 75.1063 103.027 75.2866 102.247 75.6465C101.467 76.0065 100.827 76.4855 100.325 77.083C99.8236 77.6805 99.4356 78.3591 99.1612 79.1189C98.8868 79.8787 98.75 80.6648 98.75 81.4787C98.75 82.1264 98.8384 82.7638 99.0153 83.3903C99.1922 84.0168 99.4595 84.6053 99.8165 85.1558C100.173 85.7063 100.598 86.1905 101.089 86.6083C101.579 87.0262 102.162 87.3552 102.838 87.5967C103.513 87.8381 104.233 87.9585 104.998 87.9585C106.087 87.9585 107.013 87.8001 107.775 87.4834C108.536 87.1666 109.213 86.7133 109.805 86.1229L109.803 86.1216Z" fill="#3D3D3D"/>
<path d="M126.128 89.263H124.147L120.163 82.87H116.546V89.263H114.879V73.7773H120.358C121.888 73.7773 123.124 74.2145 124.066 75.0895C125.008 75.9646 125.479 77.0533 125.479 78.3565C125.479 79.3861 125.152 80.2894 124.499 81.0672C123.846 81.845 122.978 82.3665 121.895 82.6331L126.128 89.2636V89.263ZM116.546 81.3904H120.076C120.618 81.3904 121.105 81.3312 121.538 81.2121C121.971 81.0936 122.325 80.9352 122.599 80.7369C122.874 80.5392 123.101 80.3068 123.282 80.0402C123.462 79.7737 123.59 79.502 123.666 79.2251C123.741 78.9482 123.779 78.6578 123.779 78.3559C123.779 77.9386 123.714 77.5549 123.584 77.2059C123.455 76.857 123.249 76.5331 122.967 76.2343C122.686 75.9356 122.285 75.7038 121.765 75.5377C121.245 75.3722 120.628 75.2891 119.914 75.2891H116.546V81.3904Z" fill="#3D3D3D"/>
<path d="M135.626 89.5334C134.095 89.5334 132.738 89.1806 131.555 88.4749C130.371 87.7692 129.463 86.8105 128.832 85.5968C128.2 84.3838 127.885 83.0252 127.885 81.5205C127.885 80.3976 128.071 79.3443 128.443 78.3617C128.814 77.3792 129.332 76.5312 129.996 75.8184C130.661 75.1057 131.478 74.5442 132.449 74.1341C133.42 73.7239 134.479 73.5186 135.627 73.5186C137.15 73.5186 138.504 73.8695 139.687 74.5713C140.871 75.2731 141.782 76.2305 142.421 77.4436C143.06 78.6566 143.379 80.0158 143.379 81.5199C143.379 83.0239 143.059 84.3831 142.421 85.5962C141.782 86.8092 140.871 87.7686 139.687 88.4743C138.503 89.1799 137.15 89.5328 135.627 89.5328L135.626 89.5334ZM135.626 87.9997C136.52 87.9997 137.349 87.8253 138.11 87.4763C138.872 87.1273 139.509 86.6592 140.021 86.0726C140.534 85.4861 140.934 84.7984 141.223 84.0103C141.512 83.2223 141.657 82.3923 141.657 81.5212C141.657 80.65 141.512 79.822 141.223 79.0371C140.935 78.2523 140.534 77.5665 140.021 76.98C139.509 76.3934 138.872 75.9273 138.11 75.5815C137.349 75.2357 136.52 75.0632 135.626 75.0632C134.428 75.0632 133.363 75.3587 132.431 75.9485C131.501 76.5389 130.791 77.3219 130.304 78.2973C129.816 79.2728 129.573 80.3474 129.573 81.5205C129.573 82.6936 129.816 83.7702 130.304 84.7495C130.791 85.7288 131.5 86.515 132.431 87.1093C133.363 87.7036 134.428 88.0004 135.626 88.0004V87.9997Z" fill="#3D3D3D"/>
<path d="M157.096 83.313V73.7773H158.763V83.3561C158.763 84.6091 158.494 85.705 157.957 86.6444C157.419 87.5838 156.679 88.3004 155.737 88.7936C154.795 89.2868 153.718 89.5334 152.505 89.5334C151.293 89.5334 150.214 89.2868 149.268 88.7936C148.322 88.3004 147.58 87.5844 147.043 86.6444C146.505 85.705 146.236 84.6084 146.236 83.3561V73.7773H147.893V83.313C147.893 84.7314 148.302 85.8704 149.122 86.7306C149.941 87.5908 151.069 88.0209 152.505 88.0209C153.942 88.0209 155.066 87.5908 155.878 86.7306C156.691 85.8704 157.097 84.7314 157.097 83.313H157.096Z" fill="#3D3D3D"/>
<path d="M164.255 89.263H162.588V73.7773H167.514C169.116 73.7773 170.405 74.2383 171.38 75.1597C172.354 76.0811 172.841 77.2297 172.841 78.6044C172.841 79.5406 172.607 80.386 172.138 81.1419C171.668 81.8978 171.035 82.483 170.238 82.8964C169.44 83.3104 168.561 83.5171 167.601 83.5171H164.255V89.2623V89.263ZM164.255 81.9847H167.157C167.865 81.9847 168.485 81.8855 169.02 81.6879C169.554 81.4902 169.965 81.2256 170.254 80.894C170.543 80.563 170.757 80.2102 170.898 79.8355C171.039 79.4614 171.109 79.0654 171.109 78.6475C171.109 77.6399 170.785 76.828 170.135 76.2124C169.486 75.5969 168.479 75.2891 167.115 75.2891H164.256V81.9847H164.255Z" fill="#3D3D3D"/>
</g>
<defs>
<clipPath id="clip0_9243_443">
<rect width="162.535" height="56.534" fill="white" transform="translate(11 33)"/>
</clipPath>
</defs>
</svg>
