<svg width="184" height="123" viewBox="0 0 184 123" fill="none" xmlns="http://www.w3.org/2000/svg">
<g clip-path="url(#clip0_9243_729)">
<path d="M59.1889 48.7136H56.8203V34.7256H59.1889V48.7136Z" fill="#3D3D3D"/>
<path d="M63.6972 48.7129H61.377V38.5076H63.5361V40.1655C63.7778 39.6343 64.1645 39.1997 64.7284 38.8295C65.2924 38.4754 65.9691 38.2822 66.807 38.2822C67.3549 38.2822 67.8544 38.3627 68.3055 38.5398C68.7567 38.7168 69.1595 38.9744 69.514 39.3285C69.8685 39.6826 70.1585 40.1494 70.3519 40.745C70.5452 41.3406 70.658 42.0327 70.658 42.8215V48.7129H68.3377V43.2883C68.3377 42.3547 68.1283 41.6625 67.7255 41.1957C67.3226 40.7289 66.7748 40.5036 66.0658 40.5036C65.3568 40.5036 64.7929 40.7772 64.3578 41.3245C63.9067 41.8718 63.6972 42.58 63.6972 43.4332V48.7129Z" fill="#3D3D3D"/>
<path d="M74.914 48.7129H72.5938V38.5076H74.7529V40.1655C74.9946 39.6343 75.3813 39.1997 75.9452 38.8295C76.5092 38.4754 77.1859 38.2822 78.0238 38.2822C78.5716 38.2822 79.0712 38.3627 79.5223 38.5398C79.9735 38.7168 80.3763 38.9744 80.7308 39.3285C81.0853 39.6826 81.3753 40.1494 81.5687 40.745C81.762 41.3406 81.8748 42.0327 81.8748 42.8215V48.7129H79.5545V43.2883C79.5545 42.3547 79.3451 41.6625 78.9422 41.1957C78.5394 40.7289 77.9916 40.5036 77.2826 40.5036C76.5736 40.5036 76.0097 40.7772 75.5746 41.3245C75.1235 41.8718 74.914 42.58 74.914 43.4332V48.7129Z" fill="#3D3D3D"/>
<path d="M83.6797 46.3145C83.2124 45.4935 82.9707 44.5921 82.9707 43.6102C82.9707 42.6283 83.2124 41.7269 83.6797 40.906C84.147 40.1012 84.8076 39.4573 85.6293 38.9905C86.4672 38.5237 87.3857 38.2983 88.3847 38.2983C89.9154 38.2983 91.2044 38.8134 92.2356 39.8275C93.2669 40.8416 93.7986 42.1132 93.7986 43.6102C93.7986 44.5921 93.5569 45.4935 93.0896 46.3145C92.6224 47.1354 91.9617 47.7793 91.14 48.2461C90.3182 48.7129 89.3998 48.9543 88.3847 48.9543C87.3695 48.9543 86.4511 48.7129 85.6293 48.2461C84.8076 47.7632 84.147 47.1193 83.6797 46.3145ZM88.3847 46.7169C89.2548 46.7169 89.9798 46.4111 90.576 45.8155C91.1722 45.2038 91.4622 44.4795 91.4622 43.6102C91.4622 42.7571 91.1722 42.0167 90.576 41.4211C89.9798 40.8094 89.2548 40.5197 88.3847 40.5197C87.4984 40.5197 86.7572 40.8255 86.1772 41.4211C85.5971 42.0328 85.3071 42.7571 85.3071 43.6102C85.3071 44.4795 85.5971 45.2199 86.1772 45.8155C86.7572 46.4111 87.5146 46.7169 88.3847 46.7169Z" fill="#3D3D3D"/>
<path d="M99.9061 48.7131H97.5053L93.4609 38.5078H95.9262L98.6654 45.6225H98.6976L101.437 38.5078H103.87L99.9061 48.7131Z" fill="#3D3D3D"/>
<path d="M112.182 38.5067H114.342V48.7119H112.263V47.231C111.86 47.7622 111.361 48.1807 110.797 48.4866C110.233 48.7924 109.492 48.9534 108.605 48.9534C107.929 48.9534 107.268 48.8246 106.64 48.551C106.011 48.2773 105.479 47.9071 105.012 47.4403C104.545 46.9735 104.19 46.4101 103.916 45.7341C103.643 45.058 103.514 44.3658 103.514 43.6254C103.514 42.8849 103.643 42.1928 103.916 41.5328C104.19 40.8729 104.545 40.3095 105.012 39.8427C105.479 39.3759 106.011 39.0056 106.64 38.732C107.268 38.4584 107.913 38.3296 108.605 38.3296C109.411 38.3296 110.088 38.4745 110.652 38.7642C111.216 39.0539 111.715 39.4403 112.182 39.9554V38.5067ZM108.944 40.5026C108.058 40.5026 107.316 40.8085 106.736 41.4041C106.156 42.0157 105.866 42.7401 105.866 43.5932C105.866 44.4624 106.156 45.2029 106.736 45.7984C107.316 46.394 108.058 46.6999 108.944 46.6999C109.814 46.6999 110.539 46.394 111.135 45.7984C111.731 45.1868 112.021 44.4624 112.021 43.5932C112.021 42.7401 111.731 41.9996 111.135 41.4041C110.555 40.8085 109.814 40.5026 108.944 40.5026Z" fill="#3D3D3D"/>
<path d="M116.84 45.3332V40.6491H115.1V38.5082H115.954C116.26 38.5082 116.501 38.4278 116.646 38.2829C116.791 38.138 116.888 37.8966 116.92 37.5746L117.098 35.6108H119.16V38.5082H121.98V40.6491H119.16V45.1562C119.16 46.1542 119.627 46.6531 120.578 46.6531C121.142 46.6531 121.69 46.6049 122.205 46.4922V48.6652C121.609 48.8101 120.965 48.8745 120.288 48.8745C119.241 48.8745 118.403 48.5687 117.79 47.957C117.146 47.3614 116.84 46.4922 116.84 45.3332Z" fill="#3D3D3D"/>
<path d="M123.381 36.415C123.107 36.1413 122.979 35.8033 122.979 35.417C122.979 35.0307 123.107 34.6926 123.381 34.419C123.655 34.1454 123.994 34.0005 124.396 34.0005C124.783 34.0005 125.122 34.1293 125.395 34.419C125.669 34.6926 125.814 35.0307 125.814 35.417C125.814 35.8033 125.685 36.1413 125.412 36.415C125.138 36.6886 124.799 36.8335 124.413 36.8335C123.994 36.8335 123.655 36.6886 123.381 36.415ZM125.557 48.7128H123.236V38.5076H125.557V48.7128Z" fill="#3D3D3D"/>
<path d="M132.632 48.7131H130.231L126.203 38.5078H128.668L131.408 45.6225H131.44L134.179 38.5078H136.612L132.632 48.7131Z" fill="#3D3D3D"/>
<path d="M146.601 43.2561C146.601 43.7068 146.553 44.1253 146.44 44.4956H138.706C138.883 45.2038 139.253 45.7672 139.801 46.1857C140.349 46.6042 140.994 46.8135 141.735 46.8135C142.299 46.8135 142.766 46.733 143.169 46.5881C143.572 46.4433 144.007 46.1857 144.474 45.7994L145.827 47.3447C144.619 48.407 143.233 48.9382 141.67 48.9382C140.14 48.9382 138.851 48.4231 137.803 47.409C136.756 46.395 136.24 45.1233 136.24 43.6102C136.24 42.6283 136.482 41.7269 136.949 40.906C137.416 40.1012 138.077 39.4573 138.899 38.9905C139.737 38.5237 140.655 38.2983 141.654 38.2983C142.428 38.2983 143.12 38.4271 143.749 38.6847C144.377 38.9422 144.893 39.2963 145.296 39.747C145.699 40.1977 146.021 40.7289 146.246 41.3245C146.488 41.9201 146.601 42.5801 146.601 43.2561ZM138.706 42.6605L144.329 42.6444C144.248 41.9523 143.974 41.405 143.523 40.9704C143.072 40.5358 142.46 40.3265 141.67 40.3265C140.961 40.3265 140.333 40.5358 139.785 40.9704C139.269 41.3889 138.899 41.9523 138.706 42.6605Z" fill="#3D3D3D"/>
<path d="M58.6074 56.0199C58.6074 56.2936 58.6718 56.5511 58.8007 56.7765C58.9296 57.0018 59.123 57.195 59.3969 57.356C59.6547 57.5169 59.9286 57.6618 60.2348 57.7584C60.5248 57.8711 60.8793 57.9676 61.2821 58.0803C61.6366 58.1769 61.9427 58.2574 62.2006 58.3379C62.4584 58.4183 62.7645 58.531 63.0868 58.6759C63.4251 58.8047 63.6991 58.9495 63.9569 59.1105C64.1986 59.2554 64.4402 59.4485 64.6981 59.6739C64.9559 59.8992 65.1492 60.1407 65.3103 60.3982C65.4715 60.6558 65.6004 60.9616 65.6971 61.3157C65.7937 61.6699 65.8421 62.0401 65.8421 62.4586C65.8421 63.7141 65.3909 64.7443 64.4886 65.517C63.5863 66.2896 62.41 66.692 60.9437 66.692C59.8964 66.692 58.978 66.4989 58.1562 66.0964C57.3506 65.694 56.5932 65.0985 55.9004 64.3097L57.5761 62.7644C58.0756 63.3117 58.5751 63.7463 59.0908 64.0361C59.6064 64.3258 60.2187 64.4868 60.9276 64.4868C61.7333 64.4868 62.3617 64.3097 62.8128 63.9395C63.2479 63.5693 63.4735 63.0864 63.4735 62.4908C63.4735 62.2815 63.4412 62.0884 63.3607 61.9274C63.2801 61.7664 63.1834 61.6055 63.0223 61.4606C62.8773 61.3318 62.7162 61.2031 62.555 61.0904C62.3939 60.9777 62.1844 60.8811 61.9266 60.7845C61.6688 60.688 61.4271 60.6075 61.2177 60.5431C60.9921 60.4787 60.7343 60.3982 60.4281 60.3177C59.9609 60.189 59.558 60.0602 59.1874 59.9153C58.8168 59.7705 58.4462 59.5934 58.0595 59.3519C57.6728 59.1105 57.3506 58.853 57.1089 58.5632C56.8511 58.2735 56.6577 57.9193 56.4966 57.4847C56.3354 57.0501 56.2549 56.5833 56.2549 56.0521C56.2549 54.9415 56.6738 54.0079 57.5278 53.2674C58.3657 52.527 59.4614 52.1567 60.7987 52.1567C61.7494 52.1567 62.5711 52.3177 63.2801 52.6235C63.9891 52.9294 64.6819 53.4123 65.3426 54.04L63.6829 55.5531C62.829 54.7483 61.8622 54.3298 60.7987 54.3298C60.1542 54.3298 59.6386 54.4747 59.2358 54.7644C58.8007 55.1024 58.6074 55.5048 58.6074 56.0199Z" fill="#3D3D3D"/>
<path d="M69.3867 66.4191H67.0664V51.916H69.3867V66.4191Z" fill="#3D3D3D"/>
<path d="M80.9895 60.9627C80.9895 61.4134 80.9412 61.8319 80.8284 62.2021H73.0942C73.2714 62.9104 73.642 63.4737 74.1899 63.8922C74.7377 64.3108 75.3822 64.52 76.1234 64.52C76.6874 64.52 77.1546 64.4395 77.5575 64.2947C77.9603 64.1498 78.3953 63.8922 78.8626 63.5059L80.2161 65.0512C79.0076 66.1136 77.6219 66.6448 76.059 66.6448C74.5282 66.6448 73.2392 66.1297 72.1919 65.1156C71.1445 64.1015 70.6289 62.8299 70.6289 61.3168C70.6289 60.3349 70.8706 59.4335 71.3379 58.6125C71.8051 57.8077 72.4658 57.1638 73.2875 56.697C74.1254 56.2302 75.0439 56.0049 76.0429 56.0049C76.8163 56.0049 77.5091 56.1337 78.1375 56.3912C78.7659 56.6487 79.2816 57.0029 79.6844 57.4536C80.0872 57.9043 80.4095 58.4355 80.635 59.0311C80.8767 59.6266 80.9895 60.2866 80.9895 60.9627ZM73.0942 60.3671L78.7176 60.351C78.637 59.6588 78.3631 59.1115 77.912 58.6769C77.4608 58.2423 76.8485 58.0331 76.059 58.0331C75.35 58.0331 74.7216 58.2423 74.1738 58.6769C73.642 59.0954 73.2875 59.6588 73.0942 60.3671Z" fill="#3D3D3D"/>
<path d="M92.1399 60.9627C92.1399 61.4134 92.0916 61.8319 91.9788 62.2021H84.2446C84.4218 62.9104 84.7924 63.4737 85.3403 63.8922C85.8881 64.3108 86.5326 64.52 87.2738 64.52C87.8378 64.52 88.305 64.4395 88.7079 64.2947C89.1107 64.1498 89.5457 63.8922 90.013 63.5059L91.3665 65.0512C90.158 66.1136 88.7723 66.6448 87.2094 66.6448C85.6786 66.6448 84.3896 66.1297 83.3422 65.1156C82.2949 64.1015 81.7793 62.8299 81.7793 61.3168C81.7793 60.3349 82.021 59.4335 82.4883 58.6125C82.9555 57.8077 83.6162 57.1638 84.4379 56.697C85.2758 56.2302 86.1942 56.0049 87.1932 56.0049C87.9667 56.0049 88.6595 56.1337 89.2879 56.3912C89.9163 56.6487 90.4319 57.0029 90.8348 57.4536C91.2376 57.9043 91.5599 58.4355 91.7854 59.0311C92.0271 59.6266 92.1399 60.2866 92.1399 60.9627ZM84.2446 60.3671L89.868 60.351C89.7874 59.6588 89.5135 59.1115 89.0623 58.6769C88.6112 58.2423 87.9989 58.0331 87.2094 58.0331C86.5004 58.0331 85.872 58.2423 85.3241 58.6769C84.7924 59.0954 84.4379 59.6588 84.2446 60.3671Z" fill="#3D3D3D"/>
<path d="M93.0098 70.508V56.2141H95.1044V57.695C95.5073 57.1638 96.0068 56.7614 96.5707 56.4556C97.1347 56.1498 97.8598 56.0049 98.746 56.0049C99.4227 56.0049 100.083 56.1337 100.712 56.4073C101.34 56.6809 101.888 57.0512 102.339 57.518C102.79 57.9848 103.161 58.5482 103.435 59.2081C103.709 59.8681 103.838 60.5602 103.838 61.3007C103.838 62.0411 103.709 62.7494 103.435 63.4093C103.161 64.0693 102.806 64.6327 102.339 65.0995C101.872 65.5663 101.34 65.9365 100.712 66.2263C100.083 66.516 99.4227 66.6448 98.746 66.6448C97.9564 66.6448 97.2797 66.516 96.748 66.2424C96.2162 65.9687 95.7329 65.5985 95.3139 65.1317V70.5241H93.0098V70.508ZM98.4237 64.4234C99.2938 64.4234 100.035 64.1176 100.615 63.522C101.195 62.9104 101.485 62.186 101.485 61.3168C101.485 60.4637 101.195 59.7232 100.615 59.1276C100.035 58.516 99.2938 58.2262 98.4237 58.2262C97.5536 58.2262 96.8285 58.5321 96.2324 59.1276C95.6362 59.7393 95.3461 60.4637 95.3461 61.3168C95.3461 62.186 95.6362 62.9104 96.2324 63.522C96.8285 64.1176 97.5536 64.4234 98.4237 64.4234Z" fill="#3D3D3D"/>
<path d="M61.6844 84.1247H59.3158V72.342H55.4004V70.1367H65.5838V72.342H61.6683V84.1247H61.6844Z" fill="#3D3D3D"/>
<path d="M74.8352 78.6692C74.8352 79.1199 74.7869 79.5384 74.6741 79.9086H66.9399C67.1171 80.6169 67.4877 81.1803 68.0356 81.5988C68.5834 82.0173 69.2279 82.2266 69.9691 82.2266C70.5331 82.2266 71.0003 82.1461 71.4032 82.0012C71.806 81.8563 72.241 81.5988 72.7083 81.2125L74.0618 82.7578C72.8533 83.8201 71.4676 84.3513 69.9047 84.3513C68.3739 84.3513 67.0849 83.8362 66.0376 82.8221C64.9902 81.808 64.4746 80.5364 64.4746 79.0233C64.4746 78.0414 64.7163 77.14 65.1836 76.3191C65.6509 75.5143 66.3115 74.8704 67.1332 74.4036C67.9711 73.9368 68.8896 73.7114 69.8886 73.7114C70.662 73.7114 71.3548 73.8402 71.9832 74.0977C72.6116 74.3553 73.1273 74.7094 73.5301 75.1601C73.9329 75.6108 74.2552 76.142 74.4807 76.7376C74.7224 77.3332 74.8352 77.9931 74.8352 78.6692ZM66.9399 78.0736L72.5633 78.0575C72.4827 77.3654 72.2088 76.8181 71.7577 76.3835C71.3065 75.9489 70.6942 75.7396 69.9047 75.7396C69.1957 75.7396 68.5673 75.9489 68.0195 76.3835C67.5038 76.802 67.1332 77.3654 66.9399 78.0736Z" fill="#3D3D3D"/>
<path d="M83.1488 80.7452L85.0984 81.9846C84.6311 82.7251 84.0027 83.3045 83.2454 83.723C82.4881 84.1416 81.6341 84.3347 80.6835 84.3347C79.6684 84.3347 78.7338 84.0933 77.9121 83.6265C77.0903 83.1597 76.4297 82.5158 75.9624 81.711C75.4951 80.9061 75.2695 79.9886 75.2695 79.0067C75.2695 77.4936 75.7851 76.2381 76.8164 75.224C77.8476 74.2099 79.1366 73.6948 80.6835 73.6948C81.6341 73.6948 82.4881 73.9041 83.2454 74.3065C84.0027 74.725 84.615 75.3045 85.0984 76.0449L83.1488 77.3005C82.5687 76.383 81.7469 75.9162 80.6835 75.9162C79.8134 75.9162 79.0722 76.222 78.476 76.8176C77.8798 77.4293 77.5898 78.1536 77.5898 79.0067C77.5898 79.8759 77.8798 80.6003 78.476 81.212C79.0722 81.8236 79.7973 82.1134 80.6835 82.1134C81.7469 82.1295 82.5687 81.6627 83.1488 80.7452Z" fill="#3D3D3D"/>
<path d="M88.5937 84.1257H86.2734V69.6226H88.5937V75.2403C89.2704 74.2101 90.3017 73.695 91.7035 73.695C92.2513 73.695 92.7508 73.7755 93.202 73.9526C93.6532 74.1296 94.056 74.3872 94.4105 74.7413C94.765 75.0954 95.055 75.5622 95.2483 76.1578C95.4417 76.7534 95.5545 77.4455 95.5545 78.2343V84.1257H93.2342V78.7011C93.2342 77.7675 93.0248 77.0753 92.6219 76.6085C92.2191 76.1417 91.6713 75.9164 90.9623 75.9164C90.2694 75.9164 89.6894 76.19 89.2543 76.7373C88.8032 77.2846 88.5937 77.9928 88.5937 78.8459V84.1257Z" fill="#3D3D3D"/>
<path d="M99.8242 84.1255H97.5039V73.9202H99.663V75.5781C99.9047 75.0469 100.291 74.6123 100.855 74.2421C101.419 73.888 102.096 73.6948 102.934 73.6948C103.482 73.6948 103.981 73.7753 104.432 73.9524C104.884 74.1294 105.286 74.387 105.641 74.7411C105.995 75.0952 106.285 75.562 106.479 76.1576C106.672 76.7532 106.785 77.4453 106.785 78.2341V84.1255H104.465V78.7009C104.465 77.7673 104.255 77.0751 103.852 76.6083C103.45 76.1415 102.902 75.9162 102.193 75.9162C101.484 75.9162 100.92 76.1898 100.485 76.7371C100.034 77.2844 99.8242 77.9926 99.8242 78.8458V84.1255Z" fill="#3D3D3D"/>
<path d="M108.59 81.7276C108.123 80.9066 107.881 80.0052 107.881 79.0233C107.881 78.0414 108.123 77.14 108.59 76.3191C109.057 75.5143 109.718 74.8704 110.539 74.4036C111.377 73.9368 112.296 73.7114 113.295 73.7114C114.826 73.7114 116.115 74.2265 117.146 75.2406C118.177 76.2547 118.709 77.5263 118.709 79.0233C118.709 80.0052 118.467 80.9066 118 81.7276C117.533 82.5485 116.872 83.1924 116.05 83.6592C115.228 84.126 114.31 84.3674 113.295 84.3674C112.28 84.3674 111.361 84.126 110.539 83.6592C109.702 83.1763 109.057 82.5324 108.59 81.7276ZM113.295 82.13C114.165 82.13 114.89 81.8241 115.486 81.2286C116.082 80.6169 116.372 79.8925 116.372 79.0233C116.372 78.1702 116.082 77.4298 115.486 76.8342C114.89 76.2225 114.165 75.9328 113.295 75.9328C112.409 75.9328 111.667 76.2386 111.087 76.8342C110.507 77.4459 110.217 78.1702 110.217 79.0233C110.217 79.8925 110.507 80.633 111.087 81.2286C111.667 81.8241 112.409 82.13 113.295 82.13Z" fill="#3D3D3D"/>
<path d="M122.285 84.1257H119.965V69.6226H122.285V84.1257Z" fill="#3D3D3D"/>
<path d="M124.268 81.7276C123.8 80.9066 123.559 80.0052 123.559 79.0233C123.559 78.0414 123.8 77.14 124.268 76.3191C124.735 75.5143 125.395 74.8704 126.217 74.4036C127.055 73.9368 127.974 73.7114 128.973 73.7114C130.503 73.7114 131.792 74.2265 132.824 75.2406C133.855 76.2547 134.386 77.5263 134.386 79.0233C134.386 80.0052 134.145 80.9066 133.678 81.7276C133.21 82.5485 132.55 83.1924 131.728 83.6592C130.906 84.126 129.988 84.3674 128.973 84.3674C127.957 84.3674 127.039 84.126 126.217 83.6592C125.379 83.1763 124.735 82.5324 124.268 81.7276ZM128.973 82.13C129.843 82.13 130.568 81.8241 131.164 81.2286C131.76 80.6169 132.05 79.8925 132.05 79.0233C132.05 78.1702 131.76 77.4298 131.164 76.8342C130.568 76.2225 129.843 75.9328 128.973 75.9328C128.086 75.9328 127.345 76.2386 126.765 76.8342C126.185 77.4459 125.895 78.1702 125.895 79.0233C125.895 79.8925 126.185 80.633 126.765 81.2286C127.345 81.8241 128.086 82.13 128.973 82.13Z" fill="#3D3D3D"/>
<path d="M143.296 83.5133V82.4832C142.474 83.4168 141.33 83.8836 139.88 83.8836C138.962 83.8836 138.108 83.6743 137.334 83.2558C136.561 82.8373 135.949 82.2256 135.498 81.453C135.046 80.6642 134.805 79.795 134.805 78.8131C134.805 77.8312 135.03 76.9459 135.498 76.1733C135.965 75.4006 136.577 74.789 137.334 74.3704C138.108 73.9519 138.946 73.7427 139.88 73.7427C140.783 73.7427 141.508 73.8875 142.056 74.1934C142.603 74.4992 143.087 74.9016 143.49 75.4167V73.9197H145.6V83.288C145.6 84.1411 145.455 84.8977 145.181 85.5576C144.908 86.2176 144.505 86.7649 144.021 87.1673C143.522 87.5858 142.958 87.8916 142.313 88.1009C141.669 88.3102 140.976 88.4228 140.235 88.4228C138.994 88.4228 137.947 88.1814 137.141 87.7146C136.335 87.2478 135.739 86.6361 135.353 85.8957L137.206 84.8494C137.85 85.8313 138.849 86.3142 140.203 86.3142C141.105 86.3142 141.846 86.0727 142.41 85.5898C142.974 85.1069 143.28 84.4148 143.296 83.5133ZM137.979 80.8735C138.559 81.4047 139.3 81.6783 140.203 81.6783C141.105 81.6783 141.846 81.4047 142.426 80.8735C143.006 80.3423 143.296 79.6501 143.296 78.797C143.296 77.9439 143.006 77.2678 142.426 76.7206C141.846 76.1733 141.105 75.9157 140.219 75.9157C139.332 75.9157 138.591 76.1894 138.011 76.7206C137.431 77.2517 137.141 77.9439 137.141 78.797C137.109 79.6341 137.399 80.3423 137.979 80.8735Z" fill="#3D3D3D"/>
<path d="M147.905 71.8276C147.631 71.5539 147.502 71.2159 147.502 70.8296C147.502 70.4433 147.631 70.1052 147.905 69.8316C148.179 69.558 148.517 69.4131 148.92 69.4131C149.307 69.4131 149.645 69.5419 149.919 69.8316C150.193 70.1052 150.338 70.4433 150.338 70.8296C150.338 71.2159 150.193 71.5539 149.919 71.8276C149.645 72.1012 149.307 72.2461 148.92 72.2461C148.517 72.2461 148.179 72.1012 147.905 71.8276ZM150.08 84.1254H147.76V73.9202H150.08V84.1254Z" fill="#3D3D3D"/>
<path d="M161.665 78.6692C161.665 79.1199 161.617 79.5384 161.504 79.9086H153.77C153.947 80.6169 154.318 81.1803 154.866 81.5988C155.413 82.0173 156.058 82.2266 156.799 82.2266C157.363 82.2266 157.83 82.1461 158.233 82.0012C158.636 81.8563 159.071 81.5988 159.538 81.2125L160.892 82.7578C159.683 83.8201 158.298 84.3513 156.735 84.3513C155.204 84.3513 153.915 83.8362 152.868 82.8221C151.82 81.808 151.305 80.5364 151.305 79.0233C151.305 78.0414 151.546 77.14 152.014 76.3191C152.481 75.5143 153.142 74.8704 153.963 74.4036C154.801 73.9368 155.72 73.7114 156.719 73.7114C157.492 73.7114 158.185 73.8402 158.813 74.0977C159.442 74.3553 159.957 74.7094 160.36 75.1601C160.763 75.6108 161.085 76.142 161.311 76.7376C161.569 77.3332 161.665 77.9931 161.665 78.6692ZM153.77 78.0736L159.393 78.0575C159.313 77.3654 159.039 76.8181 158.588 76.3835C158.137 75.9489 157.524 75.7396 156.735 75.7396C156.026 75.7396 155.397 75.9489 154.85 76.3835C154.334 76.802 153.963 77.3654 153.77 78.0736Z" fill="#3D3D3D"/>
<path d="M164.791 76.6566C164.791 76.9624 164.92 77.1878 165.178 77.381C165.435 77.558 165.871 77.719 166.499 77.88C166.918 77.9926 167.288 78.0892 167.579 78.2019C167.885 78.3146 168.191 78.4433 168.545 78.6365C168.884 78.8136 169.158 79.0228 169.367 79.2321C169.577 79.4413 169.754 79.7311 169.883 80.053C170.012 80.3749 170.092 80.7613 170.092 81.1959C170.092 82.1295 169.722 82.886 168.996 83.4655C168.271 84.0611 167.321 84.3508 166.161 84.3508C165.323 84.3508 164.549 84.2059 163.873 83.9001C163.196 83.5943 162.616 83.1597 162.148 82.5963L163.728 81.1798C164.001 81.55 164.356 81.8236 164.791 82.0168C165.226 82.1939 165.677 82.2904 166.128 82.2904C166.628 82.2904 167.031 82.1939 167.353 82.0007C167.675 81.8075 167.82 81.5661 167.82 81.2603C167.82 81.0832 167.772 80.9383 167.691 80.7935C167.611 80.6647 167.466 80.552 167.272 80.4393C167.079 80.3267 166.87 80.2462 166.676 80.1818C166.483 80.1174 166.209 80.0369 165.838 79.9242C165.435 79.8116 165.097 79.6989 164.807 79.5862C164.517 79.4735 164.211 79.3287 163.921 79.1516C163.615 78.9745 163.373 78.7653 163.18 78.556C162.986 78.3468 162.825 78.0731 162.712 77.7351C162.6 77.4132 162.535 77.0429 162.535 76.6566C162.535 75.8035 162.857 75.0952 163.518 74.5319C164.179 73.9685 165.017 73.6948 166.032 73.6948C167.466 73.6948 168.658 74.1616 169.625 75.0952L168.078 76.5117C167.53 75.9645 166.87 75.6908 166.08 75.6908C165.709 75.6908 165.403 75.7874 165.145 75.9645C164.92 76.1415 164.791 76.383 164.791 76.6566Z" fill="#3D3D3D"/>
<path d="M174.477 70.9583C174.01 70.9583 173.543 70.8601 173.101 70.6637C172.659 70.4673 172.29 70.2218 171.971 69.9027C171.651 69.5836 171.406 69.1908 171.209 68.749C171.012 68.3071 170.914 67.8407 170.914 67.3497C170.914 66.8588 171.012 66.3924 171.209 65.9505C171.406 65.5087 171.651 65.1159 171.971 64.7968C172.29 64.4776 172.659 64.2076 173.101 64.0358C173.543 63.8394 174.01 63.7412 174.477 63.7412C175.116 63.7412 175.73 63.913 176.271 64.2322C176.811 64.5513 177.254 64.9931 177.573 65.5577C177.893 66.1223 178.04 66.7115 178.04 67.3497C178.04 67.8407 177.942 68.3071 177.77 68.749C177.573 69.1908 177.328 69.5836 177.008 69.9027C176.689 70.2218 176.32 70.4919 175.878 70.6637C175.435 70.8355 174.969 70.9583 174.477 70.9583ZM174.477 70.1727C174.846 70.1727 175.214 70.0991 175.558 69.9518C175.902 69.8045 176.197 69.5836 176.443 69.3381C176.689 69.0926 176.885 68.7735 177.033 68.4298C177.18 68.0862 177.254 67.718 177.254 67.3497C177.254 66.9815 177.18 66.6378 177.033 66.2696C176.885 65.926 176.689 65.6314 176.443 65.3614C176.197 65.1159 175.902 64.895 175.558 64.7477C175.214 64.6004 174.846 64.5267 174.477 64.5267C174.084 64.5267 173.74 64.6004 173.396 64.7477C173.052 64.895 172.757 65.1159 172.511 65.3614C172.266 65.6314 172.069 65.926 171.922 66.2696C171.774 66.6133 171.7 66.9815 171.7 67.3497C171.7 67.718 171.774 68.0862 171.922 68.4298C172.069 68.7735 172.266 69.0681 172.511 69.3381C172.757 69.6081 173.052 69.8045 173.396 69.9518C173.74 70.0991 174.108 70.1727 174.477 70.1727ZM173.986 69.0681H173.298V65.6559H174.551C174.747 65.6559 174.944 65.6805 175.116 65.7541C175.288 65.8278 175.435 65.9505 175.558 66.0978C175.681 66.2696 175.755 66.466 175.755 66.7115C175.755 66.957 175.706 67.1534 175.583 67.3006C175.46 67.4725 175.313 67.5707 175.141 67.6689L176.099 69.0435H175.313L174.428 67.767H174.01V69.0681H173.986ZM173.986 66.2696V67.1534H174.453C174.846 67.1534 175.018 67.0061 175.018 66.7115C175.018 66.4169 174.821 66.2942 174.453 66.2942H173.986V66.2696Z" fill="#3D3D3D"/>
<path d="M18.9386 68.5911C19.2126 70.2974 20.421 70.909 23.3375 70.8608C26.0122 70.8125 28.7192 69.235 28.7192 66.241C28.7192 64.0358 26.834 62.5066 24.4493 61.9271C22.5802 61.4764 19.9054 60.6072 17.7624 59.0619C15.4421 57.3879 14.3142 55.3436 14.3626 52.9935C14.4754 47.3757 18.7936 43.8506 23.9659 43.7701C27.6719 43.7057 28.7836 43.1906 28.8964 41.4843C29.0898 38.5065 29.0737 36.3495 28.3164 35.4481C27.8974 34.9491 27.1562 34.7238 25.9478 34.7559C25.6255 34.7559 25.3033 34.7559 24.981 34.7559C21.9679 34.7559 19.9699 34.9169 19.6315 36.9129C19.4704 37.8304 19.0675 40.6312 19.0514 40.6634L19.0353 40.7117C18.3102 44.092 15.571 46.7641 12.0906 47.5367L9.83483 48.0357C9.43201 48.1162 9.06141 48.1967 8.69081 48.261C6.48334 48.6796 5.48434 48.8566 5.14597 51.6091C4.83982 54.1685 5.00095 55.8587 5.64547 56.7762C6.25776 57.6615 7.35344 57.8225 8.62636 58.0156C8.93251 58.0639 9.23865 58.1122 9.5448 58.1605L11.72 58.5629C13.7181 58.9331 15.5066 59.9794 16.7473 61.5247C17.6013 62.5871 18.1813 63.8748 18.4069 65.2269L18.9386 68.5911Z" fill="#3D3D3D"/>
<path d="M28.6222 50.1761C28.3483 48.4698 27.1399 47.8581 24.2234 47.9064C21.5487 47.9547 18.8417 49.5322 18.8417 52.5262C18.8417 54.7314 20.7269 56.2606 23.1116 56.8401C24.9807 57.2908 27.6555 58.16 29.7985 59.7053C32.1188 61.3793 33.2628 63.4236 33.1983 65.7737C33.0694 70.7798 28.7673 74.9166 23.595 74.9971C19.889 75.0615 18.7772 75.5766 18.6644 77.2828C18.4711 80.2607 18.4872 82.4177 19.2445 83.3191C19.6634 83.8181 20.4046 84.0434 21.6292 84.0113C21.9515 84.0113 22.2737 84.0113 22.596 84.0113C25.6091 84.0113 27.6071 83.8503 27.9455 81.8543C28.1066 80.9368 28.5095 78.136 28.5256 78.1038L28.5417 78.0555C29.2829 74.6752 32.006 72.0031 35.4864 71.2305L37.7422 70.7315C38.145 70.651 38.5156 70.5705 38.8862 70.5062C41.0937 70.0876 42.0927 69.9106 42.431 67.158C42.7372 64.5987 42.5761 62.9085 41.9476 61.991C41.3354 61.1057 40.2397 60.9447 38.9668 60.7516C38.6606 60.7033 38.3545 60.655 38.0483 60.6067L35.8731 60.2043C33.8751 59.8341 32.0865 58.7878 30.8458 57.2425C29.9918 56.1801 29.4118 54.8924 29.1862 53.5403L28.6222 50.1761Z" fill="#3D3D3D"/>
</g>
<defs>
<clipPath id="clip0_9243_729">
<rect width="173.041" height="54.5932" fill="white" transform="translate(5 34)"/>
</clipPath>
</defs>
</svg>
