<svg width="184" height="123" viewBox="0 0 184 123" fill="none" xmlns="http://www.w3.org/2000/svg">
<path d="M156.978 74.3448H137.196C137.163 74.2678 137.119 74.1933 137.098 74.1127C136.896 73.3771 136.692 72.642 136.505 71.9028C136.457 71.711 136.379 71.6498 136.177 71.6503C133.802 71.6574 131.428 71.6549 129.054 71.6549H128.78C128.569 72.5644 128.363 73.4546 128.158 74.3448H107.91C105.252 70.58 102.593 66.8152 99.9336 63.0504L99.8613 63.0698C99.8613 63.1759 99.8613 63.2825 99.8613 63.3886C99.8613 66.9183 99.8618 70.4479 99.8587 73.978C99.8587 74.1005 99.821 74.2224 99.8008 74.3448H78.6241C78.6034 74.2821 78.59 74.2158 78.5605 74.1571C77.9552 72.9506 77.3483 71.7452 76.7414 70.5397C76.0736 69.2129 75.4073 67.8855 74.7332 66.5617C74.6754 66.4484 74.5612 66.3627 74.4734 66.2643C74.4497 66.3892 74.4058 66.5147 74.4058 66.6397C74.4016 69.0899 74.4032 71.5396 74.4021 73.9898C74.4021 74.1081 74.3939 74.2265 74.3892 74.3448H54.0905C53.8715 73.5184 53.6469 72.693 53.4382 71.864C53.3964 71.6972 53.3256 71.6513 53.1593 71.6518C50.7586 71.6564 48.3573 71.6559 45.9566 71.6528C45.8078 71.6528 45.7293 71.6799 45.6921 71.8467C45.5052 72.6813 45.3012 73.5123 45.1028 74.3448H25.1657C24.2473 72.8037 23.3279 71.2636 22.4117 69.7215C21.1695 67.6309 19.9304 65.5378 18.6882 63.4473C17.902 62.124 17.1113 60.8033 16.3262 59.4795C15.319 57.7822 14.3175 56.0825 13.3093 54.3857C12.2887 52.6676 11.2624 50.9525 10.2397 49.2354C10.0677 48.9467 9.90137 48.6544 9.72266 48.3462H19.1215V58.7035C19.2253 58.6148 19.2878 58.5168 19.3441 58.4158C20.0337 57.1747 20.7211 55.9325 21.4112 54.6918C22.5439 52.6564 23.6807 50.623 24.8062 48.584C24.9095 48.3962 25.0149 48.3223 25.2385 48.3223C28.7161 48.3304 32.1938 48.3279 35.6719 48.3279H35.973C35.7778 48.6309 35.6105 48.8936 35.44 49.1543C34.4256 50.7072 33.4086 52.259 32.3957 53.8134C31.5079 55.1749 30.6251 56.54 29.7373 57.9021C29.1051 58.8714 28.4661 59.8365 27.8386 60.8089C27.7962 60.8742 27.7895 61.0114 27.8308 61.0726C28.7797 62.476 29.7373 63.8733 30.6933 65.2715C31.9474 67.1055 33.2017 68.9394 34.4566 70.7728C34.7143 71.1493 34.9752 71.5233 35.2603 71.936C35.314 71.7987 35.3532 71.7069 35.3863 71.6136C35.9235 70.0852 36.4586 68.5563 36.9968 67.0279C37.8309 64.6599 38.6661 62.2918 39.5029 59.9248C40.2601 57.7812 41.0214 55.6391 41.7781 53.4956C42.3596 51.8483 42.9381 50.1996 43.514 48.5503C43.5631 48.41 43.608 48.3238 43.7919 48.3238C47.5882 48.3299 51.3846 48.3299 55.1809 48.3238C55.3549 48.3238 55.4154 48.3927 55.467 48.5386C55.7702 49.3941 56.0832 50.2465 56.3921 51.1C57.2242 53.3971 58.0568 55.6937 58.8884 57.9909C60.0081 61.0864 61.1279 64.1819 62.2467 67.2779C62.8577 68.9695 63.4662 70.6616 64.0772 72.3533C64.1872 72.6583 64.3055 72.9603 64.4201 73.2633L64.4842 73.2506V48.3279H64.744C70.4597 48.3279 76.1758 48.3279 81.8915 48.3304C82.018 48.3304 82.1513 48.3468 82.2706 48.3865C83.113 48.6692 83.9105 49.0482 84.6476 49.5395C86.4874 50.7653 87.6242 52.4681 88.1076 54.5959C88.4191 55.9672 88.4418 57.3552 88.2739 58.7454C88.1283 59.9554 87.7388 61.0741 86.9114 62.0102C86.147 62.8754 85.1692 63.4294 84.1099 63.861C83.7488 64.0079 83.3826 64.1436 82.9896 64.2951C85.3417 67.3845 87.6743 70.4489 90.0068 73.5128L90.1174 73.4878V48.3488C90.2196 48.3355 90.2449 48.3289 90.2702 48.3289C93.5847 48.3284 96.8986 48.3269 100.213 48.334C100.3 48.334 100.42 48.411 100.469 48.487C100.783 48.9727 101.084 49.467 101.386 49.9598C102.496 51.7642 103.603 53.5695 104.713 55.3739C105.77 57.091 106.829 58.8061 107.888 60.5222C108.045 60.7778 108.207 61.0308 108.367 61.2853C108.389 61.2782 108.412 61.2716 108.434 61.2644V48.3493H118.148V72.316C118.207 72.1982 118.237 72.1512 118.255 72.1002C118.803 70.5571 119.351 69.0139 119.895 67.4697C120.657 65.3093 121.414 63.1473 122.176 60.9874C123.058 58.4913 123.944 55.9973 124.825 53.5012C125.41 51.8453 125.991 50.1878 126.568 48.5294C126.621 48.3753 126.698 48.3243 126.863 48.3243C130.651 48.3289 134.438 48.3289 138.226 48.3243C138.396 48.3243 138.457 48.385 138.512 48.5365C139.52 51.3305 140.537 54.1215 141.548 56.914C142.683 60.0498 143.815 63.1871 144.948 66.3239C145.535 67.9523 146.122 69.5812 146.71 71.2095C146.824 71.5217 146.945 71.8304 147.064 72.1405C147.085 72.1364 147.107 72.1324 147.128 72.1278V50.5414C147.227 50.5944 147.274 50.6607 147.315 50.7301C147.637 51.2709 147.956 51.8131 148.279 52.3539C149.258 53.998 150.239 55.6412 151.217 57.2859C152.112 58.7913 153.003 60.2998 153.897 61.8057C154.901 63.4947 155.91 65.1807 156.909 66.8723C156.978 66.9897 157.019 67.1422 157.02 67.2784C157.027 69.5439 157.025 71.8094 157.022 74.0755C157.022 74.1653 156.994 74.2555 156.979 74.3453L156.978 74.3448ZM47.5609 65.092H51.5829C51.5643 64.9859 51.5545 64.9027 51.5349 64.8216C51.2916 63.8171 51.055 62.8112 50.7999 61.8098C50.3924 60.2074 50.023 58.5979 49.7927 56.9599C49.7772 56.8492 49.7839 56.7262 49.5985 56.7201C49.4213 56.7145 49.3846 56.8043 49.3552 56.9405C49.1806 57.7348 49.0009 58.528 48.8253 59.3218C48.487 60.8517 48.1497 62.3821 47.8129 63.9125C47.7277 64.2992 47.6471 64.6864 47.5603 65.092H47.5609ZM134.638 65.0858C134.01 62.2888 133.177 59.5601 132.811 56.7477C132.595 56.7135 132.446 56.6875 132.396 56.9242C132.217 57.7787 132.024 58.6301 131.836 59.483C131.482 61.0894 131.128 62.6959 130.776 64.3023C130.72 64.5558 130.669 64.8104 130.611 65.0858H134.638ZM74.4171 59.708C75.0374 59.8263 76.5921 59.6917 77.1314 59.4769C77.6453 59.2723 78.0554 58.9576 78.261 58.4306C78.4386 57.9766 78.4619 57.5047 78.4092 57.0277C78.3095 56.1284 77.8586 55.4912 76.9397 55.2831C76.4336 55.1688 75.9057 55.1402 75.3856 55.0984C75.0653 55.0724 74.741 55.0938 74.4166 55.0938V59.708H74.4171Z" fill="#3D3D3D"/>
<path d="M163.073 74.3452C162.406 73.2189 161.741 72.092 161.072 70.9666C160.207 69.5122 159.339 68.0593 158.474 66.6049C157.517 64.997 156.561 63.3885 155.606 61.7801C154.068 59.1916 152.53 56.6032 150.991 54.0148C149.922 52.216 148.852 50.4178 147.783 48.6186C147.736 48.539 147.695 48.4558 147.639 48.3487H157.022V58.705L157.086 58.7203C157.183 58.5463 157.281 58.3719 157.378 58.1979C158.409 56.3492 159.442 54.5015 160.47 52.6517C161.231 51.2845 161.987 49.9158 162.739 48.5446C162.822 48.3941 162.908 48.3242 163.094 48.3242C166.606 48.3303 170.119 48.3288 173.631 48.3293C173.696 48.3293 173.761 48.336 173.872 48.3421C173.685 48.6344 173.52 48.8976 173.349 49.1583C171.838 51.4748 170.325 53.7898 168.813 56.1063C167.8 57.6597 166.79 59.2161 165.774 60.7675C165.69 60.8965 165.673 60.9832 165.769 61.1225C166.963 62.8539 168.148 64.5904 169.334 66.3264C170.578 68.1471 171.819 69.9693 173.063 71.7895C173.586 72.5557 174.114 73.3188 174.639 74.0841C174.696 74.1677 174.745 74.2575 174.798 74.3447H163.073V74.3452Z" fill="#3D3D3D"/>
<path d="M9.20542 74.3454C9.20335 74.2265 9.19974 74.1081 9.19974 73.9893C9.19922 66.2673 9.19922 58.5459 9.19922 50.824C9.19922 50.7235 9.19922 50.6225 9.19922 50.4531C9.27773 50.5516 9.32163 50.5949 9.3521 50.6465C10.7518 52.9997 12.149 55.354 13.5487 57.7073C14.7832 59.783 16.0212 61.8567 17.2562 63.9325C17.8476 64.9267 18.4374 65.922 19.0211 66.9208C19.0774 67.0173 19.1099 67.1412 19.1105 67.2524C19.1156 69.5348 19.1146 71.8176 19.1125 74.1C19.1125 74.1816 19.0857 74.2632 19.0712 74.3448H9.20542V74.3454Z" fill="#3D3D3D"/>
</svg>
