<svg width="184" height="123" viewBox="0 0 184 123" fill="none" xmlns="http://www.w3.org/2000/svg">
<g clip-path="url(#clip0_9243_379)">
<path d="M98.4121 73.4973H118.673V71.0219H101.884V63.1038H114.494V60.5997H101.884V53.3044H118.673V50.8369H98.4121V73.4973Z" fill="#3D3D3D"/>
<path d="M108.941 47.1738L106.199 50.2563L114.808 47.1738H108.941Z" fill="#3D3D3D"/>
<path d="M152.686 71.0219V50.8369H149.52V73.4973H170V71.0219H152.686Z" fill="#3D3D3D"/>
<path d="M131.802 50.8369L120.281 73.4946H124.175L127.124 67.6307H140.942L143.915 73.4946H147.769L136.238 50.8369H131.802ZM128.581 64.789L134.011 53.9664L139.503 64.789H128.581Z" fill="#3D3D3D"/>
<path d="M87.4196 64.0211C92.611 62.6369 93.116 58.7721 93.0899 57.3931C92.7785 53.3451 90.0519 50.8384 85.1509 50.8384H70.8691V73.4961H74.1243V63.9924H83.4213L90.2613 73.4961H94.3642C94.3642 73.4961 89.4422 67.0983 87.4169 64.0211M84.7035 61.3129H74.1217V53.5178H85.0724C87.5923 53.5178 89.0105 54.6953 89.5207 56.1895C89.8583 57.2126 89.6411 58.5602 89.0838 59.476C88.1679 60.9884 86.4305 61.3103 84.7035 61.3103V61.3129Z" fill="#3D3D3D"/>
<path d="M51.3036 47C42.1139 47 35.8496 53.4789 35.8496 61.321C35.8496 69.5766 42.7681 75.4065 51.3036 75.4065C59.8392 75.4065 66.7498 69.6603 66.7498 61.321C66.7498 53.4789 60.4096 47 51.3036 47ZM51.1937 72.5936C44.8352 72.5936 39.5967 67.4833 39.5967 61.3289C39.5967 55.1745 44.5893 49.8286 51.4397 49.8286C58.2901 49.8286 63.0342 55.1823 63.0342 61.3289C63.0342 67.4754 57.5496 72.5936 51.1937 72.5936Z" fill="#3D3D3D"/>
<path d="M27.6523 58.8544H30.0021L34.2647 50.8369H30.8342L27.6523 58.8544Z" fill="#3D3D3D"/>
<path d="M16.1688 71.0219V50.8369H13V73.4973H33.4806V71.0219H16.1688Z" fill="#3D3D3D"/>
</g>
<defs>
<clipPath id="clip0_9243_379">
<rect width="157" height="28.4065" fill="white" transform="translate(13 47)"/>
</clipPath>
</defs>
</svg>
