<svg width="184" height="123" viewBox="0 0 184 123" fill="none" xmlns="http://www.w3.org/2000/svg">
<g clip-path="url(#clip0_9243_559)">
<path d="M62.5215 79.1817H68.1897L68.1953 66.5337H62.5215V79.1817Z" fill="#3D3D3D"/>
<path d="M149.319 60.2695C148.422 60.2695 147.723 60.9645 147.723 61.8894C147.723 62.8142 148.422 63.5204 149.319 63.5204C150.216 63.5204 150.904 62.831 150.904 61.8894C150.904 60.9477 150.205 60.2695 149.319 60.2695ZM149.9 63.0103L149.302 62.0351H148.907V63.0159H148.563V60.7684H149.426C149.957 60.7684 150.222 60.9645 150.222 61.4073C150.222 61.8109 149.968 61.9846 149.641 62.0239L150.284 63.0103H149.9Z" fill="#3D3D3D"/>
<path d="M149.869 61.3842C149.869 61.1095 149.615 61.0591 149.378 61.0591H148.91V61.7541H149.322C149.61 61.7541 149.869 61.7317 149.869 61.3842Z" fill="#3D3D3D"/>
<path d="M150.63 50.8215V44.5003H127.917L91.5056 29L55.0938 44.5003H32.3759V50.8215H21V93.3158H162V50.8215H150.63ZM53.4638 84.7923H37.0458V55.8034H43.4923V79.2108H53.4638V84.7923ZM74.6477 63.9795V81.7438C74.6477 83.4249 73.2772 84.7923 71.5795 84.7923H59.132C57.44 84.7923 56.0695 83.4249 56.0695 81.7438V63.9795C56.0695 62.2983 57.44 60.9309 59.132 60.9309H71.5795C73.2715 60.9309 74.6477 62.2927 74.6477 63.9738V63.9795ZM104.675 81.7438C104.675 83.4249 103.305 84.7923 101.613 84.7923H93.9816C92.6957 84.7923 91.5 83.9125 91.5 82.6348C91.5 83.9069 90.3043 84.7923 89.0184 84.7923H81.3875C79.6898 84.7923 78.3193 83.4305 78.3193 81.7438V60.9309H84.7771V79.2164H88.6687V60.9309H94.3369V79.2108H98.2285V60.9309H104.675V81.7438ZM123.71 66.5348H114.844V70.1942H123.71V75.5683H114.844V79.2052H123.71V84.7867H108.369V60.9309H123.71V66.5348ZM125.131 55.8034H130.534L129.604 62.6794L125.131 62.6737V55.8034ZM147.015 78.7289C146.896 82.2649 144.296 84.344 144.268 84.3608C143.134 85.2798 141.38 85.7449 139.056 85.7449C134.798 85.7449 130.004 84.1702 129.959 84.1534L129.88 84.1254V78.4151L130.038 78.4711C130.083 78.4935 135.041 80.326 137.483 80.6622L137.545 80.6734C137.714 80.6958 137.889 80.7071 138.064 80.7071C139.333 80.7071 140.342 80.1186 140.568 79.2444C140.788 78.4039 140.258 77.4568 139.22 76.8348L139.209 76.8292C138.289 76.2912 137.308 75.8485 136.361 75.4226C134.059 74.3915 131.679 73.3267 130.196 70.7658C129.045 68.5074 129.192 65.4757 130.551 63.5592C132.164 61.2279 134.646 60.0455 137.923 60.0455C138.323 60.0455 138.724 60.0623 139.124 60.096C142.683 60.6003 146.202 62.8082 146.236 62.8307L146.293 62.8643V68.0703L146.129 68.003C146.112 67.9918 144.477 67.3082 142.615 66.5404C141.73 66.1762 140.021 65.5653 138.521 65.5653C137.579 65.5653 136.868 65.8063 136.406 66.277C135.966 66.6525 135.808 67.2689 135.876 67.6612C136.124 69.0622 138.34 69.9252 139.068 70.211L139.197 70.2614C142.875 71.7296 145.165 73.4276 146.185 75.4618L146.225 75.5403L146.298 75.6916L146.338 75.7756C146.806 76.7675 147.031 77.765 147.015 78.7289ZM149.321 63.845C148.244 63.845 147.33 63.0156 147.33 61.8892C147.33 60.7628 148.244 59.9447 149.321 59.9447C150.399 59.9447 151.307 60.7684 151.307 61.8892C151.307 63.01 150.393 63.845 149.321 63.845Z" fill="#3D3D3D"/>
</g>
<defs>
<clipPath id="clip0_9243_559">
<rect width="141" height="64.3158" fill="white" transform="translate(21 29)"/>
</clipPath>
</defs>
</svg>
