<svg width="184" height="123" viewBox="0 0 184 123" fill="none" xmlns="http://www.w3.org/2000/svg">
<g clip-path="url(#clip0_9695_2425)">
<path d="M54.1681 58.5135C53.8275 57.7352 53.3253 57.0397 52.6711 56.4172C52.0169 55.8092 51.2752 55.3483 50.4459 55.0309C49.6166 54.7134 48.7411 54.5518 47.8204 54.5518H45.4297V67.3953H47.8204C48.7324 67.3953 49.6031 67.2337 50.4372 66.9114C51.2665 66.5891 52.0131 66.1235 52.6759 65.5154C53.3301 64.9074 53.8275 64.2166 54.1729 63.4422C54.5135 62.6687 54.6847 61.8432 54.6847 60.9774C54.6847 60.1115 54.5144 59.2918 54.1729 58.5174L54.1681 58.5126V58.5135ZM52.1507 62.7293C51.9159 63.2825 51.5744 63.7799 51.128 64.2128C50.6768 64.6457 50.1698 64.9776 49.6079 65.2076C49.0413 65.4375 48.4467 65.5481 47.8204 65.5481C47.7098 65.5481 47.6039 65.5385 47.4933 65.5347V56.3989C47.5991 56.3893 47.7098 56.3854 47.8204 56.3854C48.4515 56.3854 49.0547 56.5009 49.6214 56.7308C50.1929 56.9608 50.6951 57.2927 51.128 57.7218C51.5705 58.1547 51.9111 58.6521 52.1507 59.2101C52.3854 59.7671 52.5057 60.3568 52.5057 60.9745C52.5057 61.5921 52.3864 62.1723 52.1507 62.7254V62.7303V62.7293Z" fill="#3C3C3C"/>
<path d="M127.809 58.5135C127.468 57.7352 126.966 57.0397 126.312 56.4172C125.658 55.8092 124.916 55.3483 124.087 55.0309C123.258 54.7134 122.383 54.5518 121.461 54.5518H119.07V67.3953H121.461C122.373 67.3953 123.244 67.2337 124.078 66.9114C124.907 66.5891 125.653 66.1235 126.317 65.5154C126.971 64.9074 127.468 64.2166 127.814 63.4422C128.154 62.6687 128.324 61.8432 128.324 60.9774C128.324 60.1115 128.154 59.2918 127.814 58.5174L127.809 58.5126V58.5135ZM125.791 62.7293C125.557 63.2825 125.215 63.7799 124.769 64.2128C124.317 64.6457 123.81 64.9776 123.249 65.2076C122.682 65.4375 122.087 65.5481 121.461 65.5481C121.35 65.5481 121.245 65.5385 121.134 65.5347V56.3989C121.24 56.3893 121.35 56.3854 121.461 56.3854C122.092 56.3854 122.695 56.5009 123.262 56.7308C123.833 56.9608 124.336 57.2927 124.769 57.7218C125.211 58.1547 125.552 58.6521 125.791 59.2101C126.026 59.7671 126.146 60.3568 126.146 60.9745C126.146 61.5921 126.026 62.1723 125.791 62.7254V62.7303V62.7293Z" fill="#3C3C3C"/>
<path d="M16.7617 61.054C16.7386 60.953 16.702 60.6807 16.6462 60.2294C16.6 59.8561 16.5587 59.5472 16.5221 59.2989C16.4711 59.5895 16.3932 59.884 16.296 60.1745C16.1988 60.4651 16.0795 60.7644 15.9323 61.0684L12.5732 67.9106L9.21517 60.9251C9.07661 60.6393 8.95249 60.3631 8.85146 60.0908C8.75043 59.8233 8.65806 59.5559 8.58397 59.2941C8.57916 59.5616 8.55607 59.8474 8.5195 60.1418C8.48294 60.4372 8.42232 60.7451 8.34919 61.0675L6.97133 67.3939H5.05078L8.08651 54.0088L11.8785 62.1182C11.9382 62.2471 12.0257 62.4588 12.146 62.759C12.2663 63.0583 12.4087 63.4268 12.579 63.8646C12.7031 63.4961 12.8965 63.0265 13.1592 62.4598C13.2285 62.3077 13.2833 62.1923 13.3161 62.1095L17.0157 54.0088L20.1207 67.3978H18.1809L16.7617 61.053V61.054Z" fill="#3C3C3C"/>
<path d="M38.5528 61.0019C38.5528 61.914 38.3825 62.776 38.041 63.5908C37.7004 64.4018 37.1982 65.1292 36.544 65.7651C35.885 66.401 35.1394 66.8888 34.3053 67.2303C33.476 67.5709 32.6005 67.7373 31.6885 67.7373C30.7764 67.7373 29.8827 67.567 29.0447 67.2255C28.2068 66.8849 27.465 66.3962 26.8195 65.7651C26.1653 65.1292 25.6679 64.4057 25.3273 63.5995C24.9867 62.7933 24.8203 61.9274 24.8203 61.001C24.8203 60.0745 24.9906 59.2183 25.3273 58.4024C25.6679 57.5914 26.1653 56.8641 26.8195 56.2185C27.4737 55.5826 28.2154 55.0949 29.0486 54.7629C29.8827 54.431 30.7572 54.2607 31.6885 54.2607C32.6198 54.2607 33.4895 54.4262 34.3139 54.7629C35.1432 55.0949 35.885 55.5826 36.5392 56.2185C37.1934 56.8679 37.6908 57.601 38.0362 58.4159C38.3767 59.2308 38.548 60.0928 38.548 61H38.5528V61.0019ZM36.3785 61.0019C36.3785 60.3525 36.2592 59.7349 36.0235 59.1499C35.7888 58.565 35.4482 58.0445 35.0009 57.5885C34.5679 57.1373 34.0657 56.7919 33.4943 56.5476C32.9228 56.3032 32.3244 56.1839 31.6933 56.1839C31.0622 56.1839 30.4628 56.3032 29.8923 56.5437C29.3208 56.7833 28.8138 57.1335 28.3722 57.5895C27.9297 58.0407 27.5891 58.5573 27.3544 59.1422C27.1196 59.7272 27.0042 60.3496 27.0042 61.0038C27.0042 61.658 27.1196 62.2661 27.3544 62.8462C27.5891 63.4263 27.9259 63.9429 28.3722 64.399C28.8186 64.855 29.3208 65.2052 29.8875 65.4447C30.4542 65.6843 31.0574 65.8045 31.6933 65.8045C32.3292 65.8045 32.9141 65.6852 33.4808 65.4447C34.0426 65.2052 34.5545 64.855 35.0009 64.399C35.4434 63.9429 35.784 63.4225 36.0235 62.8423C36.2583 62.2622 36.3785 61.6494 36.3785 61.0038V61.0019Z" fill="#3C3C3C"/>
<path d="M61.7812 67.3953V54.5518H68.9486V56.3258H63.868V59.5458H68.9486V61.3795H63.868V65.5299H68.9486V67.4001H61.7812V67.3953Z" fill="#3C3C3C"/>
<path d="M79.0691 61.6508V67.3953H77.1113V54.5518H80.0225C80.8749 54.5518 81.5378 54.6066 82.0082 54.7172C82.4787 54.8279 82.8789 55.0116 83.2147 55.2704C83.611 55.5792 83.9198 55.9795 84.1363 56.473C84.3528 56.9656 84.4586 57.5053 84.4586 58.0854C84.4586 59.1177 84.2094 59.9191 83.712 60.504C83.2147 61.0842 82.4816 61.4344 81.5099 61.5546L85.9325 67.3963H83.5735L79.3029 61.6518H79.0682L79.0691 61.6508ZM79.2029 60.0288H79.5809C80.6864 60.0288 81.4185 59.8999 81.7831 59.642C82.1468 59.3842 82.3267 58.9282 82.3267 58.274C82.3267 57.5649 82.1333 57.0666 81.7417 56.777C81.355 56.4865 80.6315 56.3441 79.5809 56.3441H79.2029V60.0297V60.0288Z" fill="#3C3C3C"/>
<path d="M92.1836 67.3955V54.0449L100.342 61.8954C100.563 62.1166 100.788 62.3562 101.019 62.6054C101.249 62.8584 101.489 63.1393 101.738 63.4577V54.5519H103.668V67.8938L95.344 59.901C95.1227 59.6845 94.9062 59.4584 94.6984 59.215C94.4916 58.9755 94.2934 58.7225 94.1048 58.4598V67.3926H92.1836V67.3974V67.3955Z" fill="#3C3C3C"/>
<path d="M147.561 61.0019C147.561 61.914 147.389 62.776 147.049 63.5908C146.708 64.4018 146.206 65.1292 145.552 65.7651C144.893 66.401 144.147 66.8888 143.313 67.2303C142.484 67.5709 141.608 67.7373 140.696 67.7373C139.784 67.7373 138.891 67.567 138.053 67.2255C137.214 66.8849 136.472 66.3962 135.827 65.7651C135.173 65.1292 134.676 64.4057 134.335 63.5995C133.994 62.7933 133.828 61.9274 133.828 61.001C133.828 60.0745 133.998 59.2183 134.335 58.4024C134.676 57.5914 135.173 56.8641 135.827 56.2185C136.481 55.5826 137.223 55.0949 138.057 54.7629C138.89 54.431 139.766 54.2607 140.696 54.2607C141.627 54.2607 142.497 54.4262 143.322 54.7629C144.151 55.0949 144.893 55.5826 145.547 56.2185C146.201 56.8679 146.699 57.601 147.044 58.4159C147.386 59.2308 147.556 60.0928 147.556 61H147.561V61.0019ZM145.386 61.0019C145.386 60.3525 145.266 59.7349 145.031 59.1499C144.797 58.565 144.455 58.0445 144.009 57.5885C143.576 57.1373 143.074 56.7919 142.502 56.5476C141.931 56.3032 141.332 56.1839 140.701 56.1839C140.07 56.1839 139.472 56.3032 138.9 56.5437C138.329 56.7833 137.822 57.1335 137.38 57.5895C136.938 58.0407 136.597 58.5573 136.361 59.1422C136.126 59.7272 136.012 60.3496 136.012 61.0038C136.012 61.658 136.126 62.2661 136.361 62.8462C136.597 63.4263 136.933 63.9429 137.38 64.399C137.826 64.855 138.329 65.2052 138.895 65.4447C139.462 65.6843 140.065 65.8045 140.701 65.8045C141.337 65.8045 141.922 65.6852 142.489 65.4447C143.05 65.2052 143.561 64.855 144.009 64.399C144.451 63.9429 144.792 63.4225 145.031 62.8423C145.266 62.2622 145.386 61.6494 145.386 61.0038V61.0019Z" fill="#3C3C3C"/>
<path d="M153.186 64.8262L154.853 64.0527C155.01 64.629 155.3 65.0619 155.723 65.3659C156.143 65.6651 156.682 65.8171 157.336 65.8171C157.954 65.8171 158.451 65.6468 158.815 65.3014C159.179 64.9561 159.363 64.4952 159.363 63.9151C159.363 63.1599 158.737 62.4874 157.484 61.8977C157.309 61.8101 157.175 61.7456 157.078 61.7043C155.664 61.0135 154.72 60.3911 154.25 59.8292C153.78 59.2722 153.545 58.5901 153.545 57.7791C153.545 56.7333 153.899 55.8857 154.609 55.2363C155.318 54.5869 156.249 54.2646 157.405 54.2646C158.355 54.2646 159.146 54.4494 159.782 54.813C160.418 55.1767 160.86 55.702 161.109 56.3889L159.478 57.2317C159.221 56.8266 158.94 56.5313 158.631 56.3475C158.322 56.159 157.972 56.0666 157.575 56.0666C157.014 56.0666 156.567 56.2138 156.24 56.5043C155.908 56.7949 155.743 57.1903 155.743 57.679C155.743 58.4525 156.465 59.1712 157.917 59.835C158.028 59.886 158.115 59.9274 158.18 59.9591C159.446 60.544 160.321 61.1155 160.791 61.6725C161.266 62.2296 161.501 62.9299 161.501 63.7641C161.501 64.9801 161.118 65.9479 160.354 66.6618C159.589 67.3756 158.552 67.7355 157.248 67.7355C156.157 67.7355 155.259 67.4824 154.558 66.9802C153.858 66.478 153.402 65.7594 153.186 64.8194V64.8291V64.8262Z" fill="#3C3C3C"/>
<path d="M168.168 67.3953V54.5518H175.335V56.3258H170.255V59.5458H175.335V61.3795H170.255V65.5299H175.335V67.4001H168.168V67.3953Z" fill="#3C3C3C"/>
<path d="M177.295 66.7789H177.162V67.074H176.996V66.2686H177.295C177.39 66.2686 177.463 66.2897 177.515 66.332C177.567 66.3743 177.593 66.4348 177.593 66.5117C177.593 66.5665 177.581 66.6127 177.557 66.6492C177.533 66.6857 177.498 66.7155 177.449 66.7366L177.623 67.0654V67.0731H177.445L177.294 66.778L177.295 66.7789ZM177.162 66.6444H177.296C177.337 66.6444 177.37 66.6338 177.393 66.6127C177.416 66.5915 177.428 66.5617 177.428 66.5252C177.428 66.4887 177.417 66.4569 177.395 66.4358C177.374 66.4137 177.34 66.4031 177.296 66.4031H177.162V66.6453V66.6444Z" fill="#3C3C3C"/>
<path d="M177.282 67.4716C176.844 67.4716 176.488 67.1151 176.488 66.6777C176.488 66.2404 176.845 65.8838 177.282 65.8838C177.72 65.8838 178.076 66.2404 178.076 66.6777C178.076 67.1151 177.72 67.4716 177.282 67.4716ZM177.282 66.0587C176.941 66.0587 176.663 66.3365 176.663 66.6777C176.663 67.0189 176.941 67.2967 177.282 67.2967C177.623 67.2967 177.901 67.0189 177.901 66.6777C177.901 66.3365 177.623 66.0587 177.282 66.0587Z" fill="#3C3C3C"/>
</g>
<defs>
<clipPath id="clip0_9695_2425">
<rect width="173.115" height="13.9288" fill="white" transform="translate(5 54)"/>
</clipPath>
</defs>
</svg>
