<svg width="184" height="123" viewBox="0 0 184 123" fill="none" xmlns="http://www.w3.org/2000/svg">
<path d="M102.244 20V26.3133L108.819 26.8892C109.936 27.0443 110.09 27.3766 110.09 28.5063V59.2973H109.761L98.2992 31.6519H84.6456L73.1836 59.2973H72.8549V28.5063C72.8549 27.3766 73.0083 27.0443 74.1479 26.8892L80.7226 26.3133V20H54.3359V26.3133L59.7053 26.9557C60.7573 27.1107 60.9984 27.443 60.9984 28.5063V70.1739C60.9984 71.3922 60.9107 71.5473 59.7053 71.7024L54.3359 72.3448V78.658H77.5887L91.4614 42.8828L105.334 78.658H128.587V72.3448L123.218 71.7024C122.012 71.5473 121.924 71.3701 121.924 70.1739V28.5285C121.924 27.4652 122.166 27.155 123.218 26.9778L128.587 26.3354V20.0221H102.244V20Z" fill="#3D3D3D"/>
<path d="M27.3418 102.655V101.614L28.4157 101.525C28.591 101.503 28.6349 101.437 28.6349 101.259V96.231H28.5691L26.7062 100.75H24.5804L22.7395 96.231H22.6518V101.259C22.6518 101.481 22.6737 101.503 22.871 101.525L23.9887 101.636V102.677H20V101.636L20.8328 101.547C21.0081 101.525 21.052 101.481 21.052 101.282V94.481C21.052 94.2816 21.03 94.2373 20.8328 94.2152L20 94.1266V93.0854H23.5065L25.7858 99.0886H25.8296L28.2184 93.0854H31.6154V94.1266L30.7388 94.2374C30.5415 94.2595 30.5196 94.2816 30.5196 94.481V101.282C30.5196 101.459 30.5634 101.503 30.7388 101.525L31.6154 101.636V102.677H27.3418V102.655Z" fill="#3D3D3D"/>
<path d="M37.289 97.8246L37.1575 97.1379C37.1356 97.0271 37.1137 96.9828 37.0261 96.9606C36.8507 96.9163 36.5439 96.8499 36.1932 96.8499C35.5358 96.8499 35.1632 97.0936 35.1632 97.5366C35.1632 98.0682 35.8864 98.2011 36.6754 98.3784C37.7054 98.622 38.867 98.9765 38.867 100.527C38.867 102.144 37.5739 102.809 35.9083 102.809C34.7249 102.809 33.5414 102.499 33.3223 102.321V100.394L34.7249 100.505L34.8564 101.258C34.8783 101.369 34.9002 101.435 35.0098 101.457C35.1632 101.502 35.5138 101.59 36.0179 101.59C36.7192 101.59 37.1137 101.391 37.1137 100.904C37.1137 100.372 36.5877 100.217 35.9303 100.106C34.8345 99.9068 33.388 99.6632 33.388 97.9353C33.388 96.2961 34.7687 95.6094 36.2809 95.6094C37.3109 95.6094 38.3191 95.853 38.6916 95.986V97.9132L37.289 97.8246Z" fill="#3D3D3D"/>
<path d="M48.5547 102.652V101.611L49.3875 101.523C49.5628 101.5 49.6067 101.456 49.6067 101.257V94.4561C49.6067 94.2568 49.5847 94.2124 49.3875 94.1903L48.5547 94.1017V93.0605H55.4801V95.7409L54.0337 95.6745L53.8583 94.6555C53.8364 94.5226 53.7707 94.4783 53.6392 94.4783H51.6448V97.07H54.6692V98.5321H51.6448V101.212C51.6448 101.434 51.6667 101.456 51.864 101.478L53.7926 101.589V102.63H48.5547V102.652Z" fill="#3D3D3D"/>
<path d="M58.7031 97.8684C58.7031 95.033 60.2811 92.8843 63.3931 92.8843C66.5052 92.8843 67.842 95.033 67.842 97.7134C67.842 100.815 66.3298 102.808 63.2178 102.808C60.04 102.808 58.7031 100.748 58.7031 97.8684ZM65.76 97.8241C65.76 95.5425 64.8615 94.5457 63.3712 94.5457C61.859 94.5457 60.807 95.5425 60.807 97.8241C60.807 100.217 61.7933 101.169 63.3055 101.169C64.7519 101.169 65.76 100.261 65.76 97.8241Z" fill="#3D3D3D"/>
<path d="M77.9024 94.4561C77.9024 94.2568 77.8805 94.2124 77.6833 94.1903L76.8505 94.1017V93.0605H80.7296V94.1017L79.8529 94.2125C79.6557 94.2346 79.6338 94.2568 79.6338 94.4561V99.2188C79.6338 101.744 78.2092 102.807 75.9081 102.807C73.3001 102.807 72.1824 101.633 72.1824 99.1745V94.4783C72.1824 94.2789 72.1605 94.2346 71.9632 94.2125L71.1523 94.1238V93.0827H75.2944V94.1238L74.4178 94.2346C74.2206 94.2568 74.1986 94.2789 74.1986 94.4783V98.7979C74.1986 100.326 74.5493 101.146 75.9738 101.146C77.3764 101.146 77.8805 100.526 77.8805 98.8643V94.4561H77.9024Z" fill="#3D3D3D"/>
<path d="M90.9215 102.655L86.7356 95.7437V101.259C86.7356 101.481 86.7575 101.503 86.9548 101.525L87.8314 101.636V102.677H84.1934V101.636L85.0262 101.547C85.2015 101.525 85.2453 101.481 85.2453 101.282V94.481C85.2453 94.2816 85.2234 94.2373 85.0262 94.2152L84.1934 94.1266V93.0854H87.4369L91.5571 100.019V94.5032C91.5571 94.3038 91.5352 94.2595 91.3379 94.2374L90.5051 94.1487V93.0854H94.1432V94.1487L93.2665 94.2595C93.0693 94.2816 93.0474 94.3038 93.0474 94.5032V102.677H90.9215V102.655Z" fill="#3D3D3D"/>
<path d="M97.6465 102.655V101.592L98.4793 101.503C98.6546 101.481 98.6984 101.437 98.6984 101.237V94.481C98.6984 94.2816 98.6765 94.2373 98.4793 94.2152L97.6465 94.1266V93.0854H101.898C105.186 93.0854 106.61 94.8797 106.61 97.7373C106.61 100.684 105.076 102.677 101.679 102.677H97.6465V102.655ZM101.46 101.215C103.761 101.215 104.528 99.8418 104.528 97.8259C104.528 95.3892 103.608 94.481 101.526 94.481H100.693V101.215H101.46Z" fill="#3D3D3D"/>
<path d="M114.788 102.652V101.611L115.862 101.5L115.402 100.127H112.159L111.698 101.5L112.728 101.611V102.652H109.068V101.611L109.638 101.456C109.792 101.412 109.923 101.367 109.967 101.212L112.838 93.0605H115.161L118.01 101.235C118.054 101.39 118.163 101.412 118.317 101.456L118.93 101.611V102.652H114.788ZM113.846 95.0764H113.758L112.553 98.6871H115.008L113.846 95.0764Z" fill="#3D3D3D"/>
<path d="M122.433 102.652V101.589L123.792 101.5C123.967 101.478 124.011 101.434 124.011 101.235V94.5004H122.652C122.499 94.5004 122.477 94.5226 122.433 94.6555L122.214 95.8074H120.768V93.0605H129.205V95.8074H127.781L127.562 94.6555C127.54 94.5226 127.496 94.5004 127.342 94.5004H125.984V101.235C125.984 101.412 126.005 101.478 126.203 101.478L127.649 101.589V102.63H122.433V102.652Z" fill="#3D3D3D"/>
<path d="M132.537 102.652V101.611L133.501 101.523C133.677 101.5 133.721 101.456 133.721 101.257V94.4783C133.721 94.2789 133.699 94.2346 133.501 94.2125L132.537 94.1238V93.0605H136.942V94.1238L135.934 94.2346C135.737 94.2568 135.715 94.2789 135.715 94.4783V101.257C135.715 101.478 135.737 101.5 135.934 101.523L136.942 101.633V102.674H132.537V102.652Z" fill="#3D3D3D"/>
<path d="M140.381 97.8684C140.381 95.033 141.959 92.8843 145.071 92.8843C148.183 92.8843 149.52 95.033 149.52 97.7134C149.52 100.815 148.008 102.808 144.896 102.808C141.718 102.808 140.381 100.748 140.381 97.8684ZM147.438 97.8241C147.438 95.5425 146.539 94.5457 145.049 94.5457C143.537 94.5457 142.485 95.5425 142.485 97.8241C142.485 100.217 143.471 101.169 144.983 101.169C146.43 101.169 147.438 100.261 147.438 97.8241Z" fill="#3D3D3D"/>
<path d="M159.779 102.655L155.593 95.7437V101.259C155.593 101.481 155.615 101.503 155.812 101.525L156.689 101.636V102.677H153.051V101.636L153.884 101.547C154.059 101.525 154.103 101.481 154.103 101.282V94.481C154.103 94.2816 154.081 94.2373 153.884 94.2152L153.051 94.1266V93.0854H156.294L160.415 100.019V94.5032C160.415 94.3038 160.393 94.2595 160.195 94.2374L159.363 94.1487V93.0854H163.001V94.1487L162.124 94.2595C161.927 94.2816 161.905 94.3038 161.905 94.5032V102.677H159.779V102.655Z" fill="#3D3D3D"/>
<path d="M41.1906 102.805C40.4245 102.805 40.0742 102.474 40.0742 101.766C40.0742 101.102 40.4463 100.726 41.1906 100.726C41.913 100.726 42.307 101.08 42.307 101.766C42.307 102.451 41.9349 102.805 41.1906 102.805Z" fill="#3D3D3D"/>
</svg>
