<svg width="184" height="123" viewBox="0 0 184 123" fill="none" xmlns="http://www.w3.org/2000/svg">
<path d="M91.5 4C59.7929 4 34 29.8093 34 61.4836C34 93.1579 59.7929 119 91.5 119C123.207 119 149 93.1907 149 61.5164C149 29.8421 123.207 4 91.5 4ZM91.5 116.634C61.0743 116.634 36.3329 91.8929 36.3329 61.4836C36.3329 31.0743 61.0743 6.34929 91.5 6.34929C121.926 6.34929 146.667 31.0907 146.667 61.5C146.667 91.9093 121.909 116.634 91.5 116.634Z" fill="#3D3D3D"/>
<path d="M91.4991 7.56543C61.747 7.56543 37.5312 31.7647 37.5312 61.5169C37.5312 91.269 61.747 115.468 91.4991 115.468C121.251 115.468 145.467 91.269 145.467 61.5169C145.467 31.7647 121.251 7.56543 91.4991 7.56543ZM91.4991 113.02C63.0448 113.02 39.9791 89.9547 39.9791 61.5169C39.9791 33.079 63.0448 10.0133 91.4991 10.0133C119.953 10.0133 143.019 33.079 143.019 61.5169C143.019 89.9547 119.953 113.02 91.4991 113.02Z" fill="#3D3D3D"/>
<path d="M43.9226 64.276L42.7891 60.7931L45.7298 58.6738L48.6869 60.7931L47.5698 64.276H43.9226Z" fill="#3D3D3D"/>
<path d="M135.398 64.2769L134.281 60.7941L137.238 58.6748L140.179 60.7941L139.062 64.2769H135.398Z" fill="#3D3D3D"/>
<path d="M91.5007 21.332C69.3057 21.332 51.3164 39.3213 51.3164 61.5163C51.3164 83.7113 69.3057 101.701 91.5007 101.701C113.696 101.701 131.685 83.7113 131.685 61.5163C131.685 39.3213 113.696 21.332 91.5007 21.332ZM91.5007 99.187C70.7186 99.187 53.8135 82.2656 53.8135 61.4999C53.8135 40.7342 70.7186 23.8292 91.5007 23.8292C112.283 23.8292 129.188 40.7506 129.188 61.5163C129.188 82.282 112.283 99.187 91.5007 99.187Z" fill="#3D3D3D"/>
<path d="M91.5005 25.209C71.4905 25.209 55.1934 41.4733 55.1934 61.5161C55.1934 81.559 71.4905 97.8233 91.5005 97.8233C111.51 97.8233 127.808 81.5261 127.808 61.5161C127.808 41.5061 111.51 25.209 91.5005 25.209ZM104.463 34.179L113.367 34.1626V37.5304H110.837L107.699 40.5533C106.796 39.8961 105.859 39.2883 104.89 38.7461L106.122 37.5468H104.463V34.179ZM79.7212 38.894C83.3355 36.9883 87.4591 35.9861 91.5662 35.9861H92.4041C98.0884 36.1668 103.345 38.1711 107.748 41.7361L107.978 41.9333C108.948 42.7711 109.851 43.6254 110.705 44.5783C110.853 44.7261 110.935 44.8411 111.05 44.9561L111.198 45.104L111.166 45.1368C111.806 45.8597 112.381 46.6318 112.891 47.404V44.529L112.907 44.4961H116.209V54.3861H112.759L112.693 54.2383C111.28 50.5747 109.095 47.3383 106.368 44.8904L105.629 44.2333C101.686 41.0133 96.7248 39.2554 91.6319 39.2554C88.3134 39.2554 85.1591 39.9618 82.1691 41.3747L82.0212 41.424L79.4584 39.0418L79.7212 38.894ZM83.7462 71.4883V74.5933H75.5812V71.4883H78.0126V53.5811H75.6305V50.4761H78.2755H81.9226L102.31 69.8126V53.5811H99.8462V50.4761H107.995V53.5811H105.498V74.5604L102.885 74.5933L102.803 74.5276L81.2162 54.1233V71.4883H83.7462ZM69.2726 34.2611H78.1276V37.514H76.5505L81.0519 41.9168L91.3362 51.7411L101.078 42.459C102.08 42.919 103.083 43.494 103.986 44.1018L93.0941 54.5011V59.9554L89.8412 56.7683V54.764L78.1934 43.6418L71.8684 37.514H69.2726V34.2611ZM65.9541 61.6476C65.9541 54.3533 69.1248 47.3711 74.6119 42.5083C74.7598 42.3604 74.8748 42.2783 74.9898 42.1633L75.1376 42.0154L77.5526 44.2826L77.2405 44.5454C77.1255 44.6276 77.0434 44.7261 76.9776 44.7754C72.0984 48.9976 69.2726 55.109 69.2726 61.5818C69.2726 72.7204 77.5855 82.2161 88.6255 83.6783L88.7734 83.7604V87.0954L88.5434 87.0626C75.6634 85.5347 65.9541 74.6097 65.9541 61.6476ZM95.7062 93.3547H87.2784V90.0854H89.8084V63.4054L93.0776 66.5433V90.0854H95.7062V93.3547ZM116.209 68.3833C113.367 78.3554 104.545 85.8304 94.2769 86.9804L94.0469 87.0133V83.7111L94.2441 83.6783C102.984 82.6104 110.459 76.4333 112.825 68.2683L112.891 68.1204L116.291 68.0711L116.209 68.3833Z" fill="#3D3D3D"/>
<path d="M54.584 29.3818L55.4711 28.4618L60.2683 29.0368L57.5411 26.3589L58.494 25.3896L62.9461 29.7268L62.1411 30.5811L57.1961 29.9732L60.0218 32.7332L59.069 33.7025L54.584 29.3818Z" fill="#3D3D3D"/>
<path d="M60.1035 24.0101L63.8492 21.168L64.5721 22.1373L61.9271 24.1744L62.6664 25.1765L64.9992 23.4023L65.7221 24.3715L63.3892 26.1623L64.1614 27.1973L66.8721 25.1273L67.5949 26.0965L63.8492 28.9715L60.1035 24.0101Z" fill="#3D3D3D"/>
<path d="M65.082 20.1494L66.3799 19.4922L69.452 22.6465L68.762 18.2436L69.797 17.7015L72.9677 20.8394L72.212 16.5022L73.477 15.8779L74.4463 22.4329L73.3785 22.9751L70.2735 20.0179L70.8813 24.3058L69.8135 24.8479C69.8135 24.8315 65.082 20.1494 65.082 20.1494Z" fill="#3D3D3D"/>
<path d="M80.7731 17.7345L77.5859 14.5802L79.1302 14.2023L81.1509 16.3052L82.0709 13.5452L83.5988 13.2002L82.1038 17.3895L82.6459 19.8045L81.3152 20.1166L80.7731 17.7345Z" fill="#3D3D3D"/>
<path d="M84.5351 16.2072C84.3873 14.4329 85.6523 12.8722 87.6073 12.7244C89.513 12.5765 90.9916 13.8744 91.1394 15.6487V15.6815C91.2873 17.4394 90.0223 18.9837 88.0673 19.1315C86.1616 19.2958 84.683 17.9651 84.5351 16.2072ZM89.7101 15.7801C89.628 14.6958 88.7573 13.8908 87.673 13.9729C86.5723 14.0551 85.8823 15.0079 85.9809 16.0758V16.1087C86.063 17.1765 86.9337 17.9815 88.018 17.8829C89.1187 17.8008 89.8087 16.8479 89.7101 15.7801Z" fill="#3D3D3D"/>
<path d="M92.8296 12.6416L95.6389 12.8387C96.411 12.888 97.0518 13.1837 97.3968 13.578C97.7418 13.9559 97.8568 14.4652 97.8239 15.0402V15.073C97.7418 16.0752 97.1668 16.6502 96.3289 16.8802L97.6596 19.213L96.0496 19.098L94.8668 16.9952H94.8339L93.766 16.913L93.6346 18.9173L92.2875 18.8352C92.271 18.8352 92.8296 12.6416 92.8296 12.6416ZM95.3596 15.8452C96.0168 15.8945 96.4275 15.5823 96.4768 15.073V15.0402C96.5425 14.4652 96.1318 14.1202 95.4746 14.0709L94.1275 13.9887L93.9796 15.763L95.3596 15.8452Z" fill="#3D3D3D"/>
<path d="M99.8972 13.3311L101.212 13.6432L100.62 16.3046L103.692 14.2018L105.302 14.5796L102.23 16.5839L104.021 20.6418L102.411 20.2639L101.113 17.2739L100.226 17.8489L99.7987 19.6889L98.4844 19.3768L99.8972 13.3311Z" fill="#3D3D3D"/>
<path d="M108.176 18.8514C108.932 17.2414 110.772 16.5022 112.48 17.2743C113.548 17.7672 114.025 18.4243 114.287 19.1636L113.072 19.7057C112.842 19.0979 112.497 18.6707 111.922 18.4079C110.969 17.9479 109.917 18.4407 109.474 19.41V19.4429C109.014 20.4122 109.326 21.5457 110.279 22.0057C110.92 22.3179 111.429 22.2029 112.07 22.0386L112.497 23.1886C111.61 23.5664 110.805 23.6157 109.704 23.1393C108.094 22.3014 107.453 20.4614 108.176 18.8514Z" fill="#3D3D3D"/>
<path d="M116.191 19.3447L117.374 20.0347L114.154 25.3576L112.971 24.6676L116.191 19.3447Z" fill="#3D3D3D"/>
<path d="M119.527 23.0252L117.999 21.8752L118.739 20.873L122.846 23.978L122.106 25.013L120.579 23.863L117.621 27.8223L116.537 27.0173L119.527 23.0252Z" fill="#3D3D3D"/>
<path d="M122.778 29.037L123.764 24.667L124.881 25.7841L124.191 28.5934L127 27.9034L128.085 28.9877L123.747 29.957L121.99 31.7149L121.004 30.7456L122.778 29.037Z" fill="#3D3D3D"/>
<path d="M59.119 89.3135L62.3062 92.6813L61.5997 93.3549L59.1847 90.7756L57.9526 91.9585L60.1047 94.2256L59.3819 94.9156L57.2297 92.6485L55.3897 94.4063L54.6504 93.6342C54.634 93.6178 59.119 89.3135 59.119 89.3135Z" fill="#3D3D3D"/>
<path d="M60.8436 95.6065C61.9443 94.1937 63.9157 93.8815 65.3943 95.0644C66.9221 96.2473 67.07 98.2023 66.0021 99.5823C64.9343 100.995 62.9793 101.274 61.4514 100.124C59.9236 98.958 59.7593 96.9865 60.8436 95.6065ZM65.0493 98.9087C65.805 97.9394 65.7064 96.6087 64.7371 95.8365C63.7678 95.0973 62.47 95.3273 61.7471 96.2965C60.9914 97.2494 61.09 98.5637 62.0593 99.3194C63.0121 100.108 64.3264 99.8615 65.0493 98.9087Z" fill="#3D3D3D"/>
<path d="M67.0557 100.321C67.91 98.7768 69.7828 98.1032 71.4586 99.0232C73.1507 99.9432 73.6436 101.832 72.7893 103.393V103.426C71.9843 104.97 70.095 105.644 68.3864 104.724C66.7271 103.738 66.2343 101.865 67.0557 100.321ZM71.7707 102.851C72.3457 101.767 72.0336 100.469 70.9657 99.8939C69.865 99.3189 68.6657 99.7789 68.0907 100.847V100.88C67.5157 101.947 67.8278 103.229 68.8957 103.804C69.9636 104.395 71.1957 103.902 71.7707 102.851Z" fill="#3D3D3D"/>
<path d="M76.092 102.326L74.252 101.669L74.597 100.716L79.3777 102.441L79.0327 103.394L77.1927 102.737L75.402 107.649L74.367 107.271L76.092 102.326Z" fill="#3D3D3D"/>
<path d="M80.2622 102.703L82.9894 103.278C83.6794 103.426 84.2051 103.738 84.4844 104.165C84.6815 104.51 84.7472 104.855 84.6651 105.25V105.282C84.5172 106.005 84.008 106.317 83.5151 106.465C84.1722 106.86 84.583 107.385 84.4351 108.19V108.223C84.2051 109.307 83.203 109.718 81.823 109.406L79.0137 108.798L80.2622 102.703ZM81.9872 108.42C82.7101 108.568 83.2194 108.387 83.3344 107.845V107.812C83.4494 107.303 83.1044 106.892 82.2337 106.728L80.5415 106.35L80.1637 108.01L81.9872 108.42ZM82.2172 105.775C82.9072 105.923 83.4165 105.742 83.5315 105.2V105.167C83.6137 104.675 83.3344 104.313 82.6115 104.165L81.0672 103.82L80.7222 105.43L82.2172 105.775Z" fill="#3D3D3D"/>
<path d="M88.5433 103.969L89.5454 104.018L91.8947 110.458L90.7447 110.409L90.2026 108.864L87.2619 108.7L86.539 110.162L85.4219 110.113L88.5433 103.969ZM89.8576 107.846L88.9047 105.283L87.689 107.698L89.8576 107.846Z" fill="#3D3D3D"/>
<path d="M93.1094 104.133L94.1937 104.051L94.6208 109.259L97.8901 108.996L97.9722 109.998L93.6351 110.376L93.1094 104.133Z" fill="#3D3D3D"/>
<path d="M98.4316 103.59L99.4995 103.393L100.567 108.502L103.787 107.845L103.984 108.814L99.6966 109.734L98.4316 103.59Z" fill="#3D3D3D"/>
<path d="M107.138 104.592C106.448 102.949 107.089 101.109 108.798 100.337C109.865 99.8772 110.638 99.9593 111.41 100.255L111.065 101.29C110.424 101.093 109.833 100.978 109.159 101.257C108.075 101.75 107.664 102.982 108.157 104.066V104.099C108.65 105.216 109.816 105.791 110.917 105.299C111.607 104.986 111.952 104.526 112.215 103.836L113.168 104.214C112.823 105.101 112.363 105.759 111.295 106.219C109.668 106.991 107.861 106.235 107.138 104.592Z" fill="#3D3D3D"/>
<path d="M111.936 98.9568L112.888 98.3818L115.583 102.834L118.376 101.142L118.885 101.996L115.156 104.28L111.936 98.9568Z" fill="#3D3D3D"/>
<path d="M118.459 99.1052L116.225 96.3124L117.079 95.6224L119.297 98.3824C120.02 99.3024 120.874 99.3845 121.63 98.7767C122.385 98.1688 122.484 97.3474 121.745 96.4438L119.51 93.6509L120.365 92.9609L122.582 95.7209C123.765 97.1831 123.535 98.5302 122.237 99.5652C121.005 100.6 119.625 100.518 118.459 99.1052Z" fill="#3D3D3D"/>
<path d="M121.287 92.0739L123.16 90.0038C123.653 89.4946 124.162 89.1989 124.688 89.1989C125.082 89.166 125.411 89.3138 125.723 89.5931C126.265 90.1024 126.265 90.6774 126.15 91.2031C126.807 90.8253 127.464 90.7431 128.105 91.3181C128.91 92.0574 128.746 93.1253 127.793 94.1603L125.838 96.296L121.287 92.0739ZM124.967 91.9589C125.46 91.4496 125.542 90.891 125.131 90.5296C124.754 90.1846 124.277 90.2996 123.817 90.7924L122.749 91.9424L123.965 93.0596L124.967 91.9589ZM127.086 93.5031C127.596 92.961 127.694 92.4189 127.267 92.041C126.856 91.6631 126.347 91.811 125.772 92.4189L124.589 93.6839L125.821 94.8339L127.086 93.5031Z" fill="#3D3D3D"/>
</svg>
