<svg width="184" height="123" viewBox="0 0 184 123" fill="none" xmlns="http://www.w3.org/2000/svg">
<path d="M91.4987 45.0549C93.055 45.0549 95.3854 42.9615 96.7158 40.4954C98.0462 38.0293 97.9458 36.0908 97.2513 36.2918C96.1636 36.61 95.2766 38.134 94.5612 36.1243C93.8918 34.2402 92.1513 32.0589 91.4987 32.0547C90.846 32.0589 89.1056 34.2444 88.4362 36.1285C87.7249 38.1382 86.838 36.6142 85.746 36.296C85.0515 36.095 84.9469 38.0335 86.2815 40.4996C87.612 42.9657 89.9423 45.0549 91.4987 45.0591V45.0549Z" fill="#3D3D3D"/>
<path d="M94.5117 48.069C94.5117 49.6265 96.6036 51.9586 99.0678 53.2942C101.532 54.6257 103.469 54.5252 103.268 53.8302C102.95 52.7416 101.427 51.854 103.436 51.138C105.318 50.4681 107.502 48.7222 107.506 48.069C107.506 47.4159 105.323 45.67 103.436 45.0001C101.427 44.2883 102.95 43.4007 103.268 42.3079C103.469 41.6129 101.532 41.5082 99.0678 42.8438C96.6036 44.1752 94.5117 46.5115 94.5117 48.069Z" fill="#3D3D3D"/>
<path d="M75.4902 48.0735C75.4902 48.7267 77.6742 50.4726 79.561 51.1425C81.565 51.8542 80.0422 52.7419 79.7284 53.8346C79.5276 54.5297 81.4646 54.6301 83.9289 53.2987C86.3931 51.9673 88.485 49.631 88.485 48.0735C88.485 46.516 86.3931 44.1839 83.9289 42.8483C81.4646 41.5169 79.5276 41.6174 79.7284 42.3124C80.0463 43.401 81.5692 44.2886 79.561 45.0045C77.6783 45.6744 75.4944 47.4204 75.4902 48.0735Z" fill="#3D3D3D"/>
<path d="M91.4992 64.0923C92.1519 64.0881 93.8923 61.9026 94.5617 60.0185C95.273 58.0088 96.1599 59.5328 97.2519 59.851C97.9464 60.052 98.0468 58.1134 96.7164 55.6474C95.3859 53.1813 93.0556 51.0879 91.4992 51.0879C89.9429 51.0879 87.6125 53.1813 86.2821 55.6474C84.9517 58.1134 85.0521 60.052 85.7466 59.851C86.8385 59.5328 87.7213 58.0088 88.4367 60.0185C89.1061 61.9026 90.8466 64.0839 91.4992 64.0881V64.0923Z" fill="#3D3D3D"/>
<path d="M93.0937 48.0191C93.0937 47.098 92.3489 46.3569 91.4285 46.3569C90.5081 46.3569 89.7676 47.1022 89.7676 48.0191C89.7676 48.936 90.5123 49.6813 91.4285 49.6813C92.3448 49.6813 93.0937 48.936 93.0937 48.0191Z" fill="#3D3D3D"/>
<path d="M45.8285 76.3468C47.4895 76.083 49.4684 75.656 51.8657 74.9861C58.727 73.0643 59.0785 70.8704 57.9196 70.3219C56.7648 69.7734 58.0158 71.6156 50.2549 73.4997C49.3261 73.7258 48.4643 73.91 47.661 74.0608C51.6899 69.0533 57.1205 62.4338 57.5639 61.8184C59.1621 59.5952 56.6268 60.4576 55.8862 60.667C55.2712 60.8428 48.2425 70.1712 45.0838 74.4585C40.9921 74.9484 39.1805 74.425 39.1805 74.425C38.0174 74.1612 37.2225 76.2212 39.3604 76.5478C40.3687 76.6985 41.6824 76.7864 43.5065 76.6399C43.2053 77.0544 42.7618 77.6447 42.2388 78.3397C41.4314 79.265 36.0887 85.2941 33.6622 85.897C31.0348 86.5502 32.6915 83.6612 34.4612 81.1952C36.4946 78.3649 37.2895 76.6734 36.9882 75.5764C36.687 74.4794 35.3775 73.7049 32.9593 75.1493C29.947 76.9497 26.7213 79.5288 24.5248 82.7276C22.3284 85.9221 21.8723 88.7483 25.3783 88.1412C28.1647 87.6597 31.131 83.3975 31.131 83.3975C29.9344 85.1476 28.8885 89.012 33.2187 87.5969C34.9591 87.0275 36.7958 85.4658 38.3647 83.8036C36.9715 85.9766 36.118 87.7602 37.1054 87.7769C38.2392 87.7979 38.0635 88.1663 39.1219 86.1566C39.5822 85.2774 40.1972 83.9376 43.6069 79.2148C44.0128 78.6496 44.8119 77.628 45.8243 76.351L45.8285 76.3468ZM31.0891 81.3082C27.7631 84.8001 25.7214 86.9563 24.7424 86.6758C24.2069 86.5251 24.8805 85.0178 27.7254 81.752C30.5704 78.4821 33.9215 75.5429 35.1809 75.8025C35.8795 75.9448 34.4194 77.8164 31.0933 81.3082H31.0891Z" fill="#3D3D3D"/>
<path d="M63.855 76.1047C62.7923 77.1682 60.4536 79.6217 59.1357 81.6523C59.1357 81.6565 59.1273 81.6607 59.1273 81.6649C58.0605 83.1428 52.9939 87.1036 50.6301 86.4211C48.1031 85.6926 49.5131 84.1854 49.5131 84.1854C52.312 83.4359 57.9684 79.8226 59.4537 76.8081C60.9431 73.7936 59.1524 73.153 55.0231 75.753C53.9646 76.4187 50.9941 78.7299 50.9941 78.7299C50.9941 78.7299 52.7513 76.8081 51.9606 76.3057C51.4752 75.9958 50.7598 76.2387 50.3749 76.3601C49.9189 76.5025 49.1574 78.5289 44.6348 83.9802C42.0492 87.1036 41.0535 87.2962 41.1246 87.7735C41.1958 88.2466 42.5053 88.1838 43.5512 87.5265C44.5971 86.8691 48.76 81.5393 48.76 81.5393C48.76 81.5393 44.1788 88.0666 49.6218 88.2508C52.0149 88.3303 55.0774 86.9319 57.8387 84.3235C57.2279 86.0401 57.0187 87.7651 58.2278 87.6814C59.6252 87.5851 59.4746 87.0952 59.7214 85.6549C60.2318 82.6571 64.9344 77.9427 65.9385 76.5694C66.9426 75.1962 64.9344 75.0203 63.8508 76.1047H63.855ZM51.6719 79.7431C53.7679 78.0474 56.8263 75.9917 57.7007 75.7865C58.8345 75.5185 57.1066 77.6832 55.1862 79.3118C51.8769 82.1212 49.8394 82.3096 49.7013 82.0291C49.5633 81.7528 49.4838 81.5141 51.6719 79.7431Z" fill="#3D3D3D"/>
<path d="M67.8577 73.1649C69.0166 72.7085 70.1922 71.8041 69.4684 71.197C68.7237 70.569 67.1464 70.7407 66.4477 71.6492C65.749 72.5578 66.6946 73.6212 67.8535 73.1649H67.8577Z" fill="#3D3D3D"/>
<path d="M81.2114 71.0467C80.5127 71.9552 81.4582 73.0187 82.6171 72.5623C83.776 72.106 84.9517 71.2016 84.2279 70.5945C83.4832 69.9665 81.9059 70.1381 81.2072 71.0467H81.2114Z" fill="#3D3D3D"/>
<path d="M55.4275 56.1076C61.5148 47.3403 66.665 31.3758 56.7788 29.7304C44.5832 27.6998 29.4296 42.0188 24.5765 47.2943C19.7233 52.5697 14.7405 60.3657 14.184 62.4382C13.6276 64.5065 13.9204 64.4897 14.8158 64.0668C15.7111 63.644 19.0623 57.3553 22.8151 52.5111C26.5679 47.6669 41.232 30.4798 55.0802 30.7059C66.8951 30.8985 57.285 51.3053 53.9004 55.6554C46.7127 64.8917 37.2742 73.4664 25.0869 73.6757C23.3841 73.705 21.8068 73.6255 20.3592 73.458C26.8566 64.3264 34.0276 54.211 34.1112 53.964C34.4041 53.068 34.266 52.3604 33.7012 52.7833C32.8812 53.3987 24.7647 63.7445 17.6942 73.0309C9.20536 71.2389 6.57378 66.2147 11.2512 64.0627C12.5105 63.4849 8.27238 64.3181 7.46073 65.168C6.64908 66.0179 6.39806 69.1288 11.2136 72.3275C12.2679 73.0267 14.1547 73.8348 16.6399 74.4084C11.4227 81.2874 7.02562 87.2621 7.00052 87.7477C6.95868 88.5851 9.45638 88.6772 10.0128 87.9403C10.2471 87.6347 14.4769 81.7103 19.3342 74.8899C28.5678 76.1083 43.2235 73.6883 55.4275 56.1076Z" fill="#3D3D3D"/>
<path d="M150.231 38.8788C160.339 29.4793 164.498 26 164.498 26C164.498 26 153.126 33.8546 141.282 45.5066C129.434 57.1586 108.641 80.065 107.055 83.0167C107.055 83.0167 110.36 72.6249 114.615 63.0035C118.87 53.3779 122.037 46.4696 123.359 43.9491C124.681 41.4286 121.472 42.6763 120.874 43.522C120.28 44.3636 113.799 56.987 105.059 68.6139C100.336 74.89 94.7757 80.5883 88.1026 85.1394C88.0566 85.0766 88.0106 85.018 87.9771 84.9468C87.178 83.2344 87.952 81.7732 90.1443 78.6456C92.3365 75.518 91.6379 73.9731 89.9142 74.2159C88.1946 74.4588 86.404 75.7776 83.4126 78.8298C82.1784 80.0901 80.7099 81.8318 79.7435 83.4145C79.6389 83.4982 79.5259 83.5861 79.4088 83.6824C76.3588 86.1652 74.5598 85.3237 75.112 83.6447C75.522 82.4012 80.9526 76.0707 81.3375 75.4887C81.7224 74.9067 80.8396 73.1315 79.7978 74.2327C78.5134 75.585 74.4008 81.1326 73.8527 82.1165C73.7565 82.2882 73.6686 82.4682 73.5892 82.6566C72.2169 83.7913 68.9996 86.182 66.5061 85.981C63.2469 85.7172 65.3053 82.2798 66.7027 80.4962C68.2883 78.474 70.7024 76.7197 70.7024 76.7197C70.7024 76.7197 67.7947 81.1996 67.9453 82.1333C68.0582 82.8157 69.2924 82.6441 69.6857 82.0412C70.5392 80.7307 74.3841 76.2465 74.4259 75.0742C74.4636 73.9019 72.5767 74.1992 70.0873 75.7734C68.4724 76.7992 64.8116 79.8179 63.3766 82.4975C61.9416 85.1771 62.8202 89.4603 68.8197 87.1408C70.6103 86.4499 72.0244 85.5707 73.1289 84.6873C73.108 85.5581 73.359 86.362 74.0159 86.8393C74.9823 87.5427 77.0575 86.81 78.7686 85.6126C78.5804 86.5002 78.823 87.1491 79.7644 87.3334C80.986 87.572 83.1699 86.1485 84.1113 85.4325C85.0568 84.7166 85.3999 84.6454 85.3999 84.6454C85.3999 84.6454 85.4668 85.6335 86.0023 86.5211C80.8354 89.7492 75.0325 92.3032 68.4766 93.9444C67.4432 94.204 66.8575 93.0987 66.0668 93.5802C65.276 94.0575 64.7907 95.9415 65.6693 95.9918C66.5479 96.042 70.2421 96.3142 74.3924 94.6394C76.5638 93.7644 81.6261 91.0387 86.9939 87.5259C87.4708 87.8023 88.09 87.9614 88.8975 87.8776C92.1734 87.5511 96.6918 85.3948 96.7086 84.4821C96.7253 83.5694 96.0308 83.9797 94.4912 84.8505C93.4201 85.4576 91.0814 86.094 89.4832 85.8554C93.5833 83.0209 97.629 79.8221 100.478 76.7238C107.662 68.9153 116.548 54.2823 116.548 54.2823C116.548 54.2823 102.277 88.3047 101.98 89.791C101.683 91.2816 103.737 90.5698 105.239 89.7324C106.741 88.8951 106.093 87.3627 110.85 80.8312C115.607 74.2997 140.123 48.2909 150.231 38.8914V38.8788ZM86.5128 80.5548C83.969 83.6531 82.1282 84.9845 81.0739 85.0515C80.7308 85.0724 81.1659 83.5987 83.4586 80.8563C85.7471 78.1139 88.5042 75.9116 89.2364 75.9241C89.9685 75.9367 88.772 77.8041 86.5128 80.5548Z" fill="#3D3D3D"/>
<path d="M170.207 81.35C166.53 83.2508 155.706 85.0428 151.941 83.837C148.175 82.6312 147.69 77.4227 146.05 77.6823C144.41 77.9419 142.741 80.1693 142.741 80.1693L147.929 72.7585C147.929 72.7585 153.865 67.9018 157.045 64.8579C161.693 60.4115 165.551 54.9141 163.71 54.395C161.865 53.8758 157.773 57.4137 154.597 61.722C151.426 66.0344 147.088 72.1389 147.088 72.1389C147.088 72.1389 146.017 73.5289 143.87 75.3C142.138 76.7277 136.427 80.7764 134.294 82.2795C133.859 81.7645 133.135 81.6431 133.106 81.6389C133.139 81.6221 138.318 78.9551 139.436 76.2546C140.557 73.5457 137.687 73.2484 135.03 73.6545C132.373 74.0607 128.252 75.6014 127.595 77.3055C127.219 78.2894 127.704 79.9641 129.671 81.1616C130.177 81.4714 130.595 81.7561 130.938 82.0115C130.093 82.5474 124.529 86.0058 121.96 85.9765C119.174 85.9472 122.935 81.777 124.972 79.0095C127.658 75.367 126.897 73.3698 124.483 73.6252C121.571 73.9309 118.78 76.6481 116.115 79.5036C113.45 82.3548 110.057 86.7259 112.463 86.9646C114.869 87.2074 119.031 82.9787 119.031 82.9787C119.031 82.9787 117.826 86.6673 120.998 87.0734C123.412 87.3791 129.043 84.1133 131.595 82.5349C132.076 82.9494 132.265 83.2006 132.265 83.2006C130.269 84.5697 127.466 85.1056 127.378 86.684C127.29 88.2625 131.637 88.2583 133.804 85.1726C134.507 84.1719 134.679 83.4518 134.591 82.9326C136.8 81.5803 141.155 78.8504 143.184 77.1506C143.184 77.1506 143.766 76.5267 142.682 77.8498C141.594 79.1686 135.612 86.303 135.202 86.7301C134.796 87.1614 137.109 88.0197 137.754 87.132C138.398 86.2444 140.958 83.5523 140.958 83.5523C140.958 83.5523 145.335 77.8665 146.929 81.0485C148.523 84.2347 153.208 86.0853 159.359 85.3401C165.509 84.5948 174.315 81.0067 174.997 80.6801C175.675 80.3535 175.859 80.274 175.993 79.0053C176.127 77.7325 173.893 79.4659 170.215 81.3667L170.207 81.35ZM152.439 66.7504C152.439 66.7504 154.79 63.3967 157.614 60.3487C159.559 58.2469 161.17 56.5428 161.597 56.5721C162.024 56.6014 161.028 58.6488 158.618 61.32C156.212 63.9871 152.434 66.7504 152.434 66.7504H152.439ZM119.759 79.1938C118.927 79.6376 119.027 81.3123 119.027 81.3123C119.027 81.3123 114.387 85.629 113.789 84.9591C113.45 84.5781 119.441 77.9754 121.265 76.6565C123.09 75.3377 124.094 74.8436 124.65 74.9441C125.784 75.1534 121.454 80.8685 121.454 80.8685C121.454 80.8685 121.303 80.3619 121.416 79.5622C121.529 78.7625 120.592 78.7499 119.755 79.1938H119.759ZM129.587 77.6321C130.608 76.7277 134.394 74.6468 137.068 74.9608C139.373 75.233 138.08 76.958 136.553 78.3438C135.156 79.6124 132.39 81.1532 132.39 81.1532C130.336 80.0395 128.566 78.5406 129.587 77.6321ZM131.917 85.4029C131.03 86.123 129.989 86.0016 129.989 86.0016L132.629 84.218C132.629 84.218 132.545 84.8921 131.917 85.4029Z" fill="#3D3D3D"/>
</svg>
