<svg width="184" height="123" viewBox="0 0 184 123" fill="none" xmlns="http://www.w3.org/2000/svg">
<g clip-path="url(#clip0_9695_2285)">
<path fill-rule="evenodd" clip-rule="evenodd" d="M91.753 57.2263C88.6123 58.0727 85.4646 58.3909 82.2703 57.5829C74.864 55.7008 70.9735 49.4544 72.0973 41.3801C73.8485 28.8196 87.5734 19.5177 99.809 22.5913C108.736 24.8344 113.895 33.8249 111.742 43.3705C109.814 51.9235 102.859 59.0178 94.4772 61.2497C95.5252 60.4287 95.7729 58.813 94.7891 57.7115C93.968 56.7923 93.0299 56.8116 91.753 57.2263ZM96.0335 25.0031C102.059 25.6259 104.64 28.8915 104.658 34.9889V34.9934C104.694 46.0781 94.2701 55.2232 83.3614 53.3908C77.9681 52.4836 74.6847 49.0013 74.7704 43.4003C74.9284 32.7399 85.4182 23.9109 96.0335 25.0031Z" fill="#10121C"/>
<path d="M151.4 81.126H154.005L158.618 92.8987H158.851L163.464 81.126H165.996V81.5625L157.629 101.775H155.082V101.339L157.367 95.9837L151.4 81.5625V81.126Z" fill="#10121C" fill-opacity="0.5"/>
<path d="M149.604 75V95.9551H147.116V93.9178H146.883C145.762 95.6204 143.972 96.2898 141.862 96.2898C138.006 96.2898 135.066 93.6704 135.066 88.5481C135.066 83.4111 138.006 80.7918 141.862 80.7918C143.929 80.7918 145.704 81.4466 146.81 83.091H147.043V75H149.604ZM137.642 88.5481C137.642 92.1424 139.563 94.1652 142.386 94.1652C145.224 94.1652 147.145 92.1424 147.145 88.5481C147.145 84.9391 145.224 82.9164 142.386 82.9164C139.563 82.9164 137.642 84.9391 137.642 88.5481Z" fill="#10121C" fill-opacity="0.5"/>
<path d="M132.598 75V95.9551H130.11V93.9178H129.877C128.756 95.6204 126.966 96.2898 124.856 96.2898C121 96.2898 118.061 93.6704 118.061 88.5481C118.061 83.4111 121 80.7918 124.856 80.7918C126.923 80.7918 128.698 81.4466 129.804 83.091H130.037V75H132.598ZM120.636 88.5481C120.636 92.1424 122.557 94.1652 125.38 94.1652C128.218 94.1652 130.139 92.1424 130.139 88.5481C130.139 84.9391 128.218 82.9164 125.38 82.9164C122.557 82.9164 120.636 84.9391 120.636 88.5481Z" fill="#10121C" fill-opacity="0.5"/>
<path d="M115.611 95.9546H113.122V94.0628H112.889C111.842 95.6636 110.066 96.2893 107.956 96.2893C104.507 96.2893 102.383 94.5431 102.383 90.9196V81.126H104.944V90.6722C104.944 93.0878 106.225 94.1502 108.538 94.1502C111.07 94.1502 113.05 92.6513 113.05 89.4062V81.126H115.611V95.9546Z" fill="#10121C" fill-opacity="0.5"/>
<path d="M93.1772 75C96.9026 75 99.6675 76.7463 99.6675 80.2824C99.6675 83.6294 97.4847 84.7354 96.2477 85.0119V85.2447C97.5865 85.5503 100.06 86.6126 100.06 90.2507C100.06 94.107 97.1063 95.9551 93.2791 95.9551H83.9512V75H93.1772ZM86.5851 93.6995H92.9881C95.5638 93.6995 97.441 92.6954 97.441 90.0615C97.441 87.4275 95.5638 86.438 92.9881 86.438H86.5851V93.6995ZM86.5851 84.1824H92.8425C95.2436 84.1824 97.1063 83.2656 97.1063 80.719C97.1063 78.1724 95.2436 77.2556 92.8425 77.2556H86.5851V84.1824Z" fill="#10121C" fill-opacity="0.5"/>
<path d="M57.2383 81.1267H59.683V82.7565H59.9159C60.5416 81.8689 61.7058 80.792 64.4125 80.792C66.9882 80.792 68.2106 81.898 68.7345 83.1931H68.9673C69.6804 81.9416 71.0337 80.792 73.9005 80.792C76.9273 80.792 78.9064 82.4364 78.9064 85.6524V95.9553H76.3744V85.8852C76.3744 83.9207 75.3266 82.9312 73.2748 82.9312C70.9755 82.9312 69.3457 84.2409 69.3457 87.1367V95.9553H66.8136V85.8852C66.8136 83.9207 65.795 82.9312 63.714 82.9312C61.4148 82.9312 59.7704 84.2409 59.7704 87.1367V95.9553H57.2383V81.1267Z" fill="#10121C"/>
<path d="M53.8959 95.9546H51.4075V94.0628H51.1746C50.1269 95.6636 48.3515 96.2893 46.2414 96.2893C42.7926 96.2893 40.668 94.5431 40.668 90.9196V81.126H43.2291V90.6722C43.2291 93.0878 44.5097 94.1502 46.8235 94.1502C49.3556 94.1502 51.3347 92.6513 51.3347 89.4062V81.126H53.8959V95.9546Z" fill="#10121C"/>
<path d="M34.8809 75H37.442V95.9551H34.8809V75Z" fill="#10121C"/>
<path d="M26.1388 75C29.8059 75 32.7309 77.1537 32.7309 81.01C32.7309 84.8664 29.8059 87.0492 26.1388 87.0492H19.6485V95.9551H17V75H26.1388ZM19.6485 84.7936H25.7313C28.3507 84.7936 30.0969 83.4257 30.0969 81.0246C30.0969 78.6089 28.3507 77.2556 25.7313 77.2556H19.6485V84.7936Z" fill="#10121C"/>
</g>
<defs>
<clipPath id="clip0_9695_2285">
<rect width="183.998" height="122.665" fill="white"/>
</clipPath>
</defs>
</svg>
