<svg width="184" height="123" viewBox="0 0 184 123" fill="none" xmlns="http://www.w3.org/2000/svg">
<path d="M47.2832 56.0436C46.908 56.5894 46.7033 57.3603 46.6737 58.3336L46.5509 62.6044C46.5464 62.7295 46.6464 62.8341 46.7715 62.8386L59.4407 63.2025H59.4475C59.5043 63.2025 59.5612 63.1798 59.6044 63.1411C59.6476 63.1002 59.6749 63.0433 59.6749 62.9819L59.7568 60.1643C59.7568 60.1052 59.7363 60.046 59.6954 60.0028C59.6544 59.9596 59.5976 59.9323 59.5362 59.9323L55.2699 59.8095L55.2972 58.8839L59.6567 57.8197C59.7568 57.7946 59.8273 57.7082 59.8295 57.6059L59.9137 54.6973C59.9137 54.6245 59.8841 54.5563 59.8273 54.5131C59.7704 54.4676 59.6954 54.454 59.6271 54.4722L54.292 55.9162C53.9214 55.4796 53.437 55.1589 52.8525 54.9679C52.2385 54.7678 51.5426 54.6541 50.7899 54.6313C50.069 54.6131 49.3959 54.7018 48.7978 54.902C48.1769 55.1089 47.6675 55.4932 47.2877 56.0458L47.2832 56.0436ZM49.4504 59.6412L49.4732 58.8385C49.48 58.5747 49.5369 58.3791 49.6415 58.2586C49.7506 58.1335 49.9098 58.0425 50.1168 57.9879C50.3487 57.9265 50.6353 57.8993 50.9673 57.9106C51.4585 57.9243 51.8678 58.013 52.1794 58.1721C52.4455 58.3086 52.5637 58.536 52.5546 58.8908L52.5296 59.7322L49.4482 59.6435L49.4504 59.6412Z" fill="#3D3D3D"/>
<path d="M49.9322 44.3222C49.2704 44.843 48.7747 45.6139 48.4654 46.6168C48.1629 47.5947 48.1356 48.4998 48.3881 49.3025C48.6405 50.1076 49.2045 50.8353 50.0641 51.4629C50.9032 52.077 52.0812 52.6228 53.564 53.0821C54.9648 53.5165 56.1792 53.7348 57.1821 53.7348C57.2503 53.7348 57.3185 53.7348 57.3845 53.7325C58.4488 53.7007 59.322 53.4187 59.9815 52.8934C60.6365 52.3726 61.1232 51.613 61.4279 50.6329C61.7394 49.63 61.7713 48.7158 61.5257 47.9153C61.2778 47.1103 60.7161 46.3871 59.8542 45.764C59.0128 45.1568 57.8279 44.6133 56.3339 44.1494C54.8511 43.69 53.5731 43.4671 52.5361 43.4944C51.4741 43.5217 50.5985 43.7992 49.9322 44.3199V44.3222ZM51.2216 47.4696C51.3012 47.2103 51.4172 47.0193 51.5673 46.9033C51.7219 46.7805 51.9243 46.7009 52.1631 46.6668C52.2609 46.6532 52.3655 46.6464 52.4769 46.6464C52.6611 46.6464 52.8635 46.6646 53.0841 46.7032C53.4548 46.7669 53.8778 46.8738 54.344 47.0193L56.3498 47.6401C56.8182 47.7857 57.2276 47.9381 57.5687 48.0927C57.8962 48.2428 58.16 48.4088 58.3578 48.5862C58.542 48.7522 58.6648 48.9318 58.724 49.1206C58.7808 49.3025 58.7694 49.5254 58.6876 49.7846C58.6102 50.0325 58.4943 50.2213 58.3419 50.3464C58.185 50.4737 57.9917 50.5488 57.7461 50.576C57.4823 50.6079 57.1662 50.5942 56.8069 50.5374C56.4407 50.4805 56.0177 50.3759 55.547 50.2327L53.5412 49.6118C53.0728 49.4663 52.6657 49.3116 52.3291 49.1524C52.0016 48.9955 51.7379 48.8295 51.5445 48.659C51.3649 48.4975 51.2489 48.3269 51.1898 48.1336C51.1329 47.9449 51.1443 47.722 51.2216 47.4741V47.4696Z" fill="#3D3D3D"/>
<path d="M55.1992 33.5393L53.0865 36.7344C53.0274 36.8231 53.0388 36.9436 53.1138 37.0187L62.1921 46.2675C62.2353 46.3107 62.2945 46.3358 62.3536 46.3358C62.3604 46.3358 62.3672 46.3358 62.3763 46.3358C62.4446 46.3289 62.506 46.2925 62.5446 46.2357L64.1297 43.8388C64.1911 43.7478 64.1774 43.625 64.0978 43.55L62.5173 42.0377L63.7294 40.2024L65.7398 41.0643C65.8421 41.1075 65.9581 41.0712 66.0195 40.9802L67.6546 38.506C67.6932 38.4491 67.7023 38.3763 67.6819 38.3127C67.6614 38.249 67.6114 38.1944 67.5477 38.1694L55.4721 33.4528C55.372 33.4142 55.2583 33.4506 55.1992 33.5393ZM57.4006 37.3211C57.4006 37.3211 57.4051 37.3234 57.4074 37.3257C57.5916 37.4189 57.7599 37.4985 57.9077 37.5667C58.0532 37.6327 58.1669 37.6873 58.2647 37.735L61.146 39.0085L60.4069 40.1251L58.1124 37.9556C57.9827 37.8396 57.8258 37.7009 57.6416 37.5349C57.562 37.4644 57.4824 37.3916 57.4006 37.3211Z" fill="#3D3D3D"/>
<path d="M70.2323 27.7366C69.2908 26.6018 68.413 25.7422 67.6239 25.1828C66.8075 24.6029 65.9956 24.3231 65.2156 24.355C64.4333 24.3845 63.6191 24.7439 62.8005 25.4261L59.8236 27.8958C59.7281 27.9754 59.7145 28.1187 59.7941 28.2164L67.8877 37.9679C67.9332 38.0225 67.9968 38.0497 68.0628 38.0497C68.1151 38.0497 68.1651 38.0316 68.2083 37.9974L71.1419 35.5619C71.9629 34.8819 72.4655 34.1405 72.6406 33.3582C72.8157 32.5782 72.6883 31.7118 72.2631 30.7862C71.8492 29.8879 71.167 28.8623 70.2346 27.7389L70.2323 27.7366ZM68.7064 33.829L64.008 28.1687L64.4424 27.8071C64.6084 27.6707 64.7767 27.5933 64.9586 27.5706C65.1383 27.5478 65.3225 27.5888 65.5203 27.6888C65.7386 27.8003 65.9888 27.989 66.2639 28.2483C66.5505 28.5189 66.8689 28.8646 67.2145 29.2807L68.3675 30.6702C68.7041 31.075 68.9724 31.4389 69.1703 31.7504C69.3568 32.0483 69.4773 32.3076 69.5273 32.5214C69.5728 32.7147 69.5637 32.8784 69.5 33.0217C69.4318 33.1763 69.3113 33.3264 69.1407 33.4674L68.7064 33.8267V33.829Z" fill="#3D3D3D"/>
<path d="M77.6746 19.8884C77.8407 19.8293 77.9748 19.8179 78.0726 19.8543C78.1772 19.8929 78.2659 19.9725 78.3432 20.0953C78.4388 20.2454 78.532 20.4478 78.6207 20.6957L78.7025 20.9208C78.723 20.9777 78.7639 21.0232 78.8185 21.0505C78.8731 21.0777 78.9368 21.08 78.9914 21.0596L81.4883 20.1613C81.6066 20.1181 81.668 19.9884 81.6248 19.8702L81.4702 19.4358C81.2427 18.8014 80.9585 18.2829 80.6287 17.9008C80.2922 17.5097 79.9033 17.2299 79.478 17.0707C79.0573 16.9138 78.6025 16.8502 78.1272 16.882C77.6633 16.9138 77.1766 17.0184 76.6854 17.1958C76.2033 17.3687 75.7644 17.6074 75.3778 17.9031C74.9866 18.2033 74.6683 18.5717 74.4317 18.9969C74.193 19.4245 74.0588 19.9248 74.0315 20.4819C74.0042 21.0345 74.1111 21.6577 74.3544 22.3285C74.5455 22.8584 74.7751 23.2973 75.0412 23.6361C75.3096 23.9773 75.6075 24.2501 75.9304 24.448C76.2488 24.6436 76.5831 24.7868 76.9196 24.8755C77.2471 24.9597 77.5814 25.0211 77.9157 25.0552C78.2432 25.0893 78.5547 25.1166 78.8526 25.1416C79.1369 25.1643 79.4053 25.2053 79.6486 25.2599C79.8714 25.3099 80.067 25.3986 80.2285 25.5191C80.3809 25.6351 80.4946 25.8011 80.5764 26.0262C80.6333 26.1854 80.6742 26.331 80.697 26.4606C80.7174 26.5789 80.722 26.6857 80.7083 26.7767C80.6947 26.8654 80.6697 26.945 80.6265 27.02C80.5855 27.0905 80.5355 27.1474 80.4741 27.1929C80.4036 27.2429 80.3149 27.2884 80.208 27.327C80.0261 27.393 79.8669 27.4135 79.7327 27.3907C79.6167 27.3725 79.4985 27.2929 79.3848 27.1542C79.2529 26.995 79.1233 26.7403 79.0005 26.3946L78.8708 26.0308C78.8504 25.9739 78.8094 25.9285 78.7549 25.9012C78.7003 25.8761 78.6389 25.8716 78.5797 25.8921L76.0486 26.8017C75.9304 26.8449 75.869 26.9745 75.9122 27.0928L76.0441 27.4567C76.3238 28.2321 76.6536 28.8416 77.0242 29.2669C77.4018 29.7012 77.8247 30.006 78.2818 30.1742C78.6184 30.2993 78.9754 30.3607 79.3461 30.3607C79.4735 30.3607 79.6031 30.3539 79.7327 30.338C80.2239 30.2811 80.7402 30.1583 81.2609 29.9718C82.0182 29.6989 82.6345 29.3146 83.0939 28.8257C83.5601 28.3299 83.8421 27.7182 83.9353 27.0087C84.0263 26.3105 83.9103 25.5032 83.5874 24.6049C83.4009 24.0864 83.1735 23.6566 82.9074 23.3223C82.6413 22.988 82.3434 22.7197 82.0228 22.5264C81.7067 22.3376 81.3746 22.1966 81.0403 22.1102C80.7151 22.0261 80.3786 21.9692 80.042 21.9396L79.1142 21.8623C78.8322 21.8396 78.5661 21.7964 78.3205 21.7372C78.0954 21.6804 77.8975 21.5872 77.7315 21.4553C77.5746 21.3302 77.4518 21.1482 77.3676 20.9117C77.2926 20.7002 77.2585 20.5251 77.2676 20.3887C77.2767 20.2682 77.3131 20.1681 77.3767 20.0862C77.445 20.0021 77.545 19.9339 77.6769 19.8861L77.6746 19.8884Z" fill="#3D3D3D"/>
<path d="M90.4356 14.6823C90.3879 14.6459 90.3265 14.63 90.2673 14.6368L82.3716 15.626C82.2465 15.642 82.1578 15.7557 82.1737 15.8807L82.4785 18.3118C82.4853 18.3709 82.5171 18.4255 82.5649 18.4641C82.6126 18.5005 82.6718 18.5164 82.7332 18.5096L85.0846 18.214L86.3285 28.1314C86.3354 28.1906 86.3672 28.2451 86.415 28.2838C86.4559 28.3156 86.5037 28.3316 86.5537 28.3316C86.5628 28.3316 86.5719 28.3316 86.581 28.3316L89.36 27.9836C89.485 27.9677 89.5737 27.854 89.5578 27.7289L88.3139 17.8115L90.6289 17.5204C90.688 17.5136 90.7426 17.4817 90.7813 17.434C90.8177 17.3862 90.8359 17.3271 90.8268 17.2657L90.522 14.8346C90.5152 14.7755 90.4834 14.7209 90.4356 14.6823Z" fill="#3D3D3D"/>
<path d="M96.8678 28.052C96.8769 28.1611 96.961 28.2498 97.0702 28.2612L100.02 28.575C100.02 28.575 100.036 28.575 100.045 28.575C100.104 28.575 100.163 28.5523 100.206 28.5091C100.254 28.4613 100.279 28.3931 100.272 28.3249L98.9008 15.4352C98.8895 15.3283 98.8053 15.2441 98.6984 15.2328L94.8893 14.828C94.7824 14.8166 94.6823 14.8803 94.6482 14.9826L90.6162 27.2993C90.5957 27.3652 90.6048 27.4357 90.6412 27.4926C90.6776 27.5494 90.739 27.5881 90.8072 27.5949L93.6658 27.8996C93.7749 27.911 93.8773 27.8428 93.9091 27.7382L94.5254 25.6391L96.7131 25.8711L96.8723 28.052H96.8678ZM96.1173 19.8492C96.1605 19.6809 96.2128 19.4785 96.2742 19.2375C96.3015 19.1352 96.3265 19.0305 96.3538 18.9259V18.935C96.3561 19.142 96.3629 19.3262 96.3697 19.4899C96.3765 19.6491 96.3811 19.7765 96.3834 19.8833L96.5789 23.0285L95.2463 22.8875L96.1173 19.8515V19.8492Z" fill="#3D3D3D"/>
<path d="M109.688 18.3584L105.733 16.7392C105.676 16.7165 105.615 16.7165 105.558 16.7392C105.503 16.762 105.458 16.8074 105.435 16.862L100.632 28.5897C100.61 28.6465 100.61 28.7079 100.632 28.7648C100.655 28.8194 100.701 28.8648 100.755 28.8876L103.364 29.9564C103.479 30.0042 103.614 29.9473 103.659 29.8313L105.276 25.8835L106.133 26.2337L105.592 30.6887C105.581 30.791 105.638 30.8888 105.731 30.9275L108.423 32.0304C108.451 32.0418 108.48 32.0463 108.51 32.0463C108.551 32.0463 108.592 32.035 108.628 32.0145C108.69 31.9781 108.73 31.9122 108.737 31.8417L109.265 26.3406C109.806 26.1473 110.275 25.8062 110.659 25.3263C111.064 24.8215 111.414 24.212 111.7 23.5138C111.976 22.8452 112.126 22.1857 112.151 21.5535C112.176 20.8986 111.994 20.2869 111.612 19.7388C111.232 19.1953 110.584 18.7314 109.683 18.3629L109.688 18.3584ZM107.095 23.6662L106.318 23.3478L107.486 20.4961L108.23 20.8008C108.476 20.9009 108.637 21.0237 108.712 21.1624C108.792 21.3102 108.821 21.4876 108.799 21.7036C108.774 21.9424 108.696 22.2199 108.571 22.5269C108.385 22.9817 108.16 23.3319 107.898 23.5684C107.678 23.7685 107.423 23.8004 107.095 23.6662Z" fill="#3D3D3D"/>
<path d="M123.521 27.5092L120.378 24.5596C120.287 24.4732 120.142 24.4778 120.058 24.5687L111.382 33.8062C111.341 33.8494 111.318 33.9085 111.32 33.9699C111.32 34.0313 111.348 34.0882 111.391 34.1291L114.17 36.7398C114.782 37.3129 115.418 37.72 116.064 37.9497C116.449 38.0861 116.833 38.1543 117.213 38.1543C117.488 38.1543 117.761 38.1179 118.031 38.0475C118.673 37.8792 119.294 37.4789 119.876 36.8604C120.317 36.3919 120.613 35.9302 120.754 35.4913C120.895 35.0502 120.931 34.6203 120.86 34.2133C120.815 33.954 120.74 33.6971 120.635 33.4446C120.897 33.5015 121.158 33.5242 121.42 33.5151C121.822 33.5015 122.236 33.3969 122.652 33.2036C123.066 33.0103 123.469 32.7078 123.849 32.303C124.319 31.8027 124.622 31.2728 124.751 30.7339C124.881 30.1881 124.838 29.6286 124.622 29.0715C124.413 28.528 124.04 28.0004 123.517 27.5092H123.521ZM121.481 29.8219C121.456 30.0698 121.331 30.3177 121.106 30.5565C120.913 30.7612 120.724 30.9158 120.542 31.0136C120.376 31.1023 120.219 31.1387 120.064 31.1227C119.914 31.1068 119.771 31.0363 119.628 30.9022L119.041 30.3518L120.633 28.6553L121.22 29.2057C121.418 29.3921 121.504 29.5923 121.481 29.8219ZM118.086 33.8358C118.015 34.0109 117.897 34.1883 117.733 34.3634C117.424 34.6931 117.14 34.8819 116.89 34.9251C116.66 34.966 116.44 34.8819 116.214 34.6727L115.562 34.0586L117.206 32.3098L117.872 32.9352C118.025 33.0762 118.113 33.2218 118.141 33.3673C118.17 33.5197 118.152 33.6743 118.086 33.8358Z" fill="#3D3D3D"/>
<path d="M128.897 33.5357C128.865 33.4834 128.815 33.447 128.756 33.4334C128.697 33.4197 128.635 33.4288 128.583 33.4607L117.79 40.1034C117.738 40.1352 117.701 40.1853 117.688 40.2444C117.674 40.3035 117.683 40.3649 117.715 40.4172L121.442 46.4709C121.486 46.5414 121.561 46.5801 121.636 46.5801C121.677 46.5801 121.718 46.5687 121.754 46.546L123.826 45.2725C123.878 45.2406 123.914 45.1906 123.928 45.1315C123.942 45.0723 123.933 45.0109 123.901 44.9586L121.77 41.4974L123.751 40.2785L125.504 43.128C125.57 43.2349 125.709 43.269 125.818 43.203L127.887 41.9295C127.994 41.8636 128.028 41.7226 127.962 41.6157L126.209 38.7662L128.033 37.6428L130.125 41.0403C130.191 41.1472 130.33 41.1813 130.439 41.1154L132.508 39.8419C132.561 39.81 132.597 39.76 132.611 39.7009C132.624 39.6417 132.615 39.5803 132.583 39.528L128.895 33.5357H128.897Z" fill="#3D3D3D"/>
<path d="M134.58 44.0163C134.564 43.9595 134.525 43.9095 134.471 43.8799C134.418 43.8503 134.355 43.8435 134.298 43.8594L122.111 47.332C121.99 47.3661 121.92 47.4935 121.954 47.614L123 51.2799C123.293 52.3055 123.766 53.0651 124.412 53.5404C125.035 53.9997 125.845 54.2317 126.821 54.2317C126.852 54.2317 126.886 54.2317 126.918 54.2317C127.908 54.2158 129.122 54.0043 130.525 53.604C131.942 53.1993 133.083 52.7444 133.916 52.2464C134.773 51.7347 135.355 51.1048 135.644 50.3771C135.933 49.6493 135.931 48.7602 135.64 47.7345L134.58 44.0141V44.0163ZM125.72 50.2952L125.565 49.7517L132.638 47.7345L132.792 48.2781C132.852 48.485 132.854 48.6715 132.801 48.8466C132.749 49.0194 132.638 49.1718 132.467 49.3128C132.276 49.4674 132.003 49.6198 131.655 49.7676C131.294 49.92 130.848 50.0723 130.33 50.2202L128.592 50.7136C128.087 50.8569 127.646 50.9592 127.282 51.0138C126.934 51.0639 126.648 51.0707 126.434 51.0297C126.238 50.9934 126.093 50.9183 125.986 50.8023C125.872 50.6773 125.784 50.5067 125.722 50.2929L125.72 50.2952Z" fill="#3D3D3D"/>
<path d="M136.767 62.6891C137.056 62.3457 137.268 61.9387 137.395 61.477C137.52 61.0267 137.584 60.5333 137.581 60.0148C137.579 59.5031 137.502 59.0096 137.352 58.5457C137.199 58.0772 136.958 57.6542 136.638 57.2904C136.313 56.922 135.887 56.6286 135.371 56.4171C134.859 56.2056 134.232 56.101 133.522 56.1055C132.96 56.1078 132.467 56.1806 132.06 56.317C131.651 56.4558 131.294 56.6468 130.998 56.8856C130.707 57.1221 130.459 57.3882 130.266 57.6747C130.077 57.9544 129.909 58.25 129.765 58.5548C129.624 58.8527 129.492 59.137 129.372 59.4076C129.256 59.6668 129.129 59.9056 128.994 60.1171C128.872 60.3104 128.726 60.465 128.558 60.5765C128.401 60.6811 128.201 60.7334 127.966 60.7357C127.794 60.7402 127.644 60.7266 127.516 60.7038C127.398 60.6834 127.298 60.6515 127.214 60.6083C127.134 60.5674 127.068 60.5128 127.011 60.4514C126.957 60.39 126.92 60.324 126.9 60.249C126.875 60.1671 126.861 60.0671 126.861 59.9556C126.861 59.7623 126.893 59.6054 126.959 59.4849C127.016 59.3803 127.13 59.2984 127.298 59.237C127.493 59.1665 127.775 59.1279 128.142 59.1279H128.528C128.653 59.1256 128.756 59.0232 128.753 58.8982L128.74 56.2079C128.74 56.1465 128.715 56.0896 128.671 56.0464C128.628 56.0032 128.567 55.9896 128.51 55.9805H128.123C127.3 55.9873 126.616 56.0942 126.09 56.3034C125.554 56.5149 125.124 56.8128 124.815 57.1858C124.505 57.5564 124.292 57.9976 124.176 58.4979C124.064 58.98 124.01 59.5054 124.012 60.0625C124.016 60.8676 124.173 61.5771 124.48 62.1706C124.792 62.7755 125.274 63.2463 125.911 63.5715C126.529 63.8853 127.316 64.0445 128.251 64.0445H128.292C128.842 64.0422 129.324 63.9695 129.727 63.833C130.131 63.6943 130.482 63.501 130.77 63.2645C131.055 63.0302 131.298 62.7642 131.491 62.4754C131.68 62.1956 131.846 61.8977 131.985 61.593C132.119 61.2974 132.246 61.0131 132.367 60.7425C132.483 60.4855 132.613 60.2467 132.751 60.0352C132.879 59.8419 133.036 59.6873 133.213 59.5759C133.383 59.469 133.597 59.4144 133.847 59.4144C134.068 59.4098 134.25 59.4394 134.373 59.494C134.484 59.5417 134.566 59.61 134.621 59.6987C134.677 59.7896 134.707 59.9079 134.707 60.0489C134.707 60.2263 134.673 60.3559 134.607 60.4355C134.534 60.5219 134.432 60.5787 134.289 60.6106C134.113 60.6492 133.893 60.672 133.629 60.672H133.39C133.265 60.672 133.163 60.7766 133.165 60.9017L133.179 63.5533C133.179 63.6147 133.204 63.6716 133.247 63.7148C133.29 63.758 133.354 63.7853 133.408 63.7807H133.868C134.543 63.7739 135.123 63.6806 135.596 63.4964C136.078 63.3077 136.469 63.0371 136.763 62.6891H136.767Z" fill="#3D3D3D"/>
<path d="M127.357 24.7816C117.912 15.3371 105.357 10.1362 92.0011 10.1362C78.6452 10.1362 66.0875 15.3371 56.6454 24.7816C47.2032 34.226 42 46.7814 42 60.1374C42 69.293 44.497 78.2485 49.2226 86.0351L50.9714 84.9731C46.4414 77.5048 44.0467 68.9178 44.0467 60.1374C44.0467 33.6939 65.5576 12.1829 92.0011 12.1829C118.445 12.1829 139.956 33.6939 139.956 60.1374C139.956 69.3817 137.32 78.3554 132.333 86.0897L134.052 87.1994C139.253 79.1354 142 69.7774 142 60.1374C142 46.7814 136.799 34.226 127.355 24.7816H127.357Z" fill="#3D3D3D"/>
<path d="M65.0996 50.7742L63.3145 63.6798H70.0572C79.4334 63.8981 89.8989 64.1869 98.793 64.0687C104.287 63.9754 110.268 63.8595 115.897 63.6798H122.235L120.45 54.5606L119.349 60.1822L118.048 50.7764L117.223 56.7369L114.08 52.5434L108.69 48.8684L104.226 49.1186L97.0533 45.8984L91.1975 48.118L85.9715 46.2145L80.666 50.4694L75.8517 48.4113L66.1139 58.1037L65.0996 50.7787V50.7742ZM80.9821 52.7731L81.0958 52.6821L81.0049 52.7777L83.3904 52.2205L95.2659 56.3162L89.5874 50.7742L87.8295 49.0163L91.2088 50.2488L97.3603 52.8095L96.9828 48.0611H96.9851L103.719 51.0834L105.986 54.5628L112.028 53.5668L112.677 54.0102L116.831 59.5523L116.631 61.0009C116.461 61.1646 116.386 61.3375 116.354 61.4375C116.461 60.9622 116.85 58.6494 114.441 58.3311C111.758 57.9763 111.292 60.8144 111.292 60.8144L111.403 62.3995C104.926 62.2153 98.3519 62.0834 91.9957 62.097C88.1683 62.163 83.545 62.2426 78.9081 62.329C78.8035 61.7036 78.6261 61.0896 78.3237 61.0668C77.8143 61.0259 77.6869 61.5785 77.6596 61.7809C77.7028 61.3784 77.8575 59.4181 76.8978 59.1475C75.8267 58.8473 75.6402 61.251 75.6402 61.251L75.6516 61.6104L74.8283 59.8388L73.623 62.4313C73.3843 62.4359 73.1478 62.4404 72.9112 62.445C72.6588 61.7809 72.204 61.0896 71.4012 61.0623C70.1254 61.0214 69.8071 61.574 69.7343 61.7764C69.8389 61.3784 70.221 59.4477 67.8809 59.152L69.2704 57.7694L80.3613 56.7506L76.1428 50.9311L76.2997 50.7742L80.9753 52.7731H80.9821Z" fill="#3D3D3D"/>
<path d="M86.6498 91.2972C87.846 91.8089 89.0172 92.382 90.1656 92.996C81.4967 95.1109 73.9852 95.8455 71.2949 96.0547C76.8347 99.4022 83.5911 101.992 91.2435 101.992C111.72 101.992 129.176 85.546 127.77 79.7879C126.556 74.8167 115.804 74.1344 99.7806 72.7063C91.6665 71.9831 81.01 71.0416 78.3584 70.8574C64.9433 69.925 90.0519 67.4189 90.0519 67.4189C70.0396 67.4189 56.2994 71.3827 75.8386 75.1078C86.2928 77.1022 104.261 78.5144 95.81 80.4383C88.7443 82.0461 55.1055 81.2843 55.1055 81.2843C55.1055 81.2843 58.8123 86.5762 65.2731 91.8112C68.7047 91.7975 76.2252 91.6065 84.6008 90.4876C85.2922 90.7378 85.9767 91.0084 86.6521 91.2972H86.6498ZM72.2887 71.5851C71.6338 71.4328 71.1221 71.285 70.7583 71.144C70.897 71.1371 71.038 71.1303 71.1767 71.1258C71.5838 71.2645 72.1386 71.4032 72.7754 71.5374C72.6117 71.551 72.4502 71.5669 72.2887 71.5851ZM113.926 80.2859C114.694 80.2495 115.465 80.2746 116.234 80.3451C116.136 81.3275 114.979 82.4896 112.75 83.945C111.918 83.8518 111.085 83.7767 110.248 83.7335C109.93 83.7153 109.614 83.7039 109.296 83.6948C110.792 82.9899 111.977 82.3258 112.734 81.755C113.439 81.2251 113.832 80.7385 113.926 80.2859ZM108.777 76.6064C110.56 76.9862 112.02 77.3682 113.164 77.7685C112.532 77.8731 111.899 77.9959 111.258 78.0186C110.128 77.6229 108.647 77.2454 106.824 76.8725C107.474 76.7861 108.124 76.6928 108.777 76.6087V76.6064ZM77.9149 72.5744C76.8552 72.4197 75.8955 72.2696 75.0382 72.1241C75.2087 72.0945 75.3793 72.065 75.5498 72.0331C76.605 72.1991 77.642 72.3447 78.4562 72.4607C78.2742 72.4948 78.0946 72.5334 77.9149 72.5744ZM85.299 73.5386C85.0011 73.5022 84.7009 73.4658 84.3962 73.4272C83.4342 73.3089 82.5132 73.1952 81.6377 73.0815C81.9196 73.0383 82.1994 72.9951 82.4814 72.9542C83.5343 73.0679 84.7464 73.1952 86.0813 73.3362C85.8198 73.3976 85.5605 73.4658 85.3013 73.5386H85.299ZM93.2198 74.5802C91.803 74.38 90.2793 74.1731 88.6329 73.9593C88.9058 73.8433 89.1991 73.766 89.4902 73.7092C90.9365 73.8729 92.4693 74.0526 94.0544 74.2504C93.7655 74.3345 93.4858 74.4414 93.2198 74.5802ZM97.7475 75.2556C98.3252 75.1214 98.9142 75.0395 99.5077 74.9895C101.027 75.2124 102.557 75.4534 104.079 75.7149C103.924 75.7331 103.769 75.7513 103.615 75.7763C103.212 75.84 102.814 75.9287 102.423 76.0401C100.961 75.7786 99.4236 75.5194 97.7498 75.2556H97.7475ZM103.433 86.0622C104.993 86.0326 106.542 86.2669 108.063 86.6194C105.58 87.8792 102.987 88.9754 100.374 89.9305C100.317 89.9146 100.263 89.8986 100.206 89.8827C98.4571 89.3961 96.6946 88.9617 94.914 88.6047C97.9022 87.8724 100.822 86.9855 103.433 86.0622Z" fill="#3D3D3D"/>
<path d="M54.0747 91.7288C54.1771 91.54 54.2271 91.3513 54.2248 91.1648C54.2248 90.9783 54.1884 90.7964 54.1202 90.619L54.1498 90.5963C54.3112 90.6872 54.4841 90.7418 54.6705 90.7646C54.8547 90.7873 55.0503 90.7646 55.255 90.7054C55.4597 90.644 55.6621 90.5349 55.8645 90.378C56.1146 90.1847 56.2897 89.9732 56.3875 89.7389C56.4876 89.5047 56.5103 89.2568 56.458 88.9953C56.4057 88.7338 56.2692 88.4609 56.0509 88.1766L54.857 86.6279L49.9062 90.4416L50.8887 91.7174C51.1547 92.0631 51.4299 92.3223 51.7119 92.4952C51.9939 92.668 52.2895 92.7408 52.5943 92.7158C52.899 92.6907 53.2196 92.5497 53.5494 92.295C53.795 92.1063 53.9678 91.9175 54.0702 91.7265L54.0747 91.7288ZM53.2196 90.9624C53.1537 91.0716 53.0559 91.1739 52.9263 91.274C52.6966 91.4513 52.4919 91.54 52.3168 91.5423C52.1417 91.5446 51.9757 91.4422 51.8211 91.2421L51.4322 90.7373L52.7444 89.7276L53.1446 90.2461C53.2447 90.3757 53.2992 90.5008 53.3061 90.6213C53.3152 90.7418 53.2856 90.8555 53.2196 90.9624ZM54.7683 88.1675L55.1413 88.6496C55.2709 88.8179 55.3164 88.9862 55.2777 89.1545C55.2391 89.3228 55.1299 89.4751 54.9525 89.6116C54.8138 89.7185 54.6796 89.7935 54.55 89.8344C54.4204 89.8754 54.2999 89.8799 54.1861 89.8458C54.0724 89.8117 53.9678 89.7344 53.8746 89.6139L53.5085 89.1386L54.7683 88.1675Z" fill="#3D3D3D"/>
<path d="M64.214 97.6364L64.8598 96.8359L62.0695 94.5823L59.618 92.2809L57.4052 89.8726L52.8047 94.1024L55.1129 96.6131L55.8702 95.9194L54.367 94.2844L55.5723 93.1769L56.8413 94.555L57.5985 93.8591L56.3296 92.481L57.4553 91.4463L58.7583 92.8653L58.7492 92.8744L58.888 93.0063L58.9312 93.0541L58.9357 93.0495L59.7112 93.7772L56.1386 97.5864L57.0073 98.4005L60.5799 94.5936L61.2508 95.2236L61.2417 95.2349L61.394 95.3577L61.535 95.4896L61.5441 95.4783L62.2696 96.0627L58.988 100.127L59.9136 100.875L63.1952 96.8132L64.214 97.6364Z" fill="#3D3D3D"/>
<path d="M64.1585 100.69L65.7117 101.739L66.2871 100.886L64.7338 99.8376L65.5866 98.5709L67.3968 99.7921L67.9722 98.9393L65.175 97.0518L61.6797 102.232L64.5064 104.14L65.0818 103.29L63.242 102.048L64.1585 100.69Z" fill="#3D3D3D"/>
<path d="M70.1484 100.163L68.4042 99.2012L65.3887 104.675L66.4325 105.25L67.5423 103.235L68.2586 103.631L67.7765 105.994L68.859 106.59L69.3889 103.797C69.6663 103.77 69.9233 103.649 70.1598 103.433C70.3963 103.217 70.6078 102.94 70.7965 102.599C70.9603 102.301 71.0626 102.007 71.1058 101.716C71.149 101.425 71.099 101.148 70.9557 100.886C70.8125 100.625 70.5418 100.384 70.1439 100.163H70.1484ZM69.8846 101.632C69.8596 101.773 69.7959 101.935 69.6959 102.114C69.5435 102.389 69.3775 102.583 69.2001 102.692C69.0227 102.801 68.8135 102.79 68.5747 102.66L68.0244 102.358L68.959 100.661L69.4775 100.945C69.6527 101.041 69.7709 101.146 69.8323 101.255C69.8937 101.364 69.9096 101.489 69.8846 101.63V101.632Z" fill="#3D3D3D"/>
<path d="M75.009 105.594C74.9158 105.46 74.8112 105.332 74.6952 105.214C74.5792 105.096 74.4701 104.98 74.3677 104.868C74.2654 104.757 74.1744 104.643 74.0971 104.529C74.0175 104.416 73.9698 104.295 73.9516 104.168C73.9334 104.04 73.9561 103.899 74.0153 103.747C74.0744 103.602 74.1426 103.49 74.2199 103.417C74.2972 103.345 74.3859 103.301 74.4815 103.292C74.577 103.281 74.6748 103.297 74.7771 103.338C74.9135 103.392 75.0045 103.461 75.0568 103.547C75.1068 103.633 75.1273 103.733 75.1182 103.849C75.1068 103.965 75.0727 104.1 75.0113 104.252L74.9613 104.379L76.0097 104.798L76.0847 104.611C76.203 104.313 76.2666 104.047 76.2712 103.813C76.2757 103.579 76.2325 103.374 76.1416 103.192C76.0506 103.013 75.9187 102.856 75.7504 102.724C75.5821 102.592 75.3775 102.478 75.1409 102.383C74.9272 102.296 74.7111 102.246 74.4905 102.23C74.2722 102.214 74.0585 102.244 73.8538 102.319C73.6491 102.394 73.4581 102.521 73.2853 102.699C73.1124 102.878 72.9646 103.119 72.8441 103.424C72.7463 103.672 72.6917 103.895 72.6872 104.09C72.6803 104.286 72.7054 104.468 72.7599 104.634C72.8145 104.8 72.8896 104.95 72.9828 105.084C73.076 105.218 73.1807 105.348 73.2944 105.469C73.4081 105.589 73.5195 105.705 73.6218 105.814C73.7242 105.923 73.8151 106.037 73.8879 106.151C73.963 106.265 74.0107 106.385 74.0335 106.512C74.0562 106.637 74.0357 106.774 73.9789 106.922C73.9379 107.024 73.8947 107.113 73.8492 107.188C73.8015 107.263 73.7515 107.324 73.6992 107.367C73.6446 107.411 73.5854 107.445 73.5172 107.468C73.449 107.49 73.3808 107.497 73.3126 107.488C73.2443 107.481 73.1693 107.461 73.092 107.429C72.951 107.372 72.8464 107.302 72.7804 107.217C72.7145 107.133 72.6826 107.022 72.6872 106.885C72.6917 106.751 72.7349 106.578 72.8191 106.369C72.8304 106.342 72.8418 106.312 72.8532 106.285C72.8646 106.258 72.8759 106.228 72.8873 106.201L71.823 105.776C71.8139 105.798 71.8025 105.826 71.7912 105.855C71.7798 105.887 71.7684 105.912 71.7593 105.935C71.6161 106.294 71.541 106.608 71.5319 106.872C71.5251 107.136 71.5706 107.363 71.6706 107.554C71.7707 107.745 71.914 107.906 72.0982 108.038C72.2847 108.17 72.4961 108.286 72.7395 108.382C73.0829 108.518 73.4058 108.575 73.7105 108.548C74.0153 108.52 74.2882 108.402 74.5338 108.191C74.7794 107.979 74.984 107.663 75.15 107.247C75.2478 106.999 75.3024 106.776 75.3138 106.578C75.3252 106.381 75.3001 106.199 75.241 106.035C75.1819 105.871 75.1068 105.721 75.0136 105.587L75.009 105.594Z" fill="#3D3D3D"/>
<path d="M78.3583 103.644L77.219 103.291L75.377 109.263L78.306 110.166L78.6108 109.176L76.821 108.624L78.3583 103.644Z" fill="#3D3D3D"/>
<path d="M81.4534 105.548L83.5843 106.024L83.8072 105.021L80.5142 104.286L79.1543 110.385L82.4836 111.129L82.7065 110.124L80.5415 109.642L80.8963 108.043L82.7269 108.452L82.9498 107.447L81.1214 107.04L81.4534 105.548Z" fill="#3D3D3D"/>
<path d="M83.4766 111.294L86.8559 111.753L86.9946 110.735L84.7956 110.437L85.0139 108.813L86.8718 109.065L87.0105 108.047L85.1526 107.794L85.3573 106.28L87.5222 106.573L87.6587 105.554L84.3157 105.102L83.4766 111.294Z" fill="#3D3D3D"/>
<path d="M91.1582 105.986C90.9262 105.811 90.601 105.713 90.1848 105.693L88.1677 105.595L87.8652 111.837L89.0546 111.894L89.1615 109.704L90.0052 109.745C90.3804 109.763 90.6942 109.688 90.9444 109.522C91.1945 109.356 91.3878 109.117 91.5197 108.813C91.6516 108.506 91.729 108.151 91.7494 107.744C91.7676 107.35 91.7312 107.002 91.6403 106.7C91.5493 106.397 91.3879 106.159 91.1559 105.984L91.1582 105.986ZM90.5419 107.732C90.526 108.042 90.4623 108.287 90.3463 108.469C90.2303 108.651 90.0529 108.738 89.8096 108.726L89.2092 108.697L89.307 106.661L89.8528 106.689C90.0416 106.698 90.1848 106.739 90.2894 106.809C90.3918 106.882 90.4623 106.991 90.5009 107.143C90.5396 107.293 90.5532 107.491 90.5396 107.732H90.5419Z" fill="#3D3D3D"/>
<path d="M97.6779 106.719C97.4824 106.257 97.2186 105.925 96.882 105.723C96.5454 105.52 96.1406 105.438 95.6631 105.477C95.1923 105.516 94.8057 105.659 94.5078 105.911C94.2076 106.164 93.9984 106.532 93.8756 107.021C93.7528 107.508 93.721 108.126 93.7824 108.877C93.8438 109.627 93.9711 110.232 94.169 110.694C94.3668 111.156 94.6329 111.485 94.9695 111.683C95.3037 111.881 95.7085 111.963 96.1793 111.924C96.6568 111.886 97.0457 111.742 97.3459 111.494C97.6461 111.244 97.8553 110.878 97.9736 110.389C98.0941 109.903 98.1237 109.284 98.0623 108.533C98.0031 107.783 97.8758 107.178 97.6802 106.716L97.6779 106.719ZM96.9002 109.83C96.8843 110.053 96.8456 110.241 96.7819 110.396C96.7183 110.551 96.6318 110.669 96.5227 110.755C96.4135 110.839 96.2725 110.889 96.0974 110.903C95.9337 110.917 95.7881 110.889 95.6631 110.824C95.5357 110.758 95.4311 110.653 95.347 110.512C95.2628 110.371 95.1946 110.189 95.14 109.971C95.0854 109.752 95.0468 109.495 95.024 109.2L94.9558 108.347C94.9331 108.051 94.9308 107.792 94.949 107.567C94.9672 107.344 95.0081 107.155 95.0672 107.001C95.1286 106.846 95.2151 106.728 95.331 106.641C95.4447 106.557 95.5857 106.507 95.7472 106.494C95.9223 106.48 96.0701 106.505 96.1907 106.571C96.3112 106.637 96.4158 106.741 96.5022 106.885C96.5886 107.026 96.6591 107.208 96.7092 107.424C96.7592 107.642 96.7978 107.899 96.8206 108.195L96.8888 109.047C96.9116 109.343 96.9161 109.602 96.9002 109.827V109.83Z" fill="#3D3D3D"/>
<path d="M100.849 104.88L101.379 107.816C101.393 107.889 101.409 107.98 101.429 108.089C101.45 108.201 101.47 108.314 101.491 108.435L101.445 108.444C101.413 108.369 101.379 108.298 101.341 108.228C101.304 108.157 101.268 108.089 101.234 108.026C101.2 107.962 101.17 107.907 101.145 107.862L99.4418 105.137L98.332 105.338L99.4441 111.487L100.554 111.287L100.017 108.314C99.999 108.212 99.9785 108.101 99.9558 107.973C99.933 107.848 99.9103 107.739 99.8875 107.644L99.933 107.634C99.9876 107.76 100.044 107.88 100.104 107.996C100.165 108.112 100.213 108.203 100.249 108.271L101.959 111.032L103.069 110.832L101.957 104.683L100.847 104.883L100.849 104.88Z" fill="#3D3D3D"/>
<path d="M107.814 104.049L107.507 103.069L103.861 104.215L104.171 105.195L105.428 104.799L106.995 109.782L108.132 109.423L106.565 104.442L107.814 104.049Z" fill="#3D3D3D"/>
<path d="M110.141 101.98L111.13 104.348L109.945 104.843L108.956 102.476L107.857 102.935L110.266 108.7L111.366 108.241L110.341 105.792L111.526 105.296L112.549 107.747L113.641 107.29L111.23 101.525L110.141 101.98Z" fill="#3D3D3D"/>
<path d="M115.355 105.273L114.588 103.827L116.246 102.951L115.766 102.041L114.108 102.917L113.394 101.566L115.325 100.545L114.843 99.6377L111.859 101.216L114.782 106.74L117.797 105.146L117.317 104.236L115.355 105.273Z" fill="#3D3D3D"/>
<path d="M120.901 99.0602C120.815 98.7532 120.66 98.4371 120.442 98.1187C120.248 97.839 120.032 97.6138 119.791 97.4455C119.55 97.2772 119.28 97.1977 118.982 97.2068C118.684 97.2159 118.347 97.35 117.972 97.6093L116.33 98.7372L119.871 103.888L120.853 103.213L119.55 101.316L120.226 100.852L122.122 102.342L123.141 101.641L120.883 99.9152C120.983 99.656 120.99 99.3717 120.903 99.0624L120.901 99.0602ZM119.498 100.136L118.982 100.491L117.883 98.8941L118.37 98.5599C118.534 98.4461 118.679 98.387 118.804 98.3825C118.929 98.3779 119.05 98.4189 119.164 98.5053C119.277 98.5917 119.393 98.7213 119.512 98.8896C119.691 99.1489 119.789 99.3831 119.807 99.5923C119.825 99.8015 119.721 99.9812 119.498 100.136Z" fill="#3D3D3D"/>
<path d="M124.985 96.0628C124.503 95.4875 124.046 95.0668 123.62 94.803C123.193 94.5392 122.786 94.4232 122.395 94.4527C122.006 94.4823 121.626 94.6529 121.26 94.9599C120.898 95.2646 120.666 95.6057 120.569 95.9832C120.471 96.3607 120.514 96.786 120.696 97.2522C120.878 97.7207 121.212 98.2437 121.694 98.8191C122.176 99.3944 122.633 99.8151 123.063 100.077C123.491 100.338 123.9 100.452 124.289 100.42C124.678 100.388 125.053 100.22 125.415 99.9152C125.781 99.6082 126.015 99.2648 126.115 98.8896C126.215 98.5143 126.172 98.0913 125.988 97.6251C125.804 97.159 125.469 96.6382 124.985 96.0628ZM125.014 98.7622C124.976 98.8941 124.887 99.0169 124.753 99.1306C124.628 99.2352 124.494 99.2989 124.353 99.3194C124.212 99.3398 124.064 99.3148 123.914 99.2489C123.761 99.1829 123.602 99.076 123.432 98.9282C123.261 98.7827 123.081 98.5962 122.89 98.3665L122.34 97.7116C122.149 97.4842 121.997 97.2749 121.883 97.0816C121.769 96.8883 121.692 96.7109 121.651 96.5518C121.612 96.3903 121.612 96.2425 121.658 96.106C121.703 95.9696 121.787 95.8491 121.913 95.7445C122.047 95.6307 122.183 95.5671 122.32 95.5511C122.456 95.5352 122.602 95.5602 122.756 95.6239C122.911 95.6899 123.07 95.7967 123.238 95.9446C123.407 96.0924 123.586 96.2811 123.777 96.5086L124.328 97.1635C124.519 97.3909 124.673 97.6001 124.789 97.7912C124.905 97.9822 124.983 98.1596 125.021 98.321C125.058 98.4825 125.058 98.6303 125.019 98.7622H125.014Z" fill="#3D3D3D"/>
<path d="M123.987 92.6438L127.466 98.0198L128.314 97.1579L127.552 96.039L128.521 95.0543L129.665 95.7843L130.538 94.8951L125.094 91.5181L123.984 92.646L123.987 92.6438ZM125.365 92.8643C125.426 92.9076 125.492 92.9553 125.565 93.0099C125.638 93.0645 125.713 93.1191 125.785 93.1691C125.858 93.2191 125.926 93.2669 125.986 93.3101C126.047 93.3533 126.09 93.3851 126.122 93.4056L127.7 94.4608L126.954 95.2203L125.874 93.6603C125.836 93.6057 125.783 93.5307 125.715 93.4397C125.649 93.3487 125.579 93.2555 125.51 93.1623C125.442 93.069 125.378 92.9849 125.322 92.9121L125.367 92.8666L125.365 92.8643Z" fill="#3D3D3D"/>
<path d="M131.052 89.3309C130.488 88.8715 129.987 88.5486 129.548 88.3598C129.112 88.1711 128.716 88.1233 128.366 88.212C128.016 88.303 127.684 88.5372 127.374 88.9193L126.23 90.3224L131.077 94.268L132.195 92.8922C132.509 92.5056 132.673 92.1281 132.687 91.7551C132.7 91.3844 132.568 90.9978 132.293 90.6021C132.018 90.2064 131.602 89.7812 131.047 89.3309H131.052ZM131.536 91.9552C131.504 92.078 131.436 92.1986 131.338 92.3214L131.033 92.6943L127.781 90.0472L128.086 89.6743C128.186 89.5515 128.295 89.4651 128.418 89.4105C128.541 89.3582 128.677 89.3468 128.832 89.3787C128.987 89.4105 129.164 89.4833 129.364 89.5947C129.564 89.7084 129.794 89.8676 130.046 90.0745L130.624 90.5453C130.883 90.7568 131.083 90.9455 131.224 91.1115C131.365 91.2775 131.461 91.4299 131.511 91.5664C131.559 91.7051 131.568 91.8324 131.534 91.9552H131.536Z" fill="#3D3D3D"/>
<path d="M78.535 41.8432C78.5077 41.8363 78.4781 41.8295 78.4486 41.8204C78.3371 41.2587 78.2143 40.7015 78.0574 40.1467C77.9301 39.6896 77.2569 39.6827 77.125 40.1467C77.0068 40.5583 76.9135 40.9676 76.8226 41.3792C76.7975 41.4975 76.7748 41.618 76.7498 41.7363C76.7157 41.7454 76.6816 41.7545 76.6475 41.7636C76.2745 41.9114 75.756 41.991 75.4967 42.3548C75.1534 43.0689 76.179 43.2963 76.6475 43.4601L76.6611 43.4646C76.6884 43.592 76.718 43.7193 76.743 43.8444C76.8408 44.256 76.9522 44.6653 77.125 45.077C77.1751 45.1929 77.2683 45.293 77.3934 45.3453C77.6503 45.4545 77.9483 45.3339 78.0574 45.077C78.2894 44.5152 78.4258 43.9581 78.535 43.3805C78.8511 43.2918 79.1649 43.194 79.4787 43.078C79.8994 42.9302 79.904 42.298 79.4787 42.1456C79.1649 42.0274 78.8511 41.9341 78.5373 41.8432H78.535Z" fill="#3D3D3D"/>
<path d="M100.336 40.6537C100.257 40.9107 100.402 41.1836 100.659 41.2609C101.462 41.4724 102.272 41.668 103.09 41.7544C103.158 42.9301 103.374 44.0967 103.606 45.2565C103.716 45.7409 104.427 45.7455 104.539 45.2565C104.778 44.0672 104.996 42.871 105.06 41.6657C105.871 41.552 106.681 41.4246 107.486 41.2586C107.666 41.22 107.816 41.0812 107.854 40.8902C107.909 40.6332 107.743 40.3808 107.486 40.3262C106.918 40.208 106.349 40.1147 105.778 40.0238C105.514 39.9874 105.251 39.9487 104.987 39.9101C104.862 38.7139 104.723 37.52 104.537 36.3283C104.455 35.8075 103.688 35.803 103.604 36.3283C103.422 37.4904 103.286 38.6548 103.163 39.8214C102.895 39.8578 102.629 39.9055 102.362 39.9419C101.794 40.0397 101.225 40.1511 100.655 40.324C100.507 40.3694 100.379 40.4877 100.332 40.6469L100.336 40.6537Z" fill="#3D3D3D"/>
<path d="M92.5104 36.7915C92.117 36.7506 91.7213 36.6892 91.3279 36.6323C91.2596 35.9842 91.1755 35.3361 91.1277 34.6879C91.014 33.6669 90.8981 32.6435 90.7502 31.6224C90.6479 30.9584 89.6882 30.9561 89.5836 31.6224C89.3494 33.2575 89.1788 34.8949 89.0219 36.5368C89.0128 36.5368 89.0037 36.5368 88.9946 36.5391C87.8143 36.6778 86.6341 36.8574 85.4766 37.1713C84.8966 37.3259 84.8898 38.1787 85.4766 38.3379C86.6113 38.6472 87.7666 38.8246 88.9218 38.961C88.9514 39.3317 88.9901 39.7001 89.0196 40.0526C89.1584 41.3306 89.3153 42.6178 89.5836 43.8845C89.711 44.503 90.6183 44.5076 90.7502 43.8845C91.0663 42.3676 91.246 40.819 91.3824 39.2862C91.3984 39.1452 91.4075 39.0042 91.4166 38.8632C91.7827 38.8086 92.1466 38.7541 92.5127 38.7154C93.295 38.6017 94.0773 38.4857 94.8573 38.3356C95.4895 38.2196 95.4941 37.2895 94.8573 37.169C94.075 37.0189 93.2927 36.9052 92.5127 36.7892L92.5104 36.7915Z" fill="#3D3D3D"/>
<path d="M128.865 76.7939C128.865 76.7939 127.221 72.3093 116.264 70.8448C105.767 69.4416 90.1621 70.6765 90.1621 70.6765C90.1621 70.6765 124.46 70.8448 128.865 76.7939Z" fill="#3D3D3D"/>
<path d="M90.681 80.0938C90.681 80.0938 89.9715 80.0187 88.7662 79.8959C87.404 79.4775 82.0485 77.8765 75.3694 76.5621C67.6124 75.0338 64.2717 76.3255 64.2717 76.3255C73.7411 77.1738 85.2072 79.266 88.3 79.8504C83.0332 79.3137 70.3072 78.0562 63.3415 77.6923C63.0709 77.1602 62.6479 76.6962 61.993 76.6758C60.7172 76.6348 60.3988 77.1874 60.3261 77.3898C60.4329 76.9873 60.8218 75.027 58.4135 74.7564C56.8057 74.5767 55.9939 75.3659 55.6027 76.0299C55.3503 75.9662 55.0592 75.9412 54.7135 75.9799C52.9556 76.1777 53.2399 77.6082 53.3172 77.9015C53.2626 77.7537 53.0307 77.3512 52.1006 77.3807C50.9612 77.4171 50.7793 79.291 50.7793 79.291H54.8136C63.6235 79.5002 85.5029 80.0142 90.681 80.0938Z" fill="#3D3D3D"/>
<path d="M55.8612 72.0792C51.3402 72.6773 49.5778 75.6951 49.5778 75.6951C53.7531 72.8297 61.8171 72.7091 63.6205 72.7182C63.7865 72.7637 63.8752 72.7887 63.8752 72.7887C63.8752 72.7887 63.8365 72.7637 63.7638 72.7182C63.907 72.7182 63.9844 72.7228 63.9844 72.7228C63.9844 72.7228 63.8297 72.6705 63.55 72.5909C62.6176 72.0496 59.7727 70.5533 56.0886 70.0893C51.5654 69.5208 49.248 72.0087 49.248 72.0087C52.5842 70.767 57.6009 71.422 60.8051 72.061C59.4407 71.8973 57.7305 71.829 55.8612 72.0769V72.0792Z" fill="#3D3D3D"/>
<path d="M125.061 70.2435C119.399 68.8086 114.637 69.3657 114.637 69.3657C114.637 69.3657 126.999 70.9076 132.53 74.9919C132.53 74.9919 130.724 71.6785 125.061 70.2435Z" fill="#3D3D3D"/>
<path d="M113.033 69.4577C113.033 69.4577 109.346 66.9539 100.423 67.6179C91.4991 68.282 84.5176 70.5174 84.5176 70.5174C84.5176 70.5174 103.527 67.5565 113.035 69.4577H113.033Z" fill="#3D3D3D"/>
<path d="M125.517 68.0837C117.451 66.9353 110.799 67.7153 110.799 67.7153C110.799 67.7153 128.287 68.6477 136.367 72.4273C136.367 72.4273 133.583 69.2344 125.517 68.086V68.0837Z" fill="#3D3D3D"/>
<path d="M115.853 65.5054C102.797 65.178 92.2656 66.124 92.2656 66.124C92.2656 66.124 120.36 65.7374 133.793 67.9092C133.793 67.9092 128.909 65.8329 115.853 65.5054Z" fill="#3D3D3D"/>
<path d="M64.828 70.0066C64.828 70.0066 60.4412 68.3943 54.7468 68.0714C49.0524 67.7484 46.5918 69.8156 46.5918 69.8156C52.7615 68.0941 64.8303 70.0089 64.8303 70.0089L64.828 70.0066Z" fill="#3D3D3D"/>
<path d="M68.6117 67.777C68.6117 67.777 66.8606 65.7576 62.5966 65.5847C59.0535 65.4415 56.1495 66.1555 55.2671 66.4011C50.2959 66.6104 46.6914 67.5496 46.6914 67.5496C46.6914 67.5496 60.1792 66.5421 66.872 68.7753C66.872 68.7753 64.3045 66.4807 57.9847 66.367C57.9187 66.367 57.8528 66.367 57.7846 66.3648C60.8342 66.3147 65.6758 66.4716 68.6094 67.7747L68.6117 67.777Z" fill="#3D3D3D"/>
<path d="M133.552 18.6174C134.596 18.6174 135.494 18.2419 136.243 17.4932C136.989 16.7468 137.36 15.8438 137.36 14.7818C137.36 13.7199 136.987 12.8261 136.243 12.0912C135.508 11.3449 134.612 10.9717 133.552 10.9717C132.492 10.9717 131.596 11.3449 130.852 12.0912C130.113 12.8307 129.744 13.7268 129.744 14.7818C129.744 15.8369 130.117 16.7468 130.861 17.4932C131.61 18.2419 132.506 18.6174 133.552 18.6174ZM131.407 12.598C132.002 11.9945 132.716 11.6904 133.552 11.6904C134.388 11.6904 135.102 11.9922 135.697 12.598C136.296 13.1947 136.593 13.9249 136.593 14.7841C136.593 15.6434 136.293 16.3829 135.697 16.9795C135.102 17.583 134.388 17.8871 133.552 17.8871C132.716 17.8871 132.002 17.5853 131.407 16.9795C130.815 16.3667 130.52 15.6365 130.52 14.7841C130.52 13.9318 130.815 13.1993 131.407 12.598Z" fill="#3D3D3D"/>
<path d="M133.12 15.3555H133.595C133.761 15.3555 133.88 15.3854 133.959 15.4453C134.037 15.5052 134.076 15.6066 134.081 15.7471L134.138 16.5971H135.338L135.288 15.731C135.274 15.5052 135.226 15.3278 135.143 15.2057C135.06 15.0836 134.933 14.9915 134.76 14.9316C135.152 14.7151 135.348 14.3903 135.348 13.9572C135.348 13.6439 135.223 13.3905 134.975 13.197C134.726 13.0035 134.401 12.9067 133.998 12.9067H131.92V16.5971H133.12V15.3555ZM133.12 13.7729H133.724C134.005 13.7729 134.145 13.8858 134.145 14.1069C134.145 14.2336 134.108 14.335 134.032 14.4087C133.956 14.4824 133.853 14.5193 133.724 14.5193H133.12V13.7729Z" fill="#3D3D3D"/>
</svg>
