<svg width="184" height="123" viewBox="0 0 184 123" fill="none" xmlns="http://www.w3.org/2000/svg">
<g clip-path="url(#clip0_9243_567)">
<path d="M182.52 72.9966H-25.7754V97.9955H182.52V72.9966Z" fill="#EEEEEE"/>
<path d="M14.9834 78.8607C15.2055 78.7648 15.3222 78.6892 15.3465 78.971C15.3798 79.3876 15.5339 81.3241 15.5471 81.5004C15.5589 81.6906 15.4958 81.7087 15.3701 81.5879C15.0708 81.2998 14.0565 80.2159 12.5297 79.8014C11.407 79.4946 10.4738 79.5619 9.81076 79.7299C9.01231 79.9361 8.54157 80.3409 8.26385 80.7332C7.8306 81.3449 7.9285 82.1336 8.37355 82.5946C8.8672 83.1043 9.86145 83.2758 10.8126 83.4195C11.7097 83.5563 13.4191 83.7826 14.2689 84.0895C15 84.354 15.6645 84.8935 16.0699 85.4823C16.6309 86.2995 16.6053 87.7353 15.9755 88.5955C15.2833 89.5405 14.414 90.0633 13.4121 90.3341C11.9944 90.7187 10.4704 90.6375 9.07896 90.2494C7.85559 89.9106 6.85232 89.6627 6.07192 90.0994C5.91153 90.1911 5.86641 90.1709 5.85252 89.9605C5.83794 89.7377 5.69838 87.5402 5.69144 87.1361C5.68936 86.9972 5.78101 87.0313 5.83169 87.0889C6.26008 87.5673 7.60078 88.5247 9.07896 89.0107C10.3301 89.4204 11.4146 89.5544 12.8511 89.1628C13.5156 88.9809 14.0315 88.4594 14.2009 88.1609C14.4605 87.7068 14.455 86.9639 14.0912 86.5466C13.8475 86.2696 13.5066 85.8405 10.6925 85.442C7.75214 85.0275 6.93772 84.3054 6.37672 83.457C5.68866 82.4072 5.79211 81.2144 6.30104 80.352C6.84538 79.4348 7.65911 78.9926 8.36452 78.7121C9.29073 78.3476 10.7002 78.2226 12.2221 78.4885C13.735 78.753 14.3078 79.1543 14.9834 78.8607Z" fill="#3D3D3D"/>
<path d="M34.1041 79.5075C34.0784 79.3388 34.0375 79.3166 33.8708 79.227C33.5903 79.0743 32.5364 78.7264 31.9504 78.6139C30.5882 78.3591 29.0961 78.3251 27.6686 78.7368C26.3307 79.1159 24.974 79.6839 23.6423 81.6043C22.6488 83.0422 22.4273 85.489 23.5666 87.2476C24.6692 88.9501 26.1953 89.7659 27.5339 90.2123C28.8337 90.647 30.7617 90.7046 32.3586 90.3144C33.0252 90.1512 33.8202 89.8631 34.075 89.7291C34.2499 89.6361 34.2749 89.6361 34.3124 89.4368C34.3791 89.1049 34.6027 87.8996 34.6874 87.4518C34.7186 87.2796 34.629 87.2476 34.5048 87.3747C33.9431 87.9322 33.0377 88.5155 32.1212 88.8744C30.9437 89.3382 29.3766 89.559 27.9074 88.8279C26.3689 88.0628 25.8342 87.0345 25.5454 86.5332C25.0601 85.6938 24.6886 83.6796 25.8009 81.9105C26.5286 80.7573 27.4152 80.3164 28.1755 79.988C29.1739 79.5575 30.6229 79.4797 31.7803 79.9248C32.5114 80.2032 33.5119 80.7607 34.0972 81.4564C34.1819 81.5557 34.3145 81.5536 34.2965 81.3683C34.2673 81.1009 34.1041 79.5075 34.1041 79.5075Z" fill="#3D3D3D"/>
<path d="M52.2947 84.5991H44.4802V84.6199V88.4219C44.4802 88.8816 44.5712 89.8196 45.5307 90.1765C45.6293 90.2112 45.6217 90.3091 45.5161 90.3091H43.7422H43.1805H41.4038C41.2989 90.3091 41.2913 90.2105 41.3899 90.1765C42.3501 89.8189 42.4431 88.8816 42.4431 88.4219V80.5367C42.4431 80.0791 42.3501 79.1418 41.3899 78.7863C41.2913 78.7495 41.2989 78.6523 41.4038 78.6523H43.1805H43.7422H45.5161C45.6217 78.6523 45.6293 78.7502 45.5307 78.7863C44.5712 79.1418 44.4802 80.0785 44.4802 80.5367V83.491V83.5132H52.2947V83.491V80.5367C52.2947 80.0791 52.2037 79.1418 51.2442 78.7863C51.1456 78.7495 51.1525 78.6523 51.2587 78.6523H53.0341H53.5944H55.3711C55.4788 78.6523 55.4843 78.7502 55.3857 78.7863C54.4255 79.1418 54.3359 80.0785 54.3359 80.5367V88.4212C54.3359 88.8809 54.4255 89.8189 55.3857 90.1758C55.4843 90.2105 55.4788 90.3084 55.3711 90.3084H53.5937H53.0341H51.2587C51.1525 90.3084 51.1463 90.2098 51.2442 90.1758C52.2037 89.8182 52.2947 88.8809 52.2947 88.4212V84.6192" fill="#3D3D3D"/>
<path d="M86.1657 89.2603V80.5537C86.1657 79.9788 86.315 79.2269 87.3495 78.8249C87.4488 78.7874 87.4363 78.668 87.3294 78.668H85.3846H84.8243H83.049C82.9406 78.668 82.9337 78.7652 83.033 78.8006C83.9946 79.1554 84.0856 80.0941 84.0856 80.553V88.4369C84.0856 88.8958 83.9946 89.8595 83.033 90.2136C82.9337 90.2497 82.9406 90.3469 83.049 90.3469H84.8243H85.3846H90.1253C90.7467 90.3469 91.339 90.4948 91.7903 90.76C91.8625 90.8031 91.9271 90.8197 91.9777 90.6961C92.0944 90.3976 92.7762 88.6917 92.8894 88.3827C92.9338 88.264 92.8623 88.1918 92.747 88.2918C92.6346 88.3904 91.6528 89.261 90.2101 89.261C88.7652 89.2624 86.1657 89.2603 86.1657 89.2603Z" fill="#3D3D3D"/>
<path d="M127.903 78.8833C128.125 78.7841 128.245 78.7098 128.269 78.9924C128.302 79.4089 128.455 81.3433 128.464 81.5231C128.478 81.7113 128.416 81.7314 128.291 81.6085C127.991 81.3211 126.975 80.2352 125.45 79.8214C124.326 79.5159 123.392 79.5846 122.731 79.7519C121.931 79.9567 121.463 80.3615 121.184 80.7552C120.751 81.3662 120.846 82.1535 121.296 82.6159C121.786 83.1242 122.781 83.295 123.733 83.4401C124.629 83.5783 126.34 83.8053 127.192 84.1108C127.921 84.3753 128.584 84.9134 128.991 85.505C129.552 86.3215 129.526 87.7545 128.896 88.6161C128.203 89.5625 127.335 90.0839 126.332 90.3568C124.914 90.7393 123.392 90.6567 122.001 90.27C120.775 89.9291 119.773 89.6833 118.995 90.1221C118.832 90.2124 118.787 90.1915 118.774 89.9832C118.759 89.7604 118.62 87.5615 118.611 87.1567C118.609 87.0213 118.701 87.0519 118.751 87.1081C119.179 87.5893 120.522 88.5474 122.002 89.0313C123.254 89.4417 124.337 89.5757 125.772 89.1855C126.439 89.0036 126.953 88.4787 127.125 88.1822C127.38 87.7295 127.378 86.9845 127.012 86.5686C126.769 86.2909 126.429 85.8618 123.615 85.4647C120.674 85.0481 119.86 84.3281 119.3 83.4755C118.609 82.4285 118.714 81.235 119.223 80.3754C119.765 79.4561 120.582 79.0146 121.287 78.7362C122.212 78.3709 123.625 78.2432 125.143 78.5091C126.658 78.7723 127.229 79.1743 127.903 78.8833Z" fill="#3D3D3D"/>
<path d="M140.183 79.8732H137.142C136.513 79.8732 136.141 79.8635 135.405 80.2475C135.218 80.3454 135.202 80.2197 135.29 80.1079C135.647 79.6524 136.397 78.7047 136.76 78.225L136.955 78.209C137.124 78.3465 137.595 78.6492 138.299 78.6492H145.467C146.095 78.6492 146.87 78.577 147.618 78.3263C147.71 78.2979 147.819 78.3166 147.719 78.4527C147.417 78.8672 146.657 79.8739 146.368 80.2482C146.266 80.3794 146.211 80.303 146.149 80.2634C146.011 80.1808 145.739 79.8732 144.805 79.8732H142.223V88.4542C142.223 88.9124 142.314 89.8504 143.271 90.2045C143.372 90.2406 143.365 90.3392 143.26 90.3392H141.483H140.922H139.148C139.042 90.3392 139.034 90.2399 139.133 90.2045C140.093 89.8497 140.183 88.9124 140.183 88.4542" fill="#3D3D3D"/>
<path d="M157.002 80.5721C157.002 80.111 157.093 79.173 158.052 78.8189C158.151 78.7849 158.144 78.687 158.037 78.687H156.26H155.7H153.925C153.82 78.687 153.813 78.7856 153.91 78.8189C154.87 79.1737 154.961 80.111 154.961 80.5721V88.4559C154.961 88.9149 154.87 89.8529 153.91 90.2083C153.813 90.2424 153.82 90.3403 153.925 90.3403H155.7H156.26H158.037C158.144 90.3403 158.151 90.2417 158.052 90.2083C157.093 89.8522 157.002 88.9149 157.002 88.4552" fill="#3D3D3D"/>
<path d="M175.923 79.5075C175.896 79.3388 175.857 79.3166 175.689 79.227C175.41 79.0743 174.356 78.7264 173.771 78.6139C172.408 78.3591 170.917 78.3251 169.49 78.7368C168.151 79.1159 166.79 79.6839 165.461 81.6043C164.467 83.0422 164.246 85.489 165.385 87.2476C166.488 88.9501 168.015 89.7659 169.352 90.2123C170.652 90.647 172.58 90.7046 174.178 90.3144C174.844 90.1512 175.637 89.8631 175.892 89.7291C176.067 89.6361 176.091 89.6361 176.131 89.4368C176.198 89.1049 176.42 87.8996 176.504 87.4518C176.537 87.2796 176.447 87.2476 176.323 87.3747C175.762 87.9322 174.858 88.5155 173.939 88.8744C172.762 89.3382 171.196 89.559 169.727 88.8279C168.185 88.0628 167.653 87.0345 167.364 86.5332C166.883 85.6938 166.509 83.6796 167.619 81.9105C168.346 80.7573 169.235 80.3164 169.992 79.988C170.992 79.5575 172.441 79.4797 173.599 79.9248C174.33 80.2032 175.332 80.7607 175.916 81.4564C176 81.5557 176.134 81.5536 176.114 81.3683C176.087 81.1009 175.923 79.5075 175.923 79.5075Z" fill="#3D3D3D"/>
<path d="M69.1862 90.5592C69.8646 90.5592 72.3717 90.5092 74.2158 88.9539C75.9904 87.4563 76.3987 85.7442 76.3987 84.5604V84.4757C76.3987 83.2926 75.9904 81.579 74.2158 80.0835C72.3724 78.531 69.8646 78.4775 69.1862 78.4775H69.0328C68.353 78.4775 65.8466 78.5303 64.0032 80.0835C62.2286 81.579 61.8203 83.2926 61.8203 84.4757V84.5604C61.8203 85.7442 62.2286 87.4563 64.0032 88.9539C65.8459 90.5085 68.3523 90.5592 69.0328 90.5592" fill="#3D3D3D"/>
<path d="M103.721 78.6548H105.81C105.81 78.6548 111.432 88.4154 111.755 88.9743C112.079 89.536 112.549 89.9977 113.011 90.1567C113.135 90.1983 113.132 90.3393 112.995 90.3393H109.369C109.224 90.3393 109.244 90.2164 109.347 90.165C109.449 90.1136 109.958 89.8533 109.581 89.1798C109.342 88.7542 108.459 87.1913 108.459 87.1913H101.035C101.035 87.1913 100.084 88.841 99.8956 89.1958C99.7734 89.4297 99.7193 89.9255 100.089 90.1574C100.195 90.2219 100.21 90.3351 100.082 90.3351H97.4162C97.2941 90.3351 97.2114 90.2247 97.4017 90.1463C97.6266 90.0491 98.0946 89.8429 98.7236 88.7722C99.3513 87.7016 103.638 80.2038 103.807 79.8289C103.973 79.4623 104.064 79.0936 103.68 78.7513" fill="#3D3D3D"/>
<path d="M69.1784 89.3199C70.1803 89.3199 71.6238 88.9276 72.6444 87.857C73.6623 86.7864 74.0039 85.513 74.0039 84.5611V84.4764C74.0039 83.5273 73.663 82.2505 72.6444 81.1805C71.6245 80.1113 70.181 79.7197 69.1784 79.7197H69.041C68.0391 79.7197 66.5956 80.1113 65.5743 81.1805C64.5564 82.2505 64.2148 83.5273 64.2148 84.4764V84.5611C64.2148 85.513 64.5557 86.7864 65.5743 87.857C66.5956 88.9276 68.0391 89.3199 69.041 89.3199" fill="#EEEEEE"/>
<path d="M104.821 80.5264L107.873 86.0912H101.641" fill="#EEEEEE"/>
</g>
<path d="M91.8577 35.5092L91.4469 65.7121C91.4469 66.5999 90.8878 66.4766 90.1575 65.849C89.2012 65.0297 85.1092 60.8692 81.0172 59.6391C76.8909 58.409 76.4596 58.4911 72.2215 58.4775C68.1386 58.466 64.519 58.2082 64.0397 58.0028C63.565 57.7996 62.8826 57.7335 63.0173 56.0925L67.2462 26.3712C67.4471 25.0657 67.1116 24.3879 69.2911 24.9288C71.4683 25.472 77.2675 25.3989 78.3561 25.472C80.1317 25.618 83.7444 26.5012 86.2685 28.6853C88.7904 30.8648 91.8577 33.5944 91.8577 35.5092Z" fill="#3D3D3D"/>
<path d="M93.4283 35.5087L93.2891 64.0045C93.2891 65.3624 93.9714 65.6386 94.7908 64.5477C95.7995 63.1966 97.1323 62.0806 98.6797 61.348C104.134 58.7531 111.631 58.2077 112.583 58.1392C113.542 58.073 118.448 57.6645 119.131 57.4568C120.783 56.9616 121.226 57.4294 120.902 54.1156L117.086 25.1451C116.949 23.8442 116.673 23.9104 115.851 24.1112C115.041 24.3212 115.265 24.3258 111.419 25.0036C109.589 25.33 107.074 25.0652 104.132 25.9644C101.279 26.8225 99.0517 28.3585 96.5572 30.595C95.6215 31.4303 93.5629 33.0507 93.4283 35.5087Z" fill="#3D3D3D"/>
<defs>
<clipPath id="clip0_9243_567">
<rect width="180.523" height="24.9955" fill="white" transform="translate(2 73)"/>
</clipPath>
</defs>
</svg>
