<svg width="184" height="123" viewBox="0 0 184 123" fill="none" xmlns="http://www.w3.org/2000/svg">
<path fill-rule="evenodd" clip-rule="evenodd" d="M51.6287 41.0361H11V81.6649H51.6287V41.0361ZM24.4687 63.3597C25.3787 62.8291 26.4169 62.5578 27.4704 62.5764L35.1679 62.5691C35.7846 62.5667 36.3985 62.6548 36.9894 62.8308C36.8782 63.0847 36.731 63.3217 36.553 63.534L30.1129 71.1607C30.1344 71.0564 30.1562 70.9521 30.1825 70.8489L31.9288 63.9292H30.1643L28.5227 70.4303C28.274 71.4709 27.7454 72.4234 26.9944 73.1849L26.973 73.2088C26.9523 73.2302 26.9325 73.2516 26.9127 73.2739C26.8844 73.304 26.8598 73.3354 26.8347 73.3675L26.827 73.3774C26.8238 73.3816 26.8206 73.3857 26.8174 73.3898C26.812 73.3967 26.8066 73.4036 26.8015 73.411C26.7117 73.5327 26.6365 73.6646 26.5782 73.8045C26.571 73.8211 26.5641 73.8381 26.5572 73.855C26.5273 73.9311 26.5022 74.0087 26.482 74.088C26.4787 74.1005 26.4743 74.1127 26.4743 74.1248C26.4577 74.1988 26.4452 74.2736 26.4367 74.3493C26.4361 74.3541 26.4355 74.3582 26.435 74.3623C26.4339 74.3697 26.4329 74.377 26.4318 74.3893C26.4312 74.3969 26.4301 74.4043 26.429 74.4116C26.4274 74.4224 26.4258 74.433 26.4258 74.4439C26.4225 74.4762 26.4236 74.5084 26.4247 74.5406C26.4252 74.5567 26.4258 74.5729 26.4258 74.5891V74.6744C26.4302 74.7411 26.4383 74.8079 26.45 74.8738C26.4518 74.8842 26.4532 74.8949 26.4547 74.9057C26.4569 74.9221 26.4592 74.9386 26.4626 74.9547C26.4751 75.0145 26.4925 75.0736 26.5103 75.1322C26.5125 75.1396 26.5147 75.1469 26.5169 75.1542C26.5246 75.1799 26.5323 75.2054 26.5414 75.2309C26.5578 75.2752 26.5772 75.3168 26.5973 75.3601C26.6019 75.3702 26.6067 75.3803 26.6114 75.3907C26.6158 75.3999 26.6201 75.4091 26.6244 75.4184C26.6346 75.4403 26.6448 75.4621 26.6567 75.4837C26.6951 75.5532 26.7376 75.6204 26.7837 75.6851C26.7862 75.6881 26.7882 75.6914 26.7903 75.6947C26.7915 75.6968 26.7928 75.6988 26.7942 75.7009L26.7974 75.7049C26.9774 75.9552 27.216 76.1575 27.4922 76.2937C27.5321 76.3135 27.5722 76.3294 27.6123 76.3452C27.6207 76.3486 27.6291 76.3519 27.6374 76.3552C27.6443 76.3577 27.6512 76.3608 27.6581 76.3638C27.6666 76.3675 27.6752 76.3713 27.6839 76.3742C27.7236 76.3884 27.7697 76.4021 27.8024 76.4118C27.8096 76.414 27.8166 76.4161 27.8236 76.4181C27.8485 76.4256 27.8728 76.4329 27.9003 76.4401C27.9359 76.4494 27.9759 76.4567 28.0095 76.4624L28.0182 76.464C28.0485 76.4698 28.0752 76.4749 28.111 76.4794C28.1425 76.4836 28.1788 76.4862 28.2081 76.4883C28.2156 76.4889 28.2227 76.4894 28.2291 76.4899C28.2352 76.4904 28.2413 76.4909 28.2474 76.4914C28.2725 76.4935 28.2979 76.4956 28.3229 76.4956C28.3634 76.4988 28.4107 76.4972 28.4426 76.4956C28.4515 76.4951 28.46 76.4948 28.4684 76.4944C28.4899 76.4936 28.5111 76.4928 28.5373 76.4899C28.5609 76.4876 28.5836 76.4844 28.6068 76.4811C28.6197 76.4793 28.6329 76.4775 28.6465 76.4757C28.6849 76.4709 28.7257 76.4636 28.7557 76.4575C28.7855 76.4519 28.815 76.4442 28.8445 76.4366L28.8446 76.4365C28.8867 76.426 28.928 76.4147 28.9692 76.4009L29.0331 76.3787C29.0804 76.3605 29.1273 76.3423 29.1738 76.3208L29.2159 76.3002C29.2669 76.2755 29.3162 76.2489 29.3643 76.2197L29.3947 76.2007C29.4444 76.17 29.4929 76.1368 29.5399 76.1008L29.5674 76.079C29.6131 76.043 29.6579 76.0054 29.7004 75.9645L29.7287 75.9354C29.7364 75.9278 29.7441 75.9203 29.7518 75.9128C29.7751 75.8903 29.7983 75.8678 29.8201 75.8432C29.8274 75.8343 29.8327 75.8246 29.8395 75.8165C29.897 75.749 29.9495 75.6774 29.9969 75.6026C30.0099 75.5807 30.0226 75.5583 30.0352 75.5358C30.0406 75.5262 30.046 75.5167 30.0515 75.5071C30.0814 75.4513 30.1105 75.3939 30.136 75.3352C30.1409 75.3235 30.1463 75.3118 30.1516 75.3002C30.1601 75.2816 30.1686 75.263 30.1756 75.2438C30.2019 75.1743 30.2241 75.1035 30.2423 75.0311L30.2429 75.0289C30.246 75.0176 30.2488 75.0069 30.2488 74.9959C30.2574 74.958 30.2632 74.9204 30.2691 74.8822L30.2707 74.8722C30.2812 74.8079 30.2893 74.7436 30.2929 74.6797C30.2933 74.6722 30.2945 74.6648 30.2957 74.6573C30.2971 74.6483 30.2986 74.6392 30.2986 74.6299C30.3006 73.982 30.5214 73.354 30.9262 72.848L37.9572 64.5188C38.3762 64.0473 38.942 63.7306 39.5632 63.621C39.676 63.6 39.7868 63.5688 39.894 63.5276L39.9122 63.5199C39.9963 63.4867 40.078 63.4475 40.1565 63.4026C40.1763 63.3929 40.1941 63.384 40.2111 63.3739C40.2875 63.327 40.3603 63.2748 40.4295 63.2182C40.4508 63.2008 40.4709 63.1825 40.4914 63.1639C40.496 63.1596 40.5007 63.1554 40.5055 63.1511C40.5609 63.1005 40.6139 63.0471 40.6632 62.9905C40.669 62.9839 40.6753 62.978 40.6816 62.9722C40.6888 62.9654 40.696 62.9587 40.7024 62.9509C41.0794 62.4931 41.2258 61.8876 41.0992 61.3081V61.2976C41.0983 61.2942 41.097 61.2909 41.0958 61.2876C41.0934 61.2816 41.0911 61.2755 41.0911 61.2693C41.0761 61.2037 41.0579 61.139 41.0365 61.0755C41.0256 61.0428 41.0135 61.0104 41.0009 60.9789C40.9811 60.9316 40.9589 60.885 40.9354 60.8385C40.9208 60.8098 40.9075 60.7799 40.8913 60.7512C40.8521 60.6836 40.8088 60.6185 40.7619 60.5558C40.7465 60.5355 40.7301 60.5163 40.7135 60.4968C40.7083 60.4908 40.7032 60.4847 40.698 60.4786C40.6652 60.439 40.6321 60.4005 40.5953 60.3633C40.5694 60.337 40.5431 60.3116 40.5156 60.2865C40.4796 60.2537 40.442 60.2226 40.4032 60.1919C40.3745 60.1688 40.3453 60.1453 40.315 60.1243C40.2592 60.0851 40.201 60.0487 40.1395 60.0151C40.1335 60.0117 40.1276 60.0081 40.1217 60.0044C40.115 60.0002 40.1082 59.996 40.1011 59.9921L40.0889 59.9852C39.8798 59.8784 39.6526 59.8117 39.4188 59.789L39.3642 59.7838C39.3124 59.7773 39.2631 59.7773 39.2085 59.7773C39.1921 59.7773 39.1759 59.7782 39.1599 59.7791C39.1439 59.7801 39.128 59.781 39.1118 59.781C39.0459 59.7842 38.98 59.7907 38.9145 59.8008C38.8728 59.8072 38.8287 59.8153 38.7907 59.8234L38.7792 59.8259C38.745 59.833 38.7128 59.8398 38.6815 59.8485C38.6205 59.8655 38.5614 59.8865 38.5032 59.9092C38.4967 59.9121 38.4901 59.915 38.4837 59.9179C38.4498 59.9331 38.4164 59.9482 38.3835 59.9638C38.3641 59.9725 38.345 59.9827 38.3263 59.9927C38.3208 59.9956 38.3153 59.9985 38.3099 60.0014C38.2646 60.0244 38.2193 60.0475 38.176 60.0742C37.2608 60.6024 36.2206 60.8749 35.1638 60.8644H27.4732C26.8557 60.8656 26.2418 60.7746 25.6509 60.5955C25.75 60.3775 25.8786 60.1741 26.0331 59.9909L33.284 51.5003C33.2878 51.4957 33.2918 51.4915 33.2957 51.4874C33.2991 51.484 33.3023 51.4805 33.3055 51.4768L31.2805 59.4995H33.0535L35.1444 51.2176C35.3191 50.5936 35.7005 50.0476 36.2258 49.6687C36.3136 49.6027 36.3953 49.5299 36.4701 49.4503C36.536 49.3771 36.5963 49.2986 36.6501 49.2161C36.6567 49.2068 36.6628 49.1973 36.6688 49.1877C36.6728 49.1816 36.6767 49.1754 36.6808 49.1692C36.7896 48.9953 36.8701 48.8052 36.919 48.6062C36.9203 48.6016 36.9219 48.5975 36.9236 48.5932C36.9258 48.5879 36.928 48.5825 36.9295 48.5755C36.9324 48.5629 36.936 48.5496 36.936 48.5367C36.9437 48.499 36.949 48.4659 36.9546 48.4275C36.9603 48.3894 36.9655 48.349 36.9684 48.3183C36.969 48.3104 36.9697 48.3026 36.9704 48.2948C36.9724 48.272 36.9744 48.2495 36.9744 48.2269V48.1043C36.9741 48.0939 36.9734 48.0831 36.9726 48.072C36.9715 48.0563 36.9704 48.0403 36.9704 48.0247C36.9684 47.9818 36.9651 47.9393 36.9595 47.8964C36.9576 47.8844 36.9556 47.871 36.9536 47.8574C36.9517 47.8444 36.9497 47.8312 36.9477 47.8184C36.9409 47.7775 36.9328 47.7367 36.9235 47.6963C36.9179 47.671 36.9115 47.6478 36.905 47.6241C36.9039 47.6201 36.9027 47.6162 36.9016 47.6121C36.9006 47.608 36.8996 47.6038 36.8986 47.5996C36.8971 47.5929 36.8956 47.5863 36.8936 47.5798C36.8889 47.5644 36.8843 47.551 36.8791 47.536C36.8757 47.5261 36.8721 47.5156 36.8681 47.5033C36.8576 47.473 36.847 47.4447 36.8341 47.4123C36.8208 47.3804 36.8074 47.3493 36.792 47.3177C36.7893 47.3119 36.7865 47.3062 36.7837 47.3004C36.7711 47.274 36.7585 47.2476 36.7455 47.2231C36.7358 47.2046 36.7253 47.187 36.7147 47.1691C36.7081 47.158 36.7015 47.1468 36.695 47.1353C36.678 47.1054 36.6622 47.0783 36.6404 47.0467C36.6185 47.0152 36.589 46.976 36.5704 46.9529C36.5628 46.9435 36.5556 46.934 36.5483 46.9246C36.5377 46.9107 36.5271 46.897 36.5158 46.8838C36.4778 46.8381 36.4366 46.7956 36.3945 46.7535C36.3909 46.7501 36.3876 46.7465 36.3842 46.7429C36.3808 46.7391 36.3773 46.7354 36.3735 46.7317C36.3201 46.6807 36.2639 46.633 36.2048 46.5881C36.199 46.5837 36.1926 46.5796 36.1861 46.5754C36.1801 46.5714 36.1739 46.5674 36.168 46.5631C36.1243 46.5315 36.0811 46.5008 36.0345 46.4733C36.0305 46.4707 36.0266 46.468 36.0228 46.4653C36.0175 46.4615 36.0123 46.4577 36.0066 46.4547C35.9932 46.4467 35.9792 46.4403 35.9653 46.434C35.9538 46.4287 35.9424 46.4235 35.9314 46.4175C35.9243 46.4139 35.9171 46.4103 35.91 46.4067C35.8834 46.3932 35.8569 46.3798 35.8291 46.3677C35.7802 46.3455 35.7312 46.3244 35.6803 46.3066L35.6568 46.299C35.5363 46.2581 35.4121 46.2298 35.2864 46.2136C35.2825 46.2131 35.2787 46.2121 35.2749 46.2111C35.2696 46.2098 35.2643 46.2084 35.2589 46.2084H35.2524C35.2115 46.2035 35.1711 46.1991 35.1303 46.1991C35.0603 46.1954 34.9903 46.1954 34.9208 46.1991H34.9135C34.1062 46.2379 33.4122 46.7843 33.185 47.56C33.1843 47.5622 33.1834 47.5645 33.1826 47.5668C33.1807 47.5715 33.1789 47.5764 33.1789 47.581C33.1759 47.5918 33.1728 47.6026 33.1697 47.6134C33.1611 47.6437 33.1525 47.6742 33.1453 47.7052C33.1413 47.7136 33.1413 47.7221 33.1413 47.7314C33.1267 47.7998 33.1154 47.8689 33.1081 47.9385C32.9836 48.8703 32.5783 49.7427 31.9462 50.4387L24.7312 58.8876C24.3203 59.3616 23.7618 59.6843 23.1459 59.8032C23.1378 59.8043 23.1296 59.8053 23.1214 59.8063C23.1056 59.8083 23.0896 59.8102 23.0739 59.8129C22.9125 59.844 22.756 59.8958 22.6084 59.967L22.6011 59.9702C22.5372 60.0014 22.4749 60.0362 22.4147 60.0742C22.3948 60.0843 22.377 60.0948 22.3601 60.1061C22.3055 60.1429 22.2529 60.1822 22.2023 60.2242C22.1991 60.2266 22.1957 60.2289 22.1924 60.2313C22.1836 60.2375 22.1748 60.2437 22.1684 60.2493C22.163 60.2539 22.1584 60.2587 22.1538 60.2634C22.1508 60.2665 22.1477 60.2697 22.1445 60.2727C22.1028 60.3087 22.064 60.3464 22.0276 60.3856L22.009 60.4062C21.774 60.6561 21.6111 60.9651 21.5383 61.3004C21.4093 61.8892 21.5609 62.5044 21.9484 62.9658L21.9682 62.9873C22.0054 63.0305 22.043 63.073 22.0838 63.1122L22.0891 63.1183C22.1126 63.1429 22.1373 63.163 22.1621 63.1831C22.1719 63.1911 22.1817 63.199 22.1914 63.2073C22.199 63.2135 22.2064 63.2201 22.2137 63.2267C22.221 63.2334 22.2284 63.24 22.2359 63.2461C22.2893 63.2882 22.3451 63.327 22.4025 63.3634C22.4087 63.3673 22.4155 63.3709 22.4221 63.3745C22.4272 63.3773 22.4322 63.38 22.4369 63.3828C22.4838 63.4107 22.5307 63.4382 22.5793 63.4613C22.591 63.467 22.6027 63.4721 22.6143 63.4771C22.6239 63.4813 22.6335 63.4854 22.6432 63.49L22.6432 63.49C22.6833 63.5078 22.7233 63.5256 22.7645 63.5405C22.7859 63.549 22.8114 63.5568 22.8357 63.5643L22.8425 63.5664C22.8806 63.5785 22.919 63.5903 22.9582 63.6C22.9869 63.6073 23.0136 63.6133 23.0415 63.6186C23.0816 63.6271 23.122 63.6335 23.162 63.6396C23.1702 63.6407 23.1784 63.6421 23.1866 63.6434C23.2056 63.6466 23.2245 63.6497 23.2437 63.6497C23.2894 63.6542 23.3359 63.6574 23.3816 63.6574C23.399 63.6606 23.4156 63.6606 23.433 63.6606H23.4484C23.528 63.6602 23.6081 63.6546 23.6874 63.6441C23.6952 63.6431 23.7027 63.6414 23.71 63.6398C23.7207 63.6374 23.7312 63.6352 23.742 63.6352C23.8095 63.6242 23.8763 63.6101 23.9422 63.5919L23.9802 63.5814C24.1529 63.5308 24.3171 63.4564 24.4687 63.3597Z" fill="#626262"/>
<path d="M60.3848 73.2123V68.4954H67.1723V72.9247C67.1723 74.5351 67.7478 75.1106 69.3008 75.1106H80.2296C81.7822 75.1106 82.3581 74.5351 82.3581 72.9247V68.093C82.3581 66.2525 81.6103 65.6778 79.7123 65.275L68.7831 62.8585C63.9514 61.7674 60.5 60.04 60.5 54.5758V49.0534C60.5 43.5883 63.088 41 68.5526 41H80.575C86.04 41 88.6283 43.5883 88.6283 49.0534V53.3646H81.8995V49.3409C81.8995 47.7305 81.3244 47.155 79.7168 47.155H69.5879C67.9775 47.155 67.402 47.7305 67.402 49.3409V53.5975C67.402 55.4385 68.1498 56.014 70.106 56.4738L80.9774 58.832C85.8669 59.9236 89.2609 61.6513 89.2609 67.1155V73.2123C89.2609 78.6769 86.6725 81.2656 81.2075 81.2656H68.4369C62.9727 81.2656 60.3848 78.6753 60.3848 73.2123Z" fill="#3D3D3D"/>
<path d="M98.4668 73.2123V49.0534C98.4668 43.5883 101.055 41 106.52 41H119.923C125.387 41 127.976 43.5883 127.976 49.0534V53.8276H121.075V49.4562C121.075 47.9028 120.5 47.3277 118.889 47.3277H107.555C105.945 47.3277 105.37 47.9028 105.37 49.4562V72.8094C105.37 74.3629 105.945 74.9379 107.555 74.9379H118.888C120.498 74.9379 121.073 74.3629 121.073 72.8094V65.6199H112.505V59.522H127.978V73.2123C127.978 78.6769 125.39 81.2656 119.925 81.2656H106.52C101.055 81.2656 98.4668 78.6753 98.4668 73.2123Z" fill="#3D3D3D"/>
<path d="M136.316 73.2123V68.4954H143.104V72.9247C143.104 74.5351 143.679 75.1106 145.232 75.1106H156.162C157.715 75.1106 158.29 74.5351 158.29 72.9247V68.093C158.29 66.2525 157.543 65.6778 155.644 65.275L144.715 62.8585C139.883 61.7674 136.432 60.04 136.432 54.5758V49.0534C136.432 43.5883 139.021 41 144.485 41H156.507C161.972 41 164.56 43.5883 164.56 49.0534V53.3646H157.829V49.3409C157.829 47.7305 157.254 47.155 155.646 47.155H145.52C143.909 47.155 143.334 47.7305 143.334 49.3409V53.5975C143.334 55.4385 144.081 56.014 146.037 56.4738L156.909 58.832C161.799 59.9236 165.193 61.6513 165.193 67.1155V73.2123C165.193 78.6769 162.604 81.2656 157.14 81.2656H144.369C138.904 81.2656 136.316 78.6753 136.316 73.2123Z" fill="#3D3D3D"/>
<path d="M165.359 41.6642H166.699V45.249H167.237V41.6642H168.581V41.1841H165.361L165.359 41.6642Z" fill="#3D3D3D"/>
<path d="M172.274 41.1841L171.302 44.0123C171.204 44.2994 171.131 44.5166 171.084 44.6638C171.043 44.5308 170.978 44.3306 170.89 44.0636L169.928 41.1841H169.119V45.249H169.638V41.7887L170.814 45.249H171.299L172.481 41.8462V45.249H172.998V41.1841H172.274Z" fill="#3D3D3D"/>
</svg>
