<svg width="184" height="123" viewBox="0 0 184 123" fill="none" xmlns="http://www.w3.org/2000/svg">
<g clip-path="url(#clip0_9695_2390)">
<path d="M10.4452 52.5522C10.4452 52.7315 10.4139 52.9079 10.1778 52.9079C9.94161 52.9079 9.91032 52.7315 9.88186 52.4925C9.70261 51.2747 7.24139 50.9475 6.3508 50.9475C3.32336 50.9475 2.1084 53.0246 2.1084 54.5383C2.1084 59.7026 11.8423 57.6568 11.8423 64.184C11.8423 67.8943 8.39944 69.9401 4.86553 69.9401C3.49977 69.9401 1.69013 69.6442 0.415419 69.1377C0.176411 67.6837 0 66.7049 0 66.4972C0 66.2895 0.119504 66.1729 0.298761 66.1729C0.594676 66.1729 0.654428 66.4688 0.685727 66.7049C1.04139 68.3695 3.97778 68.9613 5.34355 68.9613C7.86736 68.9613 10.3286 67.6553 10.3286 65.103C10.3286 59.2843 0.685727 61.8081 0.685727 55.1301C0.685727 52.1027 3.91803 49.9658 7.24423 49.9658C8.22303 49.9658 9.49774 50.0825 10.4481 50.5292V52.5465L10.4452 52.5522Z" fill="#171717"/>
<path d="M16.0335 55.6815C16.0335 52.2984 15.9453 51.7038 15.2026 51.7038H13.4528V50.9014H19.832V51.7038H18.6455C18.287 51.7038 17.9598 51.7038 17.9598 51.9997V69.0063C17.9598 72.893 15.4103 75.2973 11.2846 75.2973C10.781 75.2973 10.2745 75.2688 9.77089 75.1209C9.59448 74.1421 9.35547 73.3113 9.35547 73.1633C9.35547 72.984 9.47497 72.8958 9.65423 72.8958C9.80219 72.8958 9.92169 72.9556 9.98144 73.1633C10.1607 74.0254 11.407 74.3213 12.1467 74.3213C14.3149 74.3213 16.0363 72.6881 16.0363 68.9778V55.6815H16.0335Z" fill="#171717"/>
<path d="M25.0967 59.9837C25.8991 60.2511 26.7584 60.3678 27.5892 60.3678C30.1699 60.3678 32.3381 59.0931 32.3381 56.3018C32.3381 55.1153 31.7747 51.8802 27.4697 51.8802H26.1921C25.6288 51.8802 25.0938 51.8802 25.0938 52.1761V59.9837H25.0967ZM25.0967 64.6131C25.0967 68.8583 25.4239 68.9465 26.0755 68.9465H27.7372V69.746H21.3579V68.9465H22.5757C22.9029 68.9465 23.1676 68.8868 23.1676 68.6477V55.6787C23.1676 52.2956 23.0793 51.7009 22.3367 51.7009H20.584V50.9014H28.42C32.2783 50.9014 34.2672 53.3028 34.2672 55.7982C34.2672 59.4203 31.0321 61.1702 27.7685 61.1702C26.8779 61.1702 25.956 61.0507 25.0967 60.7861V64.6131Z" fill="#171717"/>
<path d="M47.5489 59.9837C48.3513 60.2511 49.2106 60.3678 50.0414 60.3678C52.6222 60.3678 54.7875 59.0931 54.7875 56.3018C54.7875 55.1153 54.2241 51.8802 49.9219 51.8802H48.6444C48.081 51.8802 47.5461 51.8802 47.5461 52.1761V59.9837H47.5489ZM47.5489 64.6131C47.5489 68.8583 47.8761 68.9465 48.5277 68.9465H50.1894V69.746H43.8102V68.9465H45.028C45.3552 68.9465 45.6226 68.8868 45.6226 68.6477V55.6787C45.6226 52.2956 45.5316 51.7009 44.7918 51.7009H43.0391V50.9014H50.8751C54.7334 50.9014 56.7223 53.3028 56.7223 55.7982C56.7223 59.4203 53.4871 61.1702 50.2207 61.1702C49.333 61.1702 48.4111 61.0507 47.5518 60.7861V64.6131H47.5489Z" fill="#171717"/>
<path d="M59.713 60.4304H61.3747C64.018 60.4304 66.9572 59.5398 66.9572 56.3047C66.9572 55.1182 66.3938 51.883 62.0888 51.883H60.8113C60.2479 51.883 59.713 51.883 59.713 52.1818V60.4333V60.4304ZM57.7838 55.6815C57.7838 52.2984 57.6928 51.7038 56.953 51.7038H55.2031V50.9014H63.0392C66.8975 50.9014 68.8864 53.3028 68.8864 55.7982C68.8864 58.7061 66.778 60.3707 64.0777 60.8743C67.0141 65.0882 69.1823 67.8482 70.1326 68.6193C70.548 68.9465 70.8753 68.9465 71.8256 68.9465V69.7489H68.7697C68.1466 69.7489 67.9673 69.5099 62.1514 61.2328H59.7187V64.6159C59.7187 68.8611 60.0459 68.9493 60.7003 68.9493H62.362V69.7517H55.9827V68.9493H57.1977C57.5278 68.9493 57.7952 68.8896 57.7952 68.6506V55.6815H57.7838Z" fill="#171717"/>
<path d="M80.2827 50.8536C77.3464 50.8536 73.0414 52.7827 73.0414 59.6684C73.0414 66.5541 76.9878 69.0467 80.8774 69.0467C83.8138 69.0467 88.1188 67.1175 88.1188 60.2346C88.1188 53.3518 84.1723 50.8564 80.2827 50.8564M80.8177 49.9658C86.901 49.9658 90.0451 54.0318 90.0451 59.6713C90.0451 65.3107 86.2181 69.9373 80.3397 69.9373C74.4612 69.9373 71.1094 65.8713 71.1094 60.2346C71.1094 54.598 74.9364 49.9658 80.8148 49.9658" fill="#171717"/>
<path d="M94.3302 59.9837C95.1326 60.2511 95.9919 60.3678 96.8227 60.3678C99.4034 60.3678 101.569 59.0931 101.569 56.3018C101.569 55.1153 101.005 51.8802 96.7003 51.8802H95.4228C94.8594 51.8802 94.3245 51.8802 94.3245 52.1761V59.9837H94.3302ZM94.3302 64.6131C94.3302 68.8583 94.6574 68.9465 95.309 68.9465H96.9706V69.746H90.5914V68.9465H91.8064C92.1364 68.9465 92.401 68.8868 92.401 68.6477V55.6787C92.401 52.2956 92.3128 51.7009 91.5702 51.7009H89.8203V50.9014H97.6564C101.515 50.9014 103.504 53.3028 103.504 55.7982C103.504 59.4203 100.268 61.1702 97.0048 61.1702C96.1142 61.1702 95.1923 61.0507 94.333 60.7861V64.6131H94.3302Z" fill="#171717"/>
<path d="M102.926 50.9042H116.876L116.578 52.95C116.518 53.3085 116.518 53.4565 116.31 53.4565C116.071 53.4565 116.043 53.2772 116.014 53.1008C115.954 52.6256 115.599 52.4492 115.124 52.3013C113.877 51.9143 112.096 51.883 110.73 51.883H108.534C107.97 51.883 107.435 51.883 107.435 52.1818V58.948H110.252C114.498 58.948 114.674 58.6208 114.674 57.9692V56.7827H115.417V61.7108H114.674V60.6125C114.674 59.9296 114.674 59.8414 111.203 59.8414H107.433V64.6187C107.433 68.7729 107.64 68.7729 108.65 68.7729H110.548C112.002 68.7729 116.427 68.7729 117.019 67.319C117.078 67.171 117.135 67.0231 117.346 67.0231C117.462 67.0231 117.554 67.1113 117.554 67.2308C117.554 67.4072 117.198 68.5055 116.811 69.7517H103.691V68.9493H104.906C105.233 68.9493 105.501 68.8896 105.501 68.6506V55.6815C105.501 52.2984 105.412 51.7038 104.67 51.7038H102.92V50.9014L102.926 50.9042Z" fill="#171717"/>
<path d="M122.405 60.4304H124.067C126.707 60.4304 129.647 59.5398 129.647 56.3047C129.647 55.1182 129.083 51.883 124.778 51.883H123.501C122.937 51.883 122.402 51.883 122.402 52.1818V60.4333L122.405 60.4304ZM120.476 55.6815C120.476 52.2984 120.388 51.7038 119.645 51.7038H117.893V50.9014H125.729C129.587 50.9014 131.576 53.3028 131.576 55.7982C131.576 58.7061 129.467 60.3707 126.767 60.8743C129.706 65.0882 131.875 67.8482 132.822 68.6193C133.237 68.9465 133.565 68.9465 134.512 68.9465V69.7489H131.456C130.833 69.7489 130.654 69.5099 124.838 61.2328H122.405V64.6159C122.405 68.8611 122.732 68.9493 123.384 68.9493H125.046V69.7517H118.667V68.9493H119.881C120.209 68.9493 120.476 68.8896 120.476 68.6506V55.6815Z" fill="#171717"/>
<path d="M144.913 69.7489H137.137V68.9465H139.274C139.598 68.9465 139.866 68.8868 139.866 68.6506V51.8233C138.084 51.8233 134.201 51.7948 133.543 53.2772C133.455 53.4565 133.367 53.6613 133.159 53.6613C133.011 53.6613 132.863 53.6016 132.863 53.4223C132.863 53.2744 132.923 52.9785 133.663 50.9014H147.998C148.74 52.9785 148.797 53.2744 148.797 53.4223C148.797 53.6016 148.649 53.6613 148.501 53.6613C148.294 53.6613 148.205 53.4536 148.114 53.2772C147.463 51.792 143.573 51.8233 141.795 51.8233V64.6159C141.795 68.8583 142.122 68.9493 142.774 68.9493H144.91V69.7517L144.913 69.7489Z" fill="#171717"/>
<path d="M153.277 64.6102C153.277 68.8555 153.605 68.9437 154.256 68.9437H155.921V69.746H149.539V68.9437H150.754C151.084 68.9437 151.351 68.8839 151.351 68.6477V55.6787C151.351 52.2956 151.26 51.7038 150.52 51.7038H148.768V50.9014H155.15V51.7038H153.96C153.605 51.7038 153.277 51.7038 153.277 51.9997V64.6131V64.6102Z" fill="#171717"/>
<path d="M156.252 50.9042H170.2L169.904 52.95C169.844 53.3085 169.844 53.4565 169.636 53.4565C169.4 53.4565 169.369 53.2772 169.341 53.1008C169.281 52.6256 168.925 52.4492 168.45 52.3013C167.204 51.9143 165.422 51.883 164.057 51.883H161.86C161.297 51.883 160.762 51.883 160.762 52.1818V58.948H163.582C167.824 58.948 168.003 58.6208 168.003 57.9692V56.7827H168.746V61.7108H168.003V60.6125C168.003 59.9296 168.003 59.8414 164.532 59.8414H160.762V64.6187C160.762 68.7729 160.97 68.7729 161.98 68.7729H163.88C165.331 68.7729 169.756 68.7729 170.351 67.319C170.41 67.171 170.467 67.0231 170.678 67.0231C170.794 67.0231 170.886 67.1113 170.886 67.2308C170.886 67.4072 170.53 68.5055 170.143 69.7517H157.026V68.9493H158.241C158.568 68.9493 158.836 68.8896 158.836 68.6506V55.6815C158.836 52.2984 158.747 51.7038 158.005 51.7038H156.252V50.9014V50.9042Z" fill="#171717"/>
<path d="M182.603 52.5522C182.603 52.7315 182.572 52.9079 182.336 52.9079C182.1 52.9079 182.069 52.7315 182.04 52.4925C181.861 51.2747 179.397 50.9475 178.506 50.9475C175.479 50.9475 174.264 53.0246 174.264 54.5383C174.264 59.7026 184.001 57.6568 184.001 64.184C184.001 67.8943 180.558 69.9401 177.027 69.9401C175.661 69.9401 173.848 69.6442 172.574 69.1377C172.335 67.6837 172.158 66.7049 172.158 66.4972C172.158 66.2895 172.275 66.1729 172.454 66.1729C172.75 66.1729 172.81 66.4688 172.841 66.7049C173.197 68.3695 176.133 68.9613 177.499 68.9613C180.023 68.9613 182.484 67.6553 182.484 65.103C182.484 59.2843 172.838 61.8081 172.838 55.1301C172.838 52.1027 176.073 49.9658 179.397 49.9658C180.376 49.9658 181.65 50.0825 182.601 50.5292V52.5465L182.603 52.5522Z" fill="#171717"/>
<path d="M38.9452 47.1582H37.4258V75.2275H38.9452V47.1582Z" fill="#BDBDBD"/>
</g>
<defs>
<clipPath id="clip0_9695_2390">
<rect width="183.998" height="122.665" fill="white"/>
</clipPath>
</defs>
</svg>
