<svg width="184" height="123" viewBox="0 0 184 123" fill="none" xmlns="http://www.w3.org/2000/svg">
<path d="M90.9475 17C81.2081 17 73.2852 24.9417 73.2852 34.704C73.2852 44.4663 81.2081 52.408 90.9475 52.408C100.687 52.408 108.61 44.4663 108.61 34.704C108.61 24.9417 100.687 17 90.9475 17ZM90.9475 49.3363C82.8978 49.3363 76.3496 42.7727 76.3496 34.704C76.3496 26.6353 82.8978 20.0717 90.9475 20.0717C98.9972 20.0717 105.545 26.6353 105.545 34.704C105.545 42.7727 98.9972 49.3363 90.9475 49.3363Z" fill="#3D3D3D"/>
<path d="M96.1932 29.7637C93.3182 29.7637 91.7302 31.4671 90.3303 32.9708C90.1172 33.1998 89.9166 33.4148 89.7105 33.627C89.4681 33.8755 89.2369 34.1324 89.014 34.381C87.8941 35.625 87.1336 36.3873 85.6821 36.3873C83.6276 36.3873 82.4004 34.7063 82.4004 33.0811H79.3359C79.3359 34.744 79.9628 36.3189 81.1022 37.5155C82.2931 38.7693 83.9201 39.459 85.6821 39.459C88.5697 39.459 90.1409 37.7137 91.2887 36.439C91.5018 36.203 91.7024 35.9796 91.9029 35.7744C92.1342 35.537 92.357 35.2983 92.5715 35.0679C93.899 33.6424 94.7222 32.8367 96.1946 32.8367C98.2338 32.8367 99.4958 34.5792 99.4958 36.1932H102.56C102.56 32.6482 99.7047 29.7651 96.1946 29.7651L96.1932 29.7637Z" fill="#3D3D3D"/>
<path d="M41.066 70.1251C39.3318 69.2623 38.8916 68.4567 38.886 67.5896C38.8805 66.7226 39.7413 65.7131 41.4546 65.956C43.1679 66.199 44.1276 68.2389 44.1276 68.2389L44.9355 67.4249C44.9355 67.4249 44.799 66.9948 43.8839 66.1348C43.0161 65.3166 42.002 65.0345 40.8542 65.0792C39.7065 65.1239 38.3985 65.6628 37.7564 66.7449C37.1142 67.8284 36.954 69.1031 37.833 70.5636C38.737 72.0659 41.3571 72.7654 42.4115 73.7427C43.466 74.7201 43.388 75.8496 42.8113 76.5659C42.2346 77.2807 41.3139 77.5376 40.1424 77.1816C38.971 76.8256 37.9054 74.9463 37.9054 74.9463L37 75.8706C37 75.8706 37.7856 77.3603 39.4432 77.9398C41.1008 78.5206 43.218 78.2357 44.3407 77.1118C45.4634 75.9878 45.6807 74.1742 45.0344 72.8603C44.3881 71.5465 42.8002 70.9908 41.066 70.1265V70.1251Z" fill="#3D3D3D"/>
<path d="M67.0621 91.6237C65.3279 90.7608 64.8877 89.9552 64.8821 89.0882C64.8765 88.2211 65.7374 87.2116 67.4507 87.4546C69.164 87.6975 70.1237 89.7374 70.1237 89.7374L70.9316 88.9234C70.9316 88.9234 70.7951 88.4934 69.8799 87.6333C69.0122 86.8151 67.9981 86.5331 66.8503 86.5778C65.7026 86.6224 64.3946 87.1614 63.7525 88.2434C63.1103 89.3269 62.9501 90.6016 63.8291 92.0621C64.7331 93.5644 67.3532 94.2639 68.4076 95.2413C69.4621 96.2186 69.3841 97.3482 68.8074 98.0644C68.2307 98.7807 67.31 99.0362 66.1385 98.6801C64.9671 98.3241 63.9015 96.4448 63.9015 96.4448L62.9961 97.3691C62.9961 97.3691 63.7817 98.8589 65.4393 99.4383C67.0969 100.019 69.2141 99.7343 70.3368 98.6103C71.4595 97.4864 71.6768 95.6727 71.0305 94.3589C70.3842 93.045 68.7963 92.4893 67.0621 91.6251V91.6237Z" fill="#3D3D3D"/>
<path d="M52.7413 74.4519L48.4191 65.3584H45.8965L51.6159 77.363C51.6159 77.363 51.4431 77.8433 50.8567 79.2689C50.5698 79.9684 50.0084 81.4498 49.0947 81.5768C48.355 81.6801 48.3285 81.1859 47.6544 80.9429C46.8297 80.6455 45.8672 81.3213 45.9731 82.3908C46.0762 83.4394 47.4594 83.9671 48.6141 83.6167C50.2466 83.1196 51.1409 81.6773 51.8986 79.7631C52.6564 77.8489 57.4439 65.3598 57.4439 65.3598H56.2682L52.7413 74.4533V74.4519Z" fill="#3D3D3D"/>
<path d="M135.794 74.451L131.472 65.3574H128.949L134.669 77.3621C134.669 77.3621 134.496 77.8424 133.909 79.2679C133.622 79.9674 133.061 81.4488 132.147 81.5758C131.408 81.6792 131.381 81.1849 130.707 80.942C129.882 80.6446 128.92 81.3203 129.026 82.3898C129.129 83.4384 130.512 83.9662 131.667 83.6157C133.299 83.1187 134.194 81.6764 134.951 79.7622C135.709 77.8479 140.497 65.3588 140.497 65.3588H139.321L135.794 74.4524V74.451Z" fill="#3D3D3D"/>
<path d="M73.9336 99.5144H76.1511V81.6191H75.4853L73.9336 82.6984V99.5144Z" fill="#3D3D3D"/>
<path d="M125.013 65.145C124.049 64.9384 122.945 65.272 121.772 66.1768C121.026 66.752 120.464 67.3468 120.142 67.7168V65.3502H117.926V77.9343H120.142V68.5308C120.74 67.9165 122.417 66.3946 123.8 66.8679C125.331 67.3915 125.346 69.1856 125.346 69.1856V77.9329H127.562V68.5783C127.562 66.3122 125.977 65.3488 125.012 65.1436L125.013 65.145Z" fill="#3D3D3D"/>
<path d="M92.3119 61.1266V77.9426H94.5281V68.352C95.2385 67.665 96.7415 66.4433 98.0007 66.8748C99.5315 67.3984 99.5468 69.1925 99.5468 69.1925V77.9398H101.763V68.5851C101.763 66.3191 100.178 65.3557 99.2125 65.1505C98.2486 64.9438 97.144 65.2775 95.9712 66.1823C95.3527 66.6598 94.861 67.1498 94.5267 67.5142V60.0459H93.8623L92.3105 61.1266H92.3119Z" fill="#3D3D3D"/>
<path d="M73.6017 65.1522C72.6378 64.9456 71.2379 65.2039 70.0804 66.184C69.409 66.7523 68.9368 67.3331 68.6568 67.7227C68.3155 66.0709 67.0243 65.3295 66.1927 65.1522C65.2288 64.9456 64.1242 65.2793 62.9513 66.184C62.2061 66.7593 61.6434 67.3541 61.3216 67.7241V65.3575H59.1055V77.9415H61.3216V68.538C61.9192 67.9237 63.5963 66.4018 64.9795 66.8752C66.5103 67.3987 66.5256 69.1929 66.5256 69.1929V77.9402H68.7418V68.5855C68.7418 68.5618 68.7418 68.538 68.7404 68.5143C69.3226 67.8846 70.8855 66.3977 72.3884 66.8738C73.9304 67.3624 73.9346 69.1915 73.9346 69.1915V77.9388H76.1507V68.5841C76.1507 66.3181 74.5656 65.3547 73.6003 65.1494L73.6017 65.1522Z" fill="#3D3D3D"/>
<path d="M111.702 65.36C108.589 64.3338 104.94 66.2703 104.122 69.8181C103.323 73.2891 104.632 76.9179 107.744 77.9427C110.857 78.9689 114.608 77.0854 115.394 73.532C116.231 69.7483 114.814 66.3848 111.702 65.36ZM109.833 77.2753C107.985 77.2753 106.461 75.3848 106.411 71.643C106.359 67.7964 107.834 66.0106 109.681 66.0106C111.528 66.0106 113.052 67.8788 113.104 71.643C113.158 75.6571 111.68 77.2753 109.833 77.2753Z" fill="#3D3D3D"/>
<path d="M83.0646 65.8026C82.2929 66.4072 81.7664 67.0564 81.4056 67.6679V65.3586H79.1895V83.2539H81.4056V77.2166C81.5714 77.3688 81.79 77.5336 82.0784 77.6746C82.8863 78.0711 86.2349 79.3249 88.3062 76.4376C90.3775 73.5502 89.8426 69.6436 89.128 67.795C88.4134 65.9464 85.615 63.8102 83.0646 65.804V65.8026ZM86.845 75.4532C86.0371 77.2739 84.1803 78.0809 82.7163 76.8397C81.4376 75.7562 81.4878 75.3443 81.4056 74.6518V68.6956C81.6271 68.2865 82.084 67.5995 82.8292 67.1835C83.9407 66.5635 85.6666 66.2173 86.6152 68.3633C87.5637 70.5078 87.6529 73.634 86.845 75.4546V75.4532Z" fill="#3D3D3D"/>
<path d="M107.992 87.3514C107.221 87.956 106.694 88.6052 106.333 89.2168V86.9074H104.117V104.803H106.333V98.7655C106.499 98.9177 106.718 99.0824 107.006 99.2234C107.814 99.62 111.163 100.874 113.234 97.9864C115.305 95.099 114.77 91.1924 114.056 89.3438C113.341 87.4952 110.543 85.359 107.992 87.3528V87.3514ZM111.773 97.0021C110.965 98.8227 109.108 99.6297 107.644 98.3885C106.365 97.305 106.416 96.8932 106.333 96.2006V90.2444C106.555 89.8353 107.012 89.1484 107.757 88.7323C108.868 88.1124 110.594 87.7661 111.543 89.9121C112.491 92.0567 112.581 95.1828 111.773 97.0035V97.0021Z" fill="#3D3D3D"/>
<path d="M89.6133 91.9024C89.3682 89.4772 88.0365 87.5532 85.8092 86.8202C82.71 85.8009 79.6692 87.7724 78.9365 91.3272C78.1941 94.9252 79.6441 98.2384 82.1765 99.3303C84.5291 100.345 88.3471 99.7352 89.52 95.0271L88.7985 94.6348C88.1354 96.8925 86.1686 97.9997 84.7478 97.8545C82.8465 97.6604 80.8225 95.3915 80.7557 92.7764C80.7404 92.1886 80.7752 91.901 80.7752 91.901H89.6133V91.9024ZM83.6822 87.4987C85.4861 87.4178 86.6213 88.6395 86.9096 90.8134H80.934C81.2683 88.8517 82.3394 87.5588 83.6822 87.4987Z" fill="#3D3D3D"/>
<path d="M102.055 91.9024C101.81 89.4772 100.478 87.5532 98.2506 86.8202C95.1514 85.8009 92.1106 87.7724 91.3779 91.3272C90.6355 94.9252 92.0855 98.2384 94.6179 99.3303C96.9705 100.345 100.789 99.7352 101.961 95.0271L101.24 94.6348C100.577 96.8925 98.61 97.9997 97.1892 97.8545C95.2879 97.6604 93.2639 95.3915 93.1971 92.7764C93.1818 92.1886 93.2166 91.901 93.2166 91.901H102.055V91.9024ZM96.1236 87.4987C97.9275 87.4178 99.0627 88.6395 99.351 90.8134H93.3754C93.7097 88.8517 94.7808 87.5588 96.1236 87.4987Z" fill="#3D3D3D"/>
<path d="M144.056 62.5246L143.94 62.3038C144.115 62.2423 144.231 62.2036 144.308 62.1535C144.406 62.0738 144.492 61.9713 144.54 61.8301C144.57 61.7391 144.588 61.6389 144.588 61.5478C144.579 61.3064 144.501 61.1357 144.335 60.9831C144.199 60.8715 144.006 60.8123 143.762 60.8123L143.394 60.8214L142.996 60.8306L142.676 60.8101L142.696 60.9922C142.705 61.0924 142.705 61.245 142.705 61.4362V63.0187C142.705 63.251 142.705 63.4013 142.696 63.5015L142.676 63.7428L142.996 63.7337L143.326 63.7428L143.317 63.5106C143.308 63.3694 143.296 63.2077 143.296 63.0165V62.3607L143.403 62.5315C143.519 62.7227 143.617 62.8844 143.685 63.0142L143.947 63.5083L144.072 63.7405L144.42 63.7314L144.826 63.7405L144.663 63.5083C144.479 63.235 144.285 62.914 144.051 62.5201L144.056 62.5246ZM143.803 61.9895C143.706 62.1307 143.59 62.1922 143.444 62.1922H143.299V61.0833L143.444 61.0742C143.765 61.0742 143.928 61.2359 143.928 61.5683C143.919 61.7391 143.881 61.8711 143.803 61.9918V61.9895Z" fill="#3D3D3D"/>
<path d="M145.663 61.0937C145.445 60.6923 145.159 60.3953 144.783 60.1703C144.386 59.9336 143.982 59.8315 143.546 59.8315C143.11 59.8315 142.694 59.9545 142.318 60.1796C141.933 60.4046 141.645 60.7039 141.439 61.0937C141.22 61.5136 141.111 61.9359 141.111 62.3675C141.111 63.096 141.348 63.6923 141.833 64.1749C142.309 64.6667 142.882 64.915 143.555 64.915C143.992 64.915 144.407 64.792 144.783 64.5762C145.168 64.3396 145.456 64.0426 145.663 63.6528C145.881 63.2422 145.999 62.8199 145.999 62.3698C145.99 61.9174 145.881 61.4858 145.663 61.096V61.0937ZM145.02 63.8964C144.614 64.3164 144.129 64.5322 143.555 64.5322C143.179 64.5229 142.833 64.4393 142.506 64.2445C142.179 64.0496 141.921 63.7827 141.745 63.4533C141.557 63.0937 141.478 62.734 141.478 62.3651C141.478 61.7596 141.687 61.2468 142.081 60.8362C142.488 60.4139 142.982 60.2097 143.555 60.2097C144.129 60.2097 144.614 60.4255 145.02 60.8454C145.435 61.2654 145.633 61.7689 145.633 62.3651C145.633 62.9614 145.424 63.4742 145.02 63.8964Z" fill="#3D3D3D"/>
</svg>
