<svg width="184" height="123" viewBox="0 0 184 123" fill="none" xmlns="http://www.w3.org/2000/svg">
<g clip-path="url(#clip0_9243_433)">
<path fill-rule="evenodd" clip-rule="evenodd" d="M114.504 29.0567V25H98.4335V47.2715H114.504V43.5976H102.905V37.5511H113.063V33.5714H102.905V29.0567H114.504ZM110.032 49.5678V58.1393H101.238V49.5678H96.6918V71.7639H101.238V61.8132H110.032V71.7639H114.504V49.5678H110.032ZM114.504 78.0374V74.0594H98.4335V96.635H114.504V92.5808H102.905V86.6097H113.063V82.9374H102.905V78.0374H114.504ZM95.8575 25H91.3856V33.5714H82.5935V25H78.1215V47.2715H82.5935V37.3224H91.3856V47.2715H95.8575V25ZM58.8703 25V29.0567H65.6918V47.2715H70.1638V29.0567H76.9853V25H58.8703ZM44.7728 48.9548C37.724 48.9548 34.0101 53.0115 34.0101 60.6642C34.0101 68.7005 37.724 72.6802 44.7728 72.6802C51.8215 72.6802 55.4599 68.7005 55.4599 60.6642C55.4599 52.6279 51.8215 48.9548 44.7728 48.9548ZM38.861 60.6642C38.861 55.5364 40.8316 53.0107 44.7728 53.0107C49.0174 53.0107 50.988 55.5364 50.988 60.6642C50.988 66.0994 49.0174 68.7005 44.7728 68.7005C40.8316 68.7005 38.861 66.0994 38.861 60.6642ZM27.5676 49.567V65.2569L18.7747 49.5678H14V71.7639H18.2447V56.1503L27.264 71.7639H32.0387V49.5678H27.5668L27.5676 49.567ZM48.4112 83.2422V78.0366H59.7046V74.0586H43.9392V96.6342H48.4112V87.2219H58.3403V83.2422H48.4112ZM95.0248 53.5475V49.5678H76.9845V53.5475H83.7305V71.7639H88.2779V53.5475H95.0248ZM67.0553 63.2687C68.4951 63.2687 69.6322 63.4973 70.1629 64.1095L70.9965 71.7639H76.0747V71.228C75.5439 70.9206 75.2411 69.5438 75.2411 66.941C75.2411 63.8039 74.1041 62.1197 72.4371 61.2772C74.7112 60.3586 75.8474 58.6752 75.8474 55.843C75.8474 51.8633 73.5733 49.567 68.7986 49.567H57.7324V71.7631H62.2798V63.2679H67.0545L67.0553 63.2687ZM62.2807 59.5177V53.5483H67.8896C70.1638 53.5483 71.3 54.3899 71.3 56.3797C71.3 58.3696 70.1629 59.5177 67.6616 59.5177H62.2798H62.2807ZM70.1629 74.0603H64.7812L56.8989 96.6358H61.6736L63.4169 91.7383H71.6027L72.967 96.6358H77.818L70.1629 74.0603ZM67.3589 79.1856L70.1629 88.066H64.554L67.358 79.1856H67.3589ZM92.2207 81.4819H96.6926C96.4646 79.4929 95.8575 77.8096 94.4924 76.3541C92.5226 74.67 90.2493 73.5226 87.1417 73.5226C84.0341 73.5226 81.7599 74.6708 79.7894 76.6614C78.1215 78.6504 76.9853 81.4819 76.9853 85.2329C76.9853 93.1921 80.3202 97.1701 86.8382 97.1701C92.5226 97.1701 95.6294 94.3387 96.6926 88.9052H92.2207C91.6144 91.5064 89.6431 92.8848 87.1417 92.8848C83.4278 92.8848 81.7599 90.3599 81.7599 85.4607C81.7599 80.1043 83.4278 77.5015 87.1417 77.5015C89.6431 77.5015 91.0836 78.9569 92.2207 81.4811V81.4819ZM36.0561 96.3309C36.8142 96.3309 37.4204 96.0236 37.8766 95.6425C38.2556 95.1836 38.5575 94.5714 38.5575 93.7306C38.5575 92.8111 38.254 92.1989 37.8766 91.8162C37.4221 91.4343 36.8158 91.204 36.0561 91.204H35.9806C35.0708 91.204 34.4646 91.4343 34.0856 91.8162C33.7074 92.1981 33.4793 92.8111 33.4793 93.7306V93.8052C33.4793 94.5714 33.7065 95.1836 34.0856 95.6434C34.4646 96.0253 35.0717 96.3318 35.9806 96.3318H36.0561V96.3309ZM35.9806 96.9431C34.9199 96.9431 34.1618 96.5612 33.6311 96.0236C33.1003 95.4876 32.873 94.7238 32.873 93.8043V93.7298C32.873 92.6562 33.1003 91.8916 33.6311 91.3572C34.1618 90.8213 34.9199 90.591 35.9806 90.591H36.0561C36.9659 90.591 37.724 90.8213 38.254 91.3572C38.7839 91.8932 39.1638 92.657 39.1638 93.7298C39.1638 94.7247 38.7847 95.4876 38.254 96.0236C37.6728 96.6153 36.8807 96.9472 36.0561 96.9431H35.9806ZM36.2842 93.4224H36.3597C36.6632 93.4224 36.8142 93.2684 36.8142 92.8865V92.8102C36.8142 92.8102 36.7387 92.8102 36.7387 92.734C36.6632 92.6578 36.5114 92.6578 36.2842 92.6578H35.4507V93.4241H36.2842V93.4224ZM36.815 93.9568L37.4212 94.723C37.4967 94.8746 37.4212 95.0279 37.3458 95.1049C37.194 95.259 36.9667 95.1811 36.8913 95.1049L36.1332 94.0338H35.4515V94.8746C35.4515 95.0287 35.2997 95.182 35.1479 95.182C34.9962 95.182 34.8444 95.0279 34.8444 94.8746V92.3497C34.8444 92.1956 34.9962 92.0448 35.1479 92.0448H36.3605C36.664 92.0448 36.9668 92.1194 37.1185 92.2735C37.194 92.3497 37.2703 92.3497 37.2703 92.4275C37.4221 92.5816 37.4221 92.7324 37.4221 92.8865C37.4221 93.4978 37.2703 93.8027 36.8158 93.9568H36.815ZM117.611 25C131.709 25 143.911 30.204 153.765 40.1539C163.921 50.4095 169 62.6549 169 76.9655V96.635H148.384V76.3533C148.384 68.3957 145.58 61.5067 139.895 55.843C138.53 54.3891 137.091 53.241 135.423 52.0928C130.876 48.9548 125.494 47.5772 119.885 47.5772H117.611V25H117.61H117.611ZM146.411 96.635H130.343V80.9451C130.343 78.3439 129.511 76.3533 127.767 74.6692C126.099 72.9113 123.826 72.068 121.552 72.068H117.611V49.5678H119.885C125.796 49.5678 130.874 51.252 135.423 54.6956C136.56 55.2316 137.697 56.3797 138.53 57.2214C143.913 62.6565 146.412 68.9325 146.412 76.3549V96.6358L146.411 96.635ZM128.374 96.635H117.61V74.0594H121.552C123.295 74.0594 124.962 74.67 126.402 76.0484C127.539 77.1966 128.374 78.9569 128.374 80.9459V96.6358V96.635Z" fill="#444444"/>
</g>
<defs>
<clipPath id="clip0_9243_433">
<rect width="155" height="72.1693" fill="white" transform="translate(14 25)"/>
</clipPath>
</defs>
</svg>
