<svg width="184" height="123" viewBox="0 0 184 123" fill="none" xmlns="http://www.w3.org/2000/svg">
<path d="M88.0983 68.159C83.4385 66.6441 78.1719 65.7306 74.6085 62.6964C71.3661 59.9356 69.5254 56.2089 69.5254 52.4062V25L80.1068 30.871C85.1094 33.6464 88.0983 38.2302 88.0983 43.1278V68.159Z" fill="#3D3D3D"/>
<path d="M92.5098 68.159C97.1695 66.6441 102.436 65.7306 106 62.6964C109.242 59.9356 111.083 56.2089 111.083 52.4062C111.083 52.4057 111.083 25 111.083 25L100.501 30.871C95.4987 33.6464 92.5098 38.2302 92.5098 43.1278V68.159Z" fill="#3D3D3D"/>
<path d="M29.4577 96.6788C26.8942 96.6788 25.0107 95.983 23.8074 94.5938C22.6017 93.2023 22 91.2694 22 88.7927V79.2778H25.7162V88.7144C25.7162 90.2073 26.0251 91.3177 26.6452 92.0458C27.2653 92.7761 28.2013 93.1401 29.4577 93.1401C30.7141 93.1401 31.6501 92.7761 32.2702 92.0458C32.8903 91.3177 33.1992 90.205 33.1992 88.7144V79.2778H36.9154V88.7927C36.9154 91.2694 36.3091 93.2023 35.0942 94.5938C33.8816 95.9853 32.0005 96.6788 29.4554 96.6788H29.4577Z" fill="#3D3D3D"/>
<path d="M44.7806 79.2788V92.9637H52.7732V96.3987H44.3472C43.1761 96.3987 42.337 96.1107 41.8275 95.5348C41.318 94.9588 41.0645 94.187 41.0645 93.2194V79.2788H44.7806Z" fill="#3D3D3D"/>
<path d="M66.8247 79.2788V82.7138H53.0273V79.2788H66.8247ZM58.0691 79.2788H61.7852V96.3987H58.0691V79.2788Z" fill="#3D3D3D"/>
<path d="M73.1655 96.3987H69.5V79.2788H76.0932C77.3819 79.2788 78.5461 79.4792 79.5812 79.8755C80.6162 80.2741 81.4346 80.8754 82.0386 81.6817C82.6403 82.4881 82.9423 83.4995 82.9423 84.7205C82.9423 85.6881 82.7256 86.5405 82.2922 87.2778C81.8588 88.015 81.2617 88.5956 80.4964 89.0195C79.7333 89.4434 78.825 89.6553 77.7738 89.6553L76.7802 88.9181C77.7807 88.9181 78.5783 89.0633 79.1731 89.3512C79.7679 89.6392 80.2704 90.0839 80.6877 90.6875C81.1027 91.2888 81.5407 92.0652 81.9994 93.0144L83.6546 96.3987H79.6319L78.1057 93.3461C77.8522 92.8208 77.5801 92.3785 77.292 92.0237C77.0038 91.6666 76.6511 91.3971 76.2361 91.2104C75.8212 91.0238 75.291 90.9317 74.6455 90.9317H72.8381V87.6257H76.0955C76.6903 87.6257 77.2113 87.5289 77.6608 87.3331C78.1104 87.1372 78.4677 86.8493 78.7305 86.4691C78.9933 86.0867 79.1247 85.6351 79.1247 85.1075C79.1247 84.5316 78.9933 84.0685 78.7305 83.7206C78.4677 83.3727 78.1104 83.1193 77.6608 82.9581C77.2113 82.7968 76.7064 82.7162 76.1462 82.7162H73.2185L73.1678 96.4033L73.1655 96.3987Z" fill="#3D3D3D"/>
<path d="M85.4336 96.3999L89.9659 81.6967C90.254 80.7637 90.745 80.0725 91.4412 79.6233C92.1375 79.174 92.8844 78.9482 93.682 78.9482C94.4797 78.9482 95.2727 79.174 95.9597 79.6233C96.6467 80.0725 97.1354 80.7637 97.4235 81.6967L101.953 96.3999H98.1612L94.2676 82.7911C94.1661 82.4524 93.9794 82.2819 93.7074 82.2819C93.4353 82.2819 93.2486 82.4524 93.1472 82.7911L89.2281 96.3999H85.4359H85.4336ZM98.8229 92.8888L88.9215 92.9142V89.5828H98.8229V92.8888Z" fill="#3D3D3D"/>
<path d="M107.55 96.3999H103.783L106.1 81.6714C106.252 80.7729 106.621 80.0933 107.207 79.6371C107.792 79.1786 108.518 78.9505 109.383 78.9505C110.146 78.9505 110.826 79.1326 111.418 79.4966C112.013 79.8606 112.412 80.4504 112.615 81.2636L115.492 91.9489C115.492 91.9995 115.501 92.0249 115.517 92.0249C115.533 92.0249 115.547 92.0203 115.556 92.0111C115.566 92.0018 115.57 91.9811 115.57 91.9466L118.397 81.3396C118.618 80.5079 119.033 79.902 119.644 79.5196C120.255 79.1372 120.942 78.9482 121.705 78.9482C122.553 78.9482 123.265 79.1855 123.844 79.6601C124.42 80.1347 124.768 80.8305 124.888 81.7451L127.002 96.3976H123.235L121.58 82.9662C121.58 82.8809 121.571 82.8256 121.555 82.8003C121.539 82.7749 121.504 82.7611 121.453 82.7611C121.419 82.7611 121.389 82.7749 121.364 82.8003C121.338 82.8256 121.317 82.8648 121.299 82.9155L118.118 94.2619C117.931 94.907 117.604 95.3908 117.138 95.711C116.67 96.0336 116.133 96.1949 115.522 96.1949C114.946 96.1949 114.411 96.0428 113.917 95.7364C113.424 95.43 113.104 94.9646 112.949 94.338L109.768 82.9155C109.768 82.8487 109.756 82.8049 109.729 82.7888C109.703 82.7726 109.673 82.7634 109.639 82.7634C109.588 82.7634 109.549 82.7772 109.523 82.8026C109.498 82.8279 109.484 82.874 109.484 82.9431L107.55 96.3999Z" fill="#3D3D3D"/>
<path d="M142.733 96.3987H133.519C132.348 96.3987 131.509 96.1107 130.999 95.5348C130.49 94.9588 130.236 94.187 130.236 93.2194V82.4835C130.236 81.4997 130.49 80.721 130.999 80.1428C131.509 79.5668 132.348 79.2788 133.519 79.2788H142.581V82.6102H133.952V93.065H142.733V96.3964V96.3987ZM142.046 89.5056H133.086L132.602 86.1742H142.044V89.5056H142.046Z" fill="#3D3D3D"/>
<path d="M162.001 87.8514C162.001 89.1577 161.773 90.335 161.314 91.3878C160.855 92.4407 160.208 93.3392 159.366 94.0833C158.527 94.8298 157.543 95.4011 156.413 95.7997C155.283 96.1983 154.041 96.3964 152.683 96.3964H146.371V79.2788H152.759C154.608 79.2788 156.224 79.6359 157.61 80.3478C158.993 81.0597 160.069 82.0573 160.842 83.3359C161.614 84.6168 161.999 86.1212 161.999 87.8514H162.001ZM158.184 87.8514C158.184 86.817 157.958 85.9185 157.508 85.1559C157.059 84.3934 156.427 83.7944 155.611 83.3612C154.797 82.9281 153.845 82.7115 152.759 82.7115H150.087V93.065H152.683C153.497 93.065 154.237 92.9429 154.898 92.6964C155.56 92.4499 156.141 92.102 156.641 91.6528C157.142 91.2035 157.524 90.6575 157.787 90.0124C158.05 89.3674 158.181 88.6486 158.181 87.8491L158.184 87.8514Z" fill="#3D3D3D"/>
</svg>
