<svg width="184" height="123" viewBox="0 0 184 123" fill="none" xmlns="http://www.w3.org/2000/svg">
<path d="M143.116 60.9746H135.161C134.405 59.03 133.541 57.3735 129.078 57.3735C126.018 57.3735 124.687 58.6699 124.687 59.9303C124.687 61.1906 125.802 62.487 129.186 63.2432L136.385 65.1518C138.402 65.6151 140.198 66.7598 141.47 68.3931C142.742 70.0264 143.412 72.0483 143.368 74.1183C143.431 75.4111 143.238 76.7036 142.8 77.9213C142.361 79.1389 141.686 80.2575 140.812 81.2124C139.264 82.8328 136.889 84.8134 129.078 84.8134C118.28 84.8134 114.68 78.0435 114.68 74.0103H123.031C123.859 76.9992 125.91 78.1155 129.978 78.1155C132.785 78.1155 135.233 77.1432 135.233 74.9826C135.233 72.822 133.469 72.1378 131.202 71.3816L125.515 69.8331C123.137 69.3238 120.885 68.3444 118.892 66.9523C117.898 66.1135 117.11 65.0568 116.591 63.8643C116.072 62.6717 115.834 61.3755 115.897 60.0761C115.96 58.7768 116.321 57.5095 116.952 56.3725C117.584 55.2355 118.469 54.2596 119.539 53.5204C122.222 51.5167 125.518 50.5108 128.862 50.6756C132.38 50.5396 135.846 51.5645 138.725 53.5925C139.933 54.446 140.949 55.5444 141.705 56.8162C142.462 58.088 142.942 59.5048 143.116 60.9746ZM9 38C9 38.2881 25.6295 84.5973 25.6295 84.5973H35.492L50.7177 46.0663H145.204L145.779 38H43.4468L30.8127 69.9772L19.4384 38H9ZM90.7077 67.9606L103.054 84.5973H110.757V51.6479H101.866V69.6531L90.6717 51.6479H82.141V84.5973H90.7077V67.9606ZM43.6268 84.5973H53.1294L54.8931 79.4479H67.4192L69.255 84.5973H78.5776L66.5914 51.6479H56.5849L43.6268 84.5973ZM57.5207 73.5062L61.1202 62.7031L64.7196 73.6862L57.5207 73.5062Z" fill="#444444"/>
<path d="M161.293 53.9191C158.767 53.905 156.294 54.64 154.186 56.0313C152.077 57.4225 150.428 59.4077 149.447 61.736C148.466 64.0643 148.196 66.6314 148.673 69.1128C149.149 71.5943 150.349 73.879 152.123 75.6782C153.896 77.4775 156.163 78.7106 158.636 79.2219C161.109 79.7331 163.679 79.4996 166.02 78.5507C168.361 77.6019 170.368 75.9803 171.788 73.8908C173.208 71.8013 173.978 69.3376 173.999 66.8108C174.028 65.1251 173.72 63.4506 173.094 61.8853C172.468 60.32 171.536 58.8955 170.353 57.6949C169.169 56.4944 167.759 55.5421 166.203 54.8938C164.647 54.2455 162.978 53.9141 161.293 53.9191V53.9191ZM161.293 77.3979C158.719 77.0309 156.364 75.7472 154.66 73.7825C152.956 71.8177 152.018 69.3039 152.018 66.7028C152.018 64.1017 152.956 61.5879 154.66 59.6231C156.364 57.6584 158.719 56.3747 161.293 56.0077C162.705 55.9925 164.106 56.2631 165.411 56.8034C166.716 57.3437 167.898 58.1424 168.887 59.1516C169.876 60.1607 170.65 61.3595 171.163 62.6757C171.677 63.992 171.919 65.3985 171.875 66.8108C171.875 68.2072 171.599 69.5898 171.063 70.879C170.527 72.1682 169.741 73.3385 168.75 74.3226C167.76 75.3066 166.585 76.0849 165.293 76.6127C164.001 77.1405 162.617 77.4074 161.221 77.3979H161.293Z" fill="#444444"/>
<path d="M164.431 68.2479C165.319 67.9705 166.09 67.4066 166.624 66.6444C167.158 65.8822 167.424 64.9645 167.382 64.0347C167.382 61.1899 165.258 59.6055 162.019 59.6055H156.008V73.1453H158.995V68.7521H161.371L164.251 73.1453H167.85L164.431 68.2479ZM161.983 66.1593H158.995V62.1982H161.911C163.387 62.1982 164.323 62.8464 164.323 64.1788C164.323 65.5112 163.495 66.1593 161.983 66.1593Z" fill="#444444"/>
</svg>
