<svg width="184" height="123" viewBox="0 0 184 123" fill="none" xmlns="http://www.w3.org/2000/svg">
<g clip-path="url(#clip0_9243_527)">
<path d="M159.876 82.1864C159.772 82.1392 159.671 82.0781 159.561 82.0448C157.911 81.5381 157.536 80.9203 157.705 79.2503C158.032 75.9963 158.308 72.7368 158.608 69.4801C158.698 68.5097 159.429 67.9447 160.569 67.9572C161.72 67.9697 162.442 68.5458 162.528 69.5051C162.837 72.9687 163.144 76.4336 163.465 79.8958C163.538 80.6857 163.186 81.2382 162.542 81.6186C162.148 81.8518 161.701 81.999 161.278 82.185H159.876V82.1864Z" fill="#3D3D3D"/>
<path d="M4.29297 48.8348C6.12287 48.8348 7.80263 48.8167 9.47957 48.8611C9.65498 48.8653 9.92863 49.2179 9.97494 49.4456C10.8338 53.6935 11.6729 57.9456 12.4995 62.2018C12.811 63.808 13.0748 65.4239 13.3667 67.0342C13.4032 67.2341 13.4678 67.4284 13.566 67.8088C13.8887 66.2568 14.1498 64.8811 14.4641 63.5192C15.5446 58.8465 16.6504 54.178 17.7254 49.5039C17.8461 48.9764 18.0874 48.8015 18.6305 48.8167C19.9847 48.8528 21.3417 48.8556 22.6959 48.8167C23.2768 48.8001 23.5084 48.9889 23.622 49.5566C24.8064 55.4787 26.0189 61.3953 27.2229 67.3132C27.2384 67.3923 27.2594 67.4701 27.3857 67.5534C27.6018 66.3831 27.7969 65.2087 28.0368 64.0426C29.0318 59.2102 30.0492 54.382 31.0329 49.5469C31.148 48.9805 31.3865 48.8001 31.9661 48.8153C33.4325 48.8542 34.9004 48.8278 36.4693 48.8278C36.4005 49.1582 36.3626 49.3984 36.2995 49.6316C34.2521 57.2737 32.1948 64.913 30.167 72.5592C30.0001 73.1895 29.7334 73.5338 29.0556 73.5351C28.4031 73.5351 27.7435 73.6379 27.0994 73.5712C25.2779 73.3824 24.1735 72.308 23.7273 70.6088C23.2642 68.8472 22.8629 67.0689 22.498 65.285C21.8328 62.0338 21.2154 58.7729 20.5783 55.5162C20.5446 55.3469 20.5011 55.1775 20.4688 55.0345C19.777 57.9664 19.0992 60.9052 18.3863 63.8357C17.672 66.7718 16.9101 69.6954 16.2 72.6314C16.0681 73.177 15.8646 73.5254 15.2499 73.5004C15.1812 73.4977 15.1124 73.5227 15.0423 73.5338C11.9536 74.0058 10.3019 73.0076 9.54132 70.016C7.87279 63.4706 6.27443 56.9044 4.64941 50.3451C4.53434 49.8801 4.42909 49.4123 4.29297 48.8334V48.8348Z" fill="#3D3D3D"/>
<path d="M77.707 57.8079C78.1223 57.3373 78.4226 56.9542 78.7679 56.6141C80.6399 54.7705 82.8922 54.1097 85.449 54.7358C88.1475 55.3952 89.374 57.3956 89.875 59.9097C90.0588 60.8315 90.129 61.7865 90.1388 62.7264C90.1697 65.9997 90.136 69.2745 90.1641 72.5479C90.1697 73.1837 89.969 73.3975 89.3249 73.3739C88.1588 73.3309 86.9884 73.3323 85.8209 73.3739C85.1978 73.3961 85.0196 73.1768 85.0238 72.5785C85.0476 69.5355 85.0504 66.4912 85.0238 63.4482C85.0168 62.6472 84.9578 61.8282 84.7712 61.0522C84.3923 59.471 83.3609 58.6631 81.9253 58.6783C80.4504 58.6936 79.158 59.7375 78.8366 61.2229C78.73 61.7143 78.6949 62.228 78.6935 62.7319C78.6809 66.0053 78.671 69.2801 78.7005 72.5535C78.7061 73.1934 78.5068 73.3975 77.8683 73.3753C76.7022 73.3337 75.5318 73.3392 74.3643 73.3739C73.7721 73.392 73.6093 73.1657 73.6121 72.6076C73.6318 69.4258 73.6458 66.2441 73.6037 63.0623C73.5925 62.2446 73.4816 61.3923 73.2206 60.6204C72.519 58.552 70.0646 58.0259 68.4718 59.5487C67.5597 60.4219 67.2145 61.5144 67.2159 62.7416C67.2201 65.9234 67.2159 69.1052 67.2159 72.2869C67.2159 73.0033 66.8417 73.3619 66.0932 73.3628C65.0183 73.3628 63.9434 73.3448 62.8685 73.3697C62.3436 73.3822 62.1275 73.2351 62.1289 72.6701C62.1472 66.9757 62.1429 61.2798 62.1331 55.5854C62.1331 55.1384 62.2285 54.9094 62.7492 54.9218C63.9406 54.9524 65.132 54.9496 66.3234 54.9218C66.8314 54.9107 66.9759 55.1287 66.9577 55.5826C66.9366 56.1282 66.9521 56.6765 67.0292 57.2832C68.3975 55.3883 70.2358 54.4804 72.5344 54.5234C74.8863 54.5665 76.6475 55.5826 77.7042 57.8079H77.707Z" fill="#3D3D3D"/>
<path d="M46.3543 71.3356C46.2182 71.5508 46.1186 71.8048 45.9403 71.9769C43.9547 73.8816 40.4184 74.3647 37.9752 73.082C34.3098 71.1565 34.0207 65.9049 37.4476 63.3715C39.0459 62.1887 40.9095 61.6876 42.8517 61.4418C43.7287 61.3308 44.6184 61.2864 45.5039 61.2628C46.0428 61.2475 46.1901 61.0365 46.113 60.5326C45.9291 59.3318 45.1826 58.5169 43.8943 58.2559C41.8652 57.8464 39.9567 58.3087 38.1085 59.1221C37.898 59.2152 37.6931 59.3179 37.3844 59.4636C37.0799 58.4322 36.7599 57.4563 36.5284 56.4596C36.4919 56.2999 36.8063 55.9654 37.0308 55.8571C38.7765 55.0158 40.6429 54.598 42.5724 54.5438C43.6614 54.5133 44.7784 54.5577 45.8421 54.7673C48.9238 55.3726 50.7396 57.3203 51.1887 60.3937C51.3052 61.1878 51.3304 61.9985 51.3459 62.8037C51.402 65.8438 51.4371 68.884 51.4806 71.9242C51.482 72.0616 51.4918 72.2004 51.5058 72.3379C51.6265 73.4998 51.5928 73.5165 50.3846 73.6206C48.6038 73.7747 47.2875 73.1403 46.3557 71.337L46.3543 71.3356ZM46.294 66.0965C46.294 65.705 46.3333 65.308 46.2757 64.9262C46.2519 64.7666 46.0245 64.5112 45.8884 64.5112C44.4122 64.5112 42.9415 64.6194 41.621 65.3594C40.3678 66.0604 39.8851 67.4694 40.4099 68.7549C40.8492 69.8322 42.0925 70.3694 43.4677 70.0765C45.4015 69.6656 46.2982 68.4051 46.294 66.0979V66.0965Z" fill="#3D3D3D"/>
<path d="M103.321 71.4174C102.196 72.6904 100.819 73.3998 99.2053 73.6871C95.575 74.334 92.5088 72.403 91.9306 69.0908C91.4591 66.3879 92.8919 63.817 95.5862 62.5676C97.6126 61.6291 99.7709 61.3043 101.988 61.2585C102.993 61.2377 103.08 61.1183 102.834 60.1604C102.547 59.0429 101.752 58.464 100.666 58.2502C98.658 57.8532 96.772 58.3113 94.9421 59.1082C94.7302 59.2012 94.5253 59.3094 94.1899 59.4733C93.8812 58.4071 93.5697 57.3854 93.3087 56.3526C93.282 56.2457 93.5149 56.0013 93.6777 55.9292C96.9137 54.4896 100.262 53.9787 103.7 55.0463C106.462 55.9028 108.048 58.3266 108.126 61.6069C108.177 63.7045 108.115 65.8049 108.158 67.9024C108.192 69.5364 108.295 71.1703 108.4 72.8014C108.426 73.2248 108.324 73.4178 107.888 73.5247C105.906 74.0092 104.536 73.415 103.324 71.4174H103.321ZM103.092 66.1158C103.092 65.7244 103.13 65.3287 103.074 64.9456C103.05 64.7804 102.833 64.5124 102.704 64.5138C101.181 64.5138 99.6614 64.6138 98.3198 65.4273C97.1509 66.1353 96.7201 67.5013 97.2098 68.7437C97.6266 69.7987 98.8363 70.3485 100.19 70.0972C102.135 69.7363 103.095 68.4216 103.091 66.1172L103.092 66.1158Z" fill="#3D3D3D"/>
<path d="M132.983 69.409C132.983 70.6334 133.003 71.7592 132.963 72.8823C132.956 73.06 132.708 73.3362 132.524 73.3821C130.878 73.7916 129.207 73.9832 127.537 73.5486C125.384 72.9892 124.165 71.4677 123.863 69.005C123.773 68.2748 123.72 67.5349 123.718 66.7992C123.707 61.1034 123.723 55.4089 123.697 49.7131C123.694 49.0287 123.859 48.7747 124.588 48.8122C125.753 48.8719 126.925 48.8441 128.092 48.8205C128.579 48.8108 128.748 48.9829 128.741 49.4632C128.718 50.9389 128.755 52.4146 128.723 53.8902C128.711 54.4511 128.874 54.6746 129.47 54.6496C130.45 54.6093 131.434 54.6579 132.415 54.6315C132.91 54.619 133.142 54.7523 133.126 55.2882C133.097 56.4168 133.097 57.5482 133.126 58.6768C133.14 59.2112 132.909 59.3473 132.415 59.3362C131.434 59.3126 130.451 59.3473 129.47 59.3223C128.955 59.3098 128.713 59.4347 128.721 60.0108C128.753 62.2931 128.711 64.5767 128.752 66.8589C128.793 69.0439 129.796 69.8449 131.992 69.5367C132.267 69.4979 132.542 69.4645 132.982 69.4076L132.983 69.409Z" fill="#3D3D3D"/>
<path d="M59.1903 61.0839C59.1903 64.8654 59.1903 68.6468 59.1903 72.4283C59.1903 73.3529 59.1875 73.3556 58.2852 73.357C57.1162 73.3598 55.9487 73.3418 54.7811 73.364C54.2942 73.3723 54.1328 73.1932 54.1328 72.7171C54.1426 64.9695 54.1426 57.2233 54.1328 49.4757C54.1328 49.0107 54.2689 48.8121 54.7699 48.8219C56.0076 48.8468 57.2467 48.851 58.4844 48.8191C59.0359 48.8052 59.2043 48.9898 59.2017 49.5326C59.1819 53.3835 59.1917 57.233 59.1917 61.0839H59.1903Z" fill="#3D3D3D"/>
<path d="M115.237 58.1983C115.865 57.382 116.365 56.5713 117.023 55.9133C118.075 54.8624 119.421 54.4446 120.924 54.5279C121.408 54.5557 121.62 54.7389 121.609 55.2525C121.579 56.6074 121.599 57.9623 121.599 59.3908C121.226 59.3741 120.931 59.3589 120.638 59.3464C117.591 59.22 115.882 60.7984 115.857 63.8094C115.833 66.6914 115.851 69.5733 115.848 72.4552C115.848 73.3589 115.846 73.3603 114.917 73.3617C113.725 73.3631 112.534 73.3464 111.342 73.3686C110.85 73.377 110.629 73.2381 110.631 72.7065C110.645 66.9884 110.643 61.2718 110.631 55.5538C110.631 55.0679 110.808 54.911 111.288 54.9235C112.361 54.9485 113.437 54.9555 114.511 54.9207C115.055 54.9027 115.265 55.0721 115.244 55.6218C115.21 56.47 115.235 57.3196 115.235 58.1997L115.237 58.1983Z" fill="#3D3D3D"/>
<path d="M157.636 42.0212C157.596 41.3591 157.896 40.869 158.421 40.4914C159.56 39.6696 161.504 39.6557 162.649 40.4706C163.262 40.9065 163.532 41.4715 163.455 42.2545C163.125 45.6431 162.83 49.0345 162.535 52.4259C162.444 53.4767 161.793 54.0556 160.614 54.0806C159.414 54.1056 158.702 53.5378 158.602 52.4661C158.278 48.9845 157.958 45.5029 157.636 42.0212Z" fill="#3D3D3D"/>
<path d="M141.379 52.1886C141.516 50.8088 142.149 49.7107 143.409 49.011C144.076 48.6404 144.727 48.6612 145.38 49.1138C148.265 51.1142 151.164 53.0938 154.049 55.0914C154.91 55.6869 155.037 56.5212 154.463 57.5207C153.881 58.5341 153.045 58.8673 152.085 58.4314C148.905 56.9863 145.733 55.519 142.549 54.0835C141.707 53.7046 141.407 53.0563 141.38 52.1886H141.379Z" fill="#3D3D3D"/>
<path d="M179.682 52.233C179.727 53.1506 179.32 53.7517 178.47 54.1349C175.329 55.5508 172.204 56.9974 169.071 58.4244C168.108 58.8631 167.245 58.5397 166.678 57.5526C166.096 56.5379 166.232 55.6619 167.089 55.0691C169.937 53.1007 172.796 51.1516 175.634 49.1693C176.413 48.6251 177.158 48.6473 177.91 49.1234C179.05 49.8467 179.638 50.8962 179.684 52.2316L179.682 52.233Z" fill="#3D3D3D"/>
<path d="M179.701 69.4512C179.637 71.1073 179.075 72.0999 178.048 72.8287C177.181 73.4423 176.472 73.4353 175.599 72.8342C172.768 70.8852 169.937 68.9347 167.109 66.9788C166.22 66.3638 166.085 65.4781 166.701 64.4439C167.274 63.4846 168.107 63.182 169.045 63.6096C172.178 65.0367 175.305 66.4818 178.447 67.8922C179.327 68.2878 179.742 68.9014 179.701 69.4498V69.4512Z" fill="#3D3D3D"/>
<path d="M141.379 69.8243C141.427 68.9747 141.704 68.3375 142.524 67.9682C145.729 66.5231 148.92 65.0461 152.121 63.5898C153.042 63.1706 153.87 63.5024 154.445 64.4866C155.032 65.4889 154.919 66.3427 154.077 66.9257C151.192 68.9233 148.292 70.9015 145.408 72.9005C144.734 73.367 144.056 73.3989 143.373 73.0074C142.128 72.2953 141.491 71.1958 141.379 69.8257V69.8243Z" fill="#3D3D3D"/>
</g>
<defs>
<clipPath id="clip0_9243_527">
<rect width="175.411" height="42.3195" fill="white" transform="translate(4.29297 39.8672)"/>
</clipPath>
</defs>
</svg>
