<svg width="184" height="123" viewBox="0 0 184 123" fill="none" xmlns="http://www.w3.org/2000/svg">
<path d="M57.4999 43H55.7543C55.3571 43 55.0352 43.3191 55.0352 43.7127V57.4241C55.0352 57.8177 55.3571 58.1367 55.7543 58.1367H57.4999C57.8971 58.1367 58.2191 57.8177 58.2191 57.4241V43.7127C58.2191 43.3191 57.8971 43 57.4999 43Z" fill="#3D3D3D"/>
<path d="M134.16 78.8862H131.988C131.426 78.8862 130.969 78.4334 130.969 77.8766V64.7591C130.969 64.2024 131.426 63.7495 131.988 63.7495H134.16V78.8862Z" fill="#3D3D3D"/>
<path d="M79.1661 58.1449H68.8803C65.8761 58.1449 63.4414 55.7322 63.4414 52.7554V45.1907C63.4414 44.0697 64.3554 43.1641 65.4866 43.1641H66.1084C66.3931 43.1641 66.6328 43.3942 66.6328 43.6837V52.7554C66.6328 53.9877 67.6367 54.9824 68.8803 54.9824H79.1661C79.6081 54.9824 79.9677 55.3388 79.9677 55.7768V57.3432C79.9677 57.7811 79.6081 58.1375 79.1661 58.1375V58.1449Z" fill="#3D3D3D"/>
<path d="M98.9571 58.1449H88.6713C85.6672 58.1449 83.2324 55.7322 83.2324 52.7554V45.1907C83.2324 44.0697 84.1464 43.1641 85.2776 43.1641H85.8994C86.1841 43.1641 86.4238 43.3942 86.4238 43.6837V52.7554C86.4238 53.9877 87.4277 54.9824 88.6713 54.9824H98.9571C99.3991 54.9824 99.7587 55.3388 99.7587 55.7768V57.3432C99.7587 57.7811 99.3991 58.1375 98.9571 58.1375V58.1449Z" fill="#3D3D3D"/>
<path d="M120.505 58.1367H109.417C105.192 58.1367 102.562 55.2341 102.562 50.5572C102.562 45.8804 105.125 43 109.417 43H120.505V46.155H109.417C108.511 46.155 105.754 46.155 105.754 50.5572C105.754 53.4896 106.99 54.9743 109.417 54.9743H120.505V58.1293V58.1367Z" fill="#3D3D3D"/>
<path d="M123.418 58.1367H112.33V54.9817H123.418C124.324 54.9817 127.081 54.9817 127.081 50.5795C127.081 47.6472 125.845 46.1625 123.418 46.1625H112.33V43H123.418C127.643 43 130.272 45.9026 130.272 50.5795C130.272 55.2564 127.71 58.1367 123.418 58.1367Z" fill="#3D3D3D"/>
<path d="M84.8055 78.8862H73.718C69.4928 78.8862 66.8633 75.9836 66.8633 71.3067C66.8633 66.6299 69.4254 63.7495 73.718 63.7495H84.8055V66.9045H73.718C72.8116 66.9045 70.0547 66.9045 70.0547 71.3067C70.0547 74.2391 71.2908 75.7238 73.718 75.7238H84.8055V78.8788V78.8862Z" fill="#3D3D3D"/>
<path d="M87.7203 78.8861H76.6328V75.7311H87.7203C88.6267 75.7311 91.3836 75.7311 91.3836 71.3289C91.3836 68.3966 90.1475 66.9119 87.7203 66.9119H76.6328V63.7568H87.7203C91.9455 63.7568 94.575 66.6595 94.575 71.3363C94.575 76.0132 92.0129 78.8936 87.7203 78.8936V78.8861Z" fill="#3D3D3D"/>
<path d="M116.862 78.8862H105.775C101.549 78.8862 98.9199 75.9836 98.9199 71.3067C98.9199 66.6299 101.482 63.7495 105.775 63.7495H116.862V66.9045H105.775C104.868 66.9045 102.111 66.9045 102.111 71.3067C102.111 74.2391 103.347 75.7238 105.775 75.7238H116.862V78.8788V78.8862Z" fill="#3D3D3D"/>
<path d="M119.779 78.8861H108.691V75.7311H119.779C120.685 75.7311 123.442 75.7311 123.442 71.3289C123.442 68.3966 122.206 66.9119 119.779 66.9119H108.691V63.7568H119.779C124.004 63.7568 126.634 66.6595 126.634 71.3363C126.634 76.0132 124.072 78.8936 119.779 78.8936V78.8861Z" fill="#3D3D3D"/>
<path d="M148.59 78.8861H134.049V75.7311H148.59C149.496 75.7311 152.253 75.7311 152.253 71.3289C152.253 68.3966 151.017 66.9119 148.59 66.9119H134.049V63.7568H148.59C152.815 63.7568 155.445 66.6595 155.445 71.3363C155.445 76.0132 152.883 78.8936 148.59 78.8936V78.8861Z" fill="#3D3D3D"/>
<path d="M42.8088 54.128C42.5466 54.6402 42.0297 55.004 41.4378 55.0188C40.846 55.0337 40.2916 54.7144 40.0294 54.2022L35.4671 44.9524C34.9352 43.8686 33.8414 43.193 32.6128 43.1856C31.3842 43.1856 30.283 43.8389 29.7361 44.9153L25.0389 54.128C24.7767 54.6402 24.2523 55.004 23.6679 55.0114C23.0836 55.0188 22.5292 54.707 22.2595 54.1799L17.3301 44.507C16.8581 43.5865 15.8992 43 14.8429 43H13L19.4127 55.583C20.2218 57.1642 21.84 58.1442 23.638 58.1442C25.4359 58.1442 27.0616 57.1642 27.8632 55.583L32.5978 46.3184L37.1677 55.583C37.9768 57.1642 39.5949 58.1442 41.3929 58.1442C43.1909 58.1442 44.8165 57.1642 45.6181 55.583L52.0458 43H50.2029C49.1466 43 48.1877 43.5865 47.7157 44.507L42.8088 54.128Z" fill="#3D3D3D"/>
<path d="M55.3261 74.8774C55.0638 75.3896 54.5469 75.7534 53.9551 75.7682C53.3633 75.7831 52.8089 75.4639 52.5467 74.9516L47.9844 65.7092C47.4525 64.6254 46.3587 63.9498 45.1301 63.9424C43.9015 63.9424 42.8002 64.5957 42.2533 65.6721L37.5561 74.8848C37.2939 75.3971 36.7695 75.7608 36.1852 75.7682C35.6009 75.7757 35.0465 75.4639 34.7768 74.9368L29.8399 65.2638C29.3679 64.3433 28.409 63.7568 27.3527 63.7568H25.5098L31.9225 76.3324C32.7316 77.9137 34.3498 78.8936 36.1477 78.8936C37.9457 78.8936 39.5714 77.9137 40.373 76.3324L45.1076 67.0678L49.6774 76.3324C50.4865 77.9137 52.1047 78.8936 53.9027 78.8936C55.7006 78.8936 57.3263 77.9137 58.1279 76.3324L64.5406 63.7568H62.6977C61.6414 63.7568 60.6825 64.3433 60.2105 65.2638L55.3036 74.8848L55.3261 74.8774Z" fill="#3D3D3D"/>
<path d="M160.756 54.128C160.494 54.6402 159.977 55.004 159.385 55.0188C158.793 55.0337 158.239 54.7144 157.976 54.2022L153.414 44.9524C152.882 43.8686 151.788 43.193 150.56 43.1856C149.331 43.1856 148.23 43.8389 147.683 44.9153L142.986 54.128C142.724 54.6402 142.199 55.004 141.615 55.0114C141.031 55.0188 140.476 54.707 140.206 54.1799L135.27 44.507C134.798 43.5865 133.839 43 132.782 43H130.939L137.352 55.583C138.161 57.1642 139.779 58.1442 141.577 58.1442C143.375 58.1442 145.001 57.1642 145.803 55.583L150.537 46.3184L155.107 55.583C155.916 57.1642 157.534 58.1442 159.332 58.1442C161.13 58.1442 162.756 57.1642 163.558 55.583L170 43H168.157C167.101 43 166.142 43.5865 165.67 44.507L160.763 54.128H160.756Z" fill="#3D3D3D"/>
<path d="M157.331 79.2555C156.295 79.2555 155.619 78.5858 155.619 77.6065C155.619 76.6272 156.295 75.9575 157.331 75.9575C158.367 75.9575 159.037 76.6272 159.037 77.6065C159.037 78.5858 158.367 79.2555 157.331 79.2555ZM157.331 78.9269C158.153 78.9269 158.664 78.3962 158.664 77.6065C158.664 76.8168 158.153 76.2861 157.331 76.2861C156.504 76.2861 155.992 76.8168 155.992 77.6065C155.992 78.3962 156.504 78.9269 157.331 78.9269ZM158.039 77.2653C158.039 77.4675 157.938 77.6002 157.742 77.657C157.925 77.7013 158.014 77.8276 158.014 78.0045V78.2636C158.014 78.3331 158.026 78.3899 158.039 78.4278H157.635C157.616 78.3836 157.597 78.3331 157.597 78.2636V78.0361C157.597 77.8466 157.483 77.8023 157.338 77.8023H157.11V78.4278H156.693V76.7852H157.477C157.837 76.7852 158.039 76.9684 158.039 77.2653ZM157.622 77.2906C157.622 77.1579 157.552 77.1011 157.388 77.1011H157.11V77.4928H157.388C157.552 77.4928 157.622 77.4359 157.622 77.2906Z" fill="#3D3D3D"/>
</svg>
