<svg width="184" height="123" viewBox="0 0 184 123" fill="none" xmlns="http://www.w3.org/2000/svg">
<path d="M26.6238 71.6663V95.4658H23.2832V71.6663H26.6238Z" fill="#3D3D3D"/>
<path d="M42.5086 96.041L31.7241 71.6663H35.6821L43.6705 91.1517L50.8601 71.6663H52.6757L43.0895 96.041H42.5086Z" fill="#3D3D3D"/>
<path d="M66.9344 95.4658H63.4122V86.6219L55.2058 71.6663H59.1638L65.8813 85.3276L72.1632 71.6663H73.9787L66.9344 86.4421V95.4658Z" fill="#3D3D3D"/>
<path d="M105.048 71.6663H106.864L97.8584 96.0051H97.2775L91.7219 81.2652L86.2752 96.0051H85.6942L76.5075 71.6663H80.4654L86.8562 91.1517L90.923 79.1441L88.0907 71.6663H92.0487L98.4394 91.1517L105.048 71.6663Z" fill="#3D3D3D"/>
<path d="M115.304 71.6663V95.4658H111.963V71.6663H115.304Z" fill="#3D3D3D"/>
<path d="M125.924 75.8006C125.924 76.8552 126.335 77.8379 127.158 78.7486C128.005 79.6354 129.022 80.4263 130.208 81.1214C131.419 81.7925 132.617 82.4875 133.803 83.2065C134.989 83.9016 135.994 84.7644 136.817 85.795C137.664 86.8256 138.088 87.964 138.088 89.2103C138.088 91.1757 137.35 92.7815 135.873 94.0278C134.42 95.2741 132.448 95.8972 129.954 95.8972C127.461 95.8972 124.992 95.4299 122.547 94.4951V92.8054C125.016 94.0278 127.11 94.6389 128.828 94.6389C130.571 94.6389 131.927 94.2195 132.895 93.3807C133.864 92.5418 134.348 91.3794 134.348 89.8934C134.348 88.8868 133.948 87.976 133.15 87.1611C132.351 86.3223 131.382 85.6033 130.245 85.0041C129.107 84.3809 127.969 83.7458 126.831 83.0987C125.694 82.4516 124.725 81.6367 123.926 80.654C123.128 79.6474 122.728 78.437 122.728 77.023C122.728 75.6089 123.358 74.2907 124.616 73.0684C125.899 71.846 127.8 71.2349 130.317 71.2349C131.963 71.2349 134.045 71.6064 136.563 72.3493L136.2 74.794C132.932 73.4039 130.136 72.7089 127.812 72.7089C126.553 73.308 125.924 74.3386 125.924 75.8006Z" fill="#3D3D3D"/>
<path d="M144.938 95.4658V71.6663H159.499L159.136 74.075L152.382 72.9605C151.196 72.9605 149.889 73.1642 148.461 73.5717V82.3078H156.522V83.6739H148.461V94.1716L159.717 93.0571L159.354 95.4658H144.938Z" fill="#3D3D3D"/>
<path fill-rule="evenodd" clip-rule="evenodd" d="M86.0996 41.34C86.0996 33.582 92.3985 27.2832 100.156 27.2832C100.156 35.0412 93.8576 41.34 86.0996 41.34ZM67.0801 41.3091C80.4524 41.3091 91.3122 52.0457 91.335 65.2781C91.3746 52.0599 102.228 41.3401 115.59 41.3401C115.59 54.5917 104.721 65.3508 91.3349 65.3508L91.3349 65.3198C77.9486 65.3198 67.0801 54.5607 67.0801 41.3091Z" fill="#3D3D3D"/>
</svg>
